<svg width="19" height="22" viewBox="0 0 19 22" fill="none" xmlns="http://www.w3.org/2000/svg">
<path d="M18.2607 17.1085C17.9317 17.8687 17.5421 18.5685 17.0908 19.2119C16.4757 20.089 15.972 20.6961 15.5838 21.0332C14.9821 21.5866 14.3374 21.87 13.647 21.8861C13.1514 21.8861 12.5537 21.7451 11.8579 21.459C11.1599 21.1742 10.5184 21.0332 9.93187 21.0332C9.31671 21.0332 8.65696 21.1742 7.95127 21.459C7.2445 21.7451 6.67514 21.8942 6.23983 21.9089C5.57779 21.9371 4.9179 21.6457 4.25922 21.0332C3.83882 20.6665 3.31298 20.0379 2.68304 19.1474C2.00717 18.1965 1.45151 17.0937 1.0162 15.8366C0.549992 14.4786 0.316284 13.1637 0.316284 11.8907C0.316284 10.4324 0.631386 9.17467 1.26253 8.1207C1.75855 7.27411 2.41844 6.6063 3.24434 6.11605C4.07024 5.6258 4.96263 5.37598 5.92365 5.35999C6.44949 5.35999 7.13907 5.52265 7.99599 5.84232C8.8505 6.16306 9.39918 6.32572 9.63974 6.32572C9.81958 6.32572 10.4291 6.13553 11.4624 5.75636C12.4395 5.40472 13.2642 5.25912 13.9398 5.31647C15.7705 5.46422 17.1459 6.18589 18.0606 7.48606C16.4233 8.47811 15.6134 9.8676 15.6295 11.6501C15.6443 13.0385 16.148 14.1939 17.1379 15.1113C17.5865 15.537 18.0875 15.8661 18.6449 16.0998C18.524 16.4504 18.3964 16.7862 18.2607 17.1085ZM14.062 0.586441C14.062 1.67467 13.6645 2.69075 12.872 3.63122C11.9157 4.74926 10.759 5.39532 9.50461 5.29337C9.48863 5.16282 9.47936 5.02541 9.47936 4.88103C9.47936 3.83632 9.93415 2.71829 10.7418 1.80414C11.145 1.34129 11.6578 0.956438 12.2797 0.649433C12.9002 0.34701 13.4872 0.179763 14.0392 0.151123C14.0553 0.296603 14.062 0.442092 14.062 0.586426V0.586441Z" fill="black"/>
</svg>
