<svg width="36" height="48" viewBox="0 0 36 48" fill="none" xmlns="http://www.w3.org/2000/svg">
<g clip-path="url(#clip0_1677:3967)">
<path d="M35.5551 0C31.9594 5.26306 24.4679 3.71305 17.3806 3.63545C9.15277 3.54428 1.88738 9.06535 0.310644 16.895C-0.667812 21.7623 0.670812 26.7169 4.24648 29.8712C8.48646 5.64523 38.4044 34.3098 35.5551 0Z" fill="#53B98A"/>
<path d="M29.3961 19.3125C26.4447 23.6347 20.2919 22.3621 14.4712 22.2981C7.714 22.2244 1.74921 26.7561 0.45461 33.187C-0.349766 37.1833 0.750748 41.2533 3.68812 43.8431C7.16974 23.947 31.7352 47.4863 29.3961 19.3125Z" fill="#53B98A"/>
<path d="M11.5118 48.0031C14.5817 48.0031 17.0704 45.5903 17.0704 42.6139C17.0704 39.6375 14.5817 37.2246 11.5118 37.2246C8.44181 37.2246 5.95312 39.6375 5.95312 42.6139C5.95312 45.5903 8.44181 48.0031 11.5118 48.0031Z" fill="#53B98A"/>
</g>
<defs>
<clipPath id="clip0_1677:3967">
<rect width="35.7447" height="48" fill="white"/>
</clipPath>
</defs>
</svg>
