<svg width="24" height="32" viewBox="0 0 24 32" fill="none" xmlns="http://www.w3.org/2000/svg">
<g clip-path="url(#clip0_1677:3961)">
<path d="M23.7034 0C21.3063 3.50871 16.3119 2.47537 11.5871 2.42364C6.10185 2.36285 1.25825 6.04357 0.207096 11.2633C-0.445208 14.5082 0.447208 17.8113 2.83099 19.9142C5.65764 3.76349 25.603 22.8732 23.7034 0Z" fill="#53B98A"/>
<path d="M19.5974 12.875C17.6298 15.7565 13.5279 14.9081 9.64744 14.8654C5.14267 14.8162 1.16614 17.8374 0.303073 22.1246C-0.233177 24.7888 0.500499 27.5022 2.45875 29.2287C4.77983 15.9647 21.1568 31.6575 19.5974 12.875Z" fill="#53B98A"/>
<path d="M7.67451 32.0021C9.72114 32.0021 11.3803 30.3935 11.3803 28.4092C11.3803 26.425 9.72114 24.8164 7.67451 24.8164C5.62788 24.8164 3.96875 26.425 3.96875 28.4092C3.96875 30.3935 5.62788 32.0021 7.67451 32.0021Z" fill="#53B98A"/>
</g>
<defs>
<clipPath id="clip0_1677:3961">
<rect width="23.8298" height="32" fill="white"/>
</clipPath>
</defs>
</svg>
