<svg width="263" height="20" viewBox="0 0 263 20" fill="none" xmlns="http://www.w3.org/2000/svg">
<path d="M0.872 2.008H7.496C8.136 2.008 8.768 2.088 9.392 2.248C10.016 2.392 10.568 2.64 11.048 2.992C11.544 3.328 11.944 3.768 12.248 4.312C12.552 4.856 12.704 5.512 12.704 6.28C12.704 7.24 12.432 8.032 11.888 8.656C11.344 9.28 10.632 9.728 9.752 10V10.048C10.824 10.192 11.704 10.608 12.392 11.296C13.08 11.984 13.424 12.904 13.424 14.056C13.424 14.984 13.24 15.768 12.872 16.408C12.504 17.032 12.016 17.536 11.408 17.92C10.816 18.304 10.128 18.584 9.344 18.76C8.576 18.92 7.792 19 6.992 19H0.872V2.008ZM3.896 8.92H6.584C7.592 8.92 8.36 8.72 8.888 8.32C9.416 7.92 9.68 7.352 9.68 6.616C9.68 5.848 9.408 5.304 8.864 4.984C8.32 4.664 7.472 4.504 6.32 4.504H3.896V8.92ZM3.896 16.456H6.608C6.992 16.456 7.408 16.432 7.856 16.384C8.304 16.32 8.712 16.2 9.08 16.024C9.464 15.848 9.776 15.592 10.016 15.256C10.272 14.92 10.4 14.472 10.4 13.912C10.4 13.016 10.096 12.392 9.488 12.04C8.88 11.688 7.96 11.512 6.728 11.512H3.896V16.456ZM16.2671 7.48H19.0271V9.4H19.0751C19.3951 8.728 19.8431 8.184 20.4191 7.768C20.9951 7.352 21.6671 7.144 22.4351 7.144C22.5471 7.144 22.6671 7.152 22.7951 7.168C22.9231 7.168 23.0351 7.184 23.1311 7.216V9.856C22.9391 9.808 22.7711 9.776 22.6271 9.76C22.4991 9.744 22.3711 9.736 22.2431 9.736C21.5871 9.736 21.0591 9.856 20.6591 10.096C20.2591 10.336 19.9471 10.624 19.7231 10.96C19.4991 11.296 19.3471 11.64 19.2671 11.992C19.1871 12.344 19.1471 12.624 19.1471 12.832V19H16.2671V7.48ZM32.6994 12.088C32.6994 11.72 32.6434 11.368 32.5314 11.032C32.4354 10.696 32.2754 10.4 32.0514 10.144C31.8274 9.888 31.5394 9.688 31.1874 9.544C30.8514 9.384 30.4514 9.304 29.9874 9.304C29.1234 9.304 28.3874 9.568 27.7794 10.096C27.1874 10.608 26.8594 11.272 26.7954 12.088H32.6994ZM35.5794 13.384C35.5794 13.512 35.5794 13.64 35.5794 13.768C35.5794 13.896 35.5714 14.024 35.5554 14.152H26.7954C26.8274 14.568 26.9314 14.952 27.1074 15.304C27.2994 15.64 27.5474 15.936 27.8514 16.192C28.1554 16.432 28.4994 16.624 28.8834 16.768C29.2674 16.912 29.6674 16.984 30.0834 16.984C30.8034 16.984 31.4114 16.856 31.9074 16.6C32.4034 16.328 32.8114 15.96 33.1314 15.496L35.0514 17.032C33.9154 18.568 32.2674 19.336 30.1074 19.336C29.2114 19.336 28.3874 19.2 27.6354 18.928C26.8834 18.64 26.2274 18.24 25.6674 17.728C25.1234 17.216 24.6914 16.592 24.3714 15.856C24.0674 15.104 23.9154 14.256 23.9154 13.312C23.9154 12.384 24.0674 11.544 24.3714 10.792C24.6914 10.024 25.1234 9.376 25.6674 8.848C26.2114 8.304 26.8514 7.888 27.5874 7.6C28.3394 7.296 29.1474 7.144 30.0114 7.144C30.8114 7.144 31.5474 7.28 32.2194 7.552C32.9074 7.808 33.4994 8.2 33.9954 8.728C34.4914 9.24 34.8754 9.888 35.1474 10.672C35.4354 11.44 35.5794 12.344 35.5794 13.384ZM45.38 17.536H45.308C45.02 18.048 44.556 18.472 43.916 18.808C43.276 19.128 42.548 19.288 41.732 19.288C41.268 19.288 40.78 19.224 40.268 19.096C39.772 18.984 39.308 18.792 38.876 18.52C38.46 18.232 38.108 17.864 37.82 17.416C37.548 16.952 37.412 16.384 37.412 15.712C37.412 14.848 37.652 14.16 38.132 13.648C38.628 13.136 39.26 12.744 40.028 12.472C40.796 12.2 41.644 12.024 42.572 11.944C43.516 11.848 44.436 11.8 45.332 11.8V11.512C45.332 10.792 45.068 10.264 44.54 9.928C44.028 9.576 43.412 9.4 42.692 9.4C42.084 9.4 41.5 9.528 40.94 9.784C40.38 10.04 39.916 10.352 39.548 10.72L38.06 8.968C38.716 8.36 39.468 7.904 40.316 7.6C41.18 7.296 42.052 7.144 42.932 7.144C43.956 7.144 44.796 7.288 45.452 7.576C46.124 7.864 46.652 8.24 47.036 8.704C47.42 9.168 47.684 9.688 47.828 10.264C47.988 10.84 48.068 11.416 48.068 11.992V19H45.38V17.536ZM45.332 13.744H44.684C44.22 13.744 43.732 13.768 43.22 13.816C42.708 13.848 42.236 13.936 41.804 14.08C41.372 14.208 41.012 14.4 40.724 14.656C40.436 14.896 40.292 15.232 40.292 15.664C40.292 15.936 40.348 16.168 40.46 16.36C40.588 16.536 40.748 16.68 40.94 16.792C41.132 16.904 41.348 16.984 41.588 17.032C41.828 17.08 42.068 17.104 42.308 17.104C43.3 17.104 44.052 16.84 44.564 16.312C45.076 15.784 45.332 15.064 45.332 14.152V13.744ZM63.1353 19H60.3993V17.272H60.3513C59.9513 17.944 59.3913 18.456 58.6713 18.808C57.9673 19.16 57.2073 19.336 56.3913 19.336C55.5113 19.336 54.7193 19.176 54.0153 18.856C53.3273 18.52 52.7353 18.08 52.2393 17.536C51.7593 16.976 51.3833 16.328 51.1113 15.592C50.8553 14.84 50.7273 14.04 50.7273 13.192C50.7273 12.344 50.8633 11.552 51.1353 10.816C51.4073 10.08 51.7913 9.44 52.2873 8.896C52.7833 8.352 53.3753 7.928 54.0633 7.624C54.7513 7.304 55.5033 7.144 56.3193 7.144C56.8473 7.144 57.3193 7.208 57.7353 7.336C58.1513 7.448 58.5113 7.592 58.8153 7.768C59.1353 7.944 59.4073 8.136 59.6313 8.344C59.8553 8.552 60.0393 8.752 60.1833 8.944H60.2553V0.855999H63.1353V19ZM53.6553 13.192C53.6553 13.64 53.7193 14.088 53.8473 14.536C53.9913 14.984 54.1993 15.384 54.4713 15.736C54.7433 16.088 55.0873 16.376 55.5033 16.6C55.9193 16.824 56.4073 16.936 56.9673 16.936C57.4953 16.936 57.9673 16.832 58.3833 16.624C58.7993 16.4 59.1513 16.112 59.4393 15.76C59.7433 15.408 59.9673 15.016 60.1113 14.584C60.2713 14.136 60.3513 13.688 60.3513 13.24C60.3513 12.792 60.2713 12.344 60.1113 11.896C59.9673 11.448 59.7433 11.048 59.4393 10.696C59.1513 10.344 58.7993 10.056 58.3833 9.832C57.9673 9.608 57.4953 9.496 56.9673 9.496C56.4073 9.496 55.9193 9.608 55.5033 9.832C55.0873 10.04 54.7433 10.32 54.4713 10.672C54.1993 11.024 53.9913 11.424 53.8473 11.872C53.7193 12.304 53.6553 12.744 53.6553 13.192ZM74.7463 12.088C74.7463 11.72 74.6903 11.368 74.5783 11.032C74.4823 10.696 74.3223 10.4 74.0983 10.144C73.8743 9.888 73.5863 9.688 73.2343 9.544C72.8983 9.384 72.4983 9.304 72.0343 9.304C71.1703 9.304 70.4343 9.568 69.8263 10.096C69.2343 10.608 68.9063 11.272 68.8423 12.088H74.7463ZM77.6263 13.384C77.6263 13.512 77.6263 13.64 77.6263 13.768C77.6263 13.896 77.6183 14.024 77.6023 14.152H68.8423C68.8743 14.568 68.9783 14.952 69.1543 15.304C69.3463 15.64 69.5943 15.936 69.8983 16.192C70.2023 16.432 70.5463 16.624 70.9303 16.768C71.3143 16.912 71.7143 16.984 72.1303 16.984C72.8503 16.984 73.4583 16.856 73.9543 16.6C74.4503 16.328 74.8583 15.96 75.1783 15.496L77.0983 17.032C75.9623 18.568 74.3143 19.336 72.1543 19.336C71.2583 19.336 70.4343 19.2 69.6823 18.928C68.9303 18.64 68.2743 18.24 67.7143 17.728C67.1703 17.216 66.7383 16.592 66.4183 15.856C66.1143 15.104 65.9623 14.256 65.9623 13.312C65.9623 12.384 66.1143 11.544 66.4183 10.792C66.7383 10.024 67.1703 9.376 67.7143 8.848C68.2583 8.304 68.8983 7.888 69.6343 7.6C70.3863 7.296 71.1943 7.144 72.0583 7.144C72.8583 7.144 73.5943 7.28 74.2663 7.552C74.9543 7.808 75.5463 8.2 76.0423 8.728C76.5383 9.24 76.9223 9.888 77.1943 10.672C77.4823 11.44 77.6263 12.344 77.6263 13.384ZM92.1275 19H89.3915V17.272H89.3435C88.9435 17.944 88.3835 18.456 87.6635 18.808C86.9595 19.16 86.1995 19.336 85.3835 19.336C84.5035 19.336 83.7115 19.176 83.0075 18.856C82.3195 18.52 81.7275 18.08 81.2315 17.536C80.7515 16.976 80.3755 16.328 80.1035 15.592C79.8475 14.84 79.7195 14.04 79.7195 13.192C79.7195 12.344 79.8555 11.552 80.1275 10.816C80.3995 10.08 80.7835 9.44 81.2795 8.896C81.7755 8.352 82.3675 7.928 83.0555 7.624C83.7435 7.304 84.4955 7.144 85.3115 7.144C85.8395 7.144 86.3115 7.208 86.7275 7.336C87.1435 7.448 87.5035 7.592 87.8075 7.768C88.1275 7.944 88.3995 8.136 88.6235 8.344C88.8475 8.552 89.0315 8.752 89.1755 8.944H89.2475V0.855999H92.1275V19ZM82.6475 13.192C82.6475 13.64 82.7115 14.088 82.8395 14.536C82.9835 14.984 83.1915 15.384 83.4635 15.736C83.7355 16.088 84.0795 16.376 84.4955 16.6C84.9115 16.824 85.3995 16.936 85.9595 16.936C86.4875 16.936 86.9595 16.832 87.3755 16.624C87.7915 16.4 88.1435 16.112 88.4315 15.76C88.7355 15.408 88.9595 15.016 89.1035 14.584C89.2635 14.136 89.3435 13.688 89.3435 13.24C89.3435 12.792 89.2635 12.344 89.1035 11.896C88.9595 11.448 88.7355 11.048 88.4315 10.696C88.1435 10.344 87.7915 10.056 87.3755 9.832C86.9595 9.608 86.4875 9.496 85.9595 9.496C85.3995 9.496 84.9115 9.608 84.4955 9.832C84.0795 10.04 83.7355 10.32 83.4635 10.672C83.1915 11.024 82.9835 11.424 82.8395 11.872C82.7115 12.304 82.6475 12.744 82.6475 13.192ZM110.434 5.56C110.114 5.144 109.658 4.8 109.066 4.528C108.49 4.24 107.906 4.096 107.314 4.096C106.962 4.096 106.61 4.144 106.258 4.24C105.906 4.32 105.586 4.456 105.298 4.648C105.01 4.824 104.77 5.064 104.578 5.368C104.402 5.656 104.314 6.008 104.314 6.424C104.314 6.808 104.394 7.136 104.554 7.408C104.714 7.68 104.93 7.912 105.202 8.104C105.49 8.296 105.834 8.464 106.234 8.608C106.634 8.752 107.074 8.896 107.554 9.04C108.098 9.216 108.658 9.416 109.234 9.64C109.826 9.864 110.362 10.16 110.842 10.528C111.338 10.896 111.738 11.36 112.042 11.92C112.362 12.48 112.522 13.176 112.522 14.008C112.522 14.92 112.354 15.72 112.018 16.408C111.682 17.08 111.234 17.64 110.674 18.088C110.114 18.536 109.458 18.872 108.706 19.096C107.954 19.32 107.162 19.432 106.33 19.432C105.226 19.432 104.146 19.232 103.09 18.832C102.034 18.416 101.17 17.808 100.498 17.008L102.658 14.992C103.074 15.568 103.626 16.024 104.314 16.36C105.018 16.696 105.706 16.864 106.378 16.864C106.73 16.864 107.09 16.824 107.458 16.744C107.826 16.648 108.154 16.496 108.442 16.288C108.746 16.08 108.986 15.824 109.162 15.52C109.354 15.2 109.45 14.808 109.45 14.344C109.45 13.896 109.346 13.528 109.138 13.24C108.93 12.936 108.65 12.68 108.298 12.472C107.946 12.248 107.53 12.056 107.05 11.896C106.57 11.736 106.066 11.568 105.538 11.392C105.026 11.232 104.514 11.04 104.002 10.816C103.49 10.592 103.026 10.296 102.61 9.928C102.21 9.56 101.882 9.112 101.626 8.584C101.37 8.04 101.242 7.368 101.242 6.568C101.242 5.704 101.418 4.96 101.77 4.336C102.138 3.712 102.61 3.2 103.186 2.8C103.778 2.384 104.442 2.08 105.178 1.888C105.93 1.68 106.69 1.576 107.458 1.576C108.322 1.576 109.194 1.728 110.074 2.032C110.97 2.336 111.746 2.792 112.402 3.4L110.434 5.56ZM114.736 13.192C114.736 12.28 114.896 11.456 115.216 10.72C115.552 9.968 116 9.328 116.56 8.8C117.12 8.272 117.784 7.864 118.552 7.576C119.32 7.288 120.136 7.144 121 7.144C121.864 7.144 122.68 7.288 123.448 7.576C124.216 7.864 124.88 8.272 125.44 8.8C126 9.328 126.44 9.968 126.76 10.72C127.096 11.456 127.264 12.28 127.264 13.192C127.264 14.104 127.096 14.936 126.76 15.688C126.44 16.44 126 17.088 125.44 17.632C124.88 18.16 124.216 18.576 123.448 18.88C122.68 19.184 121.864 19.336 121 19.336C120.136 19.336 119.32 19.184 118.552 18.88C117.784 18.576 117.12 18.16 116.56 17.632C116 17.088 115.552 16.44 115.216 15.688C114.896 14.936 114.736 14.104 114.736 13.192ZM117.664 13.192C117.664 13.64 117.728 14.088 117.856 14.536C118 14.984 118.208 15.384 118.48 15.736C118.752 16.088 119.096 16.376 119.512 16.6C119.928 16.824 120.424 16.936 121 16.936C121.576 16.936 122.072 16.824 122.488 16.6C122.904 16.376 123.248 16.088 123.52 15.736C123.792 15.384 123.992 14.984 124.12 14.536C124.264 14.088 124.336 13.64 124.336 13.192C124.336 12.744 124.264 12.304 124.12 11.872C123.992 11.424 123.792 11.024 123.52 10.672C123.248 10.32 122.904 10.04 122.488 9.832C122.072 9.608 121.576 9.496 121 9.496C120.424 9.496 119.928 9.608 119.512 9.832C119.096 10.04 118.752 10.32 118.48 10.672C118.208 11.024 118 11.424 117.856 11.872C117.728 12.304 117.664 12.744 117.664 13.192ZM130.512 9.784H128.328V7.48H130.512V5.776C130.512 5.088 130.584 4.432 130.728 3.808C130.888 3.168 131.144 2.608 131.496 2.128C131.864 1.648 132.344 1.272 132.936 0.999999C133.528 0.711999 134.272 0.568 135.168 0.568C135.488 0.568 135.752 0.584 135.96 0.615999C136.184 0.631999 136.408 0.671999 136.632 0.735999L136.44 3.184C136.28 3.136 136.104 3.096 135.912 3.064C135.736 3.032 135.544 3.016 135.336 3.016C134.92 3.016 134.584 3.096 134.328 3.256C134.072 3.416 133.872 3.624 133.728 3.88C133.6 4.136 133.512 4.416 133.464 4.72C133.416 5.024 133.392 5.32 133.392 5.608V7.48H136.056V9.784H133.392V19H130.512V9.784ZM135.83 9.784V7.48H137.846V4.144H140.678V7.48H143.558V9.784H140.678V15.136C140.678 15.648 140.766 16.072 140.942 16.408C141.134 16.744 141.55 16.912 142.19 16.912C142.382 16.912 142.59 16.896 142.814 16.864C143.038 16.816 143.238 16.752 143.414 16.672L143.51 18.928C143.254 19.024 142.95 19.096 142.598 19.144C142.246 19.208 141.91 19.24 141.59 19.24C140.822 19.24 140.198 19.136 139.718 18.928C139.238 18.704 138.854 18.408 138.566 18.04C138.294 17.656 138.102 17.224 137.99 16.744C137.894 16.248 137.846 15.72 137.846 15.16V9.784H135.83ZM160.45 5.56C160.13 5.144 159.674 4.8 159.082 4.528C158.506 4.24 157.922 4.096 157.33 4.096C156.978 4.096 156.626 4.144 156.274 4.24C155.922 4.32 155.602 4.456 155.314 4.648C155.026 4.824 154.786 5.064 154.594 5.368C154.418 5.656 154.33 6.008 154.33 6.424C154.33 6.808 154.41 7.136 154.57 7.408C154.73 7.68 154.946 7.912 155.218 8.104C155.506 8.296 155.85 8.464 156.25 8.608C156.65 8.752 157.09 8.896 157.57 9.04C158.114 9.216 158.674 9.416 159.25 9.64C159.842 9.864 160.378 10.16 160.858 10.528C161.354 10.896 161.754 11.36 162.058 11.92C162.378 12.48 162.538 13.176 162.538 14.008C162.538 14.92 162.37 15.72 162.034 16.408C161.698 17.08 161.25 17.64 160.69 18.088C160.13 18.536 159.474 18.872 158.722 19.096C157.97 19.32 157.178 19.432 156.346 19.432C155.242 19.432 154.162 19.232 153.106 18.832C152.05 18.416 151.186 17.808 150.514 17.008L152.674 14.992C153.09 15.568 153.642 16.024 154.33 16.36C155.034 16.696 155.722 16.864 156.394 16.864C156.746 16.864 157.106 16.824 157.474 16.744C157.842 16.648 158.17 16.496 158.458 16.288C158.762 16.08 159.002 15.824 159.178 15.52C159.37 15.2 159.466 14.808 159.466 14.344C159.466 13.896 159.362 13.528 159.154 13.24C158.946 12.936 158.666 12.68 158.314 12.472C157.962 12.248 157.546 12.056 157.066 11.896C156.586 11.736 156.082 11.568 155.554 11.392C155.042 11.232 154.53 11.04 154.018 10.816C153.506 10.592 153.042 10.296 152.626 9.928C152.226 9.56 151.898 9.112 151.642 8.584C151.386 8.04 151.258 7.368 151.258 6.568C151.258 5.704 151.434 4.96 151.786 4.336C152.154 3.712 152.626 3.2 153.202 2.8C153.794 2.384 154.458 2.08 155.194 1.888C155.946 1.68 156.706 1.576 157.474 1.576C158.338 1.576 159.21 1.728 160.09 2.032C160.986 2.336 161.762 2.792 162.418 3.4L160.45 5.56ZM171.831 7.144C172.583 7.144 173.223 7.28 173.751 7.552C174.295 7.808 174.735 8.152 175.071 8.584C175.423 9.016 175.679 9.512 175.839 10.072C175.999 10.632 176.079 11.208 176.079 11.8V19H173.199V12.664C173.199 12.328 173.175 11.984 173.127 11.632C173.079 11.264 172.975 10.936 172.815 10.648C172.671 10.344 172.455 10.096 172.167 9.904C171.895 9.712 171.527 9.616 171.063 9.616C170.599 9.616 170.199 9.704 169.863 9.88C169.527 10.056 169.247 10.296 169.023 10.6C168.799 10.888 168.631 11.216 168.519 11.584C168.407 11.952 168.351 12.328 168.351 12.712V19H165.471V0.855999H168.351V9.088H168.399C168.511 8.848 168.671 8.616 168.879 8.392C169.103 8.152 169.359 7.944 169.647 7.768C169.935 7.576 170.263 7.424 170.631 7.312C170.999 7.2 171.399 7.144 171.831 7.144ZM187.551 12.088C187.551 11.72 187.495 11.368 187.383 11.032C187.287 10.696 187.127 10.4 186.903 10.144C186.679 9.888 186.391 9.688 186.039 9.544C185.703 9.384 185.303 9.304 184.839 9.304C183.975 9.304 183.239 9.568 182.631 10.096C182.039 10.608 181.711 11.272 181.647 12.088H187.551ZM190.431 13.384C190.431 13.512 190.431 13.64 190.431 13.768C190.431 13.896 190.423 14.024 190.407 14.152H181.647C181.679 14.568 181.783 14.952 181.959 15.304C182.151 15.64 182.399 15.936 182.703 16.192C183.007 16.432 183.351 16.624 183.735 16.768C184.119 16.912 184.519 16.984 184.935 16.984C185.655 16.984 186.263 16.856 186.759 16.6C187.255 16.328 187.663 15.96 187.983 15.496L189.903 17.032C188.767 18.568 187.119 19.336 184.959 19.336C184.063 19.336 183.239 19.2 182.487 18.928C181.735 18.64 181.079 18.24 180.519 17.728C179.975 17.216 179.543 16.592 179.223 15.856C178.919 15.104 178.767 14.256 178.767 13.312C178.767 12.384 178.919 11.544 179.223 10.792C179.543 10.024 179.975 9.376 180.519 8.848C181.063 8.304 181.703 7.888 182.439 7.6C183.191 7.296 183.999 7.144 184.863 7.144C185.663 7.144 186.399 7.28 187.071 7.552C187.759 7.808 188.351 8.2 188.847 8.728C189.343 9.24 189.727 9.888 189.999 10.672C190.287 11.44 190.431 12.344 190.431 13.384ZM193.268 0.855999H196.148V19H193.268V0.855999ZM199.69 0.855999H202.57V19H199.69V0.855999ZM224.472 5.992C224.024 5.384 223.44 4.944 222.72 4.672C222 4.384 221.296 4.24 220.608 4.24C219.728 4.24 218.928 4.4 218.208 4.72C217.488 5.04 216.864 5.48 216.336 6.04C215.824 6.6 215.424 7.256 215.136 8.008C214.864 8.76 214.728 9.576 214.728 10.456C214.728 11.384 214.864 12.232 215.136 13C215.408 13.768 215.792 14.432 216.288 14.992C216.8 15.536 217.408 15.96 218.112 16.264C218.816 16.568 219.608 16.72 220.488 16.72C221.4 16.72 222.208 16.544 222.912 16.192C223.616 15.824 224.184 15.344 224.616 14.752L227.04 16.456C226.288 17.4 225.368 18.136 224.28 18.664C223.192 19.176 221.92 19.432 220.464 19.432C219.136 19.432 217.912 19.216 216.792 18.784C215.688 18.336 214.736 17.72 213.936 16.936C213.136 16.136 212.512 15.192 212.064 14.104C211.616 13 211.392 11.784 211.392 10.456C211.392 9.096 211.624 7.872 212.088 6.784C212.568 5.68 213.216 4.744 214.032 3.976C214.864 3.208 215.84 2.616 216.96 2.2C218.08 1.784 219.296 1.576 220.608 1.576C221.152 1.576 221.72 1.632 222.312 1.744C222.904 1.84 223.472 2 224.016 2.224C224.56 2.432 225.072 2.696 225.552 3.016C226.032 3.336 226.44 3.72 226.776 4.168L224.472 5.992ZM228.775 7.48H231.535V9.4H231.583C231.903 8.728 232.351 8.184 232.927 7.768C233.503 7.352 234.175 7.144 234.943 7.144C235.055 7.144 235.175 7.152 235.303 7.168C235.431 7.168 235.543 7.184 235.639 7.216V9.856C235.447 9.808 235.279 9.776 235.135 9.76C235.007 9.744 234.879 9.736 234.751 9.736C234.095 9.736 233.567 9.856 233.167 10.096C232.767 10.336 232.455 10.624 232.231 10.96C232.007 11.296 231.855 11.64 231.775 11.992C231.695 12.344 231.655 12.624 231.655 12.832V19H228.775V7.48ZM244.364 17.536H244.292C244.004 18.048 243.54 18.472 242.9 18.808C242.26 19.128 241.532 19.288 240.716 19.288C240.252 19.288 239.764 19.224 239.252 19.096C238.756 18.984 238.292 18.792 237.86 18.52C237.444 18.232 237.092 17.864 236.804 17.416C236.532 16.952 236.396 16.384 236.396 15.712C236.396 14.848 236.636 14.16 237.116 13.648C237.612 13.136 238.244 12.744 239.012 12.472C239.78 12.2 240.628 12.024 241.556 11.944C242.5 11.848 243.42 11.8 244.316 11.8V11.512C244.316 10.792 244.052 10.264 243.524 9.928C243.012 9.576 242.396 9.4 241.676 9.4C241.068 9.4 240.484 9.528 239.924 9.784C239.364 10.04 238.9 10.352 238.532 10.72L237.044 8.968C237.7 8.36 238.452 7.904 239.3 7.6C240.164 7.296 241.036 7.144 241.916 7.144C242.94 7.144 243.78 7.288 244.436 7.576C245.108 7.864 245.636 8.24 246.02 8.704C246.404 9.168 246.668 9.688 246.812 10.264C246.972 10.84 247.052 11.416 247.052 11.992V19H244.364V17.536ZM244.316 13.744H243.668C243.204 13.744 242.716 13.768 242.204 13.816C241.692 13.848 241.22 13.936 240.788 14.08C240.356 14.208 239.996 14.4 239.708 14.656C239.42 14.896 239.276 15.232 239.276 15.664C239.276 15.936 239.332 16.168 239.444 16.36C239.572 16.536 239.732 16.68 239.924 16.792C240.116 16.904 240.332 16.984 240.572 17.032C240.812 17.08 241.052 17.104 241.292 17.104C242.284 17.104 243.036 16.84 243.548 16.312C244.06 15.784 244.316 15.064 244.316 14.152V13.744ZM253.336 0.855999V8.944H253.408C253.552 8.752 253.736 8.552 253.96 8.344C254.184 8.136 254.448 7.944 254.752 7.768C255.072 7.592 255.44 7.448 255.856 7.336C256.272 7.208 256.744 7.144 257.272 7.144C258.088 7.144 258.84 7.304 259.528 7.624C260.216 7.928 260.808 8.352 261.304 8.896C261.8 9.44 262.184 10.08 262.456 10.816C262.728 11.552 262.864 12.344 262.864 13.192C262.864 14.04 262.728 14.84 262.456 15.592C262.2 16.328 261.824 16.976 261.328 17.536C260.848 18.08 260.256 18.52 259.552 18.856C258.864 19.176 258.08 19.336 257.2 19.336C256.384 19.336 255.616 19.16 254.896 18.808C254.192 18.456 253.64 17.944 253.24 17.272H253.192V19H250.456V0.855999H253.336ZM259.936 13.192C259.936 12.744 259.864 12.304 259.72 11.872C259.592 11.424 259.392 11.024 259.12 10.672C258.848 10.32 258.504 10.04 258.088 9.832C257.672 9.608 257.184 9.496 256.624 9.496C256.096 9.496 255.624 9.608 255.208 9.832C254.792 10.056 254.432 10.344 254.128 10.696C253.84 11.048 253.616 11.448 253.456 11.896C253.312 12.344 253.24 12.792 253.24 13.24C253.24 13.688 253.312 14.136 253.456 14.584C253.616 15.016 253.84 15.408 254.128 15.76C254.432 16.112 254.792 16.4 255.208 16.624C255.624 16.832 256.096 16.936 256.624 16.936C257.184 16.936 257.672 16.824 258.088 16.6C258.504 16.376 258.848 16.088 259.12 15.736C259.392 15.384 259.592 14.984 259.72 14.536C259.864 14.088 259.936 13.64 259.936 13.192Z" fill="#181818"/>
</svg>
