<svg width="866" height="80" viewBox="0 0 866 80" fill="none" xmlns="http://www.w3.org/2000/svg">
<path d="M43.7898 25.6C42.3232 23.7333 40.3898 22.2667 37.9898 21.2C35.6565 20.0667 33.3898 19.5 31.1898 19.5C30.0565 19.5 28.8898 19.6 27.6898 19.8C26.5565 20 25.5232 20.4 24.5898 21C23.6565 21.5333 22.8565 22.2667 22.1898 23.2C21.5898 24.0667 21.2898 25.2 21.2898 26.6C21.2898 27.8 21.5232 28.8 21.9898 29.6C22.5232 30.4 23.2565 31.1 24.1898 31.7C25.1898 32.3 26.3565 32.8667 27.6898 33.4C29.0232 33.8667 30.5232 34.3667 32.1898 34.9C34.5898 35.7 37.0898 36.6 39.6898 37.6C42.2898 38.5333 44.6565 39.8 46.7898 41.4C48.9232 43 50.6898 45 52.0898 47.4C53.4898 49.7333 54.1898 52.6667 54.1898 56.2C54.1898 60.2667 53.4232 63.8 51.8898 66.8C50.4232 69.7333 48.4232 72.1667 45.8898 74.1C43.3565 76.0333 40.4565 77.4667 37.1898 78.4C33.9232 79.3333 30.5565 79.8 27.0898 79.8C22.0232 79.8 17.1232 78.9333 12.3898 77.2C7.65651 75.4 3.72318 72.8667 0.589844 69.6L11.7898 58.2C13.5232 60.3333 15.7898 62.1333 18.5898 63.6C21.4565 65 24.2898 65.7 27.0898 65.7C28.3565 65.7 29.5898 65.5667 30.7898 65.3C31.9898 65.0333 33.0232 64.6 33.8898 64C34.8232 63.4 35.5565 62.6 36.0898 61.6C36.6232 60.6 36.8898 59.4 36.8898 58C36.8898 56.6667 36.5565 55.5333 35.8898 54.6C35.2232 53.6667 34.2565 52.8333 32.9898 52.1C31.7898 51.3 30.2565 50.6 28.3898 50C26.5898 49.3333 24.5232 48.6333 22.1898 47.9C19.9232 47.1667 17.6898 46.3 15.4898 45.3C13.3565 44.3 11.4232 43.0333 9.68984 41.5C8.02318 39.9 6.65651 38 5.58984 35.8C4.58984 33.5333 4.08984 30.8 4.08984 27.6C4.08984 23.6667 4.88984 20.3 6.48984 17.5C8.08984 14.7 10.1898 12.4 12.7898 10.6C15.3898 8.8 18.3232 7.5 21.5898 6.69999C24.8565 5.83333 28.1565 5.4 31.4898 5.4C35.4898 5.4 39.5565 6.13333 43.6898 7.59999C47.8898 9.06666 51.5565 11.2333 54.6898 14.1L43.7898 25.6ZM122.372 52.9C122.372 56.9667 121.639 60.6667 120.172 64C118.705 67.2667 116.705 70.0667 114.172 72.4C111.639 74.6667 108.705 76.4333 105.372 77.7C102.039 78.9667 98.4719 79.6 94.6719 79.6C90.9385 79.6 87.3719 78.9667 83.9719 77.7C80.6385 76.4333 77.7052 74.6667 75.1719 72.4C72.7052 70.0667 70.7385 67.2667 69.2719 64C67.8052 60.6667 67.0719 56.9667 67.0719 52.9C67.0719 48.8333 67.8052 45.1667 69.2719 41.9C70.7385 38.6333 72.7052 35.8667 75.1719 33.6C77.7052 31.3333 80.6385 29.6 83.9719 28.4C87.3719 27.2 90.9385 26.6 94.6719 26.6C98.4719 26.6 102.039 27.2 105.372 28.4C108.705 29.6 111.639 31.3333 114.172 33.6C116.705 35.8667 118.705 38.6333 120.172 41.9C121.639 45.1667 122.372 48.8333 122.372 52.9ZM106.572 52.9C106.572 51.3 106.305 49.7333 105.772 48.2C105.239 46.6667 104.472 45.3333 103.472 44.2C102.472 43 101.239 42.0333 99.7719 41.3C98.3052 40.5667 96.6052 40.2 94.6719 40.2C92.7385 40.2 91.0385 40.5667 89.5719 41.3C88.1052 42.0333 86.8719 43 85.8719 44.2C84.9385 45.3333 84.2052 46.6667 83.6719 48.2C83.2052 49.7333 82.9719 51.3 82.9719 52.9C82.9719 54.5 83.2052 56.0667 83.6719 57.6C84.2052 59.1333 84.9719 60.5333 85.9719 61.8C86.9719 63 88.2052 63.9667 89.6719 64.7C91.1385 65.4333 92.8385 65.8 94.7719 65.8C96.7052 65.8 98.4052 65.4333 99.8719 64.7C101.339 63.9667 102.572 63 103.572 61.8C104.572 60.5333 105.305 59.1333 105.772 57.6C106.305 56.0667 106.572 54.5 106.572 52.9ZM168.655 14.5C168.055 14.3 167.355 14.1333 166.555 14C165.755 13.8667 164.955 13.8 164.155 13.8C162.622 13.8 161.389 14.0667 160.455 14.6C159.522 15.1333 158.789 15.8667 158.255 16.8C157.722 17.6667 157.355 18.6667 157.155 19.8C156.955 20.9333 156.855 22.0667 156.855 23.2V28.2H167.955V40.5H156.855V78H140.455V40.5H131.355V28.2H140.455V23.4C140.455 20.3333 140.789 17.4333 141.455 14.7C142.122 11.9 143.255 9.46666 144.855 7.4C146.522 5.26666 148.722 3.6 151.455 2.4C154.255 1.13333 157.722 0.499996 161.855 0.499996C163.255 0.499996 164.622 0.599997 165.955 0.799999C167.355 0.93333 168.622 1.16666 169.755 1.5L168.655 14.5ZM194.54 40.5V59.5C194.54 61.8333 194.973 63.6 195.84 64.8C196.773 65.9333 198.407 66.5 200.74 66.5C201.54 66.5 202.373 66.4333 203.24 66.3C204.173 66.1667 204.94 65.9667 205.54 65.7L205.74 77.7C204.607 78.1 203.173 78.4333 201.44 78.7C199.707 79.0333 197.973 79.2 196.24 79.2C192.907 79.2 190.107 78.8 187.84 78C185.573 77.1333 183.74 75.9333 182.34 74.4C181.007 72.8 180.04 70.9333 179.44 68.8C178.84 66.6 178.54 64.1667 178.54 61.5V40.5H170.54V28.2H178.44V15.1H194.54V28.2H206.24V40.5H194.54ZM287.247 25.6C285.78 23.7333 283.847 22.2667 281.447 21.2C279.114 20.0667 276.847 19.5 274.647 19.5C273.514 19.5 272.347 19.6 271.147 19.8C270.014 20 268.98 20.4 268.047 21C267.114 21.5333 266.314 22.2667 265.647 23.2C265.047 24.0667 264.747 25.2 264.747 26.6C264.747 27.8 264.98 28.8 265.447 29.6C265.98 30.4 266.714 31.1 267.647 31.7C268.647 32.3 269.814 32.8667 271.147 33.4C272.48 33.8667 273.98 34.3667 275.647 34.9C278.047 35.7 280.547 36.6 283.147 37.6C285.747 38.5333 288.114 39.8 290.247 41.4C292.38 43 294.147 45 295.547 47.4C296.947 49.7333 297.647 52.6667 297.647 56.2C297.647 60.2667 296.88 63.8 295.347 66.8C293.88 69.7333 291.88 72.1667 289.347 74.1C286.814 76.0333 283.914 77.4667 280.647 78.4C277.38 79.3333 274.014 79.8 270.547 79.8C265.48 79.8 260.58 78.9333 255.847 77.2C251.114 75.4 247.18 72.8667 244.047 69.6L255.247 58.2C256.98 60.3333 259.247 62.1333 262.047 63.6C264.914 65 267.747 65.7 270.547 65.7C271.814 65.7 273.047 65.5667 274.247 65.3C275.447 65.0333 276.48 64.6 277.347 64C278.28 63.4 279.014 62.6 279.547 61.6C280.08 60.6 280.347 59.4 280.347 58C280.347 56.6667 280.014 55.5333 279.347 54.6C278.68 53.6667 277.714 52.8333 276.447 52.1C275.247 51.3 273.714 50.6 271.847 50C270.047 49.3333 267.98 48.6333 265.647 47.9C263.38 47.1667 261.147 46.3 258.947 45.3C256.814 44.3 254.88 43.0333 253.147 41.5C251.48 39.9 250.114 38 249.047 35.8C248.047 33.5333 247.547 30.8 247.547 27.6C247.547 23.6667 248.347 20.3 249.947 17.5C251.547 14.7 253.647 12.4 256.247 10.6C258.847 8.8 261.78 7.5 265.047 6.69999C268.314 5.83333 271.614 5.4 274.947 5.4C278.947 5.4 283.014 6.13333 287.147 7.59999C291.347 9.06666 295.014 11.2333 298.147 14.1L287.247 25.6ZM345.829 78V51C345.829 49.6 345.729 48.2667 345.529 47C345.329 45.7333 344.929 44.6333 344.329 43.7C343.796 42.7 343.062 41.9333 342.129 41.4C341.196 40.8 339.996 40.5 338.529 40.5C335.662 40.5 333.462 41.5333 331.929 43.6C330.396 45.6 329.629 48.1 329.629 51.1V78H313.229V2.4H329.629V34.5H329.829C330.962 32.5 332.762 30.7333 335.229 29.2C337.696 27.6 340.662 26.8 344.129 26.8C347.529 26.8 350.362 27.4 352.629 28.6C354.962 29.8 356.829 31.3667 358.229 33.3C359.696 35.1667 360.729 37.3333 361.329 39.8C361.996 42.2667 362.329 44.7333 362.329 47.2V78H345.829ZM414.048 47.4C414.048 44.8 413.214 42.5667 411.548 40.7C409.948 38.8333 407.514 37.9 404.248 37.9C402.648 37.9 401.181 38.1667 399.848 38.7C398.514 39.1667 397.348 39.8333 396.348 40.7C395.348 41.5667 394.548 42.6 393.948 43.8C393.348 44.9333 393.014 46.1333 392.948 47.4H414.048ZM429.148 53.7C429.148 54.3667 429.148 55.0333 429.148 55.7C429.148 56.3667 429.114 57 429.048 57.6H392.948C393.081 59 393.481 60.2667 394.148 61.4C394.881 62.5333 395.781 63.5333 396.848 64.4C397.981 65.2 399.214 65.8333 400.548 66.3C401.948 66.7667 403.381 67 404.848 67C407.448 67 409.648 66.5333 411.448 65.6C413.248 64.6 414.714 63.3333 415.848 61.8L427.248 69C424.914 72.4 421.814 75.0333 417.948 76.9C414.148 78.7 409.714 79.6 404.648 79.6C400.914 79.6 397.381 79.0333 394.048 77.9C390.714 76.7 387.781 75 385.248 72.8C382.781 70.5333 380.814 67.7667 379.348 64.5C377.948 61.2333 377.248 57.5 377.248 53.3C377.248 49.2333 377.948 45.5667 379.348 42.3C380.748 38.9667 382.648 36.1667 385.048 33.9C387.448 31.5667 390.281 29.7667 393.548 28.5C396.814 27.2333 400.348 26.6 404.148 26.6C407.814 26.6 411.181 27.2333 414.248 28.5C417.314 29.7 419.948 31.4667 422.148 33.8C424.348 36.1333 426.048 38.9667 427.248 42.3C428.514 45.6333 429.148 49.4333 429.148 53.7ZM444.518 78V2.4H461.118V78H444.518ZM479.303 78V2.4H495.903V78H479.303ZM607.088 68.2C603.955 71.8 600.088 74.6667 595.488 76.8C590.888 78.8667 585.588 79.9 579.588 79.9C574.122 79.9 569.055 79 564.388 77.2C559.788 75.4 555.788 72.8667 552.388 69.6C548.988 66.2667 546.322 62.3 544.388 57.7C542.455 53.1 541.488 48.0333 541.488 42.5C541.488 36.8333 542.455 31.7 544.388 27.1C546.388 22.5 549.122 18.6 552.588 15.4C556.055 12.1333 560.122 9.63333 564.788 7.9C569.455 6.16666 574.488 5.29999 579.888 5.29999C584.888 5.29999 589.788 6.19999 594.588 8C599.455 9.73333 603.388 12.3 606.388 15.7L594.788 27.3C593.188 25.1 591.088 23.4667 588.488 22.4C585.888 21.3333 583.222 20.8 580.488 20.8C577.488 20.8 574.722 21.3667 572.188 22.5C569.722 23.5667 567.588 25.0667 565.788 27C563.988 28.9333 562.588 31.2333 561.588 33.9C560.588 36.5 560.088 39.3667 560.088 42.5C560.088 45.7 560.588 48.6333 561.588 51.3C562.588 53.9667 563.955 56.2667 565.688 58.2C567.488 60.0667 569.622 61.5333 572.088 62.6C574.555 63.6667 577.255 64.2 580.188 64.2C583.588 64.2 586.555 63.5333 589.088 62.2C591.622 60.8667 593.655 59.1333 595.188 57L607.088 68.2ZM650.817 41.6C650.084 41.4 649.351 41.2667 648.617 41.2C647.951 41.1333 647.284 41.1 646.617 41.1C644.417 41.1 642.551 41.5 641.017 42.3C639.551 43.1 638.351 44.0667 637.417 45.2C636.551 46.3333 635.917 47.5667 635.517 48.9C635.117 50.2333 634.917 51.4 634.917 52.4V78H618.517V28.2H634.317V35.4H634.517C635.784 32.8667 637.584 30.8 639.917 29.2C642.251 27.6 644.951 26.8 648.017 26.8C648.684 26.8 649.317 26.8333 649.917 26.9C650.584 26.9667 651.117 27.0667 651.517 27.2L650.817 41.6ZM691.003 56.3H688.903C687.103 56.3 685.27 56.4 683.403 56.6C681.603 56.7333 679.97 57.0333 678.503 57.5C677.103 57.9667 675.936 58.6667 675.003 59.6C674.07 60.4667 673.603 61.6333 673.603 63.1C673.603 64.0333 673.803 64.8333 674.203 65.5C674.67 66.1667 675.236 66.7 675.903 67.1C676.57 67.5 677.336 67.8 678.203 68C679.07 68.1333 679.903 68.2 680.703 68.2C684.036 68.2 686.57 67.3 688.303 65.5C690.103 63.6333 691.003 61.1333 691.003 58V56.3ZM660.903 35C663.836 32.2 667.236 30.1 671.103 28.7C675.036 27.3 679.036 26.6 683.103 26.6C687.303 26.6 690.836 27.1333 693.703 28.2C696.636 29.2 699.003 30.8 700.803 33C702.603 35.1333 703.903 37.8667 704.703 41.2C705.57 44.4667 706.003 48.3667 706.003 52.9V78H691.003V72.7H690.703C689.436 74.7667 687.503 76.3667 684.903 77.5C682.37 78.6333 679.603 79.2 676.603 79.2C674.603 79.2 672.536 78.9333 670.403 78.4C668.27 77.8667 666.303 77 664.503 75.8C662.77 74.6 661.336 73 660.203 71C659.07 69 658.503 66.5333 658.503 63.6C658.503 60 659.47 57.1 661.403 54.9C663.403 52.7 665.936 51 669.003 49.8C672.136 48.6 675.603 47.8 679.403 47.4C683.203 47 686.903 46.8 690.503 46.8V46C690.503 43.5333 689.636 41.7333 687.903 40.6C686.17 39.4 684.036 38.8 681.503 38.8C679.17 38.8 676.903 39.3 674.703 40.3C672.57 41.3 670.736 42.5 669.203 43.9L660.903 35ZM778.744 52.9C778.744 56.3667 778.21 59.7 777.144 62.9C776.077 66.1 774.51 68.9333 772.444 71.4C770.444 73.8 767.977 75.7333 765.044 77.2C762.11 78.6667 758.777 79.4 755.044 79.4C751.71 79.4 748.544 78.7333 745.544 77.4C742.61 76 740.344 74.0333 738.744 71.5H738.544V78H723.444V2.4H739.844V33.5H740.044C741.444 31.8333 743.41 30.3 745.944 28.9C748.477 27.5 751.577 26.8 755.244 26.8C758.844 26.8 762.077 27.5 764.944 28.9C767.877 30.3 770.344 32.2 772.344 34.6C774.41 37 775.977 39.8 777.044 43C778.177 46.1333 778.744 49.4333 778.744 52.9ZM762.944 52.9C762.944 51.3 762.677 49.7333 762.144 48.2C761.677 46.6667 760.944 45.3333 759.944 44.2C758.944 43 757.71 42.0333 756.244 41.3C754.777 40.5667 753.077 40.2 751.144 40.2C749.277 40.2 747.61 40.5667 746.144 41.3C744.677 42.0333 743.41 43 742.344 44.2C741.344 45.4 740.544 46.7667 739.944 48.3C739.41 49.8333 739.144 51.4 739.144 53C739.144 54.6 739.41 56.1667 739.944 57.7C740.544 59.2333 741.344 60.6 742.344 61.8C743.41 63 744.677 63.9667 746.144 64.7C747.61 65.4333 749.277 65.8 751.144 65.8C753.077 65.8 754.777 65.4333 756.244 64.7C757.71 63.9667 758.944 63 759.944 61.8C760.944 60.6 761.677 59.2333 762.144 57.7C762.677 56.1 762.944 54.5 762.944 52.9ZM823.462 42.9C822.128 41.6333 820.562 40.5667 818.762 39.7C816.962 38.8333 815.062 38.4 813.062 38.4C811.528 38.4 810.095 38.7 808.762 39.3C807.495 39.9 806.862 40.9333 806.862 42.4C806.862 43.8 807.562 44.8 808.962 45.4C810.428 46 812.762 46.6667 815.962 47.4C817.828 47.8 819.695 48.3667 821.562 49.1C823.495 49.8333 825.228 50.8 826.762 52C828.295 53.2 829.528 54.6667 830.462 56.4C831.395 58.1333 831.862 60.2 831.862 62.6C831.862 65.7333 831.228 68.4 829.962 70.6C828.695 72.7333 827.028 74.4667 824.962 75.8C822.962 77.1333 820.695 78.1 818.162 78.7C815.628 79.3 813.095 79.6 810.562 79.6C806.495 79.6 802.495 78.9667 798.562 77.7C794.695 76.3667 791.462 74.4333 788.862 71.9L798.062 62.2C799.528 63.8 801.328 65.1333 803.462 66.2C805.595 67.2667 807.862 67.8 810.262 67.8C811.595 67.8 812.895 67.5 814.162 66.9C815.495 66.2333 816.162 65.1 816.162 63.5C816.162 61.9667 815.362 60.8333 813.762 60.1C812.162 59.3667 809.662 58.6 806.262 57.8C804.528 57.4 802.795 56.8667 801.062 56.2C799.328 55.5333 797.762 54.6333 796.362 53.5C795.028 52.3667 793.928 50.9667 793.062 49.3C792.195 47.6333 791.762 45.6333 791.762 43.3C791.762 40.3 792.395 37.7667 793.662 35.7C794.928 33.5667 796.562 31.8333 798.562 30.5C800.562 29.1667 802.762 28.2 805.162 27.6C807.628 26.9333 810.062 26.6 812.462 26.6C816.195 26.6 819.828 27.2 823.362 28.4C826.962 29.5333 829.995 31.2667 832.462 33.6L823.462 42.9ZM865.03 69.2C865.03 72 864.03 74.3333 862.03 76.2C860.096 78.0667 857.763 79 855.03 79C853.63 79 852.296 78.7333 851.03 78.2C849.83 77.7333 848.763 77.0667 847.83 76.2C846.896 75.3333 846.163 74.3333 845.63 73.2C845.096 72 844.83 70.7 844.83 69.3C844.83 67.9667 845.096 66.7 845.63 65.5C846.163 64.3 846.896 63.2667 847.83 62.4C848.763 61.4667 849.83 60.7333 851.03 60.2C852.296 59.6667 853.63 59.4 855.03 59.4C857.763 59.4 860.096 60.3333 862.03 62.2C864.03 64.0667 865.03 66.4 865.03 69.2Z" fill="white"/>
</svg>
