<svg width="25" height="24" viewBox="0 0 25 24" fill="none" xmlns="http://www.w3.org/2000/svg">
<path d="M5.58333 2.41667L6.29484 2.17949C6.20973 1.92416 5.99433 1.73401 5.73041 1.68123L5.58333 2.41667ZM1.14709 0.764565C0.740917 0.683331 0.345798 0.946743 0.264565 1.35291C0.183331 1.75908 0.446743 2.1542 0.852913 2.23544L1.14709 0.764565ZM8.12817 7.67949L6.29484 2.17949L4.87181 2.65384L6.70515 8.15383L8.12817 7.67949ZM5.73041 1.68123L1.14709 0.764565L0.852913 2.23544L5.43624 3.1521L5.73041 1.68123Z" fill="white"/>
<path d="M7.41675 7.9165V7.1665C7.17567 7.1665 6.94928 7.28239 6.80832 7.47797C6.66735 7.67355 6.629 7.92496 6.70524 8.15367L7.41675 7.9165ZM23.9167 7.9165L24.6565 8.0398C24.6928 7.82234 24.6315 7.59994 24.489 7.43172C24.3465 7.2635 24.1372 7.1665 23.9167 7.1665V7.9165ZM22.0834 18.9165V19.6665C22.45 19.6665 22.7629 19.4014 22.8232 19.0398L22.0834 18.9165ZM11.0834 18.9165L10.3719 19.1537C10.474 19.4599 10.7606 19.6665 11.0834 19.6665V18.9165ZM7.41675 8.6665H23.9167V7.1665H7.41675V8.6665ZM23.1769 7.7932L21.3436 18.7932L22.8232 19.0398L24.6565 8.0398L23.1769 7.7932ZM22.0834 18.1665H11.0834V19.6665H22.0834V18.1665ZM11.7949 18.6793L8.12826 7.67933L6.70524 8.15367L10.3719 19.1537L11.7949 18.6793Z" fill="white"/>
<circle cx="19.7915" cy="22.125" r="1.375" fill="white"/>
<circle cx="14.2913" cy="22.125" r="1.375" fill="white"/>
</svg>
