<svg width="22" height="21" viewBox="0 0 22 21" fill="none" xmlns="http://www.w3.org/2000/svg">
<path d="M14.8498 1.00028L14.8444 1.75028H14.8498V1.00028ZM10.9999 2.29926L10.5435 2.89447L10.9991 3.24375L11.4553 2.89518L10.9999 2.29926ZM10.6999 2.11027L10.3093 2.75061L10.3188 2.75622L10.6999 2.11027ZM10.2699 1.82027L10.6228 1.1585L10.5999 1.14627L10.5761 1.13566L10.2699 1.82027ZM9.88988 1.65027L9.52844 2.30743L9.55546 2.32229L9.5836 2.33489L9.88988 1.65027ZM9.25989 1.38928L8.74333 1.93303L8.86747 2.05096L9.03049 2.10333L9.25989 1.38928ZM9.16989 1.33028L9.49168 0.652819L9.33896 0.580277H9.16989V1.33028ZM9.11089 1.33028L8.8694 2.04033L8.98684 2.08028H9.11089V1.33028ZM7.27992 1.00028L7.30253 0.250623L7.29123 0.250282H7.27992V1.00028ZM6.32993 1.06028V1.81028H6.38436L6.43822 1.80242L6.32993 1.06028ZM6.20994 1.06028V0.310281H6.16139L6.11325 0.316539L6.20994 1.06028ZM5.32095 1.26928L5.55425 1.98217L5.56544 1.97831L5.32095 1.26928ZM1.39001 10.0801L0.675529 10.3082L0.679071 10.3193L0.682956 10.3303L1.39001 10.0801ZM4.40096 14.8791L3.86886 15.4076L3.87451 15.4133L3.88028 15.4189L4.40096 14.8791ZM10.7699 19.839L10.3745 20.4763L10.375 20.4766L10.7699 19.839ZM11.0299 20L10.635 20.6376L11.025 20.8791L11.4176 20.642L11.0299 20ZM11.2799 19.849L11.6677 20.4911L11.6782 20.4844L11.2799 19.849ZM17.6108 14.8891L18.1326 15.4279L18.1411 15.4194L17.6108 14.8891ZM20.6197 10.0801L21.328 10.3268L21.3318 10.3158L21.3353 10.3047L20.6197 10.0801ZM16.9484 0.579241C16.2624 0.349065 15.5506 0.250282 14.8498 0.250282V1.75028C15.411 1.75028 15.9591 1.8295 16.4712 2.00131L16.9484 0.579241ZM14.8552 0.250301C13.295 0.239077 11.7847 0.755609 10.5445 1.70334L11.4553 2.89518C12.437 2.14494 13.6246 1.74149 14.8444 1.75026L14.8552 0.250301ZM11.4562 1.70406C11.3195 1.59925 11.1523 1.5064 11.081 1.46431L10.3188 2.75622C10.4474 2.83212 10.5002 2.86127 10.5435 2.89447L11.4562 1.70406ZM11.0904 1.46999C11.0905 1.47001 11.0794 1.46296 11.0478 1.44038C11.0113 1.41426 10.9923 1.40003 10.9417 1.36365C10.8657 1.30897 10.7469 1.22468 10.6228 1.1585L9.91693 2.48203C9.94285 2.49586 9.989 2.52607 10.0655 2.58114C10.0912 2.59963 10.1453 2.63909 10.1754 2.66056C10.2104 2.68557 10.2593 2.72002 10.3093 2.75054L11.0904 1.46999ZM10.5761 1.13566L10.1962 0.965658L9.5836 2.33489L9.9636 2.50488L10.5761 1.13566ZM10.2513 0.99311C9.9929 0.850979 9.73397 0.753829 9.48929 0.675221L9.03049 2.10333C9.2278 2.16672 9.38687 2.22957 9.52844 2.30743L10.2513 0.99311ZM9.77645 0.845526C9.68944 0.762864 9.59029 0.699656 9.49168 0.652819L8.8481 2.00773C8.82949 1.9989 8.79034 1.97769 8.74333 1.93303L9.77645 0.845526ZM9.16989 0.580277H9.11089V2.08028H9.16989V0.580277ZM9.35238 0.620219C8.69018 0.395004 8.00638 0.27185 7.30253 0.250623L7.25731 1.74994C7.81344 1.76671 8.34962 1.86356 8.8694 2.04033L9.35238 0.620219ZM7.27992 0.250282H7.16992V1.75028H7.27992V0.250282ZM7.16992 0.250282C6.85568 0.250282 6.54042 0.271628 6.22165 0.318139L6.43822 1.80242C6.68144 1.76694 6.92417 1.75028 7.16992 1.75028V0.250282ZM6.32993 0.310281H6.20994V1.81028H6.32993V0.310281ZM6.11325 0.316539C5.76294 0.36208 5.41442 0.443709 5.07646 0.560248L5.56544 1.97831C5.80747 1.89485 6.05694 1.83648 6.30662 1.80402L6.11325 0.316539ZM5.08768 0.556477C0.856916 1.94103 -0.542073 6.49378 0.675529 10.3082L2.10449 9.85208C1.06213 6.58662 2.3231 3.03949 5.55422 1.98208L5.08768 0.556477ZM0.682956 10.3303C1.35976 12.2433 2.45029 13.9795 3.86886 15.4076L4.93307 14.3505C3.67168 13.0807 2.70024 11.5349 2.09707 9.83L0.682956 10.3303ZM3.88028 15.4189C5.86718 17.3354 8.0401 19.0282 10.3745 20.4763L11.1652 19.2017C8.9217 17.8099 6.83269 16.1827 4.92165 14.3393L3.88028 15.4189ZM10.375 20.4766L10.635 20.6376L11.4247 19.3624L11.1647 19.2014L10.375 20.4766ZM11.4176 20.642L11.6676 20.491L10.8921 19.207L10.6421 19.358L11.4176 20.642ZM11.6782 20.4844C14.0035 19.0267 16.1638 17.3343 18.1325 15.4278L17.089 14.3503C15.1958 16.1837 13.1182 17.8113 10.8815 19.2135L11.6782 20.4844ZM18.1411 15.4194C19.5711 13.9894 20.6613 12.2411 21.328 10.3268L19.9114 9.83348C19.3181 11.5371 18.3484 13.0908 17.0804 14.3587L18.1411 15.4194ZM21.3353 10.3047C22.5304 6.49669 21.1369 1.94096 16.9417 0.577026L16.4779 2.00353C19.6645 3.03956 20.931 6.58371 19.9041 9.85556L21.3353 10.3047Z" fill="white"/>
</svg>
