<svg width="149" height="16" viewBox="0 0 149 16" fill="none" xmlns="http://www.w3.org/2000/svg">
<path d="M0.373613 1.38H7.22861V3.03H2.26361V5.94H6.94361V7.53H2.26361V12H0.373613V1.38ZM8.49447 8.37C8.49447 7.8 8.59447 7.285 8.79447 6.825C9.00447 6.355 9.28447 5.955 9.63447 5.625C9.98447 5.295 10.3995 5.04 10.8795 4.86C11.3595 4.68 11.8695 4.59 12.4095 4.59C12.9495 4.59 13.4595 4.68 13.9395 4.86C14.4195 5.04 14.8345 5.295 15.1845 5.625C15.5345 5.955 15.8095 6.355 16.0095 6.825C16.2195 7.285 16.3245 7.8 16.3245 8.37C16.3245 8.94 16.2195 9.46 16.0095 9.93C15.8095 10.4 15.5345 10.805 15.1845 11.145C14.8345 11.475 14.4195 11.735 13.9395 11.925C13.4595 12.115 12.9495 12.21 12.4095 12.21C11.8695 12.21 11.3595 12.115 10.8795 11.925C10.3995 11.735 9.98447 11.475 9.63447 11.145C9.28447 10.805 9.00447 10.4 8.79447 9.93C8.59447 9.46 8.49447 8.94 8.49447 8.37ZM10.3245 8.37C10.3245 8.65 10.3645 8.93 10.4445 9.21C10.5345 9.49 10.6645 9.74 10.8345 9.96C11.0045 10.18 11.2195 10.36 11.4795 10.5C11.7395 10.64 12.0495 10.71 12.4095 10.71C12.7695 10.71 13.0795 10.64 13.3395 10.5C13.5995 10.36 13.8145 10.18 13.9845 9.96C14.1545 9.74 14.2795 9.49 14.3595 9.21C14.4495 8.93 14.4945 8.65 14.4945 8.37C14.4945 8.09 14.4495 7.815 14.3595 7.545C14.2795 7.265 14.1545 7.015 13.9845 6.795C13.8145 6.575 13.5995 6.4 13.3395 6.27C13.0795 6.13 12.7695 6.06 12.4095 6.06C12.0495 6.06 11.7395 6.13 11.4795 6.27C11.2195 6.4 11.0045 6.575 10.8345 6.795C10.6645 7.015 10.5345 7.265 10.4445 7.545C10.3645 7.815 10.3245 8.09 10.3245 8.37ZM18.3997 8.37C18.3997 7.8 18.4997 7.285 18.6997 6.825C18.9097 6.355 19.1897 5.955 19.5397 5.625C19.8897 5.295 20.3047 5.04 20.7847 4.86C21.2647 4.68 21.7747 4.59 22.3147 4.59C22.8547 4.59 23.3647 4.68 23.8447 4.86C24.3247 5.04 24.7397 5.295 25.0897 5.625C25.4397 5.955 25.7147 6.355 25.9147 6.825C26.1247 7.285 26.2297 7.8 26.2297 8.37C26.2297 8.94 26.1247 9.46 25.9147 9.93C25.7147 10.4 25.4397 10.805 25.0897 11.145C24.7397 11.475 24.3247 11.735 23.8447 11.925C23.3647 12.115 22.8547 12.21 22.3147 12.21C21.7747 12.21 21.2647 12.115 20.7847 11.925C20.3047 11.735 19.8897 11.475 19.5397 11.145C19.1897 10.805 18.9097 10.4 18.6997 9.93C18.4997 9.46 18.3997 8.94 18.3997 8.37ZM20.2297 8.37C20.2297 8.65 20.2697 8.93 20.3497 9.21C20.4397 9.49 20.5697 9.74 20.7397 9.96C20.9097 10.18 21.1247 10.36 21.3847 10.5C21.6447 10.64 21.9547 10.71 22.3147 10.71C22.6747 10.71 22.9847 10.64 23.2447 10.5C23.5047 10.36 23.7197 10.18 23.8897 9.96C24.0597 9.74 24.1847 9.49 24.2647 9.21C24.3547 8.93 24.3997 8.65 24.3997 8.37C24.3997 8.09 24.3547 7.815 24.2647 7.545C24.1847 7.265 24.0597 7.015 23.8897 6.795C23.7197 6.575 23.5047 6.4 23.2447 6.27C22.9847 6.13 22.6747 6.06 22.3147 6.06C21.9547 6.06 21.6447 6.13 21.3847 6.27C21.1247 6.4 20.9097 6.575 20.7397 6.795C20.5697 7.015 20.4397 7.265 20.3497 7.545C20.2697 7.815 20.2297 8.09 20.2297 8.37ZM36.045 12H34.335V10.92H34.305C34.055 11.34 33.705 11.66 33.255 11.88C32.815 12.1 32.34 12.21 31.83 12.21C31.28 12.21 30.785 12.11 30.345 11.91C29.915 11.7 29.545 11.425 29.235 11.085C28.935 10.735 28.7 10.33 28.53 9.87C28.37 9.4 28.29 8.9 28.29 8.37C28.29 7.84 28.375 7.345 28.545 6.885C28.715 6.425 28.955 6.025 29.265 5.685C29.575 5.345 29.945 5.08 30.375 4.89C30.805 4.69 31.275 4.59 31.785 4.59C32.115 4.59 32.41 4.63 32.67 4.71C32.93 4.78 33.155 4.87 33.345 4.98C33.545 5.09 33.715 5.21 33.855 5.34C33.995 5.47 34.11 5.595 34.2 5.715H34.245V0.659999H36.045V12ZM30.12 8.37C30.12 8.65 30.16 8.93 30.24 9.21C30.33 9.49 30.46 9.74 30.63 9.96C30.8 10.18 31.015 10.36 31.275 10.5C31.535 10.64 31.84 10.71 32.19 10.71C32.52 10.71 32.815 10.645 33.075 10.515C33.335 10.375 33.555 10.195 33.735 9.975C33.925 9.755 34.065 9.51 34.155 9.24C34.255 8.96 34.305 8.68 34.305 8.4C34.305 8.12 34.255 7.84 34.155 7.56C34.065 7.28 33.925 7.03 33.735 6.81C33.555 6.59 33.335 6.41 33.075 6.27C32.815 6.13 32.52 6.06 32.19 6.06C31.84 6.06 31.535 6.13 31.275 6.27C31.015 6.4 30.8 6.575 30.63 6.795C30.46 7.015 30.33 7.265 30.24 7.545C30.16 7.815 30.12 8.09 30.12 8.37ZM43.5719 1.38H46.0769L51.0119 9.33H51.0419V1.38H52.9319V12H50.5319L45.4919 3.795H45.4619V12H43.5719V1.38ZM61.006 7.68C61.006 7.45 60.971 7.23 60.901 7.02C60.841 6.81 60.741 6.625 60.601 6.465C60.461 6.305 60.281 6.18 60.061 6.09C59.851 5.99 59.601 5.94 59.311 5.94C58.771 5.94 58.311 6.105 57.931 6.435C57.561 6.755 57.356 7.17 57.316 7.68H61.006ZM62.806 8.49C62.806 8.57 62.806 8.65 62.806 8.73C62.806 8.81 62.801 8.89 62.791 8.97H57.316C57.336 9.23 57.401 9.47 57.511 9.69C57.631 9.9 57.786 10.085 57.976 10.245C58.166 10.395 58.381 10.515 58.621 10.605C58.861 10.695 59.111 10.74 59.371 10.74C59.821 10.74 60.201 10.66 60.511 10.5C60.821 10.33 61.076 10.1 61.276 9.81L62.476 10.77C61.766 11.73 60.736 12.21 59.386 12.21C58.826 12.21 58.311 12.125 57.841 11.955C57.371 11.775 56.961 11.525 56.611 11.205C56.271 10.885 56.001 10.495 55.801 10.035C55.611 9.565 55.516 9.035 55.516 8.445C55.516 7.865 55.611 7.34 55.801 6.87C56.001 6.39 56.271 5.985 56.611 5.655C56.951 5.315 57.351 5.055 57.811 4.875C58.281 4.685 58.786 4.59 59.326 4.59C59.826 4.59 60.286 4.675 60.706 4.845C61.136 5.005 61.506 5.25 61.816 5.58C62.126 5.9 62.366 6.305 62.536 6.795C62.716 7.275 62.806 7.84 62.806 8.49ZM64.2642 6.24V4.8H65.5242V2.715H67.2942V4.8H69.0942V6.24H67.2942V9.585C67.2942 9.905 67.3492 10.17 67.4592 10.38C67.5792 10.59 67.8392 10.695 68.2392 10.695C68.3592 10.695 68.4892 10.685 68.6292 10.665C68.7692 10.635 68.8942 10.595 69.0042 10.545L69.0642 11.955C68.9042 12.015 68.7142 12.06 68.4942 12.09C68.2742 12.13 68.0642 12.15 67.8642 12.15C67.3842 12.15 66.9942 12.085 66.6942 11.955C66.3942 11.815 66.1542 11.63 65.9742 11.4C65.8042 11.16 65.6842 10.89 65.6142 10.59C65.5542 10.28 65.5242 9.95 65.5242 9.6V6.24H64.2642ZM70.1269 4.8H72.0769L73.5769 9.96H73.6069L75.1519 4.8H77.0719L78.6319 9.96H78.6619L80.1919 4.8H82.0669L79.5769 12H77.7469L76.1119 6.96H76.0819L74.4619 12H72.6319L70.1269 4.8ZM83.5326 8.37C83.5326 7.8 83.6326 7.285 83.8326 6.825C84.0426 6.355 84.3226 5.955 84.6726 5.625C85.0226 5.295 85.4376 5.04 85.9176 4.86C86.3976 4.68 86.9076 4.59 87.4476 4.59C87.9876 4.59 88.4976 4.68 88.9776 4.86C89.4576 5.04 89.8726 5.295 90.2226 5.625C90.5726 5.955 90.8476 6.355 91.0476 6.825C91.2576 7.285 91.3626 7.8 91.3626 8.37C91.3626 8.94 91.2576 9.46 91.0476 9.93C90.8476 10.4 90.5726 10.805 90.2226 11.145C89.8726 11.475 89.4576 11.735 88.9776 11.925C88.4976 12.115 87.9876 12.21 87.4476 12.21C86.9076 12.21 86.3976 12.115 85.9176 11.925C85.4376 11.735 85.0226 11.475 84.6726 11.145C84.3226 10.805 84.0426 10.4 83.8326 9.93C83.6326 9.46 83.5326 8.94 83.5326 8.37ZM85.3626 8.37C85.3626 8.65 85.4026 8.93 85.4826 9.21C85.5726 9.49 85.7026 9.74 85.8726 9.96C86.0426 10.18 86.2576 10.36 86.5176 10.5C86.7776 10.64 87.0876 10.71 87.4476 10.71C87.8076 10.71 88.1176 10.64 88.3776 10.5C88.6376 10.36 88.8526 10.18 89.0226 9.96C89.1926 9.74 89.3176 9.49 89.3976 9.21C89.4876 8.93 89.5326 8.65 89.5326 8.37C89.5326 8.09 89.4876 7.815 89.3976 7.545C89.3176 7.265 89.1926 7.015 89.0226 6.795C88.8526 6.575 88.6376 6.4 88.3776 6.27C88.1176 6.13 87.8076 6.06 87.4476 6.06C87.0876 6.06 86.7776 6.13 86.5176 6.27C86.2576 6.4 86.0426 6.575 85.8726 6.795C85.7026 7.015 85.5726 7.265 85.4826 7.545C85.4026 7.815 85.3626 8.09 85.3626 8.37ZM93.8578 4.8H95.5828V6H95.6128C95.8128 5.58 96.0928 5.24 96.4528 4.98C96.8128 4.72 97.2328 4.59 97.7128 4.59C97.7828 4.59 97.8578 4.595 97.9378 4.605C98.0178 4.605 98.0878 4.615 98.1478 4.635V6.285C98.0278 6.255 97.9228 6.235 97.8328 6.225C97.7528 6.215 97.6728 6.21 97.5928 6.21C97.1828 6.21 96.8528 6.285 96.6028 6.435C96.3528 6.585 96.1578 6.765 96.0178 6.975C95.8778 7.185 95.7828 7.4 95.7328 7.62C95.6828 7.84 95.6578 8.015 95.6578 8.145V12H93.8578V4.8ZM100.102 0.659999H101.902V7.83H101.947L104.677 4.8H106.987L103.867 8.055L107.182 12H104.797L101.947 8.31H101.902V12H100.102V0.659999ZM116.623 1.38H118.258L122.833 12H120.673L119.683 9.57H115.078L114.118 12H112.003L116.623 1.38ZM119.023 7.95L117.388 3.63L115.723 7.95H119.023ZM131.863 4.8V11.355C131.863 12.005 131.783 12.59 131.623 13.11C131.463 13.64 131.213 14.085 130.873 14.445C130.543 14.815 130.123 15.1 129.613 15.3C129.103 15.5 128.498 15.6 127.798 15.6C127.508 15.6 127.198 15.575 126.868 15.525C126.548 15.475 126.228 15.4 125.908 15.3C125.598 15.2 125.298 15.075 125.008 14.925C124.718 14.775 124.458 14.605 124.228 14.415L125.263 13.02C125.613 13.35 126.008 13.6 126.448 13.77C126.888 13.95 127.333 14.04 127.783 14.04C128.213 14.04 128.573 13.975 128.863 13.845C129.163 13.725 129.398 13.555 129.568 13.335C129.748 13.115 129.873 12.855 129.943 12.555C130.023 12.255 130.063 11.925 130.063 11.565V11.04H130.033C129.773 11.39 129.438 11.66 129.028 11.85C128.628 12.03 128.178 12.12 127.678 12.12C127.138 12.12 126.648 12.02 126.208 11.82C125.768 11.62 125.393 11.35 125.083 11.01C124.783 10.67 124.548 10.275 124.378 9.825C124.208 9.365 124.123 8.88 124.123 8.37C124.123 7.85 124.203 7.36 124.363 6.9C124.533 6.44 124.768 6.04 125.068 5.7C125.378 5.36 125.748 5.09 126.178 4.89C126.618 4.69 127.108 4.59 127.648 4.59C128.158 4.59 128.633 4.695 129.073 4.905C129.513 5.115 129.863 5.44 130.123 5.88H130.153V4.8H131.863ZM128.023 6.06C127.693 6.06 127.398 6.12 127.138 6.24C126.888 6.36 126.673 6.525 126.493 6.735C126.323 6.935 126.188 7.175 126.088 7.455C125.998 7.735 125.953 8.035 125.953 8.355C125.953 8.645 125.998 8.925 126.088 9.195C126.188 9.465 126.323 9.71 126.493 9.93C126.673 10.14 126.888 10.31 127.138 10.44C127.398 10.57 127.688 10.635 128.008 10.635C128.338 10.635 128.633 10.575 128.893 10.455C129.163 10.325 129.388 10.155 129.568 9.945C129.758 9.735 129.903 9.495 130.003 9.225C130.103 8.945 130.153 8.655 130.153 8.355C130.153 8.045 130.103 7.75 130.003 7.47C129.903 7.19 129.758 6.945 129.568 6.735C129.388 6.525 129.168 6.36 128.908 6.24C128.648 6.12 128.353 6.06 128.023 6.06ZM134.771 4.8H136.496V6H136.526C136.726 5.58 137.006 5.24 137.366 4.98C137.726 4.72 138.146 4.59 138.626 4.59C138.696 4.59 138.771 4.595 138.851 4.605C138.931 4.605 139.001 4.615 139.061 4.635V6.285C138.941 6.255 138.836 6.235 138.746 6.225C138.666 6.215 138.586 6.21 138.506 6.21C138.096 6.21 137.766 6.285 137.516 6.435C137.266 6.585 137.071 6.765 136.931 6.975C136.791 7.185 136.696 7.4 136.646 7.62C136.596 7.84 136.571 8.015 136.571 8.145V12H134.771V4.8ZM140.301 8.37C140.301 7.8 140.401 7.285 140.601 6.825C140.811 6.355 141.091 5.955 141.441 5.625C141.791 5.295 142.206 5.04 142.686 4.86C143.166 4.68 143.676 4.59 144.216 4.59C144.756 4.59 145.266 4.68 145.746 4.86C146.226 5.04 146.641 5.295 146.991 5.625C147.341 5.955 147.616 6.355 147.816 6.825C148.026 7.285 148.131 7.8 148.131 8.37C148.131 8.94 148.026 9.46 147.816 9.93C147.616 10.4 147.341 10.805 146.991 11.145C146.641 11.475 146.226 11.735 145.746 11.925C145.266 12.115 144.756 12.21 144.216 12.21C143.676 12.21 143.166 12.115 142.686 11.925C142.206 11.735 141.791 11.475 141.441 11.145C141.091 10.805 140.811 10.4 140.601 9.93C140.401 9.46 140.301 8.94 140.301 8.37ZM142.131 8.37C142.131 8.65 142.171 8.93 142.251 9.21C142.341 9.49 142.471 9.74 142.641 9.96C142.811 10.18 143.026 10.36 143.286 10.5C143.546 10.64 143.856 10.71 144.216 10.71C144.576 10.71 144.886 10.64 145.146 10.5C145.406 10.36 145.621 10.18 145.791 9.96C145.961 9.74 146.086 9.49 146.166 9.21C146.256 8.93 146.301 8.65 146.301 8.37C146.301 8.09 146.256 7.815 146.166 7.545C146.086 7.265 145.961 7.015 145.791 6.795C145.621 6.575 145.406 6.4 145.146 6.27C144.886 6.13 144.576 6.06 144.216 6.06C143.856 6.06 143.546 6.13 143.286 6.27C143.026 6.4 142.811 6.575 142.641 6.795C142.471 7.015 142.341 7.265 142.251 7.545C142.171 7.815 142.131 8.09 142.131 8.37Z" fill="white"/>
</svg>
