<svg width="142" height="132" viewBox="0 0 142 132" fill="none" xmlns="http://www.w3.org/2000/svg">
<path d="M3.84234 2.43903H19.813V6.28316H8.24562V13.0628H19.149V16.7672H8.24562V27.1813H3.84234V2.43903ZM21.0148 18.7242C21.0148 17.3962 21.2478 16.1964 21.7137 15.1247C22.203 14.0297 22.8553 13.0978 23.6708 12.3289C24.4862 11.5601 25.453 10.966 26.5713 10.5467C27.6896 10.1273 28.8778 9.91761 30.1359 9.91761C31.394 9.91761 32.5822 10.1273 33.7005 10.5467C34.8187 10.966 35.7856 11.5601 36.601 12.3289C37.4165 13.0978 38.0571 14.0297 38.5231 15.1247C39.0124 16.1964 39.257 17.3962 39.257 18.7242C39.257 20.0522 39.0124 21.2636 38.5231 22.3586C38.0571 23.4536 37.4165 24.3972 36.601 25.1893C35.7856 25.9581 34.8187 26.5639 33.7005 27.0065C32.5822 27.4492 31.394 27.6705 30.1359 27.6705C28.8778 27.6705 27.6896 27.4492 26.5713 27.0065C25.453 26.5639 24.4862 25.9581 23.6708 25.1893C22.8553 24.3972 22.203 23.4536 21.7137 22.3586C21.2478 21.2636 21.0148 20.0522 21.0148 18.7242ZM25.2783 18.7242C25.2783 19.3765 25.3715 20.0289 25.5579 20.6812C25.7676 21.3335 26.0704 21.916 26.4665 22.4285C26.8626 22.9411 27.3635 23.3604 27.9692 23.6866C28.5749 24.0128 29.2972 24.1759 30.1359 24.1759C30.9746 24.1759 31.6968 24.0128 32.3026 23.6866C32.9083 23.3604 33.4092 22.9411 33.8053 22.4285C34.2014 21.916 34.4926 21.3335 34.679 20.6812C34.8886 20.0289 34.9935 19.3765 34.9935 18.7242C34.9935 18.0718 34.8886 17.4312 34.679 16.8021C34.4926 16.1498 34.2014 15.5673 33.8053 15.0548C33.4092 14.5422 32.9083 14.1345 32.3026 13.8316C31.6968 13.5055 30.9746 13.3424 30.1359 13.3424C29.2972 13.3424 28.5749 13.5055 27.9692 13.8316C27.3635 14.1345 26.8626 14.5422 26.4665 15.0548C26.0704 15.5673 25.7676 16.1498 25.5579 16.8021C25.3715 17.4312 25.2783 18.0718 25.2783 18.7242ZM42.3446 18.7242C42.3446 17.3962 42.5775 16.1964 43.0435 15.1247C43.5328 14.0297 44.1851 13.0978 45.0005 12.3289C45.8159 11.5601 46.7828 10.966 47.9011 10.5467C49.0194 10.1273 50.2076 9.91761 51.4657 9.91761C52.7237 9.91761 53.9119 10.1273 55.0302 10.5467C56.1485 10.966 57.1154 11.5601 57.9308 12.3289C58.7462 13.0978 59.3869 14.0297 59.8529 15.1247C60.3421 16.1964 60.5867 17.3962 60.5867 18.7242C60.5867 20.0522 60.3421 21.2636 59.8529 22.3586C59.3869 23.4536 58.7462 24.3972 57.9308 25.1893C57.1154 25.9581 56.1485 26.5639 55.0302 27.0065C53.9119 27.4492 52.7237 27.6705 51.4657 27.6705C50.2076 27.6705 49.0194 27.4492 47.9011 27.0065C46.7828 26.5639 45.8159 25.9581 45.0005 25.1893C44.1851 24.3972 43.5328 23.4536 43.0435 22.3586C42.5775 21.2636 42.3446 20.0522 42.3446 18.7242ZM46.6081 18.7242C46.6081 19.3765 46.7013 20.0289 46.8876 20.6812C47.0973 21.3335 47.4002 21.916 47.7963 22.4285C48.1923 22.9411 48.6932 23.3604 49.299 23.6866C49.9047 24.0128 50.6269 24.1759 51.4657 24.1759C52.3044 24.1759 53.0266 24.0128 53.6323 23.6866C54.2381 23.3604 54.739 22.9411 55.1351 22.4285C55.5311 21.916 55.8223 21.3335 56.0087 20.6812C56.2184 20.0289 56.3232 19.3765 56.3232 18.7242C56.3232 18.0718 56.2184 17.4312 56.0087 16.8021C55.8223 16.1498 55.5311 15.5673 55.1351 15.0548C54.739 14.5422 54.2381 14.1345 53.6323 13.8316C53.0266 13.5055 52.3044 13.3424 51.4657 13.3424C50.6269 13.3424 49.9047 13.5055 49.299 13.8316C48.6932 14.1345 48.1923 14.5422 47.7963 15.0548C47.4002 15.5673 47.0973 16.1498 46.8876 16.8021C46.7013 17.4312 46.6081 18.0718 46.6081 18.7242ZM81.7068 27.1813H77.7229V24.6651H77.653C77.0706 25.6436 76.2551 26.3891 75.2067 26.9017C74.1816 27.4143 73.075 27.6705 71.8868 27.6705C70.6054 27.6705 69.4522 27.4376 68.4271 26.9716C67.4253 26.4823 66.5633 25.8417 65.841 25.0495C65.1421 24.2341 64.5946 23.2905 64.1985 22.2188C63.8258 21.1238 63.6394 19.959 63.6394 18.7242C63.6394 17.4894 63.8374 16.3362 64.2335 15.2645C64.6295 14.1928 65.1887 13.2608 65.9109 12.4687C66.6331 11.6766 67.4952 11.0592 68.497 10.6165C69.4988 10.1506 70.5938 9.91761 71.782 9.91761C72.5508 9.91761 73.2381 10.0108 73.8438 10.1972C74.4496 10.3603 74.9738 10.57 75.4164 10.8262C75.8824 11.0825 76.2784 11.3621 76.6046 11.6649C76.9308 11.9678 77.1987 12.259 77.4084 12.5386H77.5132V0.761584H81.7068V27.1813ZM67.9029 18.7242C67.9029 19.3765 67.9961 20.0289 68.1825 20.6812C68.3921 21.3335 68.695 21.916 69.0911 22.4285C69.4871 22.9411 69.988 23.3604 70.5938 23.6866C71.1995 24.0128 71.9101 24.1759 72.7255 24.1759C73.4943 24.1759 74.1816 24.0244 74.7874 23.7216C75.3931 23.3954 75.9057 22.976 76.325 22.4635C76.7677 21.9509 77.0939 21.3801 77.3035 20.7511C77.5365 20.0987 77.653 19.4464 77.653 18.7941C77.653 18.1417 77.5365 17.4894 77.3035 16.8371C77.0939 16.1847 76.7677 15.6023 76.325 15.0897C75.9057 14.5772 75.3931 14.1578 74.7874 13.8316C74.1816 13.5055 73.4943 13.3424 72.7255 13.3424C71.9101 13.3424 71.1995 13.5055 70.5938 13.8316C69.988 14.1345 69.4871 14.5422 69.0911 15.0548C68.695 15.5673 68.3921 16.1498 68.1825 16.8021C67.9961 17.4312 67.9029 18.0718 67.9029 18.7242ZM3.84234 50.439H9.67844L21.1759 68.9608H21.2458V50.439H25.6491V75.1813H20.0576L8.31552 56.0654H8.24562V75.1813H3.84234V50.439ZM42.7126 65.1166C42.7126 64.5808 42.6311 64.0682 42.468 63.579C42.3282 63.0897 42.0952 62.6587 41.769 62.2859C41.4429 61.9132 41.0235 61.622 40.511 61.4123C40.0217 61.1793 39.4393 61.0628 38.7636 61.0628C37.5055 61.0628 36.4339 61.4472 35.5485 62.2161C34.6865 62.9616 34.2089 63.9284 34.1157 65.1166H42.7126ZM46.9062 67.0038C46.9062 67.1901 46.9062 67.3765 46.9062 67.5629C46.9062 67.7493 46.8946 67.9357 46.8713 68.122H34.1157C34.1623 68.7278 34.3138 69.2869 34.57 69.7995C34.8496 70.2887 35.2107 70.7197 35.6534 71.0925C36.096 71.442 36.5969 71.7216 37.1561 71.9312C37.7152 72.1409 38.2977 72.2458 38.9034 72.2458C39.9518 72.2458 40.8371 72.0594 41.5594 71.6866C42.2816 71.2905 42.8757 70.7547 43.3416 70.0791L46.1374 72.3156C44.4832 74.5522 42.0836 75.6705 38.9384 75.6705C37.6337 75.6705 36.4339 75.4725 35.3389 75.0764C34.2439 74.6571 33.2887 74.0746 32.4732 73.3291C31.6811 72.5836 31.0521 71.675 30.5861 70.6033C30.1434 69.5083 29.9221 68.2735 29.9221 66.8989C29.9221 65.5476 30.1434 64.3245 30.5861 63.2295C31.0521 62.1112 31.6811 61.1677 32.4732 60.3988C33.2654 59.6067 34.1973 59.001 35.269 58.5816C36.364 58.1389 37.5405 57.9176 38.7986 57.9176C39.9635 57.9176 41.0352 58.1156 42.0137 58.5117C43.0155 58.8845 43.8775 59.4553 44.5997 60.2241C45.322 60.9696 45.8811 61.9132 46.2772 63.0548C46.6965 64.1731 46.9062 65.4894 46.9062 67.0038ZM48.5563 61.7617V58.4069H51.4919V53.5493H55.6156V58.4069H59.8092V61.7617H55.6156V69.5549C55.6156 70.3004 55.7437 70.9178 56 71.407C56.2796 71.8963 56.8853 72.1409 57.8172 72.1409C58.0968 72.1409 58.3997 72.1176 58.7258 72.071C59.052 72.0011 59.3432 71.9079 59.5995 71.7914L59.7393 75.0764C59.3665 75.2162 58.9239 75.3211 58.4113 75.391C57.8988 75.4841 57.4095 75.5307 56.9435 75.5307C55.8253 75.5307 54.9166 75.3793 54.2177 75.0764C53.5188 74.7503 52.9596 74.3193 52.5403 73.7834C52.1442 73.2243 51.8646 72.5952 51.7015 71.8963C51.5618 71.1741 51.4919 70.4052 51.4919 69.5898V61.7617H48.5563ZM60.4677 58.4069H65.0108L68.5054 70.4285H68.5753L72.1748 58.4069H76.648L80.2825 70.4285H80.3524L83.9169 58.4069H88.2853L82.4841 75.1813H78.2206L74.4114 63.4392H74.3415L70.5673 75.1813H66.3038L60.4677 58.4069ZM89.9526 66.7242C89.9526 65.3962 90.1856 64.1964 90.6515 63.1247C91.1408 62.0297 91.7931 61.0978 92.6085 60.3289C93.424 59.5601 94.3908 58.966 95.5091 58.5467C96.6274 58.1273 97.8156 57.9176 99.0737 57.9176C100.332 57.9176 101.52 58.1273 102.638 58.5467C103.757 58.966 104.723 59.5601 105.539 60.3289C106.354 61.0978 106.995 62.0297 107.461 63.1247C107.95 64.1964 108.195 65.3962 108.195 66.7242C108.195 68.0522 107.95 69.2636 107.461 70.3586C106.995 71.4536 106.354 72.3972 105.539 73.1893C104.723 73.9581 103.757 74.5639 102.638 75.0065C101.52 75.4492 100.332 75.6705 99.0737 75.6705C97.8156 75.6705 96.6274 75.4492 95.5091 75.0065C94.3908 74.5639 93.424 73.9581 92.6085 73.1893C91.7931 72.3972 91.1408 71.4536 90.6515 70.3586C90.1856 69.2636 89.9526 68.0522 89.9526 66.7242ZM94.2161 66.7242C94.2161 67.3765 94.3093 68.0289 94.4957 68.6812C94.7053 69.3335 95.0082 69.916 95.4043 70.4285C95.8003 70.9411 96.3012 71.3604 96.907 71.6866C97.5127 72.0128 98.235 72.1759 99.0737 72.1759C99.9124 72.1759 100.635 72.0128 101.24 71.6866C101.846 71.3604 102.347 70.9411 102.743 70.4285C103.139 69.916 103.43 69.3335 103.617 68.6812C103.826 68.0289 103.931 67.3765 103.931 66.7242C103.931 66.0718 103.826 65.4312 103.617 64.8021C103.43 64.1498 103.139 63.5673 102.743 63.0548C102.347 62.5422 101.846 62.1345 101.24 61.8316C100.635 61.5055 99.9124 61.3424 99.0737 61.3424C98.235 61.3424 97.5127 61.5055 96.907 61.8316C96.3012 62.1345 95.8003 62.5422 95.4043 63.0548C95.0082 63.5673 94.7053 64.1498 94.4957 64.8021C94.3093 65.4312 94.2161 66.0718 94.2161 66.7242ZM112.261 58.4069H116.28V61.2026H116.35C116.816 60.2241 117.468 59.432 118.307 58.8262C119.145 58.2205 120.124 57.9176 121.242 57.9176C121.405 57.9176 121.58 57.9293 121.766 57.9526C121.953 57.9526 122.116 57.9759 122.256 58.0225V61.8666C121.976 61.7967 121.731 61.7501 121.522 61.7268C121.335 61.7035 121.149 61.6919 120.963 61.6919C120.007 61.6919 119.239 61.8666 118.656 62.2161C118.074 62.5655 117.619 62.9849 117.293 63.4741C116.967 63.9634 116.746 64.4643 116.629 64.9768C116.513 65.4894 116.454 65.8971 116.454 66.2V75.1813H112.261V58.4069ZM125.06 48.7616H129.254V65.4661H129.359L135.719 58.4069H141.101L133.832 65.9903L141.555 75.1813H135.999L129.359 66.5844H129.254V75.1813H125.06V48.7616ZM11.6005 98.439H15.4097L26.0684 123.181H21.0361L18.7296 117.52H8.001L5.76441 123.181H0.836927L11.6005 98.439ZM17.192 113.746L13.3828 103.681L9.5037 113.746H17.192ZM45.3609 106.407V121.679C45.3609 123.193 45.1745 124.556 44.8018 125.767C44.429 127.002 43.8466 128.039 43.0544 128.878C42.2856 129.74 41.3071 130.404 40.1189 130.87C38.9307 131.335 37.5212 131.568 35.8904 131.568C35.2147 131.568 34.4925 131.51 33.7237 131.394C32.9781 131.277 32.2326 131.103 31.4871 130.87C30.7648 130.637 30.0659 130.345 29.3903 129.996C28.7146 129.646 28.1089 129.25 27.573 128.808L29.9844 125.558C30.7998 126.326 31.7201 126.909 32.7452 127.305C33.7703 127.724 34.807 127.934 35.8554 127.934C36.8572 127.934 37.6959 127.783 38.3716 127.48C39.0705 127.2 39.618 126.804 40.0141 126.292C40.4334 125.779 40.7246 125.173 40.8877 124.474C41.0741 123.775 41.1673 123.007 41.1673 122.168V120.945H41.0974C40.4917 121.76 39.7112 122.389 38.756 122.832C37.8241 123.251 36.7757 123.461 35.6108 123.461C34.3527 123.461 33.2111 123.228 32.186 122.762C31.1609 122.296 30.2872 121.667 29.565 120.875C28.8661 120.083 28.3186 119.162 27.9225 118.114C27.5265 117.042 27.3284 115.912 27.3284 114.724C27.3284 113.513 27.5148 112.371 27.8876 111.299C28.2836 110.228 28.8311 109.296 29.5301 108.504C30.2523 107.712 31.1143 107.083 32.1161 106.617C33.1412 106.151 34.2828 105.918 35.5409 105.918C36.7291 105.918 37.8357 106.162 38.8608 106.651C39.8859 107.141 40.7014 107.898 41.3071 108.923H41.377V106.407H45.3609ZM36.4146 109.342C35.6457 109.342 34.9584 109.482 34.3527 109.762C33.7703 110.041 33.2694 110.426 32.85 110.915C32.4539 111.381 32.1394 111.94 31.9064 112.592C31.6968 113.245 31.5919 113.944 31.5919 114.689C31.5919 115.365 31.6968 116.017 31.9064 116.646C32.1394 117.275 32.4539 117.846 32.85 118.359C33.2694 118.848 33.7703 119.244 34.3527 119.547C34.9584 119.85 35.6341 120.001 36.3796 120.001C37.1484 120.001 37.8357 119.861 38.4415 119.582C39.0705 119.279 39.5947 118.883 40.0141 118.394C40.4567 117.904 40.7945 117.345 41.0275 116.716C41.2605 116.064 41.377 115.388 41.377 114.689C41.377 113.967 41.2605 113.28 41.0275 112.627C40.7945 111.975 40.4567 111.404 40.0141 110.915C39.5947 110.426 39.0822 110.041 38.4764 109.762C37.8707 109.482 37.1834 109.342 36.4146 109.342ZM50.3875 106.407H54.4064V109.203H54.4763C54.9422 108.224 55.5946 107.432 56.4333 106.826C57.272 106.22 58.2505 105.918 59.3688 105.918C59.5319 105.918 59.7066 105.929 59.893 105.953C60.0794 105.953 60.2425 105.976 60.3822 106.022V109.867C60.1027 109.797 59.858 109.75 59.6484 109.727C59.462 109.704 59.2756 109.692 59.0892 109.692C58.134 109.692 57.3652 109.867 56.7827 110.216C56.2003 110.566 55.746 110.985 55.4198 111.474C55.0936 111.963 54.8723 112.464 54.7558 112.977C54.6393 113.489 54.5811 113.897 54.5811 114.2V123.181H50.3875V106.407ZM61.5243 114.724C61.5243 113.396 61.7573 112.196 62.2232 111.125C62.7125 110.03 63.3648 109.098 64.1802 108.329C64.9957 107.56 65.9625 106.966 67.0808 106.547C68.1991 106.127 69.3873 105.918 70.6454 105.918C71.9035 105.918 73.0916 106.127 74.2099 106.547C75.3282 106.966 76.2951 107.56 77.1105 108.329C77.9259 109.098 78.5666 110.03 79.0326 111.125C79.5218 112.196 79.7665 113.396 79.7665 114.724C79.7665 116.052 79.5218 117.264 79.0326 118.359C78.5666 119.454 77.9259 120.397 77.1105 121.189C76.2951 121.958 75.3282 122.564 74.2099 123.007C73.0916 123.449 71.9035 123.671 70.6454 123.671C69.3873 123.671 68.1991 123.449 67.0808 123.007C65.9625 122.564 64.9957 121.958 64.1802 121.189C63.3648 120.397 62.7125 119.454 62.2232 118.359C61.7573 117.264 61.5243 116.052 61.5243 114.724ZM65.7878 114.724C65.7878 115.377 65.881 116.029 66.0674 116.681C66.277 117.334 66.5799 117.916 66.976 118.429C67.372 118.941 67.8729 119.36 68.4787 119.687C69.0844 120.013 69.8067 120.176 70.6454 120.176C71.4841 120.176 72.2063 120.013 72.8121 119.687C73.4178 119.36 73.9187 118.941 74.3148 118.429C74.7108 117.916 75.0021 117.334 75.1884 116.681C75.3981 116.029 75.503 115.377 75.503 114.724C75.503 114.072 75.3981 113.431 75.1884 112.802C75.0021 112.15 74.7108 111.567 74.3148 111.055C73.9187 110.542 73.4178 110.135 72.8121 109.832C72.2063 109.505 71.4841 109.342 70.6454 109.342C69.8067 109.342 69.0844 109.505 68.4787 109.832C67.8729 110.135 67.372 110.542 66.976 111.055C66.5799 111.567 66.277 112.15 66.0674 112.802C65.881 113.431 65.7878 114.072 65.7878 114.724Z" fill="white"/>
</svg>
