<svg width="342" height="37" viewBox="0 0 342 37" fill="none" xmlns="http://www.w3.org/2000/svg">
<path d="M6.75888 7.768V13.024H16.6229V18.1H6.75888V28H0.674875V2.512H17.4509V7.768H6.75888ZM38.3784 18.964C38.3784 20.428 38.1144 21.76 37.5864 22.96C37.0584 24.136 36.3384 25.144 35.4264 25.984C34.5144 26.8 33.4584 27.436 32.2584 27.892C31.0584 28.348 29.7744 28.576 28.4064 28.576C27.0624 28.576 25.7784 28.348 24.5544 27.892C23.3544 27.436 22.2984 26.8 21.3864 25.984C20.4984 25.144 19.7904 24.136 19.2624 22.96C18.7344 21.76 18.4704 20.428 18.4704 18.964C18.4704 17.5 18.7344 16.18 19.2624 15.004C19.7904 13.828 20.4984 12.832 21.3864 12.016C22.2984 11.2 23.3544 10.576 24.5544 10.144C25.7784 9.712 27.0624 9.496 28.4064 9.496C29.7744 9.496 31.0584 9.712 32.2584 10.144C33.4584 10.576 34.5144 11.2 35.4264 12.016C36.3384 12.832 37.0584 13.828 37.5864 15.004C38.1144 16.18 38.3784 17.5 38.3784 18.964ZM32.6904 18.964C32.6904 18.388 32.5944 17.824 32.4024 17.272C32.2104 16.72 31.9344 16.24 31.5744 15.832C31.2144 15.4 30.7704 15.052 30.2424 14.788C29.7144 14.524 29.1024 14.392 28.4064 14.392C27.7104 14.392 27.0984 14.524 26.5704 14.788C26.0424 15.052 25.5984 15.4 25.2384 15.832C24.9024 16.24 24.6384 16.72 24.4464 17.272C24.2784 17.824 24.1944 18.388 24.1944 18.964C24.1944 19.54 24.2784 20.104 24.4464 20.656C24.6384 21.208 24.9144 21.712 25.2744 22.168C25.6344 22.6 26.0784 22.948 26.6064 23.212C27.1344 23.476 27.7464 23.608 28.4424 23.608C29.1384 23.608 29.7504 23.476 30.2784 23.212C30.8064 22.948 31.2504 22.6 31.6104 22.168C31.9704 21.712 32.2344 21.208 32.4024 20.656C32.5944 20.104 32.6904 19.54 32.6904 18.964ZM61.1245 18.964C61.1245 20.428 60.8605 21.76 60.3325 22.96C59.8045 24.136 59.0845 25.144 58.1725 25.984C57.2605 26.8 56.2045 27.436 55.0045 27.892C53.8045 28.348 52.5205 28.576 51.1525 28.576C49.8085 28.576 48.5245 28.348 47.3005 27.892C46.1005 27.436 45.0445 26.8 44.1325 25.984C43.2445 25.144 42.5365 24.136 42.0085 22.96C41.4805 21.76 41.2165 20.428 41.2165 18.964C41.2165 17.5 41.4805 16.18 42.0085 15.004C42.5365 13.828 43.2445 12.832 44.1325 12.016C45.0445 11.2 46.1005 10.576 47.3005 10.144C48.5245 9.712 49.8085 9.496 51.1525 9.496C52.5205 9.496 53.8045 9.712 55.0045 10.144C56.2045 10.576 57.2605 11.2 58.1725 12.016C59.0845 12.832 59.8045 13.828 60.3325 15.004C60.8605 16.18 61.1245 17.5 61.1245 18.964ZM55.4365 18.964C55.4365 18.388 55.3405 17.824 55.1485 17.272C54.9565 16.72 54.6805 16.24 54.3205 15.832C53.9605 15.4 53.5165 15.052 52.9885 14.788C52.4605 14.524 51.8485 14.392 51.1525 14.392C50.4565 14.392 49.8445 14.524 49.3165 14.788C48.7885 15.052 48.3445 15.4 47.9845 15.832C47.6485 16.24 47.3845 16.72 47.1925 17.272C47.0245 17.824 46.9405 18.388 46.9405 18.964C46.9405 19.54 47.0245 20.104 47.1925 20.656C47.3845 21.208 47.6605 21.712 48.0205 22.168C48.3805 22.6 48.8245 22.948 49.3525 23.212C49.8805 23.476 50.4925 23.608 51.1885 23.608C51.8845 23.608 52.4965 23.476 53.0245 23.212C53.5525 22.948 53.9965 22.6 54.3565 22.168C54.7165 21.712 54.9805 21.208 55.1485 20.656C55.3405 20.104 55.4365 19.54 55.4365 18.964ZM78.4346 28V25.66H78.3626C77.7866 26.572 76.9586 27.28 75.8786 27.784C74.8226 28.264 73.6946 28.504 72.4946 28.504C71.1506 28.504 69.9506 28.24 68.8946 27.712C67.8386 27.184 66.9386 26.488 66.1946 25.624C65.4746 24.736 64.9226 23.716 64.5386 22.564C64.1546 21.412 63.9626 20.212 63.9626 18.964C63.9626 17.716 64.1546 16.528 64.5386 15.4C64.9466 14.248 65.5106 13.24 66.2306 12.376C66.9746 11.512 67.8626 10.828 68.8946 10.324C69.9506 9.82 71.1266 9.568 72.4226 9.568C73.7426 9.568 74.8586 9.82 75.7706 10.324C76.6826 10.828 77.3906 11.38 77.8946 11.98H77.9666V0.783998H83.8706V28H78.4346ZM78.2186 19C78.2186 18.424 78.1106 17.86 77.8946 17.308C77.7026 16.756 77.4146 16.264 77.0306 15.832C76.6706 15.4 76.2266 15.052 75.6986 14.788C75.1706 14.524 74.5706 14.392 73.8986 14.392C73.2026 14.392 72.5906 14.524 72.0626 14.788C71.5346 15.052 71.0906 15.4 70.7306 15.832C70.3706 16.24 70.0946 16.72 69.9026 17.272C69.7346 17.824 69.6506 18.388 69.6506 18.964C69.6506 19.54 69.7346 20.116 69.9026 20.692C70.0946 21.244 70.3706 21.736 70.7306 22.168C71.0906 22.6 71.5346 22.948 72.0626 23.212C72.5906 23.476 73.2026 23.608 73.8986 23.608C74.5706 23.608 75.1706 23.476 75.6986 23.212C76.2266 22.948 76.6706 22.6 77.0306 22.168C77.4146 21.736 77.7026 21.244 77.8946 20.692C78.1106 20.14 78.2186 19.576 78.2186 19ZM114.082 28L103.822 11.332H103.714L103.858 28H97.8819V2.512H104.902L115.126 19.144H115.234L115.09 2.512H121.066V28H114.082ZM138.347 16.984C138.347 16.048 138.047 15.244 137.447 14.572C136.871 13.9 135.995 13.564 134.819 13.564C134.243 13.564 133.715 13.66 133.235 13.852C132.755 14.02 132.335 14.26 131.975 14.572C131.615 14.884 131.327 15.256 131.111 15.688C130.895 16.096 130.775 16.528 130.751 16.984H138.347ZM143.783 19.252C143.783 19.492 143.783 19.732 143.783 19.972C143.783 20.212 143.771 20.44 143.747 20.656H130.751C130.799 21.16 130.943 21.616 131.183 22.024C131.447 22.432 131.771 22.792 132.155 23.104C132.563 23.392 133.007 23.62 133.487 23.788C133.991 23.956 134.507 24.04 135.035 24.04C135.971 24.04 136.763 23.872 137.411 23.536C138.059 23.176 138.587 22.72 138.995 22.168L143.099 24.76C142.259 25.984 141.143 26.932 139.751 27.604C138.383 28.252 136.787 28.576 134.963 28.576C133.619 28.576 132.347 28.372 131.147 27.964C129.947 27.532 128.891 26.92 127.979 26.128C127.091 25.312 126.383 24.316 125.855 23.14C125.351 21.964 125.099 20.62 125.099 19.108C125.099 17.644 125.351 16.324 125.855 15.148C126.359 13.948 127.043 12.94 127.907 12.124C128.771 11.284 129.791 10.636 130.967 10.18C132.143 9.724 133.415 9.496 134.783 9.496C136.103 9.496 137.315 9.724 138.419 10.18C139.523 10.612 140.471 11.248 141.263 12.088C142.055 12.928 142.667 13.948 143.099 15.148C143.555 16.348 143.783 17.716 143.783 19.252ZM153.853 14.5V21.34C153.853 22.18 154.009 22.816 154.321 23.248C154.657 23.656 155.245 23.86 156.085 23.86C156.373 23.86 156.673 23.836 156.985 23.788C157.321 23.74 157.597 23.668 157.813 23.572L157.885 27.892C157.477 28.036 156.961 28.156 156.337 28.252C155.713 28.372 155.089 28.432 154.465 28.432C153.265 28.432 152.257 28.288 151.441 28C150.625 27.688 149.965 27.256 149.461 26.704C148.981 26.128 148.633 25.456 148.417 24.688C148.201 23.896 148.093 23.02 148.093 22.06V14.5H145.213V10.072H148.057V5.356H153.853V10.072H158.065V14.5H153.853ZM183.663 28H177.723L174.195 16.84H174.123L170.667 28H164.727L158.535 10.072H164.907L168.003 21.412H168.111L171.315 10.072H177.255L180.567 21.412H180.639L183.771 10.072H189.891L183.663 28ZM211.207 18.964C211.207 20.428 210.943 21.76 210.415 22.96C209.887 24.136 209.167 25.144 208.255 25.984C207.343 26.8 206.287 27.436 205.087 27.892C203.887 28.348 202.603 28.576 201.235 28.576C199.891 28.576 198.607 28.348 197.383 27.892C196.183 27.436 195.127 26.8 194.215 25.984C193.327 25.144 192.619 24.136 192.091 22.96C191.563 21.76 191.299 20.428 191.299 18.964C191.299 17.5 191.563 16.18 192.091 15.004C192.619 13.828 193.327 12.832 194.215 12.016C195.127 11.2 196.183 10.576 197.383 10.144C198.607 9.712 199.891 9.496 201.235 9.496C202.603 9.496 203.887 9.712 205.087 10.144C206.287 10.576 207.343 11.2 208.255 12.016C209.167 12.832 209.887 13.828 210.415 15.004C210.943 16.18 211.207 17.5 211.207 18.964ZM205.519 18.964C205.519 18.388 205.423 17.824 205.231 17.272C205.039 16.72 204.763 16.24 204.403 15.832C204.043 15.4 203.599 15.052 203.071 14.788C202.543 14.524 201.931 14.392 201.235 14.392C200.539 14.392 199.927 14.524 199.399 14.788C198.871 15.052 198.427 15.4 198.067 15.832C197.731 16.24 197.467 16.72 197.275 17.272C197.107 17.824 197.023 18.388 197.023 18.964C197.023 19.54 197.107 20.104 197.275 20.656C197.467 21.208 197.743 21.712 198.103 22.168C198.463 22.6 198.907 22.948 199.435 23.212C199.963 23.476 200.575 23.608 201.271 23.608C201.967 23.608 202.579 23.476 203.107 23.212C203.635 22.948 204.079 22.6 204.439 22.168C204.799 21.712 205.063 21.208 205.231 20.656C205.423 20.104 205.519 19.54 205.519 18.964ZM226.573 14.896C226.309 14.824 226.045 14.776 225.781 14.752C225.541 14.728 225.301 14.716 225.061 14.716C224.269 14.716 223.597 14.86 223.045 15.148C222.517 15.436 222.085 15.784 221.749 16.192C221.437 16.6 221.209 17.044 221.065 17.524C220.921 18.004 220.849 18.424 220.849 18.784V28H214.945V10.072H220.633V12.664H220.705C221.161 11.752 221.809 11.008 222.649 10.432C223.489 9.856 224.461 9.568 225.565 9.568C225.805 9.568 226.033 9.58 226.249 9.604C226.489 9.628 226.681 9.664 226.825 9.712L226.573 14.896ZM248.478 28H241.17L235.302 19.396H235.194V28H229.254V0.783998H235.194V17.344H235.302L241.026 10.072H248.19L241.278 18.172L248.478 28ZM276.599 28L274.619 22.996H264.755L262.883 28H256.187L266.879 2.512H272.855L283.439 28H276.599ZM269.759 9.316L266.519 18.064H272.927L269.759 9.316ZM304.23 26.308C304.23 28.06 303.978 29.584 303.474 30.88C302.97 32.176 302.262 33.244 301.35 34.084C300.438 34.948 299.322 35.584 298.002 35.992C296.706 36.424 295.266 36.64 293.682 36.64C292.098 36.64 290.466 36.4 288.786 35.92C287.13 35.44 285.69 34.744 284.466 33.832L287.418 29.62C288.282 30.388 289.23 30.952 290.262 31.312C291.318 31.696 292.35 31.888 293.358 31.888C295.086 31.888 296.358 31.432 297.174 30.52C298.014 29.608 298.434 28.396 298.434 26.884V25.804H298.326C297.774 26.524 297.03 27.1 296.094 27.532C295.158 27.964 294.09 28.18 292.89 28.18C291.522 28.18 290.31 27.94 289.254 27.46C288.198 26.956 287.298 26.284 286.554 25.444C285.834 24.604 285.282 23.632 284.898 22.528C284.514 21.4 284.322 20.212 284.322 18.964C284.322 17.716 284.514 16.528 284.898 15.4C285.282 14.272 285.834 13.276 286.554 12.412C287.298 11.548 288.198 10.864 289.254 10.36C290.31 9.832 291.51 9.568 292.854 9.568C293.982 9.568 295.062 9.796 296.094 10.252C297.126 10.708 297.954 11.416 298.578 12.376H298.65V10.072H304.23V26.308ZM298.614 18.928C298.614 18.328 298.506 17.752 298.29 17.2C298.098 16.648 297.81 16.168 297.426 15.76C297.042 15.328 296.586 14.992 296.058 14.752C295.53 14.512 294.93 14.392 294.258 14.392C293.586 14.392 292.986 14.512 292.458 14.752C291.954 14.992 291.522 15.316 291.162 15.724C290.802 16.132 290.526 16.612 290.334 17.164C290.142 17.716 290.046 18.304 290.046 18.928C290.046 19.528 290.142 20.104 290.334 20.656C290.526 21.208 290.802 21.7 291.162 22.132C291.522 22.54 291.954 22.876 292.458 23.14C292.986 23.38 293.586 23.5 294.258 23.5C294.93 23.5 295.53 23.38 296.058 23.14C296.61 22.876 297.066 22.54 297.426 22.132C297.81 21.724 298.098 21.244 298.29 20.692C298.506 20.14 298.614 19.552 298.614 18.928ZM320.545 14.896C320.281 14.824 320.017 14.776 319.753 14.752C319.513 14.728 319.273 14.716 319.033 14.716C318.241 14.716 317.569 14.86 317.017 15.148C316.489 15.436 316.057 15.784 315.721 16.192C315.409 16.6 315.181 17.044 315.037 17.524C314.893 18.004 314.821 18.424 314.821 18.784V28H308.917V10.072H314.605V12.664H314.677C315.133 11.752 315.781 11.008 316.621 10.432C317.461 9.856 318.433 9.568 319.537 9.568C319.777 9.568 320.005 9.58 320.221 9.604C320.461 9.628 320.653 9.664 320.797 9.712L320.545 14.896ZM341.566 18.964C341.566 20.428 341.302 21.76 340.774 22.96C340.246 24.136 339.526 25.144 338.614 25.984C337.702 26.8 336.646 27.436 335.446 27.892C334.246 28.348 332.962 28.576 331.594 28.576C330.25 28.576 328.966 28.348 327.742 27.892C326.542 27.436 325.486 26.8 324.574 25.984C323.686 25.144 322.978 24.136 322.45 22.96C321.922 21.76 321.658 20.428 321.658 18.964C321.658 17.5 321.922 16.18 322.45 15.004C322.978 13.828 323.686 12.832 324.574 12.016C325.486 11.2 326.542 10.576 327.742 10.144C328.966 9.712 330.25 9.496 331.594 9.496C332.962 9.496 334.246 9.712 335.446 10.144C336.646 10.576 337.702 11.2 338.614 12.016C339.526 12.832 340.246 13.828 340.774 15.004C341.302 16.18 341.566 17.5 341.566 18.964ZM335.878 18.964C335.878 18.388 335.782 17.824 335.59 17.272C335.398 16.72 335.122 16.24 334.762 15.832C334.402 15.4 333.958 15.052 333.43 14.788C332.902 14.524 332.29 14.392 331.594 14.392C330.898 14.392 330.286 14.524 329.758 14.788C329.23 15.052 328.786 15.4 328.426 15.832C328.09 16.24 327.826 16.72 327.634 17.272C327.466 17.824 327.382 18.388 327.382 18.964C327.382 19.54 327.466 20.104 327.634 20.656C327.826 21.208 328.102 21.712 328.462 22.168C328.822 22.6 329.266 22.948 329.794 23.212C330.322 23.476 330.934 23.608 331.63 23.608C332.326 23.608 332.938 23.476 333.466 23.212C333.994 22.948 334.438 22.6 334.798 22.168C335.158 21.712 335.422 21.208 335.59 20.656C335.782 20.104 335.878 19.54 335.878 18.964Z" fill="#53B98A"/>
</svg>
