<svg width="155" height="125" viewBox="0 0 155 125" fill="none" xmlns="http://www.w3.org/2000/svg">
<path d="M9.712 7.768V13.024H19.576V18.1H9.712V28H3.628V2.512H20.404V7.768H9.712ZM41.3315 18.964C41.3315 20.428 41.0675 21.76 40.5395 22.96C40.0115 24.136 39.2915 25.144 38.3795 25.984C37.4675 26.8 36.4115 27.436 35.2115 27.892C34.0115 28.348 32.7275 28.576 31.3595 28.576C30.0155 28.576 28.7315 28.348 27.5075 27.892C26.3075 27.436 25.2515 26.8 24.3395 25.984C23.4515 25.144 22.7435 24.136 22.2155 22.96C21.6875 21.76 21.4235 20.428 21.4235 18.964C21.4235 17.5 21.6875 16.18 22.2155 15.004C22.7435 13.828 23.4515 12.832 24.3395 12.016C25.2515 11.2 26.3075 10.576 27.5075 10.144C28.7315 9.712 30.0155 9.496 31.3595 9.496C32.7275 9.496 34.0115 9.712 35.2115 10.144C36.4115 10.576 37.4675 11.2 38.3795 12.016C39.2915 12.832 40.0115 13.828 40.5395 15.004C41.0675 16.18 41.3315 17.5 41.3315 18.964ZM35.6435 18.964C35.6435 18.388 35.5475 17.824 35.3555 17.272C35.1635 16.72 34.8875 16.24 34.5275 15.832C34.1675 15.4 33.7235 15.052 33.1955 14.788C32.6675 14.524 32.0555 14.392 31.3595 14.392C30.6635 14.392 30.0515 14.524 29.5235 14.788C28.9955 15.052 28.5515 15.4 28.1915 15.832C27.8555 16.24 27.5915 16.72 27.3995 17.272C27.2315 17.824 27.1475 18.388 27.1475 18.964C27.1475 19.54 27.2315 20.104 27.3995 20.656C27.5915 21.208 27.8675 21.712 28.2275 22.168C28.5875 22.6 29.0315 22.948 29.5595 23.212C30.0875 23.476 30.6995 23.608 31.3955 23.608C32.0915 23.608 32.7035 23.476 33.2315 23.212C33.7595 22.948 34.2035 22.6 34.5635 22.168C34.9235 21.712 35.1875 21.208 35.3555 20.656C35.5475 20.104 35.6435 19.54 35.6435 18.964ZM64.0776 18.964C64.0776 20.428 63.8136 21.76 63.2856 22.96C62.7576 24.136 62.0376 25.144 61.1256 25.984C60.2136 26.8 59.1576 27.436 57.9576 27.892C56.7576 28.348 55.4736 28.576 54.1056 28.576C52.7616 28.576 51.4776 28.348 50.2536 27.892C49.0536 27.436 47.9976 26.8 47.0856 25.984C46.1976 25.144 45.4896 24.136 44.9616 22.96C44.4336 21.76 44.1696 20.428 44.1696 18.964C44.1696 17.5 44.4336 16.18 44.9616 15.004C45.4896 13.828 46.1976 12.832 47.0856 12.016C47.9976 11.2 49.0536 10.576 50.2536 10.144C51.4776 9.712 52.7616 9.496 54.1056 9.496C55.4736 9.496 56.7576 9.712 57.9576 10.144C59.1576 10.576 60.2136 11.2 61.1256 12.016C62.0376 12.832 62.7576 13.828 63.2856 15.004C63.8136 16.18 64.0776 17.5 64.0776 18.964ZM58.3896 18.964C58.3896 18.388 58.2936 17.824 58.1016 17.272C57.9096 16.72 57.6336 16.24 57.2736 15.832C56.9136 15.4 56.4696 15.052 55.9416 14.788C55.4136 14.524 54.8016 14.392 54.1056 14.392C53.4096 14.392 52.7976 14.524 52.2696 14.788C51.7416 15.052 51.2976 15.4 50.9376 15.832C50.6016 16.24 50.3376 16.72 50.1456 17.272C49.9776 17.824 49.8936 18.388 49.8936 18.964C49.8936 19.54 49.9776 20.104 50.1456 20.656C50.3376 21.208 50.6136 21.712 50.9736 22.168C51.3336 22.6 51.7776 22.948 52.3056 23.212C52.8336 23.476 53.4456 23.608 54.1416 23.608C54.8376 23.608 55.4496 23.476 55.9776 23.212C56.5056 22.948 56.9496 22.6 57.3096 22.168C57.6696 21.712 57.9336 21.208 58.1016 20.656C58.2936 20.104 58.3896 19.54 58.3896 18.964ZM81.3877 28V25.66H81.3157C80.7397 26.572 79.9117 27.28 78.8317 27.784C77.7757 28.264 76.6477 28.504 75.4477 28.504C74.1037 28.504 72.9037 28.24 71.8477 27.712C70.7917 27.184 69.8917 26.488 69.1477 25.624C68.4277 24.736 67.8757 23.716 67.4917 22.564C67.1077 21.412 66.9157 20.212 66.9157 18.964C66.9157 17.716 67.1077 16.528 67.4917 15.4C67.8997 14.248 68.4637 13.24 69.1837 12.376C69.9277 11.512 70.8157 10.828 71.8477 10.324C72.9037 9.82 74.0797 9.568 75.3757 9.568C76.6957 9.568 77.8117 9.82 78.7237 10.324C79.6357 10.828 80.3437 11.38 80.8477 11.98H80.9197V0.783998H86.8237V28H81.3877ZM81.1717 19C81.1717 18.424 81.0637 17.86 80.8477 17.308C80.6557 16.756 80.3677 16.264 79.9837 15.832C79.6237 15.4 79.1797 15.052 78.6517 14.788C78.1237 14.524 77.5237 14.392 76.8517 14.392C76.1557 14.392 75.5437 14.524 75.0157 14.788C74.4877 15.052 74.0437 15.4 73.6837 15.832C73.3237 16.24 73.0477 16.72 72.8557 17.272C72.6877 17.824 72.6037 18.388 72.6037 18.964C72.6037 19.54 72.6877 20.116 72.8557 20.692C73.0477 21.244 73.3237 21.736 73.6837 22.168C74.0437 22.6 74.4877 22.948 75.0157 23.212C75.5437 23.476 76.1557 23.608 76.8517 23.608C77.5237 23.608 78.1237 23.476 78.6517 23.212C79.1797 22.948 79.6237 22.6 79.9837 22.168C80.3677 21.736 80.6557 21.244 80.8477 20.692C81.0637 20.14 81.1717 19.576 81.1717 19ZM19.828 72L9.568 55.332H9.46L9.604 72H3.628V46.512H10.648L20.872 63.144H20.98L20.836 46.512H26.812V72H19.828ZM44.0934 60.984C44.0934 60.048 43.7934 59.244 43.1934 58.572C42.6174 57.9 41.7414 57.564 40.5654 57.564C39.9894 57.564 39.4614 57.66 38.9814 57.852C38.5014 58.02 38.0814 58.26 37.7214 58.572C37.3614 58.884 37.0734 59.256 36.8574 59.688C36.6414 60.096 36.5214 60.528 36.4974 60.984H44.0934ZM49.5294 63.252C49.5294 63.492 49.5294 63.732 49.5294 63.972C49.5294 64.212 49.5174 64.44 49.4934 64.656H36.4974C36.5454 65.16 36.6894 65.616 36.9294 66.024C37.1934 66.432 37.5174 66.792 37.9014 67.104C38.3094 67.392 38.7534 67.62 39.2334 67.788C39.7374 67.956 40.2534 68.04 40.7814 68.04C41.7174 68.04 42.5094 67.872 43.1574 67.536C43.8054 67.176 44.3334 66.72 44.7414 66.168L48.8454 68.76C48.0054 69.984 46.8894 70.932 45.4974 71.604C44.1294 72.252 42.5334 72.576 40.7094 72.576C39.3654 72.576 38.0934 72.372 36.8934 71.964C35.6934 71.532 34.6374 70.92 33.7254 70.128C32.8374 69.312 32.1294 68.316 31.6014 67.14C31.0974 65.964 30.8454 64.62 30.8454 63.108C30.8454 61.644 31.0974 60.324 31.6014 59.148C32.1054 57.948 32.7894 56.94 33.6534 56.124C34.5174 55.284 35.5374 54.636 36.7134 54.18C37.8894 53.724 39.1614 53.496 40.5294 53.496C41.8494 53.496 43.0614 53.724 44.1654 54.18C45.2694 54.612 46.2174 55.248 47.0094 56.088C47.8014 56.928 48.4134 57.948 48.8454 59.148C49.3014 60.348 49.5294 61.716 49.5294 63.252ZM59.5987 58.5V65.34C59.5987 66.18 59.7547 66.816 60.0667 67.248C60.4027 67.656 60.9907 67.86 61.8307 67.86C62.1187 67.86 62.4187 67.836 62.7307 67.788C63.0667 67.74 63.3427 67.668 63.5587 67.572L63.6307 71.892C63.2227 72.036 62.7067 72.156 62.0827 72.252C61.4587 72.372 60.8347 72.432 60.2107 72.432C59.0107 72.432 58.0027 72.288 57.1867 72C56.3707 71.688 55.7107 71.256 55.2067 70.704C54.7267 70.128 54.3787 69.456 54.1627 68.688C53.9467 67.896 53.8387 67.02 53.8387 66.06V58.5H50.9587V54.072H53.8027V49.356H59.5987V54.072H63.8107V58.5H59.5987ZM89.4093 72H83.4693L79.9413 60.84H79.8693L76.4133 72H70.4733L64.2812 54.072H70.6533L73.7493 65.412H73.8573L77.0613 54.072H83.0013L86.3133 65.412H86.3853L89.5173 54.072H95.6373L89.4093 72ZM116.953 62.964C116.953 64.428 116.689 65.76 116.161 66.96C115.633 68.136 114.913 69.144 114.001 69.984C113.089 70.8 112.033 71.436 110.833 71.892C109.633 72.348 108.349 72.576 106.981 72.576C105.637 72.576 104.353 72.348 103.129 71.892C101.929 71.436 100.873 70.8 99.9606 69.984C99.0726 69.144 98.3646 68.136 97.8366 66.96C97.3086 65.76 97.0446 64.428 97.0446 62.964C97.0446 61.5 97.3086 60.18 97.8366 59.004C98.3646 57.828 99.0726 56.832 99.9606 56.016C100.873 55.2 101.929 54.576 103.129 54.144C104.353 53.712 105.637 53.496 106.981 53.496C108.349 53.496 109.633 53.712 110.833 54.144C112.033 54.576 113.089 55.2 114.001 56.016C114.913 56.832 115.633 57.828 116.161 59.004C116.689 60.18 116.953 61.5 116.953 62.964ZM111.265 62.964C111.265 62.388 111.169 61.824 110.977 61.272C110.785 60.72 110.509 60.24 110.149 59.832C109.789 59.4 109.345 59.052 108.817 58.788C108.289 58.524 107.677 58.392 106.981 58.392C106.285 58.392 105.673 58.524 105.145 58.788C104.617 59.052 104.173 59.4 103.813 59.832C103.477 60.24 103.213 60.72 103.021 61.272C102.853 61.824 102.769 62.388 102.769 62.964C102.769 63.54 102.853 64.104 103.021 64.656C103.213 65.208 103.489 65.712 103.849 66.168C104.209 66.6 104.653 66.948 105.181 67.212C105.709 67.476 106.321 67.608 107.017 67.608C107.713 67.608 108.325 67.476 108.853 67.212C109.381 66.948 109.825 66.6 110.185 66.168C110.545 65.712 110.809 65.208 110.977 64.656C111.169 64.104 111.265 63.54 111.265 62.964ZM132.319 58.896C132.055 58.824 131.791 58.776 131.527 58.752C131.287 58.728 131.047 58.716 130.807 58.716C130.015 58.716 129.343 58.86 128.791 59.148C128.263 59.436 127.831 59.784 127.495 60.192C127.183 60.6 126.955 61.044 126.811 61.524C126.667 62.004 126.595 62.424 126.595 62.784V72H120.691V54.072H126.379V56.664H126.451C126.907 55.752 127.555 55.008 128.395 54.432C129.235 53.856 130.207 53.568 131.311 53.568C131.551 53.568 131.779 53.58 131.995 53.604C132.235 53.628 132.427 53.664 132.571 53.712L132.319 58.896ZM154.224 72H146.916L141.048 63.396H140.94V72H135V44.784H140.94V61.344H141.048L146.772 54.072H153.936L147.024 62.172L154.224 72ZM20.908 116L18.928 110.996H9.064L7.192 116H0.496L11.188 90.512H17.164L27.748 116H20.908ZM14.068 97.316L10.828 106.064H17.236L14.068 97.316ZM48.5386 114.308C48.5386 116.06 48.2866 117.584 47.7826 118.88C47.2786 120.176 46.5706 121.244 45.6586 122.084C44.7466 122.948 43.6306 123.584 42.3106 123.992C41.0146 124.424 39.5746 124.64 37.9906 124.64C36.4066 124.64 34.7746 124.4 33.0946 123.92C31.4386 123.44 29.9986 122.744 28.7746 121.832L31.7266 117.62C32.5906 118.388 33.5386 118.952 34.5706 119.312C35.6266 119.696 36.6586 119.888 37.6666 119.888C39.3946 119.888 40.6666 119.432 41.4826 118.52C42.3226 117.608 42.7426 116.396 42.7426 114.884V113.804H42.6346C42.0826 114.524 41.3386 115.1 40.4026 115.532C39.4666 115.964 38.3986 116.18 37.1986 116.18C35.8306 116.18 34.6186 115.94 33.5626 115.46C32.5066 114.956 31.6066 114.284 30.8626 113.444C30.1426 112.604 29.5906 111.632 29.2066 110.528C28.8226 109.4 28.6306 108.212 28.6306 106.964C28.6306 105.716 28.8226 104.528 29.2066 103.4C29.5906 102.272 30.1426 101.276 30.8626 100.412C31.6066 99.548 32.5066 98.864 33.5626 98.36C34.6186 97.832 35.8186 97.568 37.1626 97.568C38.2906 97.568 39.3706 97.796 40.4026 98.252C41.4346 98.708 42.2626 99.416 42.8866 100.376H42.9586V98.072H48.5386V114.308ZM42.9226 106.928C42.9226 106.328 42.8146 105.752 42.5986 105.2C42.4066 104.648 42.1186 104.168 41.7346 103.76C41.3506 103.328 40.8946 102.992 40.3666 102.752C39.8386 102.512 39.2386 102.392 38.5666 102.392C37.8946 102.392 37.2946 102.512 36.7666 102.752C36.2626 102.992 35.8306 103.316 35.4706 103.724C35.1106 104.132 34.8346 104.612 34.6426 105.164C34.4506 105.716 34.3546 106.304 34.3546 106.928C34.3546 107.528 34.4506 108.104 34.6426 108.656C34.8346 109.208 35.1106 109.7 35.4706 110.132C35.8306 110.54 36.2626 110.876 36.7666 111.14C37.2946 111.38 37.8946 111.5 38.5666 111.5C39.2386 111.5 39.8386 111.38 40.3666 111.14C40.9186 110.876 41.3746 110.54 41.7346 110.132C42.1186 109.724 42.4066 109.244 42.5986 108.692C42.8146 108.14 42.9226 107.552 42.9226 106.928ZM64.8539 102.896C64.5899 102.824 64.3259 102.776 64.0619 102.752C63.8219 102.728 63.5819 102.716 63.3419 102.716C62.5499 102.716 61.8779 102.86 61.3259 103.148C60.7979 103.436 60.3659 103.784 60.0299 104.192C59.7179 104.6 59.4899 105.044 59.3459 105.524C59.2019 106.004 59.1299 106.424 59.1299 106.784V116H53.2259V98.072H58.9139V100.664H58.9859C59.4419 99.752 60.0899 99.008 60.9299 98.432C61.7699 97.856 62.7419 97.568 63.8459 97.568C64.0859 97.568 64.3139 97.58 64.5299 97.604C64.7699 97.628 64.9619 97.664 65.1059 97.712L64.8539 102.896ZM85.8745 106.964C85.8745 108.428 85.6105 109.76 85.0825 110.96C84.5545 112.136 83.8345 113.144 82.9225 113.984C82.0105 114.8 80.9545 115.436 79.7545 115.892C78.5545 116.348 77.2705 116.576 75.9025 116.576C74.5585 116.576 73.2745 116.348 72.0505 115.892C70.8505 115.436 69.7945 114.8 68.8825 113.984C67.9945 113.144 67.2865 112.136 66.7585 110.96C66.2305 109.76 65.9665 108.428 65.9665 106.964C65.9665 105.5 66.2305 104.18 66.7585 103.004C67.2865 101.828 67.9945 100.832 68.8825 100.016C69.7945 99.2 70.8505 98.576 72.0505 98.144C73.2745 97.712 74.5585 97.496 75.9025 97.496C77.2705 97.496 78.5545 97.712 79.7545 98.144C80.9545 98.576 82.0105 99.2 82.9225 100.016C83.8345 100.832 84.5545 101.828 85.0825 103.004C85.6105 104.18 85.8745 105.5 85.8745 106.964ZM80.1865 106.964C80.1865 106.388 80.0905 105.824 79.8985 105.272C79.7065 104.72 79.4305 104.24 79.0705 103.832C78.7105 103.4 78.2665 103.052 77.7385 102.788C77.2105 102.524 76.5985 102.392 75.9025 102.392C75.2065 102.392 74.5945 102.524 74.0665 102.788C73.5385 103.052 73.0945 103.4 72.7345 103.832C72.3985 104.24 72.1345 104.72 71.9425 105.272C71.7745 105.824 71.6905 106.388 71.6905 106.964C71.6905 107.54 71.7745 108.104 71.9425 108.656C72.1345 109.208 72.4105 109.712 72.7705 110.168C73.1305 110.6 73.5745 110.948 74.1025 111.212C74.6305 111.476 75.2425 111.608 75.9385 111.608C76.6345 111.608 77.2465 111.476 77.7745 111.212C78.3025 110.948 78.7465 110.6 79.1065 110.168C79.4665 109.712 79.7305 109.208 79.8985 108.656C80.0905 108.104 80.1865 107.54 80.1865 106.964Z" fill="#53B98A"/>
</svg>
