<svg width="531" height="25" viewBox="0 0 531 25" fill="none" xmlns="http://www.w3.org/2000/svg">
<path d="M2.44 19H0.0640001V2.008H10.672V4.096H2.44V9.376H10.144V11.416H2.44V19ZM12.5768 10.072C12.5768 9.768 12.5688 9.376 12.5528 8.896C12.5368 8.416 12.5128 7.992 12.4808 7.624H14.6168C14.6488 7.912 14.6728 8.248 14.6888 8.632C14.7048 9 14.7128 9.304 14.7128 9.544H14.7848C15.1048 8.872 15.5688 8.336 16.1768 7.936C16.8008 7.52 17.4968 7.312 18.2648 7.312C18.6168 7.312 18.9128 7.344 19.1528 7.408L19.0568 9.496C18.7368 9.416 18.3928 9.376 18.0248 9.376C17.4808 9.376 17.0088 9.48 16.6088 9.688C16.2088 9.88 15.8728 10.144 15.6008 10.48C15.3448 10.816 15.1528 11.208 15.0248 11.656C14.8968 12.088 14.8328 12.544 14.8328 13.024V19H12.5768V10.072ZM32.3703 13.288C32.3703 14.168 32.2103 14.976 31.8903 15.712C31.5863 16.448 31.1543 17.088 30.5943 17.632C30.0503 18.16 29.4023 18.576 28.6503 18.88C27.8983 19.168 27.0903 19.312 26.2263 19.312C25.3623 19.312 24.5543 19.168 23.8023 18.88C23.0503 18.576 22.4023 18.16 21.8583 17.632C21.3143 17.088 20.8823 16.448 20.5623 15.712C20.2583 14.976 20.1063 14.168 20.1063 13.288C20.1063 12.408 20.2583 11.608 20.5623 10.888C20.8823 10.152 21.3143 9.52 21.8583 8.992C22.4023 8.464 23.0503 8.056 23.8023 7.768C24.5543 7.464 25.3623 7.312 26.2263 7.312C27.0903 7.312 27.8983 7.464 28.6503 7.768C29.4023 8.056 30.0503 8.464 30.5943 8.992C31.1543 9.52 31.5863 10.152 31.8903 10.888C32.2103 11.608 32.3703 12.408 32.3703 13.288ZM30.0183 13.288C30.0183 12.744 29.9303 12.224 29.7543 11.728C29.5943 11.232 29.3543 10.8 29.0343 10.432C28.7143 10.048 28.3143 9.744 27.8343 9.52C27.3703 9.296 26.8343 9.184 26.2263 9.184C25.6183 9.184 25.0743 9.296 24.5943 9.52C24.1303 9.744 23.7383 10.048 23.4183 10.432C23.0983 10.8 22.8503 11.232 22.6743 11.728C22.5143 12.224 22.4342 12.744 22.4342 13.288C22.4342 13.832 22.5143 14.352 22.6743 14.848C22.8503 15.344 23.0983 15.784 23.4183 16.168C23.7383 16.552 24.1303 16.856 24.5943 17.08C25.0743 17.304 25.6183 17.416 26.2263 17.416C26.8343 17.416 27.3703 17.304 27.8343 17.08C28.3143 16.856 28.7143 16.552 29.0343 16.168C29.3543 15.784 29.5943 15.344 29.7543 14.848C29.9303 14.352 30.0183 13.832 30.0183 13.288ZM37.7067 9.496C37.9947 8.888 38.4507 8.376 39.0747 7.96C39.7147 7.528 40.4667 7.312 41.3307 7.312C42.0987 7.312 42.7867 7.488 43.3947 7.84C44.0187 8.192 44.5067 8.776 44.8587 9.592C45.2427 8.856 45.7787 8.296 46.4667 7.912C47.1547 7.512 47.9067 7.312 48.7227 7.312C49.4587 7.312 50.0907 7.44 50.6187 7.696C51.1467 7.936 51.5867 8.264 51.9387 8.68C52.2907 9.096 52.5467 9.584 52.7067 10.144C52.8827 10.704 52.9707 11.304 52.9707 11.944V19H50.7147V12.688C50.7147 12.224 50.6747 11.784 50.5947 11.368C50.5147 10.952 50.3787 10.584 50.1867 10.264C49.9947 9.944 49.7387 9.688 49.4187 9.496C49.0987 9.304 48.6907 9.208 48.1947 9.208C47.6827 9.208 47.2427 9.32 46.8747 9.544C46.5067 9.752 46.2027 10.032 45.9627 10.384C45.7387 10.72 45.5707 11.104 45.4587 11.536C45.3627 11.968 45.3147 12.408 45.3147 12.856V19H43.0587V12.232C43.0587 11.784 43.0187 11.376 42.9387 11.008C42.8587 10.64 42.7227 10.328 42.5307 10.072C42.3387 9.8 42.0907 9.592 41.7867 9.448C41.4827 9.288 41.1067 9.208 40.6587 9.208C39.8267 9.208 39.1307 9.552 38.5707 10.24C38.0267 10.912 37.7547 11.816 37.7547 12.952V19H35.4987V10.072C35.4987 9.768 35.4907 9.376 35.4747 8.896C35.4587 8.416 35.4347 7.992 35.4027 7.624H37.5387C37.5707 7.912 37.5947 8.24 37.6107 8.608C37.6267 8.96 37.6347 9.256 37.6347 9.496H37.7067ZM63.6199 7.624L66.1879 16.312H66.2359L68.9479 7.624H71.3239L74.0839 16.312H74.1319L76.6999 7.624H79.0759L75.3079 19H72.9559L70.1479 10.456H70.0999L67.3159 19H64.9639L61.1719 7.624H63.6199ZM83.6944 9.352C83.9664 8.792 84.4304 8.312 85.0864 7.912C85.7424 7.512 86.4784 7.312 87.2944 7.312C88.0304 7.312 88.6624 7.44 89.1904 7.696C89.7184 7.936 90.1584 8.264 90.5104 8.68C90.8624 9.096 91.1184 9.584 91.2784 10.144C91.4544 10.704 91.5424 11.304 91.5424 11.944V19H89.2864V12.712C89.2864 12.248 89.2464 11.808 89.1664 11.392C89.1024 10.976 88.9744 10.608 88.7824 10.288C88.5904 9.968 88.3264 9.712 87.9904 9.52C87.6704 9.328 87.2464 9.232 86.7184 9.232C85.8224 9.232 85.0864 9.576 84.5104 10.264C83.9344 10.936 83.6464 11.84 83.6464 12.976V19H81.3904V0.855999H83.6464V9.352H83.6944ZM106.878 13.288C106.878 14.168 106.718 14.976 106.398 15.712C106.094 16.448 105.662 17.088 105.102 17.632C104.558 18.16 103.91 18.576 103.158 18.88C102.406 19.168 101.598 19.312 100.734 19.312C99.8701 19.312 99.0621 19.168 98.3101 18.88C97.5581 18.576 96.9101 18.16 96.3661 17.632C95.8221 17.088 95.3901 16.448 95.0701 15.712C94.7661 14.976 94.6141 14.168 94.6141 13.288C94.6141 12.408 94.7661 11.608 95.0701 10.888C95.3901 10.152 95.8221 9.52 96.3661 8.992C96.9101 8.464 97.5581 8.056 98.3101 7.768C99.0621 7.464 99.8701 7.312 100.734 7.312C101.598 7.312 102.406 7.464 103.158 7.768C103.91 8.056 104.558 8.464 105.102 8.992C105.662 9.52 106.094 10.152 106.398 10.888C106.718 11.608 106.878 12.408 106.878 13.288ZM104.526 13.288C104.526 12.744 104.438 12.224 104.262 11.728C104.102 11.232 103.862 10.8 103.542 10.432C103.222 10.048 102.822 9.744 102.342 9.52C101.878 9.296 101.342 9.184 100.734 9.184C100.126 9.184 99.5821 9.296 99.1021 9.52C98.6381 9.744 98.2461 10.048 97.9261 10.432C97.6061 10.8 97.3581 11.232 97.1821 11.728C97.0221 12.224 96.9421 12.744 96.9421 13.288C96.9421 13.832 97.0221 14.352 97.1821 14.848C97.3581 15.344 97.6061 15.784 97.9261 16.168C98.2461 16.552 98.6381 16.856 99.1021 17.08C99.5821 17.304 100.126 17.416 100.734 17.416C101.342 17.416 101.878 17.304 102.342 17.08C102.822 16.856 103.222 16.552 103.542 16.168C103.862 15.784 104.102 15.344 104.262 14.848C104.438 14.352 104.526 13.832 104.526 13.288ZM112.311 19H110.055V0.855999H112.311V19ZM124.569 12.304C124.553 11.856 124.473 11.44 124.329 11.056C124.201 10.656 124.001 10.312 123.729 10.024C123.473 9.736 123.145 9.512 122.745 9.352C122.361 9.176 121.905 9.088 121.377 9.088C120.897 9.088 120.441 9.176 120.009 9.352C119.593 9.512 119.225 9.736 118.905 10.024C118.601 10.312 118.345 10.656 118.137 11.056C117.945 11.44 117.833 11.856 117.801 12.304H124.569ZM126.849 13.216C126.849 13.344 126.849 13.472 126.849 13.6C126.849 13.728 126.841 13.856 126.825 13.984H117.801C117.817 14.464 117.921 14.92 118.113 15.352C118.321 15.768 118.593 16.136 118.929 16.456C119.265 16.76 119.649 17 120.081 17.176C120.529 17.352 121.001 17.44 121.497 17.44C122.265 17.44 122.929 17.272 123.489 16.936C124.049 16.6 124.489 16.192 124.809 15.712L126.393 16.984C125.785 17.784 125.065 18.376 124.233 18.76C123.417 19.128 122.505 19.312 121.497 19.312C120.633 19.312 119.833 19.168 119.097 18.88C118.361 18.592 117.729 18.192 117.201 17.68C116.673 17.152 116.257 16.52 115.953 15.784C115.649 15.048 115.497 14.232 115.497 13.336C115.497 12.456 115.641 11.648 115.929 10.912C116.233 10.16 116.649 9.52 117.177 8.992C117.705 8.464 118.329 8.056 119.049 7.768C119.769 7.464 120.545 7.312 121.377 7.312C122.209 7.312 122.961 7.448 123.633 7.72C124.321 7.992 124.897 8.384 125.361 8.896C125.841 9.408 126.209 10.032 126.465 10.768C126.721 11.488 126.849 12.304 126.849 13.216ZM143.967 10.504C143.727 10.136 143.367 9.832 142.887 9.592C142.407 9.336 141.895 9.208 141.351 9.208C140.759 9.208 140.231 9.32 139.767 9.544C139.319 9.768 138.935 10.072 138.615 10.456C138.295 10.824 138.047 11.256 137.871 11.752C137.711 12.248 137.631 12.768 137.631 13.312C137.631 13.856 137.711 14.376 137.871 14.872C138.047 15.368 138.295 15.808 138.615 16.192C138.935 16.56 139.327 16.856 139.791 17.08C140.255 17.304 140.783 17.416 141.375 17.416C141.951 17.416 142.471 17.304 142.935 17.08C143.415 16.856 143.807 16.552 144.111 16.168L145.623 17.536C145.143 18.096 144.543 18.536 143.823 18.856C143.103 19.16 142.287 19.312 141.375 19.312C140.495 19.312 139.679 19.168 138.927 18.88C138.191 18.592 137.551 18.192 137.007 17.68C136.463 17.152 136.031 16.52 135.711 15.784C135.407 15.048 135.255 14.224 135.255 13.312C135.255 12.416 135.407 11.6 135.711 10.864C136.015 10.128 136.439 9.496 136.983 8.968C137.527 8.44 138.167 8.032 138.903 7.744C139.655 7.456 140.463 7.312 141.327 7.312C142.127 7.312 142.919 7.472 143.703 7.792C144.503 8.112 145.135 8.576 145.599 9.184L143.967 10.504ZM147.858 10.072C147.858 9.768 147.85 9.376 147.834 8.896C147.818 8.416 147.794 7.992 147.762 7.624H149.898C149.93 7.912 149.954 8.248 149.97 8.632C149.986 9 149.994 9.304 149.994 9.544H150.066C150.386 8.872 150.85 8.336 151.458 7.936C152.082 7.52 152.778 7.312 153.546 7.312C153.898 7.312 154.194 7.344 154.434 7.408L154.338 9.496C154.018 9.416 153.674 9.376 153.306 9.376C152.762 9.376 152.29 9.48 151.89 9.688C151.49 9.88 151.154 10.144 150.882 10.48C150.626 10.816 150.434 11.208 150.306 11.656C150.178 12.088 150.114 12.544 150.114 13.024V19H147.858V10.072ZM163.329 11.632C163.329 10.784 163.073 10.16 162.561 9.76C162.049 9.344 161.369 9.136 160.521 9.136C159.881 9.136 159.273 9.264 158.697 9.52C158.137 9.76 157.665 10.072 157.281 10.456L156.081 9.016C156.641 8.488 157.321 8.072 158.121 7.768C158.937 7.464 159.809 7.312 160.737 7.312C161.553 7.312 162.257 7.432 162.849 7.672C163.457 7.896 163.953 8.208 164.337 8.608C164.721 9.008 165.009 9.48 165.201 10.024C165.393 10.568 165.489 11.152 165.489 11.776V16.744C165.489 17.128 165.497 17.536 165.513 17.968C165.545 18.384 165.593 18.728 165.657 19H163.617C163.489 18.456 163.425 17.912 163.425 17.368H163.353C162.937 17.976 162.409 18.448 161.769 18.784C161.145 19.12 160.401 19.288 159.537 19.288C159.089 19.288 158.617 19.224 158.121 19.096C157.641 18.984 157.201 18.792 156.801 18.52C156.401 18.248 156.065 17.888 155.793 17.44C155.537 16.992 155.409 16.44 155.409 15.784C155.409 14.92 155.641 14.24 156.105 13.744C156.569 13.232 157.177 12.848 157.929 12.592C158.681 12.32 159.529 12.144 160.473 12.064C161.417 11.984 162.369 11.944 163.329 11.944V11.632ZM162.777 13.576C162.217 13.576 161.633 13.6 161.025 13.648C160.433 13.696 159.889 13.792 159.393 13.936C158.913 14.08 158.513 14.296 158.193 14.584C157.873 14.872 157.713 15.256 157.713 15.736C157.713 16.072 157.777 16.352 157.905 16.576C158.049 16.8 158.233 16.984 158.457 17.128C158.681 17.272 158.929 17.376 159.201 17.44C159.473 17.488 159.753 17.512 160.041 17.512C161.097 17.512 161.905 17.2 162.465 16.576C163.041 15.936 163.329 15.136 163.329 14.176V13.576H162.777ZM171.489 17.2V19H169.305V0.855999H171.561V9.328H171.633C172.017 8.768 172.553 8.296 173.241 7.912C173.929 7.512 174.745 7.312 175.689 7.312C176.537 7.312 177.305 7.464 177.993 7.768C178.697 8.072 179.297 8.496 179.793 9.04C180.305 9.584 180.697 10.224 180.969 10.96C181.241 11.68 181.377 12.456 181.377 13.288C181.377 14.12 181.241 14.904 180.969 15.64C180.697 16.376 180.313 17.016 179.817 17.56C179.321 18.104 178.721 18.536 178.017 18.856C177.313 19.16 176.521 19.312 175.641 19.312C174.825 19.312 174.049 19.136 173.312 18.784C172.577 18.416 171.985 17.888 171.537 17.2H171.489ZM179.049 13.288C179.049 12.76 178.969 12.248 178.809 11.752C178.649 11.256 178.409 10.816 178.089 10.432C177.769 10.048 177.369 9.744 176.889 9.52C176.425 9.296 175.881 9.184 175.257 9.184C174.681 9.184 174.153 9.296 173.673 9.52C173.209 9.744 172.809 10.048 172.473 10.432C172.137 10.816 171.873 11.256 171.681 11.752C171.505 12.248 171.417 12.768 171.417 13.312C171.417 13.856 171.505 14.376 171.681 14.872C171.873 15.368 172.137 15.808 172.473 16.192C172.809 16.56 173.209 16.856 173.673 17.08C174.153 17.304 174.681 17.416 175.257 17.416C175.881 17.416 176.425 17.304 176.889 17.08C177.369 16.84 177.769 16.528 178.089 16.144C178.409 15.76 178.649 15.32 178.809 14.824C178.969 14.328 179.049 13.816 179.049 13.288ZM196.082 9.472H193.058V15.4C193.058 16.088 193.186 16.584 193.442 16.888C193.698 17.176 194.106 17.32 194.666 17.32C194.874 17.32 195.098 17.296 195.338 17.248C195.578 17.2 195.794 17.128 195.986 17.032L196.058 18.88C195.786 18.976 195.482 19.048 195.146 19.096C194.826 19.16 194.49 19.192 194.138 19.192C193.066 19.192 192.242 18.896 191.666 18.304C191.106 17.712 190.826 16.824 190.826 15.64V9.472H188.642V7.624H190.826V4.36H193.058V7.624H196.082V9.472ZM209.933 13.288C209.933 14.168 209.773 14.976 209.453 15.712C209.149 16.448 208.717 17.088 208.157 17.632C207.613 18.16 206.965 18.576 206.213 18.88C205.461 19.168 204.653 19.312 203.789 19.312C202.925 19.312 202.117 19.168 201.365 18.88C200.613 18.576 199.965 18.16 199.421 17.632C198.877 17.088 198.445 16.448 198.125 15.712C197.821 14.976 197.669 14.168 197.669 13.288C197.669 12.408 197.821 11.608 198.125 10.888C198.445 10.152 198.877 9.52 199.421 8.992C199.965 8.464 200.613 8.056 201.365 7.768C202.117 7.464 202.925 7.312 203.789 7.312C204.653 7.312 205.461 7.464 206.213 7.768C206.965 8.056 207.613 8.464 208.157 8.992C208.717 9.52 209.149 10.152 209.453 10.888C209.773 11.608 209.933 12.408 209.933 13.288ZM207.581 13.288C207.581 12.744 207.493 12.224 207.317 11.728C207.157 11.232 206.917 10.8 206.597 10.432C206.277 10.048 205.877 9.744 205.397 9.52C204.933 9.296 204.397 9.184 203.789 9.184C203.181 9.184 202.637 9.296 202.157 9.52C201.693 9.744 201.301 10.048 200.981 10.432C200.661 10.8 200.413 11.232 200.237 11.728C200.077 12.224 199.997 12.744 199.997 13.288C199.997 13.832 200.077 14.352 200.237 14.848C200.413 15.344 200.661 15.784 200.981 16.168C201.301 16.552 201.693 16.856 202.157 17.08C202.637 17.304 203.181 17.416 203.789 17.416C204.397 17.416 204.933 17.304 205.397 17.08C205.877 16.856 206.277 16.552 206.597 16.168C206.917 15.784 207.157 15.344 207.317 14.848C207.493 14.352 207.581 13.832 207.581 13.288ZM219.061 10.072C219.061 9.768 219.053 9.376 219.037 8.896C219.021 8.416 218.997 7.992 218.965 7.624H221.101C221.133 7.912 221.157 8.248 221.173 8.632C221.189 9 221.197 9.304 221.197 9.544H221.269C221.589 8.872 222.053 8.336 222.661 7.936C223.285 7.52 223.981 7.312 224.749 7.312C225.101 7.312 225.397 7.344 225.637 7.408L225.541 9.496C225.221 9.416 224.877 9.376 224.509 9.376C223.965 9.376 223.493 9.48 223.093 9.688C222.693 9.88 222.357 10.144 222.085 10.48C221.829 10.816 221.637 11.208 221.509 11.656C221.381 12.088 221.317 12.544 221.317 13.024V19H219.061V10.072ZM235.663 12.304C235.647 11.856 235.567 11.44 235.423 11.056C235.295 10.656 235.095 10.312 234.823 10.024C234.567 9.736 234.239 9.512 233.839 9.352C233.455 9.176 232.999 9.088 232.471 9.088C231.991 9.088 231.535 9.176 231.103 9.352C230.687 9.512 230.319 9.736 229.999 10.024C229.695 10.312 229.439 10.656 229.231 11.056C229.039 11.44 228.927 11.856 228.895 12.304H235.663ZM237.943 13.216C237.943 13.344 237.943 13.472 237.943 13.6C237.943 13.728 237.935 13.856 237.919 13.984H228.895C228.911 14.464 229.015 14.92 229.207 15.352C229.415 15.768 229.687 16.136 230.023 16.456C230.359 16.76 230.743 17 231.175 17.176C231.623 17.352 232.095 17.44 232.591 17.44C233.359 17.44 234.023 17.272 234.583 16.936C235.143 16.6 235.583 16.192 235.903 15.712L237.487 16.984C236.879 17.784 236.159 18.376 235.327 18.76C234.511 19.128 233.599 19.312 232.591 19.312C231.727 19.312 230.927 19.168 230.191 18.88C229.455 18.592 228.823 18.192 228.295 17.68C227.767 17.152 227.351 16.52 227.047 15.784C226.743 15.048 226.591 14.232 226.591 13.336C226.591 12.456 226.735 11.648 227.023 10.912C227.327 10.16 227.743 9.52 228.271 8.992C228.799 8.464 229.423 8.056 230.143 7.768C230.863 7.464 231.639 7.312 232.471 7.312C233.303 7.312 234.055 7.448 234.727 7.72C235.415 7.992 235.991 8.384 236.455 8.896C236.935 9.408 237.303 10.032 237.559 10.768C237.815 11.488 237.943 12.304 237.943 13.216ZM248.032 11.632C248.032 10.784 247.776 10.16 247.264 9.76C246.752 9.344 246.072 9.136 245.224 9.136C244.584 9.136 243.976 9.264 243.4 9.52C242.84 9.76 242.368 10.072 241.984 10.456L240.784 9.016C241.344 8.488 242.024 8.072 242.824 7.768C243.64 7.464 244.512 7.312 245.44 7.312C246.256 7.312 246.96 7.432 247.552 7.672C248.16 7.896 248.656 8.208 249.04 8.608C249.424 9.008 249.712 9.48 249.904 10.024C250.096 10.568 250.192 11.152 250.192 11.776V16.744C250.192 17.128 250.2 17.536 250.216 17.968C250.248 18.384 250.296 18.728 250.36 19H248.32C248.192 18.456 248.128 17.912 248.128 17.368H248.056C247.64 17.976 247.112 18.448 246.472 18.784C245.848 19.12 245.104 19.288 244.24 19.288C243.792 19.288 243.32 19.224 242.824 19.096C242.344 18.984 241.904 18.792 241.504 18.52C241.104 18.248 240.768 17.888 240.496 17.44C240.24 16.992 240.112 16.44 240.112 15.784C240.112 14.92 240.344 14.24 240.808 13.744C241.272 13.232 241.88 12.848 242.632 12.592C243.384 12.32 244.232 12.144 245.176 12.064C246.12 11.984 247.072 11.944 248.032 11.944V11.632ZM247.48 13.576C246.92 13.576 246.336 13.6 245.728 13.648C245.136 13.696 244.592 13.792 244.096 13.936C243.616 14.08 243.216 14.296 242.896 14.584C242.576 14.872 242.416 15.256 242.416 15.736C242.416 16.072 242.48 16.352 242.608 16.576C242.752 16.8 242.936 16.984 243.16 17.128C243.384 17.272 243.632 17.376 243.904 17.44C244.176 17.488 244.456 17.512 244.744 17.512C245.8 17.512 246.608 17.2 247.168 16.576C247.744 15.936 248.032 15.136 248.032 14.176V13.576H247.48ZM263.032 17.2C262.6 17.888 262.008 18.416 261.256 18.784C260.52 19.136 259.744 19.312 258.928 19.312C258.048 19.312 257.256 19.16 256.552 18.856C255.848 18.536 255.248 18.104 254.752 17.56C254.256 17.016 253.872 16.376 253.6 15.64C253.328 14.904 253.192 14.12 253.192 13.288C253.192 12.456 253.328 11.68 253.6 10.96C253.872 10.224 254.256 9.584 254.752 9.04C255.264 8.496 255.872 8.072 256.576 7.768C257.28 7.464 258.056 7.312 258.904 7.312C259.832 7.312 260.64 7.512 261.328 7.912C262.016 8.296 262.56 8.768 262.96 9.328H263.008V0.855999H265.264V19H263.08V17.2H263.032ZM255.544 13.288C255.544 13.816 255.624 14.328 255.784 14.824C255.944 15.32 256.184 15.76 256.504 16.144C256.824 16.528 257.216 16.84 257.68 17.08C258.144 17.304 258.688 17.416 259.312 17.416C259.888 17.416 260.408 17.304 260.872 17.08C261.352 16.856 261.76 16.56 262.096 16.192C262.432 15.808 262.688 15.368 262.864 14.872C263.056 14.376 263.152 13.856 263.152 13.312C263.152 12.768 263.056 12.248 262.864 11.752C262.688 11.256 262.432 10.816 262.096 10.432C261.76 10.048 261.352 9.744 260.872 9.52C260.408 9.296 259.888 9.184 259.312 9.184C258.688 9.184 258.144 9.296 257.68 9.52C257.216 9.744 256.824 10.048 256.504 10.432C256.184 10.816 255.944 11.256 255.784 11.752C255.624 12.248 255.544 12.76 255.544 13.288ZM273.514 16.552H273.562L276.706 7.624H279.106L273.586 21.688C273.394 22.168 273.186 22.592 272.962 22.96C272.738 23.344 272.474 23.664 272.17 23.92C271.866 24.192 271.506 24.4 271.09 24.544C270.69 24.688 270.21 24.76 269.65 24.76C269.41 24.76 269.162 24.744 268.906 24.712C268.666 24.696 268.418 24.656 268.162 24.592L268.378 22.6C268.762 22.728 269.138 22.792 269.506 22.792C270.098 22.792 270.538 22.624 270.826 22.288C271.114 21.968 271.378 21.504 271.618 20.896L272.338 19L267.466 7.624H269.986L273.514 16.552ZM285.968 14.104H280.4V12.184H285.968V14.104ZM294.543 9.472H291.519V15.4C291.519 16.088 291.647 16.584 291.903 16.888C292.159 17.176 292.567 17.32 293.127 17.32C293.335 17.32 293.559 17.296 293.799 17.248C294.039 17.2 294.255 17.128 294.447 17.032L294.519 18.88C294.247 18.976 293.943 19.048 293.607 19.096C293.287 19.16 292.951 19.192 292.599 19.192C291.527 19.192 290.703 18.896 290.127 18.304C289.567 17.712 289.287 16.824 289.287 15.64V9.472H287.103V7.624H289.287V4.36H291.519V7.624H294.543V9.472ZM308.394 13.288C308.394 14.168 308.234 14.976 307.914 15.712C307.61 16.448 307.178 17.088 306.618 17.632C306.074 18.16 305.426 18.576 304.674 18.88C303.922 19.168 303.114 19.312 302.25 19.312C301.386 19.312 300.578 19.168 299.826 18.88C299.074 18.576 298.426 18.16 297.882 17.632C297.338 17.088 296.906 16.448 296.586 15.712C296.282 14.976 296.13 14.168 296.13 13.288C296.13 12.408 296.282 11.608 296.586 10.888C296.906 10.152 297.338 9.52 297.882 8.992C298.426 8.464 299.074 8.056 299.826 7.768C300.578 7.464 301.386 7.312 302.25 7.312C303.114 7.312 303.922 7.464 304.674 7.768C305.426 8.056 306.074 8.464 306.618 8.992C307.178 9.52 307.61 10.152 307.914 10.888C308.234 11.608 308.394 12.408 308.394 13.288ZM306.042 13.288C306.042 12.744 305.954 12.224 305.778 11.728C305.618 11.232 305.378 10.8 305.058 10.432C304.738 10.048 304.338 9.744 303.858 9.52C303.394 9.296 302.858 9.184 302.25 9.184C301.642 9.184 301.098 9.296 300.618 9.52C300.154 9.744 299.762 10.048 299.442 10.432C299.122 10.8 298.874 11.232 298.698 11.728C298.538 12.224 298.458 12.744 298.458 13.288C298.458 13.832 298.538 14.352 298.698 14.848C298.874 15.344 299.122 15.784 299.442 16.168C299.762 16.552 300.154 16.856 300.618 17.08C301.098 17.304 301.642 17.416 302.25 17.416C302.858 17.416 303.394 17.304 303.858 17.08C304.338 16.856 304.738 16.552 305.058 16.168C305.378 15.784 305.618 15.344 305.778 14.848C305.954 14.352 306.042 13.832 306.042 13.288ZM316.202 14.104H310.634V12.184H316.202V14.104ZM327.178 10.504C326.938 10.136 326.578 9.832 326.098 9.592C325.618 9.336 325.106 9.208 324.562 9.208C323.97 9.208 323.442 9.32 322.978 9.544C322.53 9.768 322.146 10.072 321.826 10.456C321.506 10.824 321.258 11.256 321.082 11.752C320.922 12.248 320.842 12.768 320.842 13.312C320.842 13.856 320.922 14.376 321.082 14.872C321.258 15.368 321.506 15.808 321.826 16.192C322.146 16.56 322.538 16.856 323.002 17.08C323.466 17.304 323.994 17.416 324.586 17.416C325.162 17.416 325.682 17.304 326.146 17.08C326.626 16.856 327.018 16.552 327.322 16.168L328.834 17.536C328.354 18.096 327.754 18.536 327.034 18.856C326.314 19.16 325.498 19.312 324.586 19.312C323.706 19.312 322.89 19.168 322.138 18.88C321.402 18.592 320.762 18.192 320.218 17.68C319.674 17.152 319.242 16.52 318.922 15.784C318.618 15.048 318.466 14.224 318.466 13.312C318.466 12.416 318.618 11.6 318.922 10.864C319.226 10.128 319.65 9.496 320.194 8.968C320.738 8.44 321.378 8.032 322.114 7.744C322.866 7.456 323.674 7.312 324.538 7.312C325.338 7.312 326.13 7.472 326.914 7.792C327.714 8.112 328.346 8.576 328.81 9.184L327.178 10.504ZM342.589 13.288C342.589 14.168 342.429 14.976 342.109 15.712C341.805 16.448 341.373 17.088 340.813 17.632C340.269 18.16 339.621 18.576 338.869 18.88C338.117 19.168 337.309 19.312 336.445 19.312C335.581 19.312 334.773 19.168 334.021 18.88C333.269 18.576 332.621 18.16 332.077 17.632C331.533 17.088 331.101 16.448 330.781 15.712C330.477 14.976 330.325 14.168 330.325 13.288C330.325 12.408 330.477 11.608 330.781 10.888C331.101 10.152 331.533 9.52 332.077 8.992C332.621 8.464 333.269 8.056 334.021 7.768C334.773 7.464 335.581 7.312 336.445 7.312C337.309 7.312 338.117 7.464 338.869 7.768C339.621 8.056 340.269 8.464 340.813 8.992C341.373 9.52 341.805 10.152 342.109 10.888C342.429 11.608 342.589 12.408 342.589 13.288ZM340.237 13.288C340.237 12.744 340.149 12.224 339.973 11.728C339.813 11.232 339.573 10.8 339.253 10.432C338.933 10.048 338.533 9.744 338.053 9.52C337.589 9.296 337.053 9.184 336.445 9.184C335.837 9.184 335.293 9.296 334.813 9.52C334.349 9.744 333.957 10.048 333.637 10.432C333.317 10.8 333.069 11.232 332.893 11.728C332.733 12.224 332.653 12.744 332.653 13.288C332.653 13.832 332.733 14.352 332.893 14.848C333.069 15.344 333.317 15.784 333.637 16.168C333.957 16.552 334.349 16.856 334.813 17.08C335.293 17.304 335.837 17.416 336.445 17.416C337.053 17.416 337.589 17.304 338.053 17.08C338.533 16.856 338.933 16.552 339.253 16.168C339.573 15.784 339.813 15.344 339.973 14.848C340.149 14.352 340.237 13.832 340.237 13.288ZM357.237 13.288C357.237 14.168 357.077 14.976 356.757 15.712C356.453 16.448 356.021 17.088 355.461 17.632C354.917 18.16 354.269 18.576 353.517 18.88C352.765 19.168 351.957 19.312 351.093 19.312C350.229 19.312 349.421 19.168 348.669 18.88C347.917 18.576 347.269 18.16 346.725 17.632C346.181 17.088 345.749 16.448 345.429 15.712C345.125 14.976 344.973 14.168 344.973 13.288C344.973 12.408 345.125 11.608 345.429 10.888C345.749 10.152 346.181 9.52 346.725 8.992C347.269 8.464 347.917 8.056 348.669 7.768C349.421 7.464 350.229 7.312 351.093 7.312C351.957 7.312 352.765 7.464 353.517 7.768C354.269 8.056 354.917 8.464 355.461 8.992C356.021 9.52 356.453 10.152 356.757 10.888C357.077 11.608 357.237 12.408 357.237 13.288ZM354.885 13.288C354.885 12.744 354.797 12.224 354.621 11.728C354.461 11.232 354.221 10.8 353.901 10.432C353.581 10.048 353.181 9.744 352.701 9.52C352.237 9.296 351.701 9.184 351.093 9.184C350.485 9.184 349.941 9.296 349.461 9.52C348.997 9.744 348.605 10.048 348.285 10.432C347.965 10.8 347.717 11.232 347.541 11.728C347.381 12.224 347.301 12.744 347.301 13.288C347.301 13.832 347.381 14.352 347.541 14.848C347.717 15.344 347.965 15.784 348.285 16.168C348.605 16.552 348.997 16.856 349.461 17.08C349.941 17.304 350.485 17.416 351.093 17.416C351.701 17.416 352.237 17.304 352.701 17.08C353.181 16.856 353.581 16.552 353.901 16.168C354.221 15.784 354.461 15.344 354.621 14.848C354.797 14.352 354.885 13.832 354.885 13.288ZM362.67 12.568H362.742L367.518 7.624H370.542L365.214 12.784L370.998 19H367.878L362.742 13.096H362.67V19H360.414V0.855999H362.67V12.568ZM373.814 22.192H371.894L373.55 16.192H375.806L373.814 22.192ZM385.37 7.624L387.938 16.312H387.986L390.698 7.624H393.074L395.834 16.312H395.882L398.45 7.624H400.826L397.058 19H394.706L391.898 10.456H391.85L389.066 19H386.714L382.922 7.624H385.37ZM411.42 12.304C411.404 11.856 411.324 11.44 411.18 11.056C411.052 10.656 410.852 10.312 410.58 10.024C410.324 9.736 409.996 9.512 409.596 9.352C409.212 9.176 408.756 9.088 408.228 9.088C407.748 9.088 407.292 9.176 406.86 9.352C406.444 9.512 406.076 9.736 405.756 10.024C405.452 10.312 405.196 10.656 404.988 11.056C404.796 11.44 404.684 11.856 404.652 12.304H411.42ZM413.7 13.216C413.7 13.344 413.7 13.472 413.7 13.6C413.7 13.728 413.692 13.856 413.676 13.984H404.652C404.668 14.464 404.772 14.92 404.964 15.352C405.172 15.768 405.444 16.136 405.78 16.456C406.116 16.76 406.5 17 406.932 17.176C407.38 17.352 407.852 17.44 408.348 17.44C409.116 17.44 409.78 17.272 410.34 16.936C410.9 16.6 411.34 16.192 411.66 15.712L413.244 16.984C412.636 17.784 411.916 18.376 411.084 18.76C410.268 19.128 409.356 19.312 408.348 19.312C407.484 19.312 406.684 19.168 405.948 18.88C405.212 18.592 404.58 18.192 404.052 17.68C403.524 17.152 403.108 16.52 402.804 15.784C402.5 15.048 402.348 14.232 402.348 13.336C402.348 12.456 402.492 11.648 402.78 10.912C403.084 10.16 403.5 9.52 404.028 8.992C404.556 8.464 405.18 8.056 405.9 7.768C406.62 7.464 407.396 7.312 408.228 7.312C409.06 7.312 409.812 7.448 410.484 7.72C411.172 7.992 411.748 8.384 412.212 8.896C412.692 9.408 413.06 10.032 413.316 10.768C413.572 11.488 413.7 12.304 413.7 13.216ZM425.202 9.352C425.474 8.792 425.938 8.312 426.594 7.912C427.25 7.512 427.986 7.312 428.802 7.312C429.538 7.312 430.17 7.44 430.698 7.696C431.226 7.936 431.666 8.264 432.018 8.68C432.37 9.096 432.626 9.584 432.786 10.144C432.962 10.704 433.05 11.304 433.05 11.944V19H430.794V12.712C430.794 12.248 430.754 11.808 430.674 11.392C430.61 10.976 430.482 10.608 430.29 10.288C430.098 9.968 429.834 9.712 429.498 9.52C429.178 9.328 428.754 9.232 428.226 9.232C427.33 9.232 426.594 9.576 426.018 10.264C425.442 10.936 425.154 11.84 425.154 12.976V19H422.898V0.855999H425.154V9.352H425.202ZM443.946 11.632C443.946 10.784 443.69 10.16 443.178 9.76C442.666 9.344 441.986 9.136 441.138 9.136C440.498 9.136 439.89 9.264 439.314 9.52C438.754 9.76 438.282 10.072 437.898 10.456L436.698 9.016C437.258 8.488 437.938 8.072 438.738 7.768C439.554 7.464 440.426 7.312 441.354 7.312C442.17 7.312 442.874 7.432 443.466 7.672C444.074 7.896 444.57 8.208 444.954 8.608C445.338 9.008 445.626 9.48 445.818 10.024C446.01 10.568 446.106 11.152 446.106 11.776V16.744C446.106 17.128 446.114 17.536 446.13 17.968C446.162 18.384 446.21 18.728 446.274 19H444.234C444.106 18.456 444.042 17.912 444.042 17.368H443.97C443.554 17.976 443.026 18.448 442.386 18.784C441.762 19.12 441.018 19.288 440.154 19.288C439.706 19.288 439.234 19.224 438.738 19.096C438.258 18.984 437.818 18.792 437.418 18.52C437.018 18.248 436.682 17.888 436.41 17.44C436.154 16.992 436.026 16.44 436.026 15.784C436.026 14.92 436.258 14.24 436.722 13.744C437.186 13.232 437.794 12.848 438.546 12.592C439.298 12.32 440.146 12.144 441.09 12.064C442.034 11.984 442.986 11.944 443.946 11.944V11.632ZM443.394 13.576C442.834 13.576 442.25 13.6 441.642 13.648C441.05 13.696 440.506 13.792 440.01 13.936C439.53 14.08 439.13 14.296 438.81 14.584C438.49 14.872 438.33 15.256 438.33 15.736C438.33 16.072 438.394 16.352 438.522 16.576C438.666 16.8 438.85 16.984 439.074 17.128C439.298 17.272 439.546 17.376 439.818 17.44C440.09 17.488 440.37 17.512 440.658 17.512C441.714 17.512 442.522 17.2 443.082 16.576C443.658 15.936 443.946 15.136 443.946 14.176V13.576H443.394ZM455.226 19H452.778L448.146 7.624H450.642L453.978 16.576H454.026L457.386 7.624H459.786L455.226 19ZM470.295 12.304C470.279 11.856 470.199 11.44 470.055 11.056C469.927 10.656 469.727 10.312 469.455 10.024C469.199 9.736 468.871 9.512 468.471 9.352C468.087 9.176 467.631 9.088 467.103 9.088C466.623 9.088 466.167 9.176 465.735 9.352C465.319 9.512 464.951 9.736 464.631 10.024C464.327 10.312 464.071 10.656 463.863 11.056C463.671 11.44 463.559 11.856 463.527 12.304H470.295ZM472.575 13.216C472.575 13.344 472.575 13.472 472.575 13.6C472.575 13.728 472.567 13.856 472.551 13.984H463.527C463.543 14.464 463.647 14.92 463.839 15.352C464.047 15.768 464.319 16.136 464.655 16.456C464.991 16.76 465.375 17 465.807 17.176C466.255 17.352 466.727 17.44 467.223 17.44C467.991 17.44 468.655 17.272 469.215 16.936C469.775 16.6 470.215 16.192 470.535 15.712L472.119 16.984C471.511 17.784 470.791 18.376 469.959 18.76C469.143 19.128 468.231 19.312 467.223 19.312C466.359 19.312 465.559 19.168 464.823 18.88C464.087 18.592 463.455 18.192 462.927 17.68C462.399 17.152 461.983 16.52 461.679 15.784C461.375 15.048 461.223 14.232 461.223 13.336C461.223 12.456 461.367 11.648 461.655 10.912C461.959 10.16 462.375 9.52 462.903 8.992C463.431 8.464 464.055 8.056 464.775 7.768C465.495 7.464 466.271 7.312 467.103 7.312C467.935 7.312 468.687 7.448 469.359 7.72C470.047 7.992 470.623 8.384 471.087 8.896C471.567 9.408 471.935 10.032 472.191 10.768C472.447 11.488 472.575 12.304 472.575 13.216ZM484.005 19H481.749V7.624H484.005V19ZM484.389 3.52C484.389 3.936 484.237 4.28 483.933 4.552C483.645 4.824 483.293 4.96 482.877 4.96C482.461 4.96 482.109 4.824 481.821 4.552C481.533 4.264 481.389 3.92 481.389 3.52C481.389 3.104 481.533 2.76 481.821 2.488C482.109 2.2 482.461 2.056 482.877 2.056C483.293 2.056 483.645 2.2 483.933 2.488C484.237 2.76 484.389 3.104 484.389 3.52ZM493.504 9.472H490.48V15.4C490.48 16.088 490.608 16.584 490.864 16.888C491.12 17.176 491.528 17.32 492.088 17.32C492.296 17.32 492.52 17.296 492.76 17.248C493 17.2 493.216 17.128 493.408 17.032L493.48 18.88C493.208 18.976 492.904 19.048 492.568 19.096C492.248 19.16 491.912 19.192 491.56 19.192C490.488 19.192 489.664 18.896 489.088 18.304C488.528 17.712 488.248 16.824 488.248 15.64V9.472H486.064V7.624H488.248V4.36H490.48V7.624H493.504V9.472ZM508.915 11.632C508.915 10.784 508.659 10.16 508.147 9.76C507.635 9.344 506.955 9.136 506.107 9.136C505.467 9.136 504.859 9.264 504.283 9.52C503.723 9.76 503.251 10.072 502.867 10.456L501.667 9.016C502.227 8.488 502.907 8.072 503.707 7.768C504.523 7.464 505.395 7.312 506.323 7.312C507.139 7.312 507.843 7.432 508.435 7.672C509.043 7.896 509.539 8.208 509.923 8.608C510.307 9.008 510.595 9.48 510.787 10.024C510.979 10.568 511.075 11.152 511.075 11.776V16.744C511.075 17.128 511.083 17.536 511.099 17.968C511.131 18.384 511.179 18.728 511.243 19H509.203C509.075 18.456 509.011 17.912 509.011 17.368H508.939C508.523 17.976 507.995 18.448 507.355 18.784C506.731 19.12 505.987 19.288 505.123 19.288C504.675 19.288 504.203 19.224 503.707 19.096C503.227 18.984 502.787 18.792 502.387 18.52C501.987 18.248 501.651 17.888 501.379 17.44C501.123 16.992 500.995 16.44 500.995 15.784C500.995 14.92 501.227 14.24 501.691 13.744C502.155 13.232 502.763 12.848 503.515 12.592C504.267 12.32 505.115 12.144 506.059 12.064C507.003 11.984 507.955 11.944 508.915 11.944V11.632ZM508.363 13.576C507.803 13.576 507.219 13.6 506.611 13.648C506.019 13.696 505.475 13.792 504.979 13.936C504.499 14.08 504.099 14.296 503.779 14.584C503.459 14.872 503.299 15.256 503.299 15.736C503.299 16.072 503.363 16.352 503.491 16.576C503.635 16.8 503.819 16.984 504.043 17.128C504.267 17.272 504.515 17.376 504.787 17.44C505.059 17.488 505.339 17.512 505.627 17.512C506.683 17.512 507.491 17.2 508.051 16.576C508.627 15.936 508.915 15.136 508.915 14.176V13.576H508.363ZM517.146 19H514.89V0.855999H517.146V19ZM523.381 19H521.125V0.855999H523.381V19ZM530.551 14.032H528.175V2.008H530.551V14.032ZM530.983 17.56C530.983 17.976 530.831 18.344 530.527 18.664C530.223 18.984 529.839 19.144 529.375 19.144C528.927 19.144 528.543 18.992 528.223 18.688C527.919 18.368 527.767 18 527.767 17.584C527.767 17.152 527.919 16.784 528.223 16.48C528.527 16.16 528.911 16 529.375 16C529.839 16 530.223 16.152 530.527 16.456C530.831 16.76 530.983 17.128 530.983 17.56Z" fill="#257B9D"/>
</svg>
