<svg width="99" height="137" viewBox="0 0 99 137" fill="none" xmlns="http://www.w3.org/2000/svg">
<g clip-path="url(#clip0)">
<path d="M98.4735 0C88.5147 15.0217 67.7659 10.5977 48.1366 10.3762C25.3484 10.116 5.2259 25.874 0.858909 48.221C-1.85107 62.1132 1.85645 76.2545 11.7598 85.2575C23.503 16.1124 106.365 97.926 98.4735 0Z" fill="#53B98A"/>
<path d="M81.4158 55.1089C73.2415 67.4451 56.2002 63.8129 40.0789 63.6302C21.364 63.4198 4.84371 76.354 1.25812 94.7089C-0.96971 106.115 2.07832 117.731 10.2138 125.123C19.8566 68.3366 87.8942 135.522 81.4158 55.1089Z" fill="#53B98A"/>
<path d="M31.8934 137C40.396 137 47.2887 130.113 47.2887 121.618C47.2887 113.123 40.396 106.237 31.8934 106.237C23.3908 106.237 16.498 113.123 16.498 121.618C16.498 130.113 23.3908 137 31.8934 137Z" fill="#53B98A"/>
</g>
<defs>
<clipPath id="clip0">
<rect width="99" height="137" fill="white"/>
</clipPath>
</defs>
</svg>
