<svg width="23" height="23" viewBox="0 0 23 23" fill="none" xmlns="http://www.w3.org/2000/svg">
<g clip-path="url(#clip0)">
<path d="M22.1474 11.7303C22.1474 10.9907 22.0874 10.2471 21.9595 9.51953H11.6973V13.7092H17.5739C17.3301 15.0604 16.5465 16.2557 15.3992 17.0153V19.7337H18.9052C20.964 17.8388 22.1474 15.0404 22.1474 11.7303Z" fill="#4285F4"/>
<path d="M11.6972 22.3603C14.6316 22.3603 17.1062 21.3969 18.9091 19.7338L15.4031 17.0154C14.4277 17.679 13.1684 18.0548 11.7012 18.0548C8.86283 18.0548 6.45619 16.1398 5.59268 13.5653H1.97473V16.3677C3.82169 20.0416 7.58356 22.3603 11.6972 22.3603Z" fill="#34A853"/>
<path d="M5.58868 13.5652C5.13294 12.214 5.13294 10.7508 5.58868 9.39958V6.59717H1.97473C0.431601 9.67143 0.431601 13.2934 1.97473 16.3676L5.58868 13.5652Z" fill="#FBBC04"/>
<path d="M11.6972 4.90615C13.2483 4.88216 14.7475 5.46583 15.8709 6.53722L18.9771 3.43098C17.0102 1.58403 14.3997 0.568605 11.6972 0.600587C7.58355 0.600587 3.82169 2.91927 1.97473 6.59719L5.58868 9.3996C6.4482 6.82106 8.85883 4.90615 11.6972 4.90615Z" fill="#EA4335"/>
</g>
<defs>
<clipPath id="clip0">
<rect width="21.7597" height="21.7597" fill="white" transform="translate(0.599854 0.599854)"/>
</clipPath>
</defs>
</svg>
