<svg width="45" height="45" viewBox="0 0 45 45" fill="none" xmlns="http://www.w3.org/2000/svg">
<circle cx="22.5" cy="22.5" r="22.5" fill="#C7C7C7"/>
<path d="M29.3177 11.3383C28.6193 11.104 27.8847 11.0002 27.149 11.0002C25.5282 10.9885 23.9553 11.5249 22.6599 12.5148C22.555 12.4344 22.4267 12.3632 22.3101 12.2944C22.1935 12.2233 21.9836 12.0496 21.8087 11.9563L21.3657 11.7581C21.1325 11.6298 20.8888 11.5365 20.6311 11.4538C20.6078 11.4316 20.5728 11.4071 20.5261 11.385H20.4573C19.7682 11.1506 19.057 11.0223 18.3224 11.0002H18.1942C17.8677 11.0002 17.5424 11.0223 17.2147 11.0701H17.0748C16.725 11.1156 16.3764 11.1972 16.0383 11.3138C11.688 12.7375 10.1372 17.4598 11.4548 21.5874C12.201 23.6966 13.4031 25.61 14.9655 27.1829C17.2381 29.375 19.7228 31.3105 22.3917 32.9662L22.6949 33.154L22.9864 32.9779C25.646 31.3105 28.1167 29.375 30.3682 27.1946C31.9412 25.6217 33.1421 23.6966 33.8767 21.5874C35.1721 17.4598 33.6213 12.7375 29.3177 11.3383Z" fill="#53B98A"/>
</svg>
