<svg width="192" height="25" viewBox="0 0 192 25" fill="none" xmlns="http://www.w3.org/2000/svg">
<path d="M0.872 2.008H3.896V8.872H11.84V2.008H14.864V19H11.84V11.464H3.896V19H0.872V2.008ZM25.6222 17.536H25.5502C25.2622 18.048 24.7982 18.472 24.1582 18.808C23.5182 19.128 22.7902 19.288 21.9742 19.288C21.5102 19.288 21.0222 19.224 20.5102 19.096C20.0142 18.984 19.5502 18.792 19.1182 18.52C18.7022 18.232 18.3502 17.864 18.0622 17.416C17.7902 16.952 17.6542 16.384 17.6542 15.712C17.6542 14.848 17.8942 14.16 18.3742 13.648C18.8702 13.136 19.5022 12.744 20.2702 12.472C21.0382 12.2 21.8862 12.024 22.8142 11.944C23.7582 11.848 24.6782 11.8 25.5742 11.8V11.512C25.5742 10.792 25.3102 10.264 24.7822 9.928C24.2702 9.576 23.6542 9.4 22.9342 9.4C22.3262 9.4 21.7422 9.528 21.1822 9.784C20.6222 10.04 20.1582 10.352 19.7902 10.72L18.3022 8.968C18.9582 8.36 19.7102 7.904 20.5582 7.6C21.4222 7.296 22.2942 7.144 23.1742 7.144C24.1982 7.144 25.0382 7.288 25.6942 7.576C26.3662 7.864 26.8942 8.24 27.2782 8.704C27.6622 9.168 27.9262 9.688 28.0702 10.264C28.2302 10.84 28.3102 11.416 28.3102 11.992V19H25.6222V17.536ZM25.5742 13.744H24.9262C24.4622 13.744 23.9742 13.768 23.4622 13.816C22.9502 13.848 22.4782 13.936 22.0462 14.08C21.6142 14.208 21.2542 14.4 20.9662 14.656C20.6782 14.896 20.5342 15.232 20.5342 15.664C20.5342 15.936 20.5902 16.168 20.7022 16.36C20.8302 16.536 20.9902 16.68 21.1822 16.792C21.3742 16.904 21.5902 16.984 21.8302 17.032C22.0702 17.08 22.3102 17.104 22.5502 17.104C23.5422 17.104 24.2942 16.84 24.8062 16.312C25.3182 15.784 25.5742 15.064 25.5742 14.152V13.744ZM31.7135 0.855999H34.5935V19H31.7135V0.855999ZM38.5434 9.784H36.3594V7.48H38.5434V5.776C38.5434 5.088 38.6154 4.432 38.7594 3.808C38.9194 3.168 39.1754 2.608 39.5274 2.128C39.8954 1.648 40.3754 1.272 40.9674 0.999999C41.5594 0.711999 42.3034 0.568 43.1994 0.568C43.5194 0.568 43.7834 0.584 43.9914 0.615999C44.2154 0.631999 44.4394 0.671999 44.6634 0.735999L44.4714 3.184C44.3114 3.136 44.1354 3.096 43.9434 3.064C43.7674 3.032 43.5754 3.016 43.3674 3.016C42.9514 3.016 42.6154 3.096 42.3594 3.256C42.1034 3.416 41.9034 3.624 41.7594 3.88C41.6314 4.136 41.5434 4.416 41.4954 4.72C41.4474 5.024 41.4234 5.32 41.4234 5.608V7.48H44.0874V9.784H41.4234V19H38.5434V9.784ZM64.8626 5.992C64.4146 5.384 63.8306 4.944 63.1106 4.672C62.3906 4.384 61.6866 4.24 60.9986 4.24C60.1186 4.24 59.3186 4.4 58.5986 4.72C57.8786 5.04 57.2546 5.48 56.7266 6.04C56.2146 6.6 55.8146 7.256 55.5266 8.008C55.2546 8.76 55.1186 9.576 55.1186 10.456C55.1186 11.384 55.2546 12.232 55.5266 13C55.7986 13.768 56.1826 14.432 56.6786 14.992C57.1906 15.536 57.7986 15.96 58.5026 16.264C59.2066 16.568 59.9986 16.72 60.8786 16.72C61.7906 16.72 62.5986 16.544 63.3026 16.192C64.0066 15.824 64.5746 15.344 65.0066 14.752L67.4306 16.456C66.6786 17.4 65.7586 18.136 64.6706 18.664C63.5826 19.176 62.3106 19.432 60.8546 19.432C59.5266 19.432 58.3026 19.216 57.1826 18.784C56.0786 18.336 55.1266 17.72 54.3266 16.936C53.5266 16.136 52.9026 15.192 52.4546 14.104C52.0066 13 51.7826 11.784 51.7826 10.456C51.7826 9.096 52.0146 7.872 52.4786 6.784C52.9586 5.68 53.6066 4.744 54.4226 3.976C55.2546 3.208 56.2306 2.616 57.3506 2.2C58.4706 1.784 59.6866 1.576 60.9986 1.576C61.5426 1.576 62.1106 1.632 62.7026 1.744C63.2946 1.84 63.8626 2 64.4066 2.224C64.9506 2.432 65.4626 2.696 65.9426 3.016C66.4226 3.336 66.8306 3.72 67.1666 4.168L64.8626 5.992ZM79.6775 19H76.9415V17.152H76.8935C76.6375 17.728 76.1895 18.24 75.5495 18.688C74.9255 19.12 74.1815 19.336 73.3175 19.336C72.5655 19.336 71.9175 19.208 71.3735 18.952C70.8455 18.68 70.4055 18.328 70.0535 17.896C69.7175 17.464 69.4695 16.968 69.3095 16.408C69.1495 15.848 69.0695 15.272 69.0695 14.68V7.48H71.9495V13.864C71.9495 14.2 71.9735 14.552 72.0215 14.92C72.0695 15.288 72.1735 15.624 72.3335 15.928C72.4935 16.216 72.7095 16.456 72.9815 16.648C73.2695 16.84 73.6455 16.936 74.1095 16.936C74.5575 16.936 74.9495 16.848 75.2855 16.672C75.6375 16.48 75.9175 16.24 76.1255 15.952C76.3495 15.664 76.5175 15.336 76.6295 14.968C76.7415 14.584 76.7975 14.2 76.7975 13.816V7.48H79.6775V19ZM81.4783 9.784V7.48H83.4943V4.144H86.3263V7.48H89.2063V9.784H86.3263V15.136C86.3263 15.648 86.4143 16.072 86.5903 16.408C86.7823 16.744 87.1983 16.912 87.8383 16.912C88.0303 16.912 88.2383 16.896 88.4622 16.864C88.6863 16.816 88.8863 16.752 89.0623 16.672L89.1583 18.928C88.9023 19.024 88.5983 19.096 88.2463 19.144C87.8943 19.208 87.5583 19.24 87.2383 19.24C86.4703 19.24 85.8463 19.136 85.3663 18.928C84.8863 18.704 84.5023 18.408 84.2143 18.04C83.9423 17.656 83.7503 17.224 83.6383 16.744C83.5423 16.248 83.4943 15.72 83.4943 15.16V9.784H81.4783ZM100.281 4.648H95.0726V2.008H108.513V4.648H103.305V19H100.281V4.648ZM116.16 12.088C116.16 11.72 116.104 11.368 115.992 11.032C115.896 10.696 115.736 10.4 115.512 10.144C115.288 9.888 115 9.688 114.648 9.544C114.312 9.384 113.912 9.304 113.448 9.304C112.584 9.304 111.848 9.568 111.24 10.096C110.648 10.608 110.32 11.272 110.256 12.088H116.16ZM119.04 13.384C119.04 13.512 119.04 13.64 119.04 13.768C119.04 13.896 119.032 14.024 119.016 14.152H110.256C110.288 14.568 110.392 14.952 110.568 15.304C110.76 15.64 111.008 15.936 111.312 16.192C111.616 16.432 111.96 16.624 112.344 16.768C112.728 16.912 113.128 16.984 113.544 16.984C114.264 16.984 114.872 16.856 115.368 16.6C115.864 16.328 116.272 15.96 116.592 15.496L118.512 17.032C117.376 18.568 115.728 19.336 113.568 19.336C112.672 19.336 111.848 19.2 111.096 18.928C110.344 18.64 109.688 18.24 109.128 17.728C108.584 17.216 108.152 16.592 107.832 15.856C107.528 15.104 107.376 14.256 107.376 13.312C107.376 12.384 107.528 11.544 107.832 10.792C108.152 10.024 108.584 9.376 109.128 8.848C109.672 8.304 110.312 7.888 111.048 7.6C111.8 7.296 112.608 7.144 113.472 7.144C114.272 7.144 115.008 7.28 115.68 7.552C116.368 7.808 116.96 8.2 117.456 8.728C117.952 9.24 118.336 9.888 118.608 10.672C118.896 11.44 119.04 12.344 119.04 13.384ZM135.582 7.144C136.334 7.144 136.974 7.28 137.502 7.552C138.046 7.808 138.486 8.152 138.822 8.584C139.174 9.016 139.43 9.512 139.59 10.072C139.75 10.632 139.83 11.208 139.83 11.8V19H136.95V12.616C136.95 12.28 136.926 11.928 136.878 11.56C136.83 11.192 136.726 10.864 136.566 10.576C136.406 10.272 136.182 10.024 135.894 9.832C135.622 9.64 135.254 9.544 134.79 9.544C134.342 9.544 133.958 9.64 133.638 9.832C133.318 10.024 133.054 10.272 132.846 10.576C132.638 10.88 132.486 11.224 132.39 11.608C132.294 11.976 132.246 12.344 132.246 12.712V19H129.366V12.04C129.366 11.32 129.19 10.728 128.838 10.264C128.502 9.784 127.966 9.544 127.23 9.544C126.798 9.544 126.422 9.64 126.102 9.832C125.782 10.008 125.518 10.24 125.31 10.528C125.118 10.816 124.966 11.152 124.854 11.536C124.758 11.904 124.71 12.28 124.71 12.664V19H121.83V7.48H124.566V9.328H124.614C124.742 9.04 124.91 8.768 125.118 8.512C125.342 8.256 125.598 8.024 125.886 7.816C126.19 7.608 126.534 7.448 126.918 7.336C127.302 7.208 127.726 7.144 128.19 7.144C129.086 7.144 129.83 7.344 130.422 7.744C131.014 8.144 131.47 8.672 131.79 9.328C132.174 8.624 132.686 8.088 133.326 7.72C133.966 7.336 134.718 7.144 135.582 7.144ZM145.941 7.48V9.088H146.013C146.157 8.864 146.341 8.64 146.565 8.416C146.805 8.176 147.093 7.968 147.429 7.792C147.765 7.6 148.141 7.448 148.557 7.336C148.989 7.208 149.469 7.144 149.997 7.144C150.813 7.144 151.565 7.304 152.253 7.624C152.941 7.928 153.533 8.352 154.029 8.896C154.525 9.44 154.909 10.08 155.181 10.816C155.453 11.552 155.589 12.344 155.589 13.192C155.589 14.04 155.453 14.84 155.181 15.592C154.925 16.328 154.549 16.976 154.053 17.536C153.573 18.08 152.981 18.52 152.277 18.856C151.589 19.176 150.805 19.336 149.925 19.336C149.109 19.336 148.357 19.168 147.669 18.832C146.997 18.496 146.477 18.04 146.109 17.464H146.061V24.76H143.181V7.48H145.941ZM152.661 13.192C152.661 12.744 152.589 12.304 152.445 11.872C152.317 11.424 152.117 11.024 151.845 10.672C151.573 10.32 151.229 10.04 150.813 9.832C150.397 9.608 149.909 9.496 149.349 9.496C148.821 9.496 148.349 9.608 147.933 9.832C147.517 10.056 147.157 10.344 146.853 10.696C146.565 11.048 146.341 11.448 146.181 11.896C146.037 12.344 145.965 12.792 145.965 13.24C145.965 13.688 146.037 14.136 146.181 14.584C146.341 15.016 146.565 15.408 146.853 15.76C147.157 16.112 147.517 16.4 147.933 16.624C148.349 16.832 148.821 16.936 149.349 16.936C149.909 16.936 150.397 16.824 150.813 16.6C151.229 16.376 151.573 16.088 151.845 15.736C152.117 15.384 152.317 14.984 152.445 14.536C152.589 14.088 152.661 13.64 152.661 13.192ZM157.697 13.192C157.697 12.28 157.857 11.456 158.177 10.72C158.513 9.968 158.961 9.328 159.521 8.8C160.081 8.272 160.745 7.864 161.513 7.576C162.281 7.288 163.097 7.144 163.961 7.144C164.825 7.144 165.641 7.288 166.409 7.576C167.177 7.864 167.841 8.272 168.401 8.8C168.961 9.328 169.401 9.968 169.721 10.72C170.057 11.456 170.225 12.28 170.225 13.192C170.225 14.104 170.057 14.936 169.721 15.688C169.401 16.44 168.961 17.088 168.401 17.632C167.841 18.16 167.177 18.576 166.409 18.88C165.641 19.184 164.825 19.336 163.961 19.336C163.097 19.336 162.281 19.184 161.513 18.88C160.745 18.576 160.081 18.16 159.521 17.632C158.961 17.088 158.513 16.44 158.177 15.688C157.857 14.936 157.697 14.104 157.697 13.192ZM160.625 13.192C160.625 13.64 160.689 14.088 160.817 14.536C160.961 14.984 161.169 15.384 161.441 15.736C161.713 16.088 162.057 16.376 162.473 16.6C162.889 16.824 163.385 16.936 163.961 16.936C164.537 16.936 165.033 16.824 165.449 16.6C165.865 16.376 166.209 16.088 166.481 15.736C166.753 15.384 166.953 14.984 167.081 14.536C167.225 14.088 167.297 13.64 167.297 13.192C167.297 12.744 167.225 12.304 167.081 11.872C166.953 11.424 166.753 11.024 166.481 10.672C166.209 10.32 165.865 10.04 165.449 9.832C165.033 9.608 164.537 9.496 163.961 9.496C163.385 9.496 162.889 9.608 162.473 9.832C162.057 10.04 161.713 10.32 161.441 10.672C161.169 11.024 160.961 11.424 160.817 11.872C160.689 12.304 160.625 12.744 160.625 13.192ZM173.017 7.48H175.777V9.4H175.825C176.145 8.728 176.593 8.184 177.169 7.768C177.745 7.352 178.417 7.144 179.185 7.144C179.297 7.144 179.417 7.152 179.545 7.168C179.673 7.168 179.785 7.184 179.881 7.216V9.856C179.689 9.808 179.521 9.776 179.377 9.76C179.249 9.744 179.121 9.736 178.993 9.736C178.337 9.736 177.809 9.856 177.409 10.096C177.009 10.336 176.697 10.624 176.473 10.96C176.249 11.296 176.097 11.64 176.017 11.992C175.937 12.344 175.897 12.624 175.897 12.832V19H173.017V7.48ZM188.607 17.536H188.535C188.247 18.048 187.783 18.472 187.143 18.808C186.503 19.128 185.775 19.288 184.959 19.288C184.495 19.288 184.007 19.224 183.495 19.096C182.999 18.984 182.535 18.792 182.103 18.52C181.687 18.232 181.335 17.864 181.047 17.416C180.775 16.952 180.639 16.384 180.639 15.712C180.639 14.848 180.879 14.16 181.359 13.648C181.855 13.136 182.487 12.744 183.255 12.472C184.023 12.2 184.871 12.024 185.799 11.944C186.743 11.848 187.663 11.8 188.559 11.8V11.512C188.559 10.792 188.295 10.264 187.767 9.928C187.255 9.576 186.639 9.4 185.919 9.4C185.311 9.4 184.727 9.528 184.167 9.784C183.607 10.04 183.143 10.352 182.775 10.72L181.287 8.968C181.943 8.36 182.695 7.904 183.543 7.6C184.407 7.296 185.279 7.144 186.159 7.144C187.183 7.144 188.023 7.288 188.679 7.576C189.351 7.864 189.879 8.24 190.263 8.704C190.647 9.168 190.911 9.688 191.055 10.264C191.215 10.84 191.295 11.416 191.295 11.992V19H188.607V17.536ZM188.559 13.744H187.911C187.447 13.744 186.959 13.768 186.447 13.816C185.935 13.848 185.463 13.936 185.031 14.08C184.599 14.208 184.239 14.4 183.951 14.656C183.663 14.896 183.519 15.232 183.519 15.664C183.519 15.936 183.575 16.168 183.687 16.36C183.815 16.536 183.975 16.68 184.167 16.792C184.359 16.904 184.575 16.984 184.815 17.032C185.055 17.08 185.295 17.104 185.535 17.104C186.527 17.104 187.279 16.84 187.791 16.312C188.303 15.784 188.559 15.064 188.559 14.152V13.744Z" fill="#181818"/>
</svg>
