<svg width="1087" height="81" viewBox="0 0 1087 81" fill="none" xmlns="http://www.w3.org/2000/svg">
<path d="M0.357188 4.36H10.4372V27.24H36.9172V4.36H46.9972V61H36.9172V35.88H10.4372V61H0.357188V4.36ZM56.7778 41.64C56.7778 38.6 57.3111 35.8533 58.3778 33.4C59.4978 30.8933 60.9911 28.76 62.8578 27C64.7245 25.24 66.9378 23.88 69.4978 22.92C72.0578 21.96 74.7778 21.48 77.6578 21.48C80.5378 21.48 83.2578 21.96 85.8178 22.92C88.3778 23.88 90.5911 25.24 92.4578 27C94.3245 28.76 95.7911 30.8933 96.8578 33.4C97.9778 35.8533 98.5378 38.6 98.5378 41.64C98.5378 44.68 97.9778 47.4533 96.8578 49.96C95.7911 52.4667 94.3245 54.6267 92.4578 56.44C90.5911 58.2 88.3778 59.5867 85.8178 60.6C83.2578 61.6133 80.5378 62.12 77.6578 62.12C74.7778 62.12 72.0578 61.6133 69.4978 60.6C66.9378 59.5867 64.7245 58.2 62.8578 56.44C60.9911 54.6267 59.4978 52.4667 58.3778 49.96C57.3111 47.4533 56.7778 44.68 56.7778 41.64ZM66.5378 41.64C66.5378 43.1333 66.7511 44.6267 67.1778 46.12C67.6578 47.6133 68.3511 48.9467 69.2578 50.12C70.1645 51.2933 71.3111 52.2533 72.6978 53C74.0845 53.7467 75.7378 54.12 77.6578 54.12C79.5778 54.12 81.2311 53.7467 82.6178 53C84.0045 52.2533 85.1511 51.2933 86.0578 50.12C86.9645 48.9467 87.6311 47.6133 88.0578 46.12C88.5378 44.6267 88.7778 43.1333 88.7778 41.64C88.7778 40.1467 88.5378 38.68 88.0578 37.24C87.6311 35.7467 86.9645 34.4133 86.0578 33.24C85.1511 32.0667 84.0045 31.1333 82.6178 30.44C81.2311 29.6933 79.5778 29.32 77.6578 29.32C75.7378 29.32 74.0845 29.6933 72.6978 30.44C71.3111 31.1333 70.1645 32.0667 69.2578 33.24C68.3511 34.4133 67.6578 35.7467 67.1778 37.24C66.7511 38.68 66.5378 40.1467 66.5378 41.64ZM102.406 22.6H112.806L120.806 50.12H120.966L129.206 22.6H139.446L147.766 50.12H147.926L156.086 22.6H166.086L152.806 61H143.046L134.326 34.12H134.166L125.526 61H115.766L102.406 22.6ZM231.183 61H222.063V55.24H221.903C220.569 57.48 218.703 59.1867 216.303 60.36C213.956 61.5333 211.423 62.12 208.703 62.12C205.769 62.12 203.129 61.5867 200.783 60.52C198.489 59.4 196.516 57.9333 194.863 56.12C193.263 54.2533 192.009 52.0933 191.103 49.64C190.249 47.1333 189.823 44.4667 189.823 41.64C189.823 38.8133 190.276 36.1733 191.183 33.72C192.089 31.2667 193.369 29.1333 195.023 27.32C196.676 25.5067 198.649 24.0933 200.943 23.08C203.236 22.0133 205.743 21.48 208.463 21.48C210.223 21.48 211.796 21.6933 213.183 22.12C214.569 22.4933 215.769 22.9733 216.783 23.56C217.849 24.1467 218.756 24.7867 219.503 25.48C220.249 26.1733 220.863 26.84 221.343 27.48H221.583V0.519997H231.183V61ZM199.583 41.64C199.583 43.1333 199.796 44.6267 200.223 46.12C200.703 47.6133 201.396 48.9467 202.303 50.12C203.209 51.2933 204.356 52.2533 205.743 53C207.129 53.7467 208.756 54.12 210.623 54.12C212.383 54.12 213.956 53.7733 215.343 53.08C216.729 52.3333 217.903 51.3733 218.863 50.2C219.876 49.0267 220.623 47.72 221.103 46.28C221.636 44.7867 221.903 43.2933 221.903 41.8C221.903 40.3067 221.636 38.8133 221.103 37.32C220.623 35.8267 219.876 34.4933 218.863 33.32C217.903 32.1467 216.729 31.1867 215.343 30.44C213.956 29.6933 212.383 29.32 210.623 29.32C208.756 29.32 207.129 29.6933 205.743 30.44C204.356 31.1333 203.209 32.0667 202.303 33.24C201.396 34.4133 200.703 35.7467 200.223 37.24C199.796 38.68 199.583 40.1467 199.583 41.64ZM240.606 41.64C240.606 38.6 241.139 35.8533 242.206 33.4C243.326 30.8933 244.819 28.76 246.686 27C248.553 25.24 250.766 23.88 253.326 22.92C255.886 21.96 258.606 21.48 261.486 21.48C264.366 21.48 267.086 21.96 269.646 22.92C272.206 23.88 274.419 25.24 276.286 27C278.153 28.76 279.619 30.8933 280.686 33.4C281.806 35.8533 282.366 38.6 282.366 41.64C282.366 44.68 281.806 47.4533 280.686 49.96C279.619 52.4667 278.153 54.6267 276.286 56.44C274.419 58.2 272.206 59.5867 269.646 60.6C267.086 61.6133 264.366 62.12 261.486 62.12C258.606 62.12 255.886 61.6133 253.326 60.6C250.766 59.5867 248.553 58.2 246.686 56.44C244.819 54.6267 243.326 52.4667 242.206 49.96C241.139 47.4533 240.606 44.68 240.606 41.64ZM250.366 41.64C250.366 43.1333 250.579 44.6267 251.006 46.12C251.486 47.6133 252.179 48.9467 253.086 50.12C253.993 51.2933 255.139 52.2533 256.526 53C257.913 53.7467 259.566 54.12 261.486 54.12C263.406 54.12 265.059 53.7467 266.446 53C267.833 52.2533 268.979 51.2933 269.886 50.12C270.793 48.9467 271.459 47.6133 271.886 46.12C272.366 44.6267 272.606 43.1333 272.606 41.64C272.606 40.1467 272.366 38.68 271.886 37.24C271.459 35.7467 270.793 34.4133 269.886 33.24C268.979 32.0667 267.833 31.1333 266.446 30.44C265.059 29.6933 263.406 29.32 261.486 29.32C259.566 29.32 257.913 29.6933 256.526 30.44C255.139 31.1333 253.993 32.0667 253.086 33.24C252.179 34.4133 251.486 35.7467 251.006 37.24C250.579 38.68 250.366 40.1467 250.366 41.64ZM305.914 22.6H316.554L327.274 50.52H327.434L336.954 22.6H346.954L328.794 69.24C328.101 71 327.354 72.5467 326.554 73.88C325.754 75.2667 324.794 76.4133 323.674 77.32C322.554 78.28 321.221 79 319.674 79.48C318.181 79.96 316.367 80.2 314.234 80.2C313.434 80.2 312.607 80.1467 311.754 80.04C310.954 79.9867 310.127 79.8533 309.274 79.64L310.074 71.32C310.714 71.5333 311.327 71.6667 311.914 71.72C312.554 71.8267 313.141 71.88 313.674 71.88C314.687 71.88 315.541 71.7467 316.234 71.48C316.927 71.2667 317.514 70.8933 317.994 70.36C318.474 69.88 318.901 69.2667 319.274 68.52C319.647 67.7733 320.047 66.8933 320.474 65.88L322.394 61L305.914 22.6ZM350.45 41.64C350.45 38.6 350.983 35.8533 352.05 33.4C353.17 30.8933 354.663 28.76 356.53 27C358.396 25.24 360.61 23.88 363.17 22.92C365.73 21.96 368.45 21.48 371.33 21.48C374.21 21.48 376.93 21.96 379.49 22.92C382.05 23.88 384.263 25.24 386.13 27C387.996 28.76 389.463 30.8933 390.53 33.4C391.65 35.8533 392.21 38.6 392.21 41.64C392.21 44.68 391.65 47.4533 390.53 49.96C389.463 52.4667 387.996 54.6267 386.13 56.44C384.263 58.2 382.05 59.5867 379.49 60.6C376.93 61.6133 374.21 62.12 371.33 62.12C368.45 62.12 365.73 61.6133 363.17 60.6C360.61 59.5867 358.396 58.2 356.53 56.44C354.663 54.6267 353.17 52.4667 352.05 49.96C350.983 47.4533 350.45 44.68 350.45 41.64ZM360.21 41.64C360.21 43.1333 360.423 44.6267 360.85 46.12C361.33 47.6133 362.023 48.9467 362.93 50.12C363.836 51.2933 364.983 52.2533 366.37 53C367.756 53.7467 369.41 54.12 371.33 54.12C373.25 54.12 374.903 53.7467 376.29 53C377.676 52.2533 378.823 51.2933 379.73 50.12C380.636 48.9467 381.303 47.6133 381.73 46.12C382.21 44.6267 382.45 43.1333 382.45 41.64C382.45 40.1467 382.21 38.68 381.73 37.24C381.303 35.7467 380.636 34.4133 379.73 33.24C378.823 32.0667 377.676 31.1333 376.29 30.44C374.903 29.6933 373.25 29.32 371.33 29.32C369.41 29.32 367.756 29.6933 366.37 30.44C364.983 31.1333 363.836 32.0667 362.93 33.24C362.023 34.4133 361.33 35.7467 360.85 37.24C360.423 38.68 360.21 40.1467 360.21 41.64ZM436.558 61H427.438V54.84H427.278C426.424 56.76 424.931 58.4667 422.798 59.96C420.718 61.4 418.238 62.12 415.358 62.12C412.851 62.12 410.691 61.6933 408.878 60.84C407.118 59.9333 405.651 58.76 404.478 57.32C403.358 55.88 402.531 54.2267 401.998 52.36C401.464 50.4933 401.198 48.5733 401.198 46.6V22.6H410.798V43.88C410.798 45 410.878 46.1733 411.038 47.4C411.198 48.6267 411.544 49.7467 412.078 50.76C412.611 51.72 413.331 52.52 414.238 53.16C415.198 53.8 416.451 54.12 417.998 54.12C419.491 54.12 420.798 53.8267 421.918 53.24C423.091 52.6 424.024 51.8 424.718 50.84C425.464 49.88 426.024 48.7867 426.398 47.56C426.771 46.28 426.958 45 426.958 43.72V22.6H436.558V61ZM462.64 22.6H473.04L481.04 50.12H481.2L489.44 22.6H499.68L508 50.12H508.16L516.32 22.6H526.32L513.04 61H503.28L494.56 34.12H494.4L485.76 61H476L462.64 22.6ZM556.217 56.12H555.977C555.017 57.8267 553.471 59.24 551.337 60.36C549.204 61.4267 546.777 61.96 544.057 61.96C542.511 61.96 540.884 61.7467 539.177 61.32C537.524 60.9467 535.977 60.3067 534.537 59.4C533.151 58.44 531.977 57.2133 531.017 55.72C530.111 54.1733 529.657 52.28 529.657 50.04C529.657 47.16 530.457 44.8667 532.057 43.16C533.711 41.4533 535.817 40.1467 538.377 39.24C540.937 38.3333 543.764 37.7467 546.857 37.48C550.004 37.16 553.071 37 556.057 37V36.04C556.057 33.64 555.177 31.88 553.417 30.76C551.711 29.5867 549.657 29 547.257 29C545.231 29 543.284 29.4267 541.417 30.28C539.551 31.1333 538.004 32.1733 536.777 33.4L531.817 27.56C534.004 25.5333 536.511 24.0133 539.337 23C542.217 21.9867 545.124 21.48 548.057 21.48C551.471 21.48 554.271 21.96 556.457 22.92C558.697 23.88 560.457 25.1333 561.737 26.68C563.017 28.2267 563.897 29.96 564.377 31.88C564.911 33.8 565.177 35.72 565.177 37.64V61H556.217V56.12ZM556.057 43.48H553.897C552.351 43.48 550.724 43.56 549.017 43.72C547.311 43.8267 545.737 44.12 544.297 44.6C542.857 45.0267 541.657 45.6667 540.697 46.52C539.737 47.32 539.257 48.44 539.257 49.88C539.257 50.7867 539.444 51.56 539.817 52.2C540.244 52.7867 540.777 53.2667 541.417 53.64C542.057 54.0133 542.777 54.28 543.577 54.44C544.377 54.6 545.177 54.68 545.977 54.68C549.284 54.68 551.791 53.8 553.497 52.04C555.204 50.28 556.057 47.88 556.057 44.84V43.48ZM576.362 22.6H585.482V28.76H585.642C586.495 26.84 587.962 25.16 590.042 23.72C592.175 22.2267 594.682 21.48 597.562 21.48C600.068 21.48 602.202 21.9333 603.962 22.84C605.775 23.6933 607.242 24.84 608.362 26.28C609.535 27.72 610.388 29.3733 610.922 31.24C611.455 33.1067 611.722 35.0267 611.722 37V61H602.122V39.72C602.122 38.6 602.042 37.4267 601.882 36.2C601.722 34.9733 601.375 33.88 600.842 32.92C600.308 31.9067 599.562 31.08 598.602 30.44C597.695 29.8 596.468 29.48 594.922 29.48C593.375 29.48 592.042 29.8 590.922 30.44C589.802 31.0267 588.868 31.8 588.122 32.76C587.428 33.72 586.895 34.84 586.522 36.12C586.148 37.3467 585.962 38.6 585.962 39.88V61H576.362V22.6ZM617.404 30.28V22.6H624.124V11.48H633.564V22.6H643.164V30.28H633.564V48.12C633.564 49.8267 633.857 51.24 634.444 52.36C635.084 53.48 636.471 54.04 638.604 54.04C639.244 54.04 639.937 53.9867 640.684 53.88C641.431 53.72 642.097 53.5067 642.684 53.24L643.004 60.76C642.151 61.08 641.137 61.32 639.964 61.48C638.791 61.6933 637.671 61.8 636.604 61.8C634.044 61.8 631.964 61.4533 630.364 60.76C628.764 60.0133 627.484 59.0267 626.524 57.8C625.617 56.52 624.977 55.08 624.604 53.48C624.284 51.8267 624.124 50.0667 624.124 48.2V30.28H617.404ZM664.352 22.6H674.992L685.712 50.52H685.872L695.392 22.6H705.392L687.232 69.24C686.538 71 685.792 72.5467 684.992 73.88C684.192 75.2667 683.232 76.4133 682.112 77.32C680.992 78.28 679.658 79 678.112 79.48C676.618 79.96 674.805 80.2 672.672 80.2C671.872 80.2 671.045 80.1467 670.192 80.04C669.392 79.9867 668.565 79.8533 667.712 79.64L668.512 71.32C669.152 71.5333 669.765 71.6667 670.352 71.72C670.992 71.8267 671.578 71.88 672.112 71.88C673.125 71.88 673.978 71.7467 674.672 71.48C675.365 71.2667 675.952 70.8933 676.432 70.36C676.912 69.88 677.338 69.2667 677.712 68.52C678.085 67.7733 678.485 66.8933 678.912 65.88L680.832 61L664.352 22.6ZM708.887 41.64C708.887 38.6 709.421 35.8533 710.487 33.4C711.607 30.8933 713.101 28.76 714.967 27C716.834 25.24 719.047 23.88 721.607 22.92C724.167 21.96 726.887 21.48 729.767 21.48C732.647 21.48 735.367 21.96 737.927 22.92C740.487 23.88 742.701 25.24 744.567 27C746.434 28.76 747.901 30.8933 748.967 33.4C750.087 35.8533 750.647 38.6 750.647 41.64C750.647 44.68 750.087 47.4533 748.967 49.96C747.901 52.4667 746.434 54.6267 744.567 56.44C742.701 58.2 740.487 59.5867 737.927 60.6C735.367 61.6133 732.647 62.12 729.767 62.12C726.887 62.12 724.167 61.6133 721.607 60.6C719.047 59.5867 716.834 58.2 714.967 56.44C713.101 54.6267 711.607 52.4667 710.487 49.96C709.421 47.4533 708.887 44.68 708.887 41.64ZM718.647 41.64C718.647 43.1333 718.861 44.6267 719.287 46.12C719.767 47.6133 720.461 48.9467 721.367 50.12C722.274 51.2933 723.421 52.2533 724.807 53C726.194 53.7467 727.847 54.12 729.767 54.12C731.687 54.12 733.341 53.7467 734.727 53C736.114 52.2533 737.261 51.2933 738.167 50.12C739.074 48.9467 739.741 47.6133 740.167 46.12C740.647 44.6267 740.887 43.1333 740.887 41.64C740.887 40.1467 740.647 38.68 740.167 37.24C739.741 35.7467 739.074 34.4133 738.167 33.24C737.261 32.0667 736.114 31.1333 734.727 30.44C733.341 29.6933 731.687 29.32 729.767 29.32C727.847 29.32 726.194 29.6933 724.807 30.44C723.421 31.1333 722.274 32.0667 721.367 33.24C720.461 34.4133 719.767 35.7467 719.287 37.24C718.861 38.68 718.647 40.1467 718.647 41.64ZM794.995 61H785.875V54.84H785.715C784.862 56.76 783.369 58.4667 781.235 59.96C779.155 61.4 776.675 62.12 773.795 62.12C771.289 62.12 769.129 61.6933 767.315 60.84C765.555 59.9333 764.089 58.76 762.915 57.32C761.795 55.88 760.969 54.2267 760.435 52.36C759.902 50.4933 759.635 48.5733 759.635 46.6V22.6H769.235V43.88C769.235 45 769.315 46.1733 769.475 47.4C769.635 48.6267 769.982 49.7467 770.515 50.76C771.049 51.72 771.769 52.52 772.675 53.16C773.635 53.8 774.889 54.12 776.435 54.12C777.929 54.12 779.235 53.8267 780.355 53.24C781.529 52.6 782.462 51.8 783.155 50.84C783.902 49.88 784.462 48.7867 784.835 47.56C785.209 46.28 785.395 45 785.395 43.72V22.6H794.995V61ZM806.518 22.6H815.718V29H815.878C816.944 26.76 818.438 24.9467 820.358 23.56C822.278 22.1733 824.518 21.48 827.078 21.48C827.451 21.48 827.851 21.5067 828.278 21.56C828.704 21.56 829.078 21.6133 829.398 21.72V30.52C828.758 30.36 828.198 30.2533 827.718 30.2C827.291 30.1467 826.864 30.12 826.438 30.12C824.251 30.12 822.491 30.52 821.158 31.32C819.824 32.12 818.784 33.08 818.038 34.2C817.291 35.32 816.784 36.4667 816.518 37.64C816.251 38.8133 816.118 39.7467 816.118 40.44V61H806.518V22.6ZM881.898 33.24C881.152 32.1733 880.032 31.2933 878.538 30.6C877.045 29.8533 875.525 29.48 873.978 29.48C872.218 29.48 870.672 29.8533 869.338 30.6C868.005 31.2933 866.885 32.2267 865.978 33.4C865.125 34.5733 864.485 35.9067 864.058 37.4C863.632 38.84 863.418 40.3067 863.418 41.8C863.418 43.2933 863.632 44.7867 864.058 46.28C864.538 47.72 865.232 49.0267 866.138 50.2C867.045 51.3733 868.165 52.3333 869.498 53.08C870.885 53.7733 872.485 54.12 874.298 54.12C875.792 54.12 877.285 53.8267 878.778 53.24C880.272 52.6533 881.472 51.8 882.378 50.68L888.378 56.76C886.778 58.4667 884.725 59.8 882.218 60.76C879.765 61.6667 877.098 62.12 874.218 62.12C871.392 62.12 868.698 61.6667 866.138 60.76C863.632 59.8533 861.418 58.52 859.498 56.76C857.632 55 856.138 52.8667 855.018 50.36C853.952 47.8533 853.418 45 853.418 41.8C853.418 38.7067 853.952 35.9067 855.018 33.4C856.138 30.8933 857.632 28.76 859.498 27C861.365 25.24 863.525 23.88 865.978 22.92C868.485 21.96 871.152 21.48 873.978 21.48C876.805 21.48 879.525 22.0133 882.138 23.08C884.805 24.1467 886.912 25.6133 888.458 27.48L881.898 33.24ZM894.721 22.6H903.921V29H904.081C905.148 26.76 906.641 24.9467 908.561 23.56C910.481 22.1733 912.721 21.48 915.281 21.48C915.654 21.48 916.054 21.5067 916.481 21.56C916.908 21.56 917.281 21.6133 917.601 21.72V30.52C916.961 30.36 916.401 30.2533 915.921 30.2C915.494 30.1467 915.068 30.12 914.641 30.12C912.454 30.12 910.694 30.52 909.361 31.32C908.028 32.12 906.988 33.08 906.241 34.2C905.494 35.32 904.988 36.4667 904.721 37.64C904.454 38.8133 904.321 39.7467 904.321 40.44V61H894.721V22.6ZM946.686 56.12H946.446C945.486 57.8267 943.939 59.24 941.806 60.36C939.673 61.4267 937.246 61.96 934.526 61.96C932.979 61.96 931.353 61.7467 929.646 61.32C927.993 60.9467 926.446 60.3067 925.006 59.4C923.619 58.44 922.446 57.2133 921.486 55.72C920.579 54.1733 920.126 52.28 920.126 50.04C920.126 47.16 920.926 44.8667 922.526 43.16C924.179 41.4533 926.286 40.1467 928.846 39.24C931.406 38.3333 934.233 37.7467 937.326 37.48C940.473 37.16 943.539 37 946.526 37V36.04C946.526 33.64 945.646 31.88 943.886 30.76C942.179 29.5867 940.126 29 937.726 29C935.699 29 933.753 29.4267 931.886 30.28C930.019 31.1333 928.473 32.1733 927.246 33.4L922.286 27.56C924.473 25.5333 926.979 24.0133 929.806 23C932.686 21.9867 935.593 21.48 938.526 21.48C941.939 21.48 944.739 21.96 946.926 22.92C949.166 23.88 950.926 25.1333 952.206 26.68C953.486 28.2267 954.366 29.96 954.846 31.88C955.379 33.8 955.646 35.72 955.646 37.64V61H946.686V56.12ZM946.526 43.48H944.366C942.819 43.48 941.193 43.56 939.486 43.72C937.779 43.8267 936.206 44.12 934.766 44.6C933.326 45.0267 932.126 45.6667 931.166 46.52C930.206 47.32 929.726 48.44 929.726 49.88C929.726 50.7867 929.913 51.56 930.286 52.2C930.713 52.7867 931.246 53.2667 931.886 53.64C932.526 54.0133 933.246 54.28 934.046 54.44C934.846 54.6 935.646 54.68 936.446 54.68C939.753 54.68 942.259 53.8 943.966 52.04C945.673 50.28 946.526 47.88 946.526 44.84V43.48ZM976.59 0.519997V27.48H976.83C977.31 26.84 977.924 26.1733 978.67 25.48C979.417 24.7867 980.297 24.1467 981.31 23.56C982.377 22.9733 983.604 22.4933 984.99 22.12C986.377 21.6933 987.95 21.48 989.71 21.48C992.43 21.48 994.937 22.0133 997.23 23.08C999.524 24.0933 1001.5 25.5067 1003.15 27.32C1004.8 29.1333 1006.08 31.2667 1006.99 33.72C1007.9 36.1733 1008.35 38.8133 1008.35 41.64C1008.35 44.4667 1007.9 47.1333 1006.99 49.64C1006.14 52.0933 1004.88 54.2533 1003.23 56.12C1001.63 57.9333 999.657 59.4 997.31 60.52C995.017 61.5867 992.404 62.12 989.47 62.12C986.75 62.12 984.19 61.5333 981.79 60.36C979.444 59.1867 977.604 57.48 976.27 55.24H976.11V61H966.99V0.519997H976.59ZM998.59 41.64C998.59 40.1467 998.35 38.68 997.87 37.24C997.444 35.7467 996.777 34.4133 995.87 33.24C994.964 32.0667 993.817 31.1333 992.43 30.44C991.044 29.6933 989.417 29.32 987.55 29.32C985.79 29.32 984.217 29.6933 982.83 30.44C981.444 31.1867 980.244 32.1467 979.23 33.32C978.27 34.4933 977.524 35.8267 976.99 37.32C976.51 38.8133 976.27 40.3067 976.27 41.8C976.27 43.2933 976.51 44.7867 976.99 46.28C977.524 47.72 978.27 49.0267 979.23 50.2C980.244 51.3733 981.444 52.3333 982.83 53.08C984.217 53.7733 985.79 54.12 987.55 54.12C989.417 54.12 991.044 53.7467 992.43 53C993.817 52.2533 994.964 51.2933 995.87 50.12C996.777 48.9467 997.444 47.6133 997.87 46.12C998.35 44.6267 998.59 43.1333 998.59 41.64ZM1038.65 32.84C1037.8 31.72 1036.62 30.76 1035.13 29.96C1033.64 29.1067 1032.01 28.68 1030.25 28.68C1028.7 28.68 1027.29 29 1026.01 29.64C1024.73 30.28 1024.09 31.3467 1024.09 32.84C1024.09 34.3333 1024.78 35.4 1026.17 36.04C1027.61 36.6267 1029.69 37.24 1032.41 37.88C1033.85 38.2 1035.29 38.6267 1036.73 39.16C1038.22 39.6933 1039.56 40.4133 1040.73 41.32C1041.96 42.1733 1042.94 43.2667 1043.69 44.6C1044.44 45.88 1044.81 47.4533 1044.81 49.32C1044.81 51.6667 1044.36 53.6667 1043.45 55.32C1042.6 56.92 1041.42 58.2267 1039.93 59.24C1038.49 60.2533 1036.78 60.9733 1034.81 61.4C1032.89 61.88 1030.89 62.12 1028.81 62.12C1025.82 62.12 1022.92 61.5867 1020.09 60.52C1017.26 59.4 1014.92 57.8267 1013.05 55.8L1019.37 49.88C1020.44 51.2667 1021.82 52.4133 1023.53 53.32C1025.24 54.2267 1027.13 54.68 1029.21 54.68C1029.9 54.68 1030.6 54.6 1031.29 54.44C1032.04 54.28 1032.7 54.04 1033.29 53.72C1033.93 53.3467 1034.44 52.8667 1034.81 52.28C1035.18 51.6933 1035.37 50.9733 1035.37 50.12C1035.37 48.52 1034.62 47.3733 1033.13 46.68C1031.69 45.9867 1029.5 45.2933 1026.57 44.6C1025.13 44.28 1023.72 43.88 1022.33 43.4C1021 42.8667 1019.8 42.2 1018.73 41.4C1017.66 40.5467 1016.81 39.5067 1016.17 38.28C1015.53 37.0533 1015.21 35.5333 1015.21 33.72C1015.21 31.5867 1015.64 29.7467 1016.49 28.2C1017.4 26.6533 1018.57 25.4 1020.01 24.44C1021.45 23.4267 1023.08 22.68 1024.89 22.2C1026.7 21.72 1028.57 21.48 1030.49 21.48C1033.26 21.48 1035.96 21.96 1038.57 22.92C1041.24 23.88 1043.34 25.3467 1044.89 27.32L1038.65 32.84ZM1064.2 44.28V41.24C1064.2 39.96 1064.28 38.8133 1064.44 37.8C1064.65 36.7867 1064.95 35.8267 1065.32 34.92C1065.75 34.0133 1066.28 33.1333 1066.92 32.28C1067.61 31.4267 1068.47 30.52 1069.48 29.56L1073.08 26.12C1074.09 25.2133 1074.95 24.2 1075.64 23.08C1076.39 21.96 1076.76 20.6 1076.76 19C1076.76 16.92 1076.09 15.1867 1074.76 13.8C1073.48 12.36 1071.64 11.64 1069.24 11.64C1068.01 11.64 1066.89 11.88 1065.88 12.36C1064.92 12.7867 1064.07 13.4 1063.32 14.2C1062.63 14.9467 1062.09 15.8267 1061.72 16.84C1061.35 17.8533 1061.13 18.8933 1061.08 19.96L1051.24 19.08C1051.56 16.52 1052.23 14.2533 1053.24 12.28C1054.31 10.2533 1055.67 8.54666 1057.32 7.16C1058.97 5.77333 1060.87 4.73333 1063 4.04C1065.13 3.29333 1067.43 2.92 1069.88 2.92C1072.17 2.92 1074.33 3.26666 1076.36 3.96C1078.44 4.6 1080.25 5.58666 1081.8 6.92C1083.4 8.2 1084.65 9.8 1085.56 11.72C1086.47 13.64 1086.92 15.8533 1086.92 18.36C1086.92 20.0667 1086.73 21.56 1086.36 22.84C1085.99 24.12 1085.45 25.2933 1084.76 26.36C1084.07 27.4267 1083.21 28.4667 1082.2 29.48C1081.24 30.44 1080.15 31.4533 1078.92 32.52C1077.85 33.4267 1076.97 34.2267 1076.28 34.92C1075.64 35.6133 1075.11 36.3067 1074.68 37C1074.31 37.6933 1074.04 38.44 1073.88 39.24C1073.72 40.04 1073.64 41.0267 1073.64 42.2V44.28H1064.2ZM1062.6 55.4C1062.6 53.6933 1063.21 52.2267 1064.44 51C1065.72 49.7733 1067.24 49.16 1069 49.16C1070.71 49.16 1072.2 49.7467 1073.48 50.92C1074.76 52.0933 1075.4 53.5333 1075.4 55.24C1075.4 56.9467 1074.76 58.4133 1073.48 59.64C1072.25 60.8667 1070.76 61.48 1069 61.48C1068.15 61.48 1067.32 61.32 1066.52 61C1065.77 60.68 1065.11 60.2533 1064.52 59.72C1063.93 59.1867 1063.45 58.5467 1063.08 57.8C1062.76 57.0533 1062.6 56.2533 1062.6 55.4Z" fill="black"/>
</svg>
