<svg width="394" height="111" viewBox="0 0 394 111" fill="none" xmlns="http://www.w3.org/2000/svg">
<path d="M42.5448 0.222646H45.5148V9.10265H56.2548V0.222646H59.2548V21.4626H56.2548V11.7426H45.5148V21.4626H42.5448V0.222646ZM69.6503 18.4026H69.7103L73.6403 7.24265H76.6403L69.7403 24.8226C69.5003 25.4226 69.2403 25.9526 68.9603 26.4126C68.6803 26.8926 68.3503 27.2926 67.9703 27.6126C67.5903 27.9526 67.1403 28.2126 66.6203 28.3926C66.1203 28.5726 65.5203 28.6626 64.8203 28.6626C64.5203 28.6626 64.2103 28.6426 63.8903 28.6026C63.5903 28.5826 63.2803 28.5326 62.9603 28.4526L63.2303 25.9626C63.7103 26.1226 64.1803 26.2026 64.6403 26.2026C65.3803 26.2026 65.9303 25.9926 66.2903 25.5726C66.6503 25.1726 66.9803 24.5926 67.2803 23.8326L68.1803 21.4626L62.0903 7.24265H65.2403L69.6503 18.4026ZM80.4775 23.8926C81.0975 24.5926 81.8675 25.1526 82.7875 25.5726C83.7275 25.9926 84.6875 26.2026 85.6675 26.2026C86.6075 26.2026 87.3975 26.0626 88.0375 25.7826C88.6775 25.5226 89.1875 25.1526 89.5675 24.6726C89.9675 24.2126 90.2475 23.6626 90.4075 23.0226C90.5875 22.3826 90.6775 21.6926 90.6775 20.9526V19.1226H90.6175C90.0975 19.9226 89.3875 20.5326 88.4875 20.9526C87.5875 21.3726 86.6275 21.5826 85.6075 21.5826C84.5275 21.5826 83.5375 21.3926 82.6375 21.0126C81.7575 20.6326 81.0075 20.1126 80.3875 19.4526C79.7675 18.7926 79.2875 18.0226 78.9475 17.1426C78.6075 16.2426 78.4375 15.2826 78.4375 14.2626C78.4375 13.2426 78.6075 12.2826 78.9475 11.3826C79.2875 10.4826 79.7675 9.70265 80.3875 9.04265C81.0075 8.36265 81.7575 7.83265 82.6375 7.45265C83.5175 7.05265 84.4975 6.85265 85.5775 6.85265C86.5975 6.85265 87.5675 7.07265 88.4875 7.51265C89.4275 7.95265 90.1675 8.62265 90.7075 9.52265H90.7675V7.24265H93.4975V20.7426C93.4975 21.7826 93.3675 22.7726 93.1075 23.7126C92.8475 24.6726 92.4075 25.5126 91.7875 26.2326C91.1675 26.9726 90.3575 27.5626 89.3575 28.0026C88.3575 28.4426 87.1175 28.6626 85.6375 28.6626C84.3975 28.6626 83.1475 28.4326 81.8875 27.9726C80.6475 27.5326 79.5775 26.9026 78.6775 26.0826L80.4775 23.8926ZM81.3475 14.2026C81.3475 14.8626 81.4475 15.4926 81.6475 16.0926C81.8675 16.6926 82.1775 17.2226 82.5775 17.6826C82.9975 18.1426 83.4975 18.5126 84.0775 18.7926C84.6575 19.0726 85.3175 19.2126 86.0575 19.2126C86.7775 19.2126 87.4375 19.0826 88.0375 18.8226C88.6375 18.5626 89.1475 18.2126 89.5675 17.7726C89.9875 17.3126 90.3075 16.7826 90.5275 16.1826C90.7675 15.5626 90.8875 14.9026 90.8875 14.2026C90.8875 13.5226 90.7675 12.8826 90.5275 12.2826C90.3075 11.6826 89.9775 11.1526 89.5375 10.6926C89.1175 10.2326 88.6075 9.87265 88.0075 9.61265C87.4275 9.33265 86.7775 9.19265 86.0575 9.19265C85.3175 9.19265 84.6575 9.33265 84.0775 9.61265C83.4975 9.87265 82.9975 10.2326 82.5775 10.6926C82.1775 11.1326 81.8675 11.6626 81.6475 12.2826C81.4475 12.8826 81.3475 13.5226 81.3475 14.2026ZM101.173 21.4626H98.3526V7.24265H101.173V21.4626ZM101.653 2.11265C101.653 2.63265 101.463 3.06265 101.083 3.40264C100.723 3.74265 100.283 3.91265 99.7626 3.91265C99.2426 3.91265 98.8026 3.74265 98.4426 3.40264C98.0826 3.04265 97.9026 2.61265 97.9026 2.11265C97.9026 1.59265 98.0826 1.16265 98.4426 0.822646C98.8026 0.462646 99.2426 0.282646 99.7626 0.282646C100.283 0.282646 100.723 0.462646 101.083 0.822646C101.463 1.16265 101.653 1.59265 101.653 2.11265ZM116.496 13.0926C116.476 12.5326 116.376 12.0126 116.196 11.5326C116.036 11.0326 115.786 10.6026 115.446 10.2426C115.126 9.88265 114.716 9.60265 114.216 9.40265C113.736 9.18265 113.166 9.07265 112.506 9.07265C111.906 9.07265 111.336 9.18265 110.796 9.40265C110.276 9.60265 109.816 9.88265 109.416 10.2426C109.036 10.6026 108.716 11.0326 108.456 11.5326C108.216 12.0126 108.076 12.5326 108.036 13.0926H116.496ZM119.346 14.2326C119.346 14.3926 119.346 14.5526 119.346 14.7126C119.346 14.8726 119.336 15.0326 119.316 15.1926H108.036C108.056 15.7926 108.186 16.3626 108.426 16.9026C108.686 17.4226 109.026 17.8826 109.446 18.2826C109.866 18.6626 110.346 18.9626 110.886 19.1826C111.446 19.4026 112.036 19.5126 112.656 19.5126C113.616 19.5126 114.446 19.3026 115.146 18.8826C115.846 18.4626 116.396 17.9526 116.796 17.3526L118.776 18.9426C118.016 19.9426 117.116 20.6826 116.076 21.1626C115.056 21.6226 113.916 21.8526 112.656 21.8526C111.576 21.8526 110.576 21.6726 109.656 21.3126C108.736 20.9526 107.946 20.4526 107.286 19.8126C106.626 19.1526 106.106 18.3626 105.726 17.4426C105.346 16.5226 105.156 15.5026 105.156 14.3826C105.156 13.2826 105.336 12.2726 105.696 11.3526C106.076 10.4126 106.596 9.61265 107.256 8.95265C107.916 8.29265 108.696 7.78265 109.596 7.42265C110.496 7.04265 111.466 6.85265 112.506 6.85265C113.546 6.85265 114.486 7.02265 115.326 7.36265C116.186 7.70265 116.906 8.19265 117.486 8.83265C118.086 9.47265 118.546 10.2526 118.866 11.1726C119.186 12.0726 119.346 13.0926 119.346 14.2326ZM125.834 7.24265C125.874 7.60265 125.904 8.01265 125.924 8.47265C125.944 8.91265 125.954 9.28265 125.954 9.58265H126.044C126.224 9.20265 126.464 8.85265 126.764 8.53265C127.084 8.19265 127.444 7.90265 127.844 7.66265C128.244 7.40265 128.684 7.20265 129.164 7.06265C129.644 6.92265 130.144 6.85265 130.664 6.85265C131.584 6.85265 132.374 7.01265 133.034 7.33265C133.694 7.63265 134.244 8.04265 134.684 8.56265C135.124 9.08265 135.444 9.69265 135.644 10.3926C135.864 11.0926 135.974 11.8426 135.974 12.6426V21.4626H133.154V13.5726C133.154 12.9926 133.104 12.4426 133.004 11.9226C132.924 11.4026 132.764 10.9426 132.524 10.5426C132.284 10.1426 131.954 9.82265 131.534 9.58265C131.114 9.34265 130.574 9.22265 129.914 9.22265C128.794 9.22265 127.874 9.65265 127.154 10.5126C126.454 11.3526 126.104 12.4826 126.104 13.9026V21.4626H123.284V10.3026C123.284 9.92265 123.274 9.43265 123.254 8.83265C123.234 8.23265 123.204 7.70265 123.164 7.24265H125.834ZM151.154 13.0926C151.134 12.5326 151.034 12.0126 150.854 11.5326C150.694 11.0326 150.444 10.6026 150.104 10.2426C149.784 9.88265 149.374 9.60265 148.874 9.40265C148.394 9.18265 147.824 9.07265 147.164 9.07265C146.564 9.07265 145.994 9.18265 145.454 9.40265C144.934 9.60265 144.474 9.88265 144.074 10.2426C143.694 10.6026 143.374 11.0326 143.114 11.5326C142.874 12.0126 142.734 12.5326 142.694 13.0926H151.154ZM154.004 14.2326C154.004 14.3926 154.004 14.5526 154.004 14.7126C154.004 14.8726 153.994 15.0326 153.974 15.1926H142.694C142.714 15.7926 142.844 16.3626 143.084 16.9026C143.344 17.4226 143.684 17.8826 144.104 18.2826C144.524 18.6626 145.004 18.9626 145.544 19.1826C146.104 19.4026 146.694 19.5126 147.314 19.5126C148.274 19.5126 149.104 19.3026 149.804 18.8826C150.504 18.4626 151.054 17.9526 151.454 17.3526L153.434 18.9426C152.674 19.9426 151.774 20.6826 150.734 21.1626C149.714 21.6226 148.574 21.8526 147.314 21.8526C146.234 21.8526 145.234 21.6726 144.314 21.3126C143.394 20.9526 142.604 20.4526 141.944 19.8126C141.284 19.1526 140.764 18.3626 140.384 17.4426C140.004 16.5226 139.814 15.5026 139.814 14.3826C139.814 13.2826 139.994 12.2726 140.354 11.3526C140.734 10.4126 141.254 9.61265 141.914 8.95265C142.574 8.29265 143.354 7.78265 144.254 7.42265C145.154 7.04265 146.124 6.85265 147.164 6.85265C148.204 6.85265 149.144 7.02265 149.984 7.36265C150.844 7.70265 151.564 8.19265 152.144 8.83265C152.744 9.47265 153.204 10.2526 153.524 11.1726C153.844 12.0726 154.004 13.0926 154.004 14.2326ZM168.292 21.4626H165.472V7.24265H168.292V21.4626ZM168.772 2.11265C168.772 2.63265 168.582 3.06265 168.202 3.40264C167.842 3.74265 167.402 3.91265 166.882 3.91265C166.362 3.91265 165.922 3.74265 165.562 3.40264C165.202 3.04265 165.022 2.61265 165.022 2.11265C165.022 1.59265 165.202 1.16265 165.562 0.822646C165.922 0.462646 166.362 0.282646 166.882 0.282646C167.402 0.282646 167.842 0.462646 168.202 0.822646C168.582 1.16265 168.772 1.59265 168.772 2.11265ZM180.885 10.8426C180.565 10.3226 180.115 9.90265 179.535 9.58265C178.955 9.24265 178.305 9.07265 177.585 9.07265C177.265 9.07265 176.945 9.11265 176.625 9.19265C176.305 9.25265 176.015 9.36265 175.755 9.52265C175.515 9.66265 175.315 9.85265 175.155 10.0926C175.015 10.3126 174.945 10.5926 174.945 10.9326C174.945 11.5326 175.215 11.9826 175.755 12.2826C176.295 12.5626 177.105 12.8226 178.185 13.0626C178.865 13.2226 179.495 13.4126 180.075 13.6326C180.655 13.8526 181.155 14.1326 181.575 14.4726C182.015 14.7926 182.355 15.1826 182.595 15.6426C182.835 16.1026 182.955 16.6426 182.955 17.2626C182.955 18.1026 182.795 18.8126 182.475 19.3926C182.155 19.9726 181.725 20.4526 181.185 20.8326C180.665 21.1926 180.065 21.4526 179.385 21.6126C178.705 21.7726 178.005 21.8526 177.285 21.8526C176.205 21.8526 175.145 21.6426 174.105 21.2226C173.085 20.8026 172.235 20.1626 171.555 19.3026L173.565 17.5926C173.945 18.1526 174.465 18.6226 175.125 19.0026C175.805 19.3826 176.545 19.5726 177.345 19.5726C177.705 19.5726 178.045 19.5426 178.365 19.4826C178.705 19.4026 179.005 19.2826 179.265 19.1226C179.545 18.9626 179.765 18.7526 179.925 18.4926C180.085 18.2326 180.165 17.9026 180.165 17.5026C180.165 16.8426 179.845 16.3526 179.205 16.0326C178.585 15.7126 177.665 15.4126 176.445 15.1326C175.965 15.0126 175.475 14.8726 174.975 14.7126C174.495 14.5326 174.055 14.2926 173.655 13.9926C173.255 13.6926 172.925 13.3226 172.665 12.8826C172.425 12.4226 172.305 11.8626 172.305 11.2026C172.305 10.4426 172.455 9.79265 172.755 9.25265C173.075 8.69265 173.485 8.24265 173.985 7.90265C174.485 7.54265 175.055 7.28265 175.695 7.12265C176.335 6.94265 176.995 6.85265 177.675 6.85265C178.695 6.85265 179.675 7.05265 180.615 7.45265C181.575 7.85265 182.315 8.43265 182.835 9.19265L180.885 10.8426ZM208.435 14.3226C208.435 15.4226 208.235 16.4326 207.835 17.3526C207.455 18.2726 206.915 19.0726 206.215 19.7526C205.535 20.4126 204.725 20.9326 203.785 21.3126C202.845 21.6726 201.835 21.8526 200.755 21.8526C199.675 21.8526 198.665 21.6726 197.725 21.3126C196.785 20.9326 195.975 20.4126 195.295 19.7526C194.615 19.0726 194.075 18.2726 193.675 17.3526C193.295 16.4326 193.105 15.4226 193.105 14.3226C193.105 13.2226 193.295 12.2226 193.675 11.3226C194.075 10.4026 194.615 9.61265 195.295 8.95265C195.975 8.29265 196.785 7.78265 197.725 7.42265C198.665 7.04265 199.675 6.85265 200.755 6.85265C201.835 6.85265 202.845 7.04265 203.785 7.42265C204.725 7.78265 205.535 8.29265 206.215 8.95265C206.915 9.61265 207.455 10.4026 207.835 11.3226C208.235 12.2226 208.435 13.2226 208.435 14.3226ZM205.495 14.3226C205.495 13.6426 205.385 12.9926 205.165 12.3726C204.965 11.7526 204.665 11.2126 204.265 10.7526C203.865 10.2726 203.365 9.89265 202.765 9.61265C202.185 9.33265 201.515 9.19265 200.755 9.19265C199.995 9.19265 199.315 9.33265 198.715 9.61265C198.135 9.89265 197.645 10.2726 197.245 10.7526C196.845 11.2126 196.535 11.7526 196.315 12.3726C196.115 12.9926 196.015 13.6426 196.015 14.3226C196.015 15.0026 196.115 15.6526 196.315 16.2726C196.535 16.8926 196.845 17.4426 197.245 17.9226C197.645 18.4026 198.135 18.7826 198.715 19.0626C199.315 19.3426 199.995 19.4826 200.755 19.4826C201.515 19.4826 202.185 19.3426 202.765 19.0626C203.365 18.7826 203.865 18.4026 204.265 17.9226C204.665 17.4426 204.965 16.8926 205.165 16.2726C205.385 15.6526 205.495 15.0026 205.495 14.3226ZM222.366 21.4626C222.326 21.1026 222.296 20.7026 222.276 20.2626C222.256 19.8026 222.246 19.4226 222.246 19.1226H222.186C221.826 19.8826 221.216 20.5326 220.356 21.0726C219.516 21.5926 218.576 21.8526 217.536 21.8526C216.616 21.8526 215.816 21.7026 215.136 21.4026C214.476 21.1026 213.926 20.6926 213.486 20.1726C213.066 19.6326 212.746 19.0126 212.526 18.3126C212.326 17.6126 212.226 16.8626 212.226 16.0626V7.24265H215.046V15.1026C215.046 15.6826 215.086 16.2426 215.166 16.7826C215.266 17.3026 215.436 17.7626 215.676 18.1626C215.916 18.5626 216.246 18.8826 216.666 19.1226C217.086 19.3626 217.626 19.4826 218.286 19.4826C219.426 19.4826 220.346 19.0626 221.046 18.2226C221.746 17.3626 222.096 16.2226 222.096 14.8026V7.24265H224.916V18.4026C224.916 18.7826 224.926 19.2726 224.946 19.8726C224.966 20.4726 224.996 21.0026 225.036 21.4626H222.366ZM229.807 10.3026C229.807 9.92265 229.797 9.43265 229.777 8.83265C229.757 8.23265 229.727 7.70265 229.687 7.24265H232.357C232.397 7.60265 232.427 8.02265 232.447 8.50265C232.467 8.96265 232.477 9.34265 232.477 9.64265H232.567C232.967 8.80265 233.547 8.13265 234.307 7.63265C235.087 7.11265 235.957 6.85265 236.917 6.85265C237.357 6.85265 237.727 6.89265 238.027 6.97265L237.907 9.58265C237.507 9.48265 237.077 9.43265 236.617 9.43265C235.937 9.43265 235.347 9.56265 234.847 9.82265C234.347 10.0626 233.927 10.3926 233.587 10.8126C233.267 11.2326 233.027 11.7226 232.867 12.2826C232.707 12.8226 232.627 13.3926 232.627 13.9926V21.4626H229.807V10.3026ZM250.996 28.6626H248.176V7.24265H250.936V9.46265H251.026C251.486 8.70265 252.156 8.08265 253.036 7.60265C253.936 7.10265 254.976 6.85265 256.156 6.85265C257.216 6.85265 258.176 7.04265 259.036 7.42265C259.916 7.80265 260.666 8.33265 261.286 9.01265C261.926 9.69265 262.416 10.4926 262.756 11.4126C263.096 12.3126 263.266 13.2826 263.266 14.3226C263.266 15.3626 263.096 16.3426 262.756 17.2626C262.416 18.1826 261.936 18.9826 261.316 19.6626C260.696 20.3426 259.946 20.8826 259.066 21.2826C258.186 21.6626 257.196 21.8526 256.096 21.8526C255.076 21.8526 254.116 21.6326 253.216 21.1926C252.316 20.7526 251.606 20.1326 251.086 19.3326H250.996V28.6626ZM260.356 14.3226C260.356 13.6626 260.256 13.0226 260.056 12.4026C259.856 11.7826 259.556 11.2326 259.156 10.7526C258.756 10.2726 258.256 9.89265 257.656 9.61265C257.076 9.33265 256.396 9.19265 255.616 9.19265C254.896 9.19265 254.236 9.33265 253.636 9.61265C253.056 9.89265 252.556 10.2726 252.136 10.7526C251.716 11.2326 251.386 11.7826 251.146 12.4026C250.926 13.0226 250.816 13.6726 250.816 14.3526C250.816 15.0326 250.926 15.6826 251.146 16.3026C251.386 16.9226 251.716 17.4726 252.136 17.9526C252.556 18.4126 253.056 18.7826 253.636 19.0626C254.236 19.3426 254.896 19.4826 255.616 19.4826C256.396 19.4826 257.076 19.3426 257.656 19.0626C258.256 18.7626 258.756 18.3726 259.156 17.8926C259.556 17.4126 259.856 16.8626 260.056 16.2426C260.256 15.6226 260.356 14.9826 260.356 14.3226ZM267.19 10.3026C267.19 9.92265 267.18 9.43265 267.16 8.83265C267.14 8.23265 267.11 7.70265 267.07 7.24265H269.74C269.78 7.60265 269.81 8.02265 269.83 8.50265C269.85 8.96265 269.86 9.34265 269.86 9.64265H269.95C270.35 8.80265 270.93 8.13265 271.69 7.63265C272.47 7.11265 273.34 6.85265 274.3 6.85265C274.74 6.85265 275.11 6.89265 275.41 6.97265L275.29 9.58265C274.89 9.48265 274.46 9.43265 274 9.43265C273.32 9.43265 272.73 9.56265 272.23 9.82265C271.73 10.0626 271.31 10.3926 270.97 10.8126C270.65 11.2326 270.41 11.7226 270.25 12.2826C270.09 12.8226 270.01 13.3926 270.01 13.9926V21.4626H267.19V10.3026ZM280.909 21.4626H278.089V7.24265H280.909V21.4626ZM281.389 2.11265C281.389 2.63265 281.199 3.06265 280.819 3.40264C280.459 3.74265 280.019 3.91265 279.499 3.91265C278.979 3.91265 278.539 3.74265 278.179 3.40264C277.819 3.04265 277.639 2.61265 277.639 2.11265C277.639 1.59265 277.819 1.16265 278.179 0.822646C278.539 0.462646 278.979 0.282646 279.499 0.282646C280.019 0.282646 280.459 0.462646 280.819 0.822646C281.199 1.16265 281.389 1.59265 281.389 2.11265ZM300.223 14.3226C300.223 15.4226 300.023 16.4326 299.623 17.3526C299.243 18.2726 298.703 19.0726 298.003 19.7526C297.323 20.4126 296.513 20.9326 295.573 21.3126C294.633 21.6726 293.623 21.8526 292.543 21.8526C291.463 21.8526 290.453 21.6726 289.513 21.3126C288.573 20.9326 287.763 20.4126 287.083 19.7526C286.403 19.0726 285.863 18.2726 285.463 17.3526C285.083 16.4326 284.893 15.4226 284.893 14.3226C284.893 13.2226 285.083 12.2226 285.463 11.3226C285.863 10.4026 286.403 9.61265 287.083 8.95265C287.763 8.29265 288.573 7.78265 289.513 7.42265C290.453 7.04265 291.463 6.85265 292.543 6.85265C293.623 6.85265 294.633 7.04265 295.573 7.42265C296.513 7.78265 297.323 8.29265 298.003 8.95265C298.703 9.61265 299.243 10.4026 299.623 11.3226C300.023 12.2226 300.223 13.2226 300.223 14.3226ZM297.283 14.3226C297.283 13.6426 297.173 12.9926 296.953 12.3726C296.753 11.7526 296.453 11.2126 296.053 10.7526C295.653 10.2726 295.153 9.89265 294.553 9.61265C293.973 9.33265 293.303 9.19265 292.543 9.19265C291.783 9.19265 291.103 9.33265 290.503 9.61265C289.923 9.89265 289.433 10.2726 289.033 10.7526C288.633 11.2126 288.323 11.7526 288.103 12.3726C287.903 12.9926 287.803 13.6426 287.803 14.3226C287.803 15.0026 287.903 15.6526 288.103 16.2726C288.323 16.8926 288.633 17.4426 289.033 17.9226C289.433 18.4026 289.923 18.7826 290.503 19.0626C291.103 19.3426 291.783 19.4826 292.543 19.4826C293.303 19.4826 293.973 19.3426 294.553 19.0626C295.153 18.7826 295.653 18.4026 296.053 17.9226C296.453 17.4426 296.753 16.8926 296.953 16.2726C297.173 15.6526 297.283 15.0026 297.283 14.3226ZM304.133 10.3026C304.133 9.92265 304.123 9.43265 304.103 8.83265C304.083 8.23265 304.053 7.70265 304.013 7.24265H306.683C306.723 7.60265 306.753 8.02265 306.773 8.50265C306.793 8.96265 306.803 9.34265 306.803 9.64265H306.893C307.293 8.80265 307.873 8.13265 308.633 7.63265C309.413 7.11265 310.283 6.85265 311.243 6.85265C311.683 6.85265 312.053 6.89265 312.353 6.97265L312.233 9.58265C311.833 9.48265 311.403 9.43265 310.943 9.43265C310.263 9.43265 309.673 9.56265 309.173 9.82265C308.673 10.0626 308.253 10.3926 307.913 10.8126C307.593 11.2326 307.353 11.7226 307.193 12.2826C307.033 12.8226 306.953 13.3926 306.953 13.9926V21.4626H304.133V10.3026ZM317.852 21.4626H315.032V7.24265H317.852V21.4626ZM318.332 2.11265C318.332 2.63265 318.142 3.06265 317.762 3.40264C317.402 3.74265 316.962 3.91265 316.442 3.91265C315.922 3.91265 315.482 3.74265 315.122 3.40264C314.762 3.04265 314.582 2.61265 314.582 2.11265C314.582 1.59265 314.762 1.16265 315.122 0.822646C315.482 0.462646 315.922 0.282646 316.442 0.282646C316.962 0.282646 317.402 0.462646 317.762 0.822646C318.142 1.16265 318.332 1.59265 318.332 2.11265ZM329.726 9.55265H325.946V16.9626C325.946 17.8226 326.106 18.4426 326.426 18.8226C326.746 19.1826 327.256 19.3626 327.956 19.3626C328.216 19.3626 328.496 19.3326 328.796 19.2726C329.096 19.2126 329.366 19.1226 329.606 19.0026L329.696 21.3126C329.356 21.4326 328.976 21.5226 328.556 21.5826C328.156 21.6626 327.736 21.7026 327.296 21.7026C325.956 21.7026 324.926 21.3326 324.206 20.5926C323.506 19.8526 323.156 18.7426 323.156 17.2626V9.55265H320.426V7.24265H323.156V3.16265H325.946V7.24265H329.726V9.55265ZM338.039 18.4026H338.099L342.029 7.24265H345.029L338.129 24.8226C337.889 25.4226 337.629 25.9526 337.349 26.4126C337.069 26.8926 336.739 27.2926 336.359 27.6126C335.979 27.9526 335.529 28.2126 335.009 28.3926C334.509 28.5726 333.909 28.6626 333.209 28.6626C332.909 28.6626 332.599 28.6426 332.279 28.6026C331.979 28.5826 331.669 28.5326 331.349 28.4526L331.619 25.9626C332.099 26.1226 332.569 26.2026 333.029 26.2026C333.769 26.2026 334.319 25.9926 334.679 25.5726C335.039 25.1726 335.369 24.5926 335.669 23.8326L336.569 21.4626L330.479 7.24265H333.629L338.039 18.4026ZM350.152 19.6626C350.152 20.1826 349.962 20.6426 349.582 21.0426C349.202 21.4426 348.722 21.6426 348.142 21.6426C347.582 21.6426 347.102 21.4526 346.702 21.0726C346.322 20.6726 346.132 20.2126 346.132 19.6926C346.132 19.1526 346.322 18.6926 346.702 18.3126C347.082 17.9126 347.562 17.7126 348.142 17.7126C348.722 17.7126 349.202 17.9026 349.582 18.2826C349.962 18.6626 350.152 19.1226 350.152 19.6626ZM0.562422 41.2226H7.04242C8.18242 41.2226 9.22242 41.3426 10.1624 41.5826C11.1024 41.8026 11.9024 42.1526 12.5624 42.6326C13.2224 43.1126 13.7324 43.7226 14.0924 44.4626C14.4524 45.2026 14.6324 46.0926 14.6324 47.1326C14.6324 48.1926 14.4324 49.1026 14.0324 49.8626C13.6524 50.6226 13.1124 51.2426 12.4124 51.7226C11.7324 52.2026 10.9124 52.5626 9.95242 52.8026C9.01242 53.0226 7.99242 53.1326 6.89242 53.1326H3.53242V62.4626H0.562422V41.2226ZM3.53242 50.6126H6.68242C7.40242 50.6126 8.06242 50.5526 8.66242 50.4326C9.28242 50.2926 9.81242 50.0926 10.2524 49.8326C10.6924 49.5526 11.0324 49.1926 11.2724 48.7526C11.5124 48.3126 11.6324 47.7726 11.6324 47.1326C11.6324 46.4926 11.5024 45.9626 11.2424 45.5426C11.0024 45.1026 10.6624 44.7526 10.2224 44.4926C9.80242 44.2126 9.29242 44.0226 8.69242 43.9226C8.09242 43.8026 7.44242 43.7426 6.74242 43.7426H3.53242V50.6126ZM16.8773 51.3026C16.8773 50.9226 16.8673 50.4326 16.8473 49.8326C16.8273 49.2326 16.7973 48.7026 16.7573 48.2426H19.4273C19.4673 48.6026 19.4973 49.0226 19.5173 49.5026C19.5373 49.9626 19.5473 50.3426 19.5473 50.6426H19.6373C20.0373 49.8026 20.6173 49.1326 21.3773 48.6326C22.1573 48.1126 23.0273 47.8526 23.9873 47.8526C24.4273 47.8526 24.7973 47.8926 25.0973 47.9726L24.9773 50.5826C24.5773 50.4826 24.1473 50.4326 23.6873 50.4326C23.0073 50.4326 22.4173 50.5626 21.9173 50.8226C21.4173 51.0626 20.9973 51.3926 20.6573 51.8126C20.3373 52.2326 20.0973 52.7226 19.9373 53.2826C19.7773 53.8226 19.6973 54.3926 19.6973 54.9926V62.4626H16.8773V51.3026ZM41.6191 55.3226C41.6191 56.4226 41.4191 57.4326 41.0191 58.3526C40.6391 59.2726 40.0991 60.0726 39.3991 60.7526C38.7191 61.4126 37.9091 61.9326 36.9691 62.3126C36.0291 62.6726 35.0191 62.8526 33.9391 62.8526C32.8591 62.8526 31.8491 62.6726 30.9091 62.3126C29.9691 61.9326 29.1591 61.4126 28.4791 60.7526C27.7991 60.0726 27.2591 59.2726 26.8591 58.3526C26.4791 57.4326 26.2891 56.4226 26.2891 55.3226C26.2891 54.2226 26.4791 53.2226 26.8591 52.3226C27.2591 51.4026 27.7991 50.6126 28.4791 49.9526C29.1591 49.2926 29.9691 48.7826 30.9091 48.4226C31.8491 48.0426 32.8591 47.8526 33.9391 47.8526C35.0191 47.8526 36.0291 48.0426 36.9691 48.4226C37.9091 48.7826 38.7191 49.2926 39.3991 49.9526C40.0991 50.6126 40.6391 51.4026 41.0191 52.3226C41.4191 53.2226 41.6191 54.2226 41.6191 55.3226ZM38.6791 55.3226C38.6791 54.6426 38.5691 53.9926 38.3491 53.3726C38.1491 52.7526 37.8491 52.2126 37.4491 51.7526C37.0491 51.2726 36.5491 50.8926 35.9491 50.6126C35.3691 50.3326 34.6991 50.1926 33.9391 50.1926C33.1791 50.1926 32.4991 50.3326 31.8991 50.6126C31.3191 50.8926 30.8291 51.2726 30.4291 51.7526C30.0291 52.2126 29.7191 52.7526 29.4991 53.3726C29.2991 53.9926 29.1991 54.6426 29.1991 55.3226C29.1991 56.0026 29.2991 56.6526 29.4991 57.2726C29.7191 57.8926 30.0291 58.4426 30.4291 58.9226C30.8291 59.4026 31.3191 59.7826 31.8991 60.0626C32.4991 60.3426 33.1791 60.4826 33.9391 60.4826C34.6991 60.4826 35.3691 60.3426 35.9491 60.0626C36.5491 59.7826 37.0491 59.4026 37.4491 58.9226C37.8491 58.4426 38.1491 57.8926 38.3491 57.2726C38.5691 56.6526 38.6791 56.0026 38.6791 55.3226ZM55.4896 51.8426C55.1896 51.3826 54.7396 51.0026 54.1396 50.7026C53.5396 50.3826 52.8996 50.2226 52.2196 50.2226C51.4796 50.2226 50.8196 50.3626 50.2396 50.6426C49.6796 50.9226 49.1996 51.3026 48.7996 51.7826C48.3996 52.2426 48.0896 52.7826 47.8696 53.4026C47.6696 54.0226 47.5696 54.6726 47.5696 55.3526C47.5696 56.0326 47.6696 56.6826 47.8696 57.3026C48.0896 57.9226 48.3996 58.4726 48.7996 58.9526C49.1996 59.4126 49.6896 59.7826 50.2696 60.0626C50.8496 60.3426 51.5096 60.4826 52.2496 60.4826C52.9696 60.4826 53.6196 60.3426 54.1996 60.0626C54.7996 59.7826 55.2896 59.4026 55.6696 58.9226L57.5596 60.6326C56.9596 61.3326 56.2096 61.8826 55.3096 62.2826C54.4096 62.6626 53.3896 62.8526 52.2496 62.8526C51.1496 62.8526 50.1296 62.6726 49.1896 62.3126C48.2696 61.9526 47.4696 61.4526 46.7896 60.8126C46.1096 60.1526 45.5696 59.3626 45.1696 58.4426C44.7896 57.5226 44.5996 56.4926 44.5996 55.3526C44.5996 54.2326 44.7896 53.2126 45.1696 52.2926C45.5496 51.3726 46.0796 50.5826 46.7596 49.9226C47.4396 49.2626 48.2396 48.7526 49.1596 48.3926C50.0996 48.0326 51.1096 47.8526 52.1896 47.8526C53.1896 47.8526 54.1796 48.0526 55.1596 48.4526C56.1596 48.8526 56.9496 49.4326 57.5296 50.1926L55.4896 51.8426ZM70.7638 54.0926C70.7438 53.5326 70.6438 53.0126 70.4638 52.5326C70.3038 52.0326 70.0538 51.6026 69.7138 51.2426C69.3938 50.8826 68.9838 50.6026 68.4838 50.4026C68.0038 50.1826 67.4338 50.0726 66.7738 50.0726C66.1738 50.0726 65.6038 50.1826 65.0638 50.4026C64.5438 50.6026 64.0838 50.8826 63.6838 51.2426C63.3038 51.6026 62.9838 52.0326 62.7238 52.5326C62.4838 53.0126 62.3438 53.5326 62.3038 54.0926H70.7638ZM73.6138 55.2326C73.6138 55.3926 73.6138 55.5526 73.6138 55.7126C73.6138 55.8726 73.6038 56.0326 73.5838 56.1926H62.3038C62.3238 56.7926 62.4538 57.3626 62.6938 57.9026C62.9538 58.4226 63.2938 58.8826 63.7138 59.2826C64.1338 59.6626 64.6138 59.9626 65.1538 60.1826C65.7138 60.4026 66.3038 60.5126 66.9238 60.5126C67.8838 60.5126 68.7138 60.3026 69.4138 59.8826C70.1138 59.4626 70.6638 58.9526 71.0638 58.3526L73.0438 59.9426C72.2838 60.9426 71.3838 61.6826 70.3438 62.1626C69.3238 62.6226 68.1838 62.8526 66.9238 62.8526C65.8438 62.8526 64.8438 62.6726 63.9238 62.3126C63.0038 61.9526 62.2138 61.4526 61.5538 60.8126C60.8938 60.1526 60.3738 59.3626 59.9938 58.4426C59.6138 57.5226 59.4238 56.5026 59.4238 55.3826C59.4238 54.2826 59.6038 53.2726 59.9638 52.3526C60.3438 51.4126 60.8638 50.6126 61.5238 49.9526C62.1838 49.2926 62.9638 48.7826 63.8638 48.4226C64.7638 48.0426 65.7338 47.8526 66.7738 47.8526C67.8138 47.8526 68.7538 48.0226 69.5938 48.3626C70.4538 48.7026 71.1738 49.1926 71.7538 49.8326C72.3538 50.4726 72.8138 51.2526 73.1338 52.1726C73.4538 53.0726 73.6138 54.0926 73.6138 55.2326ZM85.2311 51.8426C84.9111 51.3226 84.4611 50.9026 83.8811 50.5826C83.3011 50.2426 82.6511 50.0726 81.9311 50.0726C81.6111 50.0726 81.2911 50.1126 80.9711 50.1926C80.6511 50.2526 80.3611 50.3626 80.1011 50.5226C79.8611 50.6626 79.6611 50.8526 79.5011 51.0926C79.3611 51.3126 79.2911 51.5926 79.2911 51.9326C79.2911 52.5326 79.5611 52.9826 80.1011 53.2826C80.6411 53.5626 81.4511 53.8226 82.5311 54.0626C83.2111 54.2226 83.8411 54.4126 84.4211 54.6326C85.0011 54.8526 85.5011 55.1326 85.9211 55.4726C86.3611 55.7926 86.7011 56.1826 86.9411 56.6426C87.1811 57.1026 87.3011 57.6426 87.3011 58.2626C87.3011 59.1026 87.1411 59.8126 86.8211 60.3926C86.5011 60.9726 86.0711 61.4526 85.5311 61.8326C85.0111 62.1926 84.4111 62.4526 83.7311 62.6126C83.0511 62.7726 82.3511 62.8526 81.6311 62.8526C80.5511 62.8526 79.4911 62.6426 78.4511 62.2226C77.4311 61.8026 76.5811 61.1626 75.9011 60.3026L77.9111 58.5926C78.2911 59.1526 78.8111 59.6226 79.4711 60.0026C80.1511 60.3826 80.8911 60.5726 81.6911 60.5726C82.0511 60.5726 82.3911 60.5426 82.7111 60.4826C83.0511 60.4026 83.3511 60.2826 83.6111 60.1226C83.8911 59.9626 84.1111 59.7526 84.2711 59.4926C84.4311 59.2326 84.5111 58.9026 84.5111 58.5026C84.5111 57.8426 84.1911 57.3526 83.5511 57.0326C82.9311 56.7126 82.0111 56.4126 80.7911 56.1326C80.3111 56.0126 79.8211 55.8726 79.3211 55.7126C78.8411 55.5326 78.4011 55.2926 78.0011 54.9926C77.6011 54.6926 77.2711 54.3226 77.0111 53.8826C76.7711 53.4226 76.6511 52.8626 76.6511 52.2026C76.6511 51.4426 76.8011 50.7926 77.1011 50.2526C77.4211 49.6926 77.8311 49.2426 78.3311 48.9026C78.8311 48.5426 79.4011 48.2826 80.0411 48.1226C80.6811 47.9426 81.3411 47.8526 82.0211 47.8526C83.0411 47.8526 84.0211 48.0526 84.9611 48.4526C85.9211 48.8526 86.6611 49.4326 87.1811 50.1926L85.2311 51.8426ZM98.5612 51.8426C98.2412 51.3226 97.7912 50.9026 97.2112 50.5826C96.6312 50.2426 95.9812 50.0726 95.2612 50.0726C94.9412 50.0726 94.6212 50.1126 94.3012 50.1926C93.9812 50.2526 93.6912 50.3626 93.4312 50.5226C93.1912 50.6626 92.9912 50.8526 92.8312 51.0926C92.6912 51.3126 92.6212 51.5926 92.6212 51.9326C92.6212 52.5326 92.8912 52.9826 93.4312 53.2826C93.9712 53.5626 94.7812 53.8226 95.8612 54.0626C96.5412 54.2226 97.1712 54.4126 97.7512 54.6326C98.3312 54.8526 98.8312 55.1326 99.2512 55.4726C99.6912 55.7926 100.031 56.1826 100.271 56.6426C100.511 57.1026 100.631 57.6426 100.631 58.2626C100.631 59.1026 100.471 59.8126 100.151 60.3926C99.8312 60.9726 99.4012 61.4526 98.8612 61.8326C98.3412 62.1926 97.7412 62.4526 97.0612 62.6126C96.3812 62.7726 95.6812 62.8526 94.9612 62.8526C93.8812 62.8526 92.8212 62.6426 91.7812 62.2226C90.7612 61.8026 89.9112 61.1626 89.2312 60.3026L91.2412 58.5926C91.6212 59.1526 92.1412 59.6226 92.8012 60.0026C93.4812 60.3826 94.2212 60.5726 95.0212 60.5726C95.3812 60.5726 95.7212 60.5426 96.0412 60.4826C96.3812 60.4026 96.6812 60.2826 96.9412 60.1226C97.2212 59.9626 97.4412 59.7526 97.6012 59.4926C97.7612 59.2326 97.8412 58.9026 97.8412 58.5026C97.8412 57.8426 97.5212 57.3526 96.8812 57.0326C96.2612 56.7126 95.3412 56.4126 94.1212 56.1326C93.6412 56.0126 93.1512 55.8726 92.6512 55.7126C92.1712 55.5326 91.7312 55.2926 91.3312 54.9926C90.9312 54.6926 90.6012 54.3226 90.3412 53.8826C90.1012 53.4226 89.9812 52.8626 89.9812 52.2026C89.9812 51.4426 90.1312 50.7926 90.4312 50.2526C90.7512 49.6926 91.1612 49.2426 91.6612 48.9026C92.1612 48.5426 92.7312 48.2826 93.3712 48.1226C94.0112 47.9426 94.6712 47.8526 95.3512 47.8526C96.3712 47.8526 97.3512 48.0526 98.2912 48.4526C99.2512 48.8526 99.9912 49.4326 100.511 50.1926L98.5612 51.8426ZM114.621 54.0926C114.601 53.5326 114.501 53.0126 114.321 52.5326C114.161 52.0326 113.911 51.6026 113.571 51.2426C113.251 50.8826 112.841 50.6026 112.341 50.4026C111.861 50.1826 111.291 50.0726 110.631 50.0726C110.031 50.0726 109.461 50.1826 108.921 50.4026C108.401 50.6026 107.941 50.8826 107.541 51.2426C107.161 51.6026 106.841 52.0326 106.581 52.5326C106.341 53.0126 106.201 53.5326 106.161 54.0926H114.621ZM117.471 55.2326C117.471 55.3926 117.471 55.5526 117.471 55.7126C117.471 55.8726 117.461 56.0326 117.441 56.1926H106.161C106.181 56.7926 106.311 57.3626 106.551 57.9026C106.811 58.4226 107.151 58.8826 107.571 59.2826C107.991 59.6626 108.471 59.9626 109.011 60.1826C109.571 60.4026 110.161 60.5126 110.781 60.5126C111.741 60.5126 112.571 60.3026 113.271 59.8826C113.971 59.4626 114.521 58.9526 114.921 58.3526L116.901 59.9426C116.141 60.9426 115.241 61.6826 114.201 62.1626C113.181 62.6226 112.041 62.8526 110.781 62.8526C109.701 62.8526 108.701 62.6726 107.781 62.3126C106.861 61.9526 106.071 61.4526 105.411 60.8126C104.751 60.1526 104.231 59.3626 103.851 58.4426C103.471 57.5226 103.281 56.5026 103.281 55.3826C103.281 54.2826 103.461 53.2726 103.821 52.3526C104.201 51.4126 104.721 50.6126 105.381 49.9526C106.041 49.2926 106.821 48.7826 107.721 48.4226C108.621 48.0426 109.591 47.8526 110.631 47.8526C111.671 47.8526 112.611 48.0226 113.451 48.3626C114.311 48.7026 115.031 49.1926 115.611 49.8326C116.211 50.4726 116.671 51.2526 116.991 52.1726C117.311 53.0726 117.471 54.0926 117.471 55.2326ZM132.749 60.2126C132.209 61.0726 131.469 61.7326 130.529 62.1926C129.609 62.6326 128.639 62.8526 127.619 62.8526C126.519 62.8526 125.529 62.6626 124.649 62.2826C123.769 61.8826 123.019 61.3426 122.399 60.6626C121.779 59.9826 121.299 59.1826 120.959 58.2626C120.619 57.3426 120.449 56.3626 120.449 55.3226C120.449 54.2826 120.619 53.3126 120.959 52.4126C121.299 51.4926 121.779 50.6926 122.399 50.0126C123.039 49.3326 123.799 48.8026 124.679 48.4226C125.559 48.0426 126.529 47.8526 127.589 47.8526C128.749 47.8526 129.759 48.1026 130.619 48.6026C131.479 49.0826 132.159 49.6726 132.659 50.3726H132.719V39.7826H135.539V62.4626H132.809V60.2126H132.749ZM123.389 55.3226C123.389 55.9826 123.489 56.6226 123.689 57.2426C123.889 57.8626 124.189 58.4126 124.589 58.8926C124.989 59.3726 125.479 59.7626 126.059 60.0626C126.639 60.3426 127.319 60.4826 128.099 60.4826C128.819 60.4826 129.469 60.3426 130.049 60.0626C130.649 59.7826 131.159 59.4126 131.579 58.9526C131.999 58.4726 132.319 57.9226 132.539 57.3026C132.779 56.6826 132.899 56.0326 132.899 55.3526C132.899 54.6726 132.779 54.0226 132.539 53.4026C132.319 52.7826 131.999 52.2326 131.579 51.7526C131.159 51.2726 130.649 50.8926 130.049 50.6126C129.469 50.3326 128.819 50.1926 128.099 50.1926C127.319 50.1926 126.639 50.3326 126.059 50.6126C125.479 50.8926 124.989 51.2726 124.589 51.7526C124.189 52.2326 123.889 52.7826 123.689 53.4026C123.489 54.0226 123.389 54.6626 123.389 55.3226ZM156.801 53.2526C156.801 52.1926 156.481 51.4126 155.841 50.9126C155.201 50.3926 154.351 50.1326 153.291 50.1326C152.491 50.1326 151.731 50.2926 151.011 50.6126C150.311 50.9126 149.721 51.3026 149.241 51.7826L147.741 49.9826C148.441 49.3226 149.291 48.8026 150.291 48.4226C151.311 48.0426 152.401 47.8526 153.561 47.8526C154.581 47.8526 155.461 48.0026 156.201 48.3026C156.961 48.5826 157.581 48.9726 158.061 49.4726C158.541 49.9726 158.901 50.5626 159.141 51.2426C159.381 51.9226 159.501 52.6526 159.501 53.4326V59.6426C159.501 60.1226 159.511 60.6326 159.531 61.1726C159.571 61.6926 159.631 62.1226 159.711 62.4626H157.161C157.001 61.7826 156.921 61.1026 156.921 60.4226H156.831C156.311 61.1826 155.651 61.7726 154.851 62.1926C154.071 62.6126 153.141 62.8226 152.061 62.8226C151.501 62.8226 150.911 62.7426 150.291 62.5826C149.691 62.4426 149.141 62.2026 148.641 61.8626C148.141 61.5226 147.721 61.0726 147.381 60.5126C147.061 59.9526 146.901 59.2626 146.901 58.4426C146.901 57.3626 147.191 56.5126 147.771 55.8926C148.351 55.2526 149.111 54.7726 150.051 54.4526C150.991 54.1126 152.051 53.8926 153.231 53.7926C154.411 53.6926 155.601 53.6426 156.801 53.6426V53.2526ZM156.111 55.6826C155.411 55.6826 154.681 55.7126 153.921 55.7726C153.181 55.8326 152.501 55.9526 151.881 56.1326C151.281 56.3126 150.781 56.5826 150.381 56.9426C149.981 57.3026 149.781 57.7826 149.781 58.3826C149.781 58.8026 149.861 59.1526 150.021 59.4326C150.201 59.7126 150.431 59.9426 150.711 60.1226C150.991 60.3026 151.301 60.4326 151.641 60.5126C151.981 60.5726 152.331 60.6026 152.691 60.6026C154.011 60.6026 155.021 60.2126 155.721 59.4326C156.441 58.6326 156.801 57.6326 156.801 56.4326V55.6826H156.111ZM166.761 48.2426C166.801 48.6026 166.831 49.0126 166.851 49.4726C166.871 49.9126 166.881 50.2826 166.881 50.5826H166.971C167.151 50.2026 167.391 49.8526 167.691 49.5326C168.011 49.1926 168.371 48.9026 168.771 48.6626C169.171 48.4026 169.611 48.2026 170.091 48.0626C170.571 47.9226 171.071 47.8526 171.591 47.8526C172.511 47.8526 173.301 48.0126 173.961 48.3326C174.621 48.6326 175.171 49.0426 175.611 49.5626C176.051 50.0826 176.371 50.6926 176.571 51.3926C176.791 52.0926 176.901 52.8426 176.901 53.6426V62.4626H174.081V54.5726C174.081 53.9926 174.031 53.4426 173.931 52.9226C173.851 52.4026 173.691 51.9426 173.451 51.5426C173.211 51.1426 172.881 50.8226 172.461 50.5826C172.041 50.3426 171.501 50.2226 170.841 50.2226C169.721 50.2226 168.801 50.6526 168.081 51.5126C167.381 52.3526 167.031 53.4826 167.031 54.9026V62.4626H164.211V51.3026C164.211 50.9226 164.201 50.4326 164.181 49.8326C164.161 49.2326 164.131 48.7026 164.091 48.2426H166.761ZM193.012 60.2126C192.472 61.0726 191.732 61.7326 190.792 62.1926C189.872 62.6326 188.902 62.8526 187.882 62.8526C186.782 62.8526 185.792 62.6626 184.912 62.2826C184.032 61.8826 183.282 61.3426 182.662 60.6626C182.042 59.9826 181.562 59.1826 181.222 58.2626C180.882 57.3426 180.712 56.3626 180.712 55.3226C180.712 54.2826 180.882 53.3126 181.222 52.4126C181.562 51.4926 182.042 50.6926 182.662 50.0126C183.302 49.3326 184.062 48.8026 184.942 48.4226C185.822 48.0426 186.792 47.8526 187.852 47.8526C189.012 47.8526 190.022 48.1026 190.882 48.6026C191.742 49.0826 192.422 49.6726 192.922 50.3726H192.982V39.7826H195.802V62.4626H193.072V60.2126H193.012ZM183.652 55.3226C183.652 55.9826 183.752 56.6226 183.952 57.2426C184.152 57.8626 184.452 58.4126 184.852 58.8926C185.252 59.3726 185.742 59.7626 186.322 60.0626C186.902 60.3426 187.582 60.4826 188.362 60.4826C189.082 60.4826 189.732 60.3426 190.312 60.0626C190.912 59.7826 191.422 59.4126 191.842 58.9526C192.262 58.4726 192.582 57.9226 192.802 57.3026C193.042 56.6826 193.162 56.0326 193.162 55.3526C193.162 54.6726 193.042 54.0226 192.802 53.4026C192.582 52.7826 192.262 52.2326 191.842 51.7526C191.422 51.2726 190.912 50.8926 190.312 50.6126C189.732 50.3326 189.082 50.1926 188.362 50.1926C187.582 50.1926 186.902 50.3326 186.322 50.6126C185.742 50.8926 185.252 51.2726 184.852 51.7526C184.452 52.2326 184.152 52.7826 183.952 53.4026C183.752 54.0226 183.652 54.6626 183.652 55.3226ZM208.215 51.3026C208.215 50.9226 208.205 50.4326 208.185 49.8326C208.165 49.2326 208.135 48.7026 208.095 48.2426H210.765C210.805 48.6026 210.835 49.0226 210.855 49.5026C210.875 49.9626 210.885 50.3426 210.885 50.6426H210.975C211.375 49.8026 211.955 49.1326 212.715 48.6326C213.495 48.1126 214.365 47.8526 215.325 47.8526C215.765 47.8526 216.135 47.8926 216.435 47.9726L216.315 50.5826C215.915 50.4826 215.485 50.4326 215.025 50.4326C214.345 50.4326 213.755 50.5626 213.255 50.8226C212.755 51.0626 212.335 51.3926 211.995 51.8126C211.675 52.2326 211.435 52.7226 211.275 53.2826C211.115 53.8226 211.035 54.3926 211.035 54.9926V62.4626H208.215V51.3026ZM228.967 54.0926C228.947 53.5326 228.847 53.0126 228.667 52.5326C228.507 52.0326 228.257 51.6026 227.917 51.2426C227.597 50.8826 227.187 50.6026 226.687 50.4026C226.207 50.1826 225.637 50.0726 224.977 50.0726C224.377 50.0726 223.807 50.1826 223.267 50.4026C222.747 50.6026 222.287 50.8826 221.887 51.2426C221.507 51.6026 221.187 52.0326 220.927 52.5326C220.687 53.0126 220.547 53.5326 220.507 54.0926H228.967ZM231.817 55.2326C231.817 55.3926 231.817 55.5526 231.817 55.7126C231.817 55.8726 231.807 56.0326 231.787 56.1926H220.507C220.527 56.7926 220.657 57.3626 220.897 57.9026C221.157 58.4226 221.497 58.8826 221.917 59.2826C222.337 59.6626 222.817 59.9626 223.357 60.1826C223.917 60.4026 224.507 60.5126 225.127 60.5126C226.087 60.5126 226.917 60.3026 227.617 59.8826C228.317 59.4626 228.867 58.9526 229.267 58.3526L231.247 59.9426C230.487 60.9426 229.587 61.6826 228.547 62.1626C227.527 62.6226 226.387 62.8526 225.127 62.8526C224.047 62.8526 223.047 62.6726 222.127 62.3126C221.207 61.9526 220.417 61.4526 219.757 60.8126C219.097 60.1526 218.577 59.3626 218.197 58.4426C217.817 57.5226 217.627 56.5026 217.627 55.3826C217.627 54.2826 217.807 53.2726 218.167 52.3526C218.547 51.4126 219.067 50.6126 219.727 49.9526C220.387 49.2926 221.167 48.7826 222.067 48.4226C222.967 48.0426 223.937 47.8526 224.977 47.8526C226.017 47.8526 226.957 48.0226 227.797 48.3626C228.657 48.7026 229.377 49.1926 229.957 49.8326C230.557 50.4726 231.017 51.2526 231.337 52.1726C231.657 53.0726 231.817 54.0926 231.817 55.2326ZM244.428 53.2526C244.428 52.1926 244.108 51.4126 243.468 50.9126C242.828 50.3926 241.978 50.1326 240.918 50.1326C240.118 50.1326 239.358 50.2926 238.638 50.6126C237.938 50.9126 237.348 51.3026 236.868 51.7826L235.368 49.9826C236.068 49.3226 236.918 48.8026 237.918 48.4226C238.938 48.0426 240.028 47.8526 241.188 47.8526C242.208 47.8526 243.088 48.0026 243.828 48.3026C244.588 48.5826 245.208 48.9726 245.688 49.4726C246.168 49.9726 246.528 50.5626 246.768 51.2426C247.008 51.9226 247.128 52.6526 247.128 53.4326V59.6426C247.128 60.1226 247.138 60.6326 247.158 61.1726C247.198 61.6926 247.258 62.1226 247.338 62.4626H244.788C244.628 61.7826 244.548 61.1026 244.548 60.4226H244.458C243.938 61.1826 243.278 61.7726 242.478 62.1926C241.698 62.6126 240.768 62.8226 239.688 62.8226C239.128 62.8226 238.538 62.7426 237.918 62.5826C237.318 62.4426 236.768 62.2026 236.268 61.8626C235.768 61.5226 235.348 61.0726 235.008 60.5126C234.688 59.9526 234.528 59.2626 234.528 58.4426C234.528 57.3626 234.818 56.5126 235.398 55.8926C235.978 55.2526 236.738 54.7726 237.678 54.4526C238.618 54.1126 239.678 53.8926 240.858 53.7926C242.038 53.6926 243.228 53.6426 244.428 53.6426V53.2526ZM243.738 55.6826C243.038 55.6826 242.308 55.7126 241.548 55.7726C240.808 55.8326 240.128 55.9526 239.508 56.1326C238.908 56.3126 238.408 56.5826 238.008 56.9426C237.608 57.3026 237.408 57.7826 237.408 58.3826C237.408 58.8026 237.488 59.1526 237.648 59.4326C237.828 59.7126 238.058 59.9426 238.338 60.1226C238.618 60.3026 238.928 60.4326 239.268 60.5126C239.608 60.5726 239.958 60.6026 240.318 60.6026C241.638 60.6026 242.648 60.2126 243.348 59.4326C244.068 58.6326 244.428 57.6326 244.428 56.4326V55.6826H243.738ZM263.178 60.2126C262.638 61.0726 261.898 61.7326 260.958 62.1926C260.038 62.6326 259.068 62.8526 258.048 62.8526C256.948 62.8526 255.958 62.6626 255.078 62.2826C254.198 61.8826 253.448 61.3426 252.828 60.6626C252.208 59.9826 251.728 59.1826 251.388 58.2626C251.048 57.3426 250.878 56.3626 250.878 55.3226C250.878 54.2826 251.048 53.3126 251.388 52.4126C251.728 51.4926 252.208 50.6926 252.828 50.0126C253.468 49.3326 254.228 48.8026 255.108 48.4226C255.988 48.0426 256.958 47.8526 258.018 47.8526C259.178 47.8526 260.188 48.1026 261.048 48.6026C261.908 49.0826 262.588 49.6726 263.088 50.3726H263.148V39.7826H265.968V62.4626H263.238V60.2126H263.178ZM253.818 55.3226C253.818 55.9826 253.918 56.6226 254.118 57.2426C254.318 57.8626 254.618 58.4126 255.018 58.8926C255.418 59.3726 255.908 59.7626 256.488 60.0626C257.068 60.3426 257.748 60.4826 258.528 60.4826C259.248 60.4826 259.898 60.3426 260.478 60.0626C261.078 59.7826 261.588 59.4126 262.008 58.9526C262.428 58.4726 262.748 57.9226 262.968 57.3026C263.208 56.6826 263.328 56.0326 263.328 55.3526C263.328 54.6726 263.208 54.0226 262.968 53.4026C262.748 52.7826 262.428 52.2326 262.008 51.7526C261.588 51.2726 261.078 50.8926 260.478 50.6126C259.898 50.3326 259.248 50.1926 258.528 50.1926C257.748 50.1926 257.068 50.3326 256.488 50.6126C255.908 50.8926 255.418 51.2726 255.018 51.7526C254.618 52.2326 254.318 52.7826 254.118 53.4026C253.918 54.0226 253.818 54.6626 253.818 55.3226ZM276.281 59.4026H276.341L280.271 48.2426H283.271L276.371 65.8226C276.131 66.4226 275.871 66.9526 275.591 67.4126C275.311 67.8926 274.981 68.2926 274.601 68.6126C274.221 68.9526 273.771 69.2126 273.251 69.3926C272.751 69.5726 272.151 69.6626 271.451 69.6626C271.151 69.6626 270.841 69.6426 270.521 69.6026C270.221 69.5826 269.911 69.5326 269.591 69.4526L269.861 66.9626C270.341 67.1226 270.811 67.2026 271.271 67.2026C272.011 67.2026 272.561 66.9926 272.921 66.5726C273.281 66.1726 273.611 65.5926 273.911 64.8326L274.811 62.4626L268.721 48.2426H271.871L276.281 59.4026ZM300.458 50.5526H296.678V57.9626C296.678 58.8226 296.838 59.4426 297.158 59.8226C297.478 60.1826 297.988 60.3626 298.688 60.3626C298.948 60.3626 299.228 60.3326 299.528 60.2726C299.828 60.2126 300.098 60.1226 300.338 60.0026L300.428 62.3126C300.088 62.4326 299.708 62.5226 299.288 62.5826C298.888 62.6626 298.468 62.7026 298.028 62.7026C296.688 62.7026 295.658 62.3326 294.938 61.5926C294.238 60.8526 293.888 59.7426 293.888 58.2626V50.5526H291.158V48.2426H293.888V44.1626H296.678V48.2426H300.458V50.5526ZM317.771 55.3226C317.771 56.4226 317.571 57.4326 317.171 58.3526C316.791 59.2726 316.251 60.0726 315.551 60.7526C314.871 61.4126 314.061 61.9326 313.121 62.3126C312.181 62.6726 311.171 62.8526 310.091 62.8526C309.011 62.8526 308.001 62.6726 307.061 62.3126C306.121 61.9326 305.311 61.4126 304.631 60.7526C303.951 60.0726 303.411 59.2726 303.011 58.3526C302.631 57.4326 302.441 56.4226 302.441 55.3226C302.441 54.2226 302.631 53.2226 303.011 52.3226C303.411 51.4026 303.951 50.6126 304.631 49.9526C305.311 49.2926 306.121 48.7826 307.061 48.4226C308.001 48.0426 309.011 47.8526 310.091 47.8526C311.171 47.8526 312.181 48.0426 313.121 48.4226C314.061 48.7826 314.871 49.2926 315.551 49.9526C316.251 50.6126 316.791 51.4026 317.171 52.3226C317.571 53.2226 317.771 54.2226 317.771 55.3226ZM314.831 55.3226C314.831 54.6426 314.721 53.9926 314.501 53.3726C314.301 52.7526 314.001 52.2126 313.601 51.7526C313.201 51.2726 312.701 50.8926 312.101 50.6126C311.521 50.3326 310.851 50.1926 310.091 50.1926C309.331 50.1926 308.651 50.3326 308.051 50.6126C307.471 50.8926 306.981 51.2726 306.581 51.7526C306.181 52.2126 305.871 52.7526 305.651 53.3726C305.451 53.9926 305.351 54.6426 305.351 55.3226C305.351 56.0026 305.451 56.6526 305.651 57.2726C305.871 57.8926 306.181 58.4426 306.581 58.9226C306.981 59.4026 307.471 59.7826 308.051 60.0626C308.651 60.3426 309.331 60.4826 310.091 60.4826C310.851 60.4826 311.521 60.3426 312.101 60.0626C312.701 59.7826 313.201 59.4026 313.601 58.9226C314.001 58.4426 314.301 57.8926 314.501 57.2726C314.721 56.6526 314.831 56.0026 314.831 55.3226ZM339.142 51.8426C338.842 51.3826 338.392 51.0026 337.792 50.7026C337.192 50.3826 336.552 50.2226 335.872 50.2226C335.132 50.2226 334.472 50.3626 333.892 50.6426C333.332 50.9226 332.852 51.3026 332.452 51.7826C332.052 52.2426 331.742 52.7826 331.522 53.4026C331.322 54.0226 331.222 54.6726 331.222 55.3526C331.222 56.0326 331.322 56.6826 331.522 57.3026C331.742 57.9226 332.052 58.4726 332.452 58.9526C332.852 59.4126 333.342 59.7826 333.922 60.0626C334.502 60.3426 335.162 60.4826 335.902 60.4826C336.622 60.4826 337.272 60.3426 337.852 60.0626C338.452 59.7826 338.942 59.4026 339.322 58.9226L341.212 60.6326C340.612 61.3326 339.862 61.8826 338.962 62.2826C338.062 62.6626 337.042 62.8526 335.902 62.8526C334.802 62.8526 333.782 62.6726 332.842 62.3126C331.922 61.9526 331.122 61.4526 330.442 60.8126C329.762 60.1526 329.222 59.3626 328.822 58.4426C328.442 57.5226 328.252 56.4926 328.252 55.3526C328.252 54.2326 328.442 53.2126 328.822 52.2926C329.202 51.3726 329.732 50.5826 330.412 49.9226C331.092 49.2626 331.892 48.7526 332.812 48.3926C333.752 48.0326 334.762 47.8526 335.842 47.8526C336.842 47.8526 337.832 48.0526 338.812 48.4526C339.812 48.8526 340.602 49.4326 341.182 50.1926L339.142 51.8426ZM358.406 55.3226C358.406 56.4226 358.206 57.4326 357.806 58.3526C357.426 59.2726 356.886 60.0726 356.186 60.7526C355.506 61.4126 354.696 61.9326 353.756 62.3126C352.816 62.6726 351.806 62.8526 350.726 62.8526C349.646 62.8526 348.636 62.6726 347.696 62.3126C346.756 61.9326 345.946 61.4126 345.266 60.7526C344.586 60.0726 344.046 59.2726 343.646 58.3526C343.266 57.4326 343.076 56.4226 343.076 55.3226C343.076 54.2226 343.266 53.2226 343.646 52.3226C344.046 51.4026 344.586 50.6126 345.266 49.9526C345.946 49.2926 346.756 48.7826 347.696 48.4226C348.636 48.0426 349.646 47.8526 350.726 47.8526C351.806 47.8526 352.816 48.0426 353.756 48.4226C354.696 48.7826 355.506 49.2926 356.186 49.9526C356.886 50.6126 357.426 51.4026 357.806 52.3226C358.206 53.2226 358.406 54.2226 358.406 55.3226ZM355.466 55.3226C355.466 54.6426 355.356 53.9926 355.136 53.3726C354.936 52.7526 354.636 52.2126 354.236 51.7526C353.836 51.2726 353.336 50.8926 352.736 50.6126C352.156 50.3326 351.486 50.1926 350.726 50.1926C349.966 50.1926 349.286 50.3326 348.686 50.6126C348.106 50.8926 347.616 51.2726 347.216 51.7526C346.816 52.2126 346.506 52.7526 346.286 53.3726C346.086 53.9926 345.986 54.6426 345.986 55.3226C345.986 56.0026 346.086 56.6526 346.286 57.2726C346.506 57.8926 346.816 58.4426 347.216 58.9226C347.616 59.4026 348.106 59.7826 348.686 60.0626C349.286 60.3426 349.966 60.4826 350.726 60.4826C351.486 60.4826 352.156 60.3426 352.736 60.0626C353.336 59.7826 353.836 59.4026 354.236 58.9226C354.636 58.4426 354.936 57.8926 355.136 57.2726C355.356 56.6526 355.466 56.0026 355.466 55.3226ZM376.717 55.3226C376.717 56.4226 376.517 57.4326 376.117 58.3526C375.737 59.2726 375.197 60.0726 374.497 60.7526C373.817 61.4126 373.007 61.9326 372.067 62.3126C371.127 62.6726 370.117 62.8526 369.037 62.8526C367.957 62.8526 366.947 62.6726 366.007 62.3126C365.067 61.9326 364.257 61.4126 363.577 60.7526C362.897 60.0726 362.357 59.2726 361.957 58.3526C361.577 57.4326 361.387 56.4226 361.387 55.3226C361.387 54.2226 361.577 53.2226 361.957 52.3226C362.357 51.4026 362.897 50.6126 363.577 49.9526C364.257 49.2926 365.067 48.7826 366.007 48.4226C366.947 48.0426 367.957 47.8526 369.037 47.8526C370.117 47.8526 371.127 48.0426 372.067 48.4226C373.007 48.7826 373.817 49.2926 374.497 49.9526C375.197 50.6126 375.737 51.4026 376.117 52.3226C376.517 53.2226 376.717 54.2226 376.717 55.3226ZM373.777 55.3226C373.777 54.6426 373.667 53.9926 373.447 53.3726C373.247 52.7526 372.947 52.2126 372.547 51.7526C372.147 51.2726 371.647 50.8926 371.047 50.6126C370.467 50.3326 369.797 50.1926 369.037 50.1926C368.277 50.1926 367.597 50.3326 366.997 50.6126C366.417 50.8926 365.927 51.2726 365.527 51.7526C365.127 52.2126 364.817 52.7526 364.597 53.3726C364.397 53.9926 364.297 54.6426 364.297 55.3226C364.297 56.0026 364.397 56.6526 364.597 57.2726C364.817 57.8926 365.127 58.4426 365.527 58.9226C365.927 59.4026 366.417 59.7826 366.997 60.0626C367.597 60.3426 368.277 60.4826 369.037 60.4826C369.797 60.4826 370.467 60.3426 371.047 60.0626C371.647 59.7826 372.147 59.4026 372.547 58.9226C372.947 58.4426 373.247 57.8926 373.447 57.2726C373.667 56.6526 373.777 56.0026 373.777 55.3226ZM383.507 54.4226H383.597L389.567 48.2426H393.347L386.687 54.6926L393.917 62.4626H390.017L383.597 55.0826H383.507V62.4626H380.687V39.7826H383.507V54.4226ZM45.0977 110.663H42.2777V89.2426H45.0377V91.4626H45.1277C45.5877 90.7026 46.2577 90.0826 47.1377 89.6026C48.0377 89.1026 49.0777 88.8526 50.2577 88.8526C51.3177 88.8526 52.2777 89.0426 53.1377 89.4226C54.0177 89.8026 54.7677 90.3326 55.3877 91.0126C56.0277 91.6926 56.5177 92.4926 56.8577 93.4126C57.1977 94.3126 57.3677 95.2826 57.3677 96.3226C57.3677 97.3626 57.1977 98.3426 56.8577 99.2626C56.5177 100.183 56.0377 100.983 55.4177 101.663C54.7977 102.343 54.0477 102.883 53.1677 103.283C52.2877 103.663 51.2977 103.853 50.1977 103.853C49.1777 103.853 48.2177 103.633 47.3177 103.193C46.4177 102.753 45.7077 102.133 45.1877 101.333H45.0977V110.663ZM54.4577 96.3226C54.4577 95.6626 54.3577 95.0226 54.1577 94.4026C53.9577 93.7826 53.6577 93.2326 53.2577 92.7526C52.8577 92.2726 52.3577 91.8926 51.7577 91.6126C51.1777 91.3326 50.4977 91.1926 49.7177 91.1926C48.9977 91.1926 48.3377 91.3326 47.7377 91.6126C47.1577 91.8926 46.6577 92.2726 46.2377 92.7526C45.8177 93.2326 45.4877 93.7826 45.2477 94.4026C45.0277 95.0226 44.9177 95.6726 44.9177 96.3526C44.9177 97.0326 45.0277 97.6826 45.2477 98.3026C45.4877 98.9226 45.8177 99.4726 46.2377 99.9526C46.6577 100.413 47.1577 100.783 47.7377 101.063C48.3377 101.343 48.9977 101.483 49.7177 101.483C50.4977 101.483 51.1777 101.343 51.7577 101.063C52.3577 100.763 52.8577 100.373 53.2577 99.8926C53.6577 99.4126 53.9577 98.8626 54.1577 98.2426C54.3577 97.6226 54.4577 96.9826 54.4577 96.3226ZM61.2913 92.3026C61.2913 91.9226 61.2813 91.4326 61.2613 90.8326C61.2413 90.2326 61.2113 89.7026 61.1713 89.2426H63.8413C63.8813 89.6026 63.9113 90.0226 63.9313 90.5026C63.9513 90.9626 63.9613 91.3426 63.9613 91.6426H64.0513C64.4513 90.8026 65.0313 90.1326 65.7913 89.6326C66.5713 89.1126 67.4413 88.8526 68.4013 88.8526C68.8413 88.8526 69.2113 88.8926 69.5113 88.9726L69.3913 91.5826C68.9913 91.4826 68.5613 91.4326 68.1013 91.4326C67.4213 91.4326 66.8313 91.5626 66.3313 91.8226C65.8313 92.0626 65.4113 92.3926 65.0713 92.8126C64.7513 93.2326 64.5113 93.7226 64.3513 94.2826C64.1913 94.8226 64.1113 95.3926 64.1113 95.9926V103.463H61.2913V92.3026ZM86.0331 96.3226C86.0331 97.4226 85.8331 98.4326 85.4331 99.3526C85.0531 100.273 84.5131 101.073 83.8131 101.753C83.1331 102.413 82.3231 102.933 81.3831 103.313C80.4431 103.673 79.4331 103.853 78.3531 103.853C77.2731 103.853 76.2631 103.673 75.3231 103.313C74.3831 102.933 73.5731 102.413 72.8931 101.753C72.2131 101.073 71.6731 100.273 71.2731 99.3526C70.8931 98.4326 70.7031 97.4226 70.7031 96.3226C70.7031 95.2226 70.8931 94.2226 71.2731 93.3226C71.6731 92.4026 72.2131 91.6126 72.8931 90.9526C73.5731 90.2926 74.3831 89.7826 75.3231 89.4226C76.2631 89.0426 77.2731 88.8526 78.3531 88.8526C79.4331 88.8526 80.4431 89.0426 81.3831 89.4226C82.3231 89.7826 83.1331 90.2926 83.8131 90.9526C84.5131 91.6126 85.0531 92.4026 85.4331 93.3226C85.8331 94.2226 86.0331 95.2226 86.0331 96.3226ZM83.0931 96.3226C83.0931 95.6426 82.9831 94.9926 82.7631 94.3726C82.5631 93.7526 82.2631 93.2126 81.8631 92.7526C81.4631 92.2726 80.9631 91.8926 80.3631 91.6126C79.7831 91.3326 79.1131 91.1926 78.3531 91.1926C77.5931 91.1926 76.9131 91.3326 76.3131 91.6126C75.7331 91.8926 75.2431 92.2726 74.8431 92.7526C74.4431 93.2126 74.1331 93.7526 73.9131 94.3726C73.7131 94.9926 73.6131 95.6426 73.6131 96.3226C73.6131 97.0026 73.7131 97.6526 73.9131 98.2726C74.1331 98.8926 74.4431 99.4426 74.8431 99.9226C75.2431 100.403 75.7331 100.783 76.3131 101.063C76.9131 101.343 77.5931 101.483 78.3531 101.483C79.1131 101.483 79.7831 101.343 80.3631 101.063C80.9631 100.783 81.4631 100.403 81.8631 99.9226C82.2631 99.4426 82.5631 98.8926 82.7631 98.2726C82.9831 97.6526 83.0931 97.0026 83.0931 96.3226ZM101.284 101.213C100.744 102.073 100.004 102.733 99.0637 103.193C98.1437 103.633 97.1737 103.853 96.1537 103.853C95.0537 103.853 94.0637 103.663 93.1837 103.283C92.3037 102.883 91.5537 102.343 90.9337 101.663C90.3137 100.983 89.8337 100.183 89.4937 99.2626C89.1537 98.3426 88.9837 97.3626 88.9837 96.3226C88.9837 95.2826 89.1537 94.3126 89.4937 93.4126C89.8337 92.4926 90.3137 91.6926 90.9337 91.0126C91.5737 90.3326 92.3337 89.8026 93.2137 89.4226C94.0937 89.0426 95.0637 88.8526 96.1237 88.8526C97.2837 88.8526 98.2937 89.1026 99.1537 89.6026C100.014 90.0826 100.694 90.6726 101.194 91.3726H101.254V80.7826H104.074V103.463H101.344V101.213H101.284ZM91.9237 96.3226C91.9237 96.9826 92.0237 97.6226 92.2237 98.2426C92.4237 98.8626 92.7237 99.4126 93.1237 99.8926C93.5237 100.373 94.0137 100.763 94.5937 101.063C95.1737 101.343 95.8537 101.483 96.6337 101.483C97.3537 101.483 98.0037 101.343 98.5837 101.063C99.1837 100.783 99.6937 100.413 100.114 99.9526C100.534 99.4726 100.854 98.9226 101.074 98.3026C101.314 97.6826 101.434 97.0326 101.434 96.3526C101.434 95.6726 101.314 95.0226 101.074 94.4026C100.854 93.7826 100.534 93.2326 100.114 92.7526C99.6937 92.2726 99.1837 91.8926 98.5837 91.6126C98.0037 91.3326 97.3537 91.1926 96.6337 91.1926C95.8537 91.1926 95.1737 91.3326 94.5937 91.6126C94.0137 91.8926 93.5237 92.2726 93.1237 92.7526C92.7237 93.2326 92.4237 93.7826 92.2237 94.4026C92.0237 95.0226 91.9237 95.6626 91.9237 96.3226ZM119.007 103.463C118.967 103.103 118.937 102.703 118.917 102.263C118.897 101.803 118.887 101.423 118.887 101.123H118.827C118.467 101.883 117.857 102.533 116.997 103.073C116.157 103.593 115.217 103.853 114.177 103.853C113.257 103.853 112.457 103.703 111.777 103.403C111.117 103.103 110.567 102.693 110.127 102.173C109.707 101.633 109.387 101.013 109.167 100.313C108.967 99.6126 108.867 98.8626 108.867 98.0626V89.2426H111.687V97.1026C111.687 97.6826 111.727 98.2426 111.807 98.7826C111.907 99.3026 112.077 99.7626 112.317 100.163C112.557 100.563 112.887 100.883 113.307 101.123C113.727 101.363 114.267 101.483 114.927 101.483C116.067 101.483 116.987 101.063 117.687 100.223C118.387 99.3626 118.737 98.2226 118.737 96.8026V89.2426H121.557V100.403C121.557 100.783 121.567 101.273 121.587 101.873C121.607 102.473 121.637 103.003 121.677 103.463H119.007ZM136.408 92.8426C136.108 92.3826 135.658 92.0026 135.058 91.7026C134.458 91.3826 133.818 91.2226 133.138 91.2226C132.398 91.2226 131.738 91.3626 131.158 91.6426C130.598 91.9226 130.118 92.3026 129.718 92.7826C129.318 93.2426 129.008 93.7826 128.788 94.4026C128.588 95.0226 128.488 95.6726 128.488 96.3526C128.488 97.0326 128.588 97.6826 128.788 98.3026C129.008 98.9226 129.318 99.4726 129.718 99.9526C130.118 100.413 130.608 100.783 131.188 101.063C131.768 101.343 132.428 101.483 133.168 101.483C133.888 101.483 134.538 101.343 135.118 101.063C135.718 100.783 136.208 100.403 136.588 99.9226L138.478 101.633C137.878 102.333 137.128 102.883 136.228 103.283C135.328 103.663 134.308 103.853 133.168 103.853C132.068 103.853 131.048 103.673 130.108 103.313C129.188 102.953 128.388 102.453 127.708 101.813C127.028 101.153 126.488 100.363 126.088 99.4426C125.708 98.5226 125.518 97.4926 125.518 96.3526C125.518 95.2326 125.708 94.2126 126.088 93.2926C126.468 92.3726 126.998 91.5826 127.678 90.9226C128.358 90.2626 129.158 89.7526 130.078 89.3926C131.018 89.0326 132.028 88.8526 133.108 88.8526C134.108 88.8526 135.098 89.0526 136.078 89.4526C137.078 89.8526 137.868 90.4326 138.448 91.1926L136.408 92.8426ZM148.232 91.5526H144.452V98.9626C144.452 99.8226 144.612 100.443 144.932 100.823C145.252 101.183 145.762 101.363 146.462 101.363C146.722 101.363 147.002 101.333 147.302 101.273C147.602 101.213 147.872 101.123 148.112 101.003L148.202 103.313C147.862 103.433 147.482 103.523 147.062 103.583C146.662 103.663 146.242 103.703 145.802 103.703C144.462 103.703 143.432 103.333 142.712 102.593C142.012 101.853 141.662 100.743 141.662 99.2626V91.5526H138.932V89.2426H141.662V85.1626H144.452V89.2426H148.232V91.5526ZM158.825 92.8426C158.505 92.3226 158.055 91.9026 157.475 91.5826C156.895 91.2426 156.245 91.0726 155.525 91.0726C155.205 91.0726 154.885 91.1126 154.565 91.1926C154.245 91.2526 153.955 91.3626 153.695 91.5226C153.455 91.6626 153.255 91.8526 153.095 92.0926C152.955 92.3126 152.885 92.5926 152.885 92.9326C152.885 93.5326 153.155 93.9826 153.695 94.2826C154.235 94.5626 155.045 94.8226 156.125 95.0626C156.805 95.2226 157.435 95.4126 158.015 95.6326C158.595 95.8526 159.095 96.1326 159.515 96.4726C159.955 96.7926 160.295 97.1826 160.535 97.6426C160.775 98.1026 160.895 98.6426 160.895 99.2626C160.895 100.103 160.735 100.813 160.415 101.393C160.095 101.973 159.665 102.453 159.125 102.833C158.605 103.193 158.005 103.453 157.325 103.613C156.645 103.773 155.945 103.853 155.225 103.853C154.145 103.853 153.085 103.643 152.045 103.223C151.025 102.803 150.175 102.163 149.495 101.303L151.505 99.5926C151.885 100.153 152.405 100.623 153.065 101.003C153.745 101.383 154.485 101.573 155.285 101.573C155.645 101.573 155.985 101.543 156.305 101.483C156.645 101.403 156.945 101.283 157.205 101.123C157.485 100.963 157.705 100.753 157.865 100.493C158.025 100.233 158.105 99.9026 158.105 99.5026C158.105 98.8426 157.785 98.3526 157.145 98.0326C156.525 97.7126 155.605 97.4126 154.385 97.1326C153.905 97.0126 153.415 96.8726 152.915 96.7126C152.435 96.5326 151.995 96.2926 151.595 95.9926C151.195 95.6926 150.865 95.3226 150.605 94.8826C150.365 94.4226 150.245 93.8626 150.245 93.2026C150.245 92.4426 150.395 91.7926 150.695 91.2526C151.015 90.6926 151.425 90.2426 151.925 89.9026C152.425 89.5426 152.995 89.2826 153.635 89.1226C154.275 88.9426 154.935 88.8526 155.615 88.8526C156.635 88.8526 157.615 89.0526 158.555 89.4526C159.515 89.8526 160.255 90.4326 160.775 91.1926L158.825 92.8426ZM180.825 94.2526C180.825 93.1926 180.505 92.4126 179.865 91.9126C179.225 91.3926 178.375 91.1326 177.315 91.1326C176.515 91.1326 175.755 91.2926 175.035 91.6126C174.335 91.9126 173.745 92.3026 173.265 92.7826L171.765 90.9826C172.465 90.3226 173.315 89.8026 174.315 89.4226C175.335 89.0426 176.425 88.8526 177.585 88.8526C178.605 88.8526 179.485 89.0026 180.225 89.3026C180.985 89.5826 181.605 89.9726 182.085 90.4726C182.565 90.9726 182.925 91.5626 183.165 92.2426C183.405 92.9226 183.525 93.6526 183.525 94.4326V100.643C183.525 101.123 183.535 101.633 183.555 102.173C183.595 102.693 183.655 103.123 183.735 103.463H181.185C181.025 102.783 180.945 102.103 180.945 101.423H180.855C180.335 102.183 179.675 102.773 178.875 103.193C178.095 103.613 177.165 103.823 176.085 103.823C175.525 103.823 174.935 103.743 174.315 103.583C173.715 103.443 173.165 103.203 172.665 102.863C172.165 102.523 171.745 102.073 171.405 101.513C171.085 100.953 170.925 100.263 170.925 99.4426C170.925 98.3626 171.215 97.5126 171.795 96.8926C172.375 96.2526 173.135 95.7726 174.075 95.4526C175.015 95.1126 176.075 94.8926 177.255 94.7926C178.435 94.6926 179.625 94.6426 180.825 94.6426V94.2526ZM180.135 96.6826C179.435 96.6826 178.705 96.7126 177.945 96.7726C177.205 96.8326 176.525 96.9526 175.905 97.1326C175.305 97.3126 174.805 97.5826 174.405 97.9426C174.005 98.3026 173.805 98.7826 173.805 99.3826C173.805 99.8026 173.885 100.153 174.045 100.433C174.225 100.713 174.455 100.943 174.735 101.123C175.015 101.303 175.325 101.433 175.665 101.513C176.005 101.573 176.355 101.603 176.715 101.603C178.035 101.603 179.045 101.213 179.745 100.433C180.465 99.6326 180.825 98.6326 180.825 97.4326V96.6826H180.135ZM188.235 92.3026C188.235 91.9226 188.225 91.4326 188.205 90.8326C188.185 90.2326 188.155 89.7026 188.115 89.2426H190.785C190.825 89.6026 190.855 90.0226 190.875 90.5026C190.895 90.9626 190.905 91.3426 190.905 91.6426H190.995C191.395 90.8026 191.975 90.1326 192.735 89.6326C193.515 89.1126 194.385 88.8526 195.345 88.8526C195.785 88.8526 196.155 88.8926 196.455 88.9726L196.335 91.5826C195.935 91.4826 195.505 91.4326 195.045 91.4326C194.365 91.4326 193.775 91.5626 193.275 91.8226C192.775 92.0626 192.355 92.3926 192.015 92.8126C191.695 93.2326 191.455 93.7226 191.295 94.2826C191.135 94.8226 191.055 95.3926 191.055 95.9926V103.463H188.235V92.3026ZM208.986 95.0926C208.966 94.5326 208.866 94.0126 208.686 93.5326C208.526 93.0326 208.276 92.6026 207.936 92.2426C207.616 91.8826 207.206 91.6026 206.706 91.4026C206.226 91.1826 205.656 91.0726 204.996 91.0726C204.396 91.0726 203.826 91.1826 203.286 91.4026C202.766 91.6026 202.306 91.8826 201.906 92.2426C201.526 92.6026 201.206 93.0326 200.946 93.5326C200.706 94.0126 200.566 94.5326 200.526 95.0926H208.986ZM211.836 96.2326C211.836 96.3926 211.836 96.5526 211.836 96.7126C211.836 96.8726 211.826 97.0326 211.806 97.1926H200.526C200.546 97.7926 200.676 98.3626 200.916 98.9026C201.176 99.4226 201.516 99.8826 201.936 100.283C202.356 100.663 202.836 100.963 203.376 101.183C203.936 101.403 204.526 101.513 205.146 101.513C206.106 101.513 206.936 101.303 207.636 100.883C208.336 100.463 208.886 99.9526 209.286 99.3526L211.266 100.943C210.506 101.943 209.606 102.683 208.566 103.163C207.546 103.623 206.406 103.853 205.146 103.853C204.066 103.853 203.066 103.673 202.146 103.313C201.226 102.953 200.436 102.453 199.776 101.813C199.116 101.153 198.596 100.363 198.216 99.4426C197.836 98.5226 197.646 97.5026 197.646 96.3826C197.646 95.2826 197.826 94.2726 198.186 93.3526C198.566 92.4126 199.086 91.6126 199.746 90.9526C200.406 90.2926 201.186 89.7826 202.086 89.4226C202.986 89.0426 203.956 88.8526 204.996 88.8526C206.036 88.8526 206.976 89.0226 207.816 89.3626C208.676 89.7026 209.396 90.1926 209.976 90.8326C210.576 91.4726 211.036 92.2526 211.356 93.1726C211.676 94.0726 211.836 95.0926 211.836 96.2326ZM232.124 94.2526C232.124 93.1926 231.804 92.4126 231.164 91.9126C230.524 91.3926 229.674 91.1326 228.614 91.1326C227.814 91.1326 227.054 91.2926 226.334 91.6126C225.634 91.9126 225.044 92.3026 224.564 92.7826L223.064 90.9826C223.764 90.3226 224.614 89.8026 225.614 89.4226C226.634 89.0426 227.724 88.8526 228.884 88.8526C229.904 88.8526 230.784 89.0026 231.524 89.3026C232.284 89.5826 232.904 89.9726 233.384 90.4726C233.864 90.9726 234.224 91.5626 234.464 92.2426C234.704 92.9226 234.824 93.6526 234.824 94.4326V100.643C234.824 101.123 234.834 101.633 234.854 102.173C234.894 102.693 234.954 103.123 235.034 103.463H232.484C232.324 102.783 232.244 102.103 232.244 101.423H232.154C231.634 102.183 230.974 102.773 230.174 103.193C229.394 103.613 228.464 103.823 227.384 103.823C226.824 103.823 226.234 103.743 225.614 103.583C225.014 103.443 224.464 103.203 223.964 102.863C223.464 102.523 223.044 102.073 222.704 101.513C222.384 100.953 222.224 100.263 222.224 99.4426C222.224 98.3626 222.514 97.5126 223.094 96.8926C223.674 96.2526 224.434 95.7726 225.374 95.4526C226.314 95.1126 227.374 94.8926 228.554 94.7926C229.734 94.6926 230.924 94.6426 232.124 94.6426V94.2526ZM231.434 96.6826C230.734 96.6826 230.004 96.7126 229.244 96.7726C228.504 96.8326 227.824 96.9526 227.204 97.1326C226.604 97.3126 226.104 97.5826 225.704 97.9426C225.304 98.3026 225.104 98.7826 225.104 99.3826C225.104 99.8026 225.184 100.153 225.344 100.433C225.524 100.713 225.754 100.943 226.034 101.123C226.314 101.303 226.624 101.433 226.964 101.513C227.304 101.573 227.654 101.603 228.014 101.603C229.334 101.603 230.344 101.213 231.044 100.433C231.764 99.6326 232.124 98.6326 232.124 97.4326V96.6826H231.434ZM246.224 103.463H243.164L237.374 89.2426H240.494L244.664 100.433H244.724L248.924 89.2426H251.924L246.224 103.463ZM263.501 94.2526C263.501 93.1926 263.181 92.4126 262.541 91.9126C261.901 91.3926 261.051 91.1326 259.991 91.1326C259.191 91.1326 258.431 91.2926 257.711 91.6126C257.011 91.9126 256.421 92.3026 255.941 92.7826L254.441 90.9826C255.141 90.3226 255.991 89.8026 256.991 89.4226C258.011 89.0426 259.101 88.8526 260.261 88.8526C261.281 88.8526 262.161 89.0026 262.901 89.3026C263.661 89.5826 264.281 89.9726 264.761 90.4726C265.241 90.9726 265.601 91.5626 265.841 92.2426C266.081 92.9226 266.201 93.6526 266.201 94.4326V100.643C266.201 101.123 266.211 101.633 266.231 102.173C266.271 102.693 266.331 103.123 266.411 103.463H263.861C263.701 102.783 263.621 102.103 263.621 101.423H263.531C263.011 102.183 262.351 102.773 261.551 103.193C260.771 103.613 259.841 103.823 258.761 103.823C258.201 103.823 257.611 103.743 256.991 103.583C256.391 103.443 255.841 103.203 255.341 102.863C254.841 102.523 254.421 102.073 254.081 101.513C253.761 100.953 253.601 100.263 253.601 99.4426C253.601 98.3626 253.891 97.5126 254.471 96.8926C255.051 96.2526 255.811 95.7726 256.751 95.4526C257.691 95.1126 258.751 94.8926 259.931 94.7926C261.111 94.6926 262.301 94.6426 263.501 94.6426V94.2526ZM262.811 96.6826C262.111 96.6826 261.381 96.7126 260.621 96.7726C259.881 96.8326 259.201 96.9526 258.581 97.1326C257.981 97.3126 257.481 97.5826 257.081 97.9426C256.681 98.3026 256.481 98.7826 256.481 99.3826C256.481 99.8026 256.561 100.153 256.721 100.433C256.901 100.713 257.131 100.943 257.411 101.123C257.691 101.303 258.001 101.433 258.341 101.513C258.681 101.573 259.031 101.603 259.391 101.603C260.711 101.603 261.721 101.213 262.421 100.433C263.141 99.6326 263.501 98.6326 263.501 97.4326V96.6826H262.811ZM273.76 103.463H270.94V89.2426H273.76V103.463ZM274.24 84.1126C274.24 84.6326 274.05 85.0626 273.67 85.4026C273.31 85.7426 272.87 85.9126 272.35 85.9126C271.83 85.9126 271.39 85.7426 271.03 85.4026C270.67 85.0426 270.49 84.6126 270.49 84.1126C270.49 83.5926 270.67 83.1626 271.03 82.8226C271.39 82.4626 271.83 82.2826 272.35 82.2826C272.87 82.2826 273.31 82.4626 273.67 82.8226C274.05 83.1626 274.24 83.5926 274.24 84.1126ZM281.554 103.463H278.734V80.7826H281.554V103.463ZM295.317 94.2526C295.317 93.1926 294.997 92.4126 294.357 91.9126C293.717 91.3926 292.867 91.1326 291.807 91.1326C291.007 91.1326 290.247 91.2926 289.527 91.6126C288.827 91.9126 288.237 92.3026 287.757 92.7826L286.257 90.9826C286.957 90.3226 287.807 89.8026 288.807 89.4226C289.827 89.0426 290.917 88.8526 292.077 88.8526C293.097 88.8526 293.977 89.0026 294.717 89.3026C295.477 89.5826 296.097 89.9726 296.577 90.4726C297.057 90.9726 297.417 91.5626 297.657 92.2426C297.897 92.9226 298.017 93.6526 298.017 94.4326V100.643C298.017 101.123 298.027 101.633 298.047 102.173C298.087 102.693 298.147 103.123 298.227 103.463H295.677C295.517 102.783 295.437 102.103 295.437 101.423H295.347C294.827 102.183 294.167 102.773 293.367 103.193C292.587 103.613 291.657 103.823 290.577 103.823C290.017 103.823 289.427 103.743 288.807 103.583C288.207 103.443 287.657 103.203 287.157 102.863C286.657 102.523 286.237 102.073 285.897 101.513C285.577 100.953 285.417 100.263 285.417 99.4426C285.417 98.3626 285.707 97.5126 286.287 96.8926C286.867 96.2526 287.627 95.7726 288.567 95.4526C289.507 95.1126 290.567 94.8926 291.747 94.7926C292.927 94.6926 294.117 94.6426 295.317 94.6426V94.2526ZM294.627 96.6826C293.927 96.6826 293.197 96.7126 292.437 96.7726C291.697 96.8326 291.017 96.9526 290.397 97.1326C289.797 97.3126 289.297 97.5826 288.897 97.9426C288.497 98.3026 288.297 98.7826 288.297 99.3826C288.297 99.8026 288.377 100.153 288.537 100.433C288.717 100.713 288.947 100.943 289.227 101.123C289.507 101.303 289.817 101.433 290.157 101.513C290.497 101.573 290.847 101.603 291.207 101.603C292.527 101.603 293.537 101.213 294.237 100.433C294.957 99.6326 295.317 98.6326 295.317 97.4326V96.6826H294.627ZM305.517 101.213V103.463H302.787V80.7826H305.607V91.3726H305.697C306.177 90.6726 306.847 90.0826 307.707 89.6026C308.567 89.1026 309.587 88.8526 310.767 88.8526C311.827 88.8526 312.787 89.0426 313.647 89.4226C314.527 89.8026 315.277 90.3326 315.897 91.0126C316.537 91.6926 317.027 92.4926 317.367 93.4126C317.707 94.3126 317.877 95.2826 317.877 96.3226C317.877 97.3626 317.707 98.3426 317.367 99.2626C317.027 100.183 316.547 100.983 315.927 101.663C315.307 102.343 314.557 102.883 313.677 103.283C312.797 103.663 311.807 103.853 310.707 103.853C309.687 103.853 308.717 103.633 307.797 103.193C306.877 102.733 306.137 102.073 305.577 101.213H305.517ZM314.967 96.3226C314.967 95.6626 314.867 95.0226 314.667 94.4026C314.467 93.7826 314.167 93.2326 313.767 92.7526C313.367 92.2726 312.867 91.8926 312.267 91.6126C311.687 91.3326 311.007 91.1926 310.227 91.1926C309.507 91.1926 308.847 91.3326 308.247 91.6126C307.667 91.8926 307.167 92.2726 306.747 92.7526C306.327 93.2326 305.997 93.7826 305.757 94.4026C305.537 95.0226 305.427 95.6726 305.427 96.3526C305.427 97.0326 305.537 97.6826 305.757 98.3026C305.997 98.9226 306.327 99.4726 306.747 99.9526C307.167 100.413 307.667 100.783 308.247 101.063C308.847 101.343 309.507 101.483 310.227 101.483C311.007 101.483 311.687 101.343 312.267 101.063C312.867 100.763 313.367 100.373 313.767 99.8926C314.167 99.4126 314.467 98.8626 314.667 98.2426C314.867 97.6226 314.967 96.9826 314.967 96.3226ZM324.679 103.463H321.859V80.7826H324.679V103.463ZM340.002 95.0926C339.982 94.5326 339.882 94.0126 339.702 93.5326C339.542 93.0326 339.292 92.6026 338.952 92.2426C338.632 91.8826 338.222 91.6026 337.722 91.4026C337.242 91.1826 336.672 91.0726 336.012 91.0726C335.412 91.0726 334.842 91.1826 334.302 91.4026C333.782 91.6026 333.322 91.8826 332.922 92.2426C332.542 92.6026 332.222 93.0326 331.962 93.5326C331.722 94.0126 331.582 94.5326 331.542 95.0926H340.002ZM342.852 96.2326C342.852 96.3926 342.852 96.5526 342.852 96.7126C342.852 96.8726 342.842 97.0326 342.822 97.1926H331.542C331.562 97.7926 331.692 98.3626 331.932 98.9026C332.192 99.4226 332.532 99.8826 332.952 100.283C333.372 100.663 333.852 100.963 334.392 101.183C334.952 101.403 335.542 101.513 336.162 101.513C337.122 101.513 337.952 101.303 338.652 100.883C339.352 100.463 339.902 99.9526 340.302 99.3526L342.282 100.943C341.522 101.943 340.622 102.683 339.582 103.163C338.562 103.623 337.422 103.853 336.162 103.853C335.082 103.853 334.082 103.673 333.162 103.313C332.242 102.953 331.452 102.453 330.792 101.813C330.132 101.153 329.612 100.363 329.232 99.4426C328.852 98.5226 328.662 97.5026 328.662 96.3826C328.662 95.2826 328.842 94.2726 329.202 93.3526C329.582 92.4126 330.102 91.6126 330.762 90.9526C331.422 90.2926 332.202 89.7826 333.102 89.4226C334.002 89.0426 334.972 88.8526 336.012 88.8526C337.052 88.8526 337.992 89.0226 338.832 89.3626C339.692 89.7026 340.412 90.1926 340.992 90.8326C341.592 91.4726 342.052 92.2526 342.372 93.1726C342.692 94.0726 342.852 95.0926 342.852 96.2326ZM350.269 101.663C350.269 102.183 350.079 102.643 349.699 103.043C349.319 103.443 348.839 103.643 348.259 103.643C347.699 103.643 347.219 103.453 346.819 103.073C346.439 102.673 346.249 102.213 346.249 101.693C346.249 101.153 346.439 100.693 346.819 100.313C347.199 99.9126 347.679 99.7126 348.259 99.7126C348.839 99.7126 349.319 99.9026 349.699 100.283C350.079 100.663 350.269 101.123 350.269 101.663Z" fill="white"/>
</svg>
