<svg width="33" height="35" viewBox="0 0 33 35" fill="none" xmlns="http://www.w3.org/2000/svg">
<path d="M30.1991 0.819336H2.49057C1.16325 0.819336 0.0899658 1.89447 0.0899658 3.22373V31.7702C0.0899658 33.0995 1.16325 34.1811 2.49057 34.1811H30.1991C31.5265 34.1811 32.6061 33.0995 32.6061 31.7767V3.22373C32.6061 1.89447 31.5265 0.819336 30.1991 0.819336ZM9.73684 29.2485H4.91023V13.3235H9.73684V29.2485ZM7.32353 11.1537C5.77394 11.1537 4.52283 9.87002 4.52283 8.28664C4.52283 6.70326 5.77394 5.41961 7.32353 5.41961C8.86678 5.41961 10.1179 6.70326 10.1179 8.28664C10.1179 9.86351 8.86678 11.1537 7.32353 11.1537ZM27.7985 29.2485H22.9783V21.5076C22.9783 19.6635 22.9465 17.2852 20.4697 17.2852C17.9611 17.2852 17.5801 19.2986 17.5801 21.3772V29.2485H12.7662V13.3235H17.3896V15.4998H17.4531C18.0945 14.2488 19.6695 12.926 22.013 12.926C26.8967 12.926 27.7985 16.2231 27.7985 20.5106V29.2485Z" fill="black"/>
</svg>
