<svg width="75" height="105" viewBox="0 0 75 105" fill="none" xmlns="http://www.w3.org/2000/svg">
<path d="M60.5191 19.9272C55.8382 27.0703 46.0857 24.9666 36.8593 24.8613C26.1482 24.7376 16.69 32.2308 14.6374 42.8572C13.3637 49.4632 15.1063 56.1876 19.7612 60.4687C25.2808 27.589 64.2284 66.4928 60.5191 19.9272Z" fill="white"/>
<path d="M52.5014 46.1328C48.6593 51.9989 40.6494 50.2717 33.0719 50.1849C24.2754 50.0848 16.5104 56.2353 14.825 64.9634C13.7779 70.3871 15.2105 75.911 19.0344 79.4259C23.5669 52.4228 55.5465 84.3705 52.5014 46.1328Z" fill="white"/>
<path d="M29.2245 85.0732C33.221 85.0732 36.4608 81.7986 36.4608 77.759C36.4608 73.7195 33.221 70.4448 29.2245 70.4448C25.2281 70.4448 21.9883 73.7195 21.9883 77.759C21.9883 81.7986 25.2281 85.0732 29.2245 85.0732Z" fill="white"/>
</svg>
