<svg width="163" height="20" viewBox="0 0 163 20" fill="none" xmlns="http://www.w3.org/2000/svg">
<path d="M10.536 5.56C10.216 5.144 9.76 4.8 9.168 4.528C8.592 4.24 8.008 4.096 7.416 4.096C7.064 4.096 6.712 4.144 6.36 4.24C6.008 4.32 5.688 4.456 5.4 4.648C5.112 4.824 4.872 5.064 4.68 5.368C4.504 5.656 4.416 6.008 4.416 6.424C4.416 6.808 4.496 7.136 4.656 7.408C4.816 7.68 5.032 7.912 5.304 8.104C5.592 8.296 5.936 8.464 6.336 8.608C6.736 8.752 7.176 8.896 7.656 9.04C8.2 9.216 8.76 9.416 9.336 9.64C9.928 9.864 10.464 10.16 10.944 10.528C11.44 10.896 11.84 11.36 12.144 11.92C12.464 12.48 12.624 13.176 12.624 14.008C12.624 14.92 12.456 15.72 12.12 16.408C11.784 17.08 11.336 17.64 10.776 18.088C10.216 18.536 9.56 18.872 8.808 19.096C8.056 19.32 7.264 19.432 6.432 19.432C5.328 19.432 4.248 19.232 3.192 18.832C2.136 18.416 1.272 17.808 0.6 17.008L2.76 14.992C3.176 15.568 3.728 16.024 4.416 16.36C5.12 16.696 5.808 16.864 6.48 16.864C6.832 16.864 7.192 16.824 7.56 16.744C7.928 16.648 8.256 16.496 8.544 16.288C8.848 16.08 9.088 15.824 9.264 15.52C9.456 15.2 9.552 14.808 9.552 14.344C9.552 13.896 9.448 13.528 9.24 13.24C9.032 12.936 8.752 12.68 8.4 12.472C8.048 12.248 7.632 12.056 7.152 11.896C6.672 11.736 6.168 11.568 5.64 11.392C5.128 11.232 4.616 11.04 4.104 10.816C3.592 10.592 3.128 10.296 2.712 9.928C2.312 9.56 1.984 9.112 1.728 8.584C1.472 8.04 1.344 7.368 1.344 6.568C1.344 5.704 1.52 4.96 1.872 4.336C2.24 3.712 2.712 3.2 3.288 2.8C3.88 2.384 4.544 2.08 5.28 1.888C6.032 1.68 6.792 1.576 7.56 1.576C8.424 1.576 9.296 1.728 10.176 2.032C11.072 2.336 11.848 2.792 12.504 3.4L10.536 5.56ZM14.8373 13.192C14.8373 12.28 14.9973 11.456 15.3173 10.72C15.6533 9.968 16.1013 9.328 16.6613 8.8C17.2213 8.272 17.8853 7.864 18.6533 7.576C19.4213 7.288 20.2373 7.144 21.1013 7.144C21.9653 7.144 22.7813 7.288 23.5493 7.576C24.3173 7.864 24.9813 8.272 25.5413 8.8C26.1013 9.328 26.5413 9.968 26.8613 10.72C27.1973 11.456 27.3653 12.28 27.3653 13.192C27.3653 14.104 27.1973 14.936 26.8613 15.688C26.5413 16.44 26.1013 17.088 25.5413 17.632C24.9813 18.16 24.3173 18.576 23.5493 18.88C22.7813 19.184 21.9653 19.336 21.1013 19.336C20.2373 19.336 19.4213 19.184 18.6533 18.88C17.8853 18.576 17.2213 18.16 16.6613 17.632C16.1013 17.088 15.6533 16.44 15.3173 15.688C14.9973 14.936 14.8373 14.104 14.8373 13.192ZM17.7653 13.192C17.7653 13.64 17.8293 14.088 17.9573 14.536C18.1013 14.984 18.3093 15.384 18.5813 15.736C18.8533 16.088 19.1973 16.376 19.6133 16.6C20.0293 16.824 20.5253 16.936 21.1013 16.936C21.6773 16.936 22.1733 16.824 22.5893 16.6C23.0053 16.376 23.3493 16.088 23.6213 15.736C23.8933 15.384 24.0933 14.984 24.2213 14.536C24.3653 14.088 24.4373 13.64 24.4373 13.192C24.4373 12.744 24.3653 12.304 24.2213 11.872C24.0933 11.424 23.8933 11.024 23.6213 10.672C23.3493 10.32 23.0053 10.04 22.5893 9.832C22.1733 9.608 21.6773 9.496 21.1013 9.496C20.5253 9.496 20.0293 9.608 19.6133 9.832C19.1973 10.04 18.8533 10.32 18.5813 10.672C18.3093 11.024 18.1013 11.424 17.9573 11.872C17.8293 12.304 17.7653 12.744 17.7653 13.192ZM30.6137 9.784H28.4297V7.48H30.6137V5.776C30.6137 5.088 30.6857 4.432 30.8297 3.808C30.9897 3.168 31.2457 2.608 31.5977 2.128C31.9657 1.648 32.4457 1.272 33.0377 0.999999C33.6297 0.711999 34.3737 0.568 35.2697 0.568C35.5897 0.568 35.8537 0.584 36.0617 0.615999C36.2857 0.631999 36.5097 0.671999 36.7337 0.735999L36.5417 3.184C36.3817 3.136 36.2057 3.096 36.0137 3.064C35.8377 3.032 35.6457 3.016 35.4377 3.016C35.0217 3.016 34.6857 3.096 34.4297 3.256C34.1737 3.416 33.9737 3.624 33.8297 3.88C33.7017 4.136 33.6137 4.416 33.5657 4.72C33.5177 5.024 33.4937 5.32 33.4937 5.608V7.48H36.1577V9.784H33.4937V19H30.6137V9.784ZM35.9314 9.784V7.48H37.9474V4.144H40.7794V7.48H43.6594V9.784H40.7794V15.136C40.7794 15.648 40.8674 16.072 41.0434 16.408C41.2354 16.744 41.6514 16.912 42.2914 16.912C42.4834 16.912 42.6914 16.896 42.9154 16.864C43.1394 16.816 43.3394 16.752 43.5154 16.672L43.6114 18.928C43.3554 19.024 43.0514 19.096 42.6994 19.144C42.3474 19.208 42.0114 19.24 41.6914 19.24C40.9234 19.24 40.2994 19.136 39.8194 18.928C39.3394 18.704 38.9554 18.408 38.6674 18.04C38.3954 17.656 38.2034 17.224 38.0914 16.744C37.9954 16.248 37.9474 15.72 37.9474 15.16V9.784H35.9314ZM60.5516 5.56C60.2316 5.144 59.7756 4.8 59.1836 4.528C58.6076 4.24 58.0236 4.096 57.4316 4.096C57.0796 4.096 56.7276 4.144 56.3756 4.24C56.0236 4.32 55.7036 4.456 55.4156 4.648C55.1276 4.824 54.8876 5.064 54.6956 5.368C54.5196 5.656 54.4316 6.008 54.4316 6.424C54.4316 6.808 54.5116 7.136 54.6716 7.408C54.8316 7.68 55.0476 7.912 55.3196 8.104C55.6076 8.296 55.9516 8.464 56.3516 8.608C56.7516 8.752 57.1916 8.896 57.6716 9.04C58.2156 9.216 58.7756 9.416 59.3516 9.64C59.9436 9.864 60.4796 10.16 60.9596 10.528C61.4556 10.896 61.8556 11.36 62.1596 11.92C62.4796 12.48 62.6396 13.176 62.6396 14.008C62.6396 14.92 62.4716 15.72 62.1356 16.408C61.7996 17.08 61.3516 17.64 60.7916 18.088C60.2316 18.536 59.5756 18.872 58.8236 19.096C58.0716 19.32 57.2796 19.432 56.4476 19.432C55.3436 19.432 54.2636 19.232 53.2076 18.832C52.1516 18.416 51.2876 17.808 50.6156 17.008L52.7756 14.992C53.1916 15.568 53.7436 16.024 54.4316 16.36C55.1356 16.696 55.8236 16.864 56.4956 16.864C56.8476 16.864 57.2076 16.824 57.5756 16.744C57.9436 16.648 58.2716 16.496 58.5596 16.288C58.8636 16.08 59.1036 15.824 59.2796 15.52C59.4716 15.2 59.5676 14.808 59.5676 14.344C59.5676 13.896 59.4636 13.528 59.2556 13.24C59.0476 12.936 58.7676 12.68 58.4156 12.472C58.0636 12.248 57.6476 12.056 57.1676 11.896C56.6876 11.736 56.1836 11.568 55.6556 11.392C55.1436 11.232 54.6316 11.04 54.1196 10.816C53.6076 10.592 53.1436 10.296 52.7276 9.928C52.3276 9.56 51.9996 9.112 51.7436 8.584C51.4876 8.04 51.3596 7.368 51.3596 6.568C51.3596 5.704 51.5356 4.96 51.8876 4.336C52.2556 3.712 52.7276 3.2 53.3036 2.8C53.8956 2.384 54.5596 2.08 55.2956 1.888C56.0476 1.68 56.8076 1.576 57.5756 1.576C58.4396 1.576 59.3116 1.728 60.1916 2.032C61.0876 2.336 61.8636 2.792 62.5196 3.4L60.5516 5.56ZM71.9329 7.144C72.6849 7.144 73.3249 7.28 73.8529 7.552C74.3969 7.808 74.8369 8.152 75.1729 8.584C75.5249 9.016 75.7809 9.512 75.9409 10.072C76.1009 10.632 76.1809 11.208 76.1809 11.8V19H73.3009V12.664C73.3009 12.328 73.2769 11.984 73.2289 11.632C73.1809 11.264 73.0769 10.936 72.9169 10.648C72.7729 10.344 72.5569 10.096 72.2689 9.904C71.9969 9.712 71.6289 9.616 71.1649 9.616C70.7009 9.616 70.3009 9.704 69.9649 9.88C69.6289 10.056 69.3489 10.296 69.1249 10.6C68.9009 10.888 68.7329 11.216 68.6209 11.584C68.5089 11.952 68.4529 12.328 68.4529 12.712V19H65.5729V0.855999H68.4529V9.088H68.5009C68.6129 8.848 68.7729 8.616 68.9809 8.392C69.2049 8.152 69.4609 7.944 69.7489 7.768C70.0369 7.576 70.3649 7.424 70.7329 7.312C71.1009 7.2 71.5009 7.144 71.9329 7.144ZM87.6525 12.088C87.6525 11.72 87.5965 11.368 87.4845 11.032C87.3885 10.696 87.2285 10.4 87.0045 10.144C86.7805 9.888 86.4925 9.688 86.1405 9.544C85.8045 9.384 85.4045 9.304 84.9405 9.304C84.0765 9.304 83.3405 9.568 82.7325 10.096C82.1405 10.608 81.8125 11.272 81.7485 12.088H87.6525ZM90.5325 13.384C90.5325 13.512 90.5325 13.64 90.5325 13.768C90.5325 13.896 90.5245 14.024 90.5085 14.152H81.7485C81.7805 14.568 81.8845 14.952 82.0605 15.304C82.2525 15.64 82.5005 15.936 82.8045 16.192C83.1085 16.432 83.4525 16.624 83.8365 16.768C84.2205 16.912 84.6205 16.984 85.0365 16.984C85.7565 16.984 86.3645 16.856 86.8605 16.6C87.3565 16.328 87.7645 15.96 88.0845 15.496L90.0045 17.032C88.8685 18.568 87.2205 19.336 85.0605 19.336C84.1645 19.336 83.3405 19.2 82.5885 18.928C81.8365 18.64 81.1805 18.24 80.6205 17.728C80.0765 17.216 79.6445 16.592 79.3245 15.856C79.0205 15.104 78.8685 14.256 78.8685 13.312C78.8685 12.384 79.0205 11.544 79.3245 10.792C79.6445 10.024 80.0765 9.376 80.6205 8.848C81.1645 8.304 81.8045 7.888 82.5405 7.6C83.2925 7.296 84.1005 7.144 84.9645 7.144C85.7645 7.144 86.5005 7.28 87.1725 7.552C87.8605 7.808 88.4525 8.2 88.9485 8.728C89.4445 9.24 89.8285 9.888 90.1005 10.672C90.3885 11.44 90.5325 12.344 90.5325 13.384ZM93.3698 0.855999H96.2498V19H93.3698V0.855999ZM99.7916 0.855999H102.672V19H99.7916V0.855999ZM124.574 5.992C124.126 5.384 123.542 4.944 122.822 4.672C122.102 4.384 121.398 4.24 120.71 4.24C119.83 4.24 119.03 4.4 118.31 4.72C117.59 5.04 116.966 5.48 116.438 6.04C115.926 6.6 115.526 7.256 115.238 8.008C114.966 8.76 114.83 9.576 114.83 10.456C114.83 11.384 114.966 12.232 115.238 13C115.51 13.768 115.894 14.432 116.39 14.992C116.902 15.536 117.51 15.96 118.214 16.264C118.918 16.568 119.71 16.72 120.59 16.72C121.502 16.72 122.31 16.544 123.014 16.192C123.718 15.824 124.286 15.344 124.718 14.752L127.142 16.456C126.39 17.4 125.47 18.136 124.382 18.664C123.294 19.176 122.022 19.432 120.566 19.432C119.238 19.432 118.014 19.216 116.894 18.784C115.79 18.336 114.838 17.72 114.038 16.936C113.238 16.136 112.614 15.192 112.166 14.104C111.718 13 111.494 11.784 111.494 10.456C111.494 9.096 111.726 7.872 112.19 6.784C112.67 5.68 113.318 4.744 114.134 3.976C114.966 3.208 115.942 2.616 117.062 2.2C118.182 1.784 119.398 1.576 120.71 1.576C121.254 1.576 121.822 1.632 122.414 1.744C123.006 1.84 123.574 2 124.118 2.224C124.662 2.432 125.174 2.696 125.654 3.016C126.134 3.336 126.542 3.72 126.878 4.168L124.574 5.992ZM128.876 7.48H131.636V9.4H131.684C132.004 8.728 132.452 8.184 133.028 7.768C133.604 7.352 134.276 7.144 135.044 7.144C135.156 7.144 135.276 7.152 135.404 7.168C135.532 7.168 135.644 7.184 135.74 7.216V9.856C135.548 9.808 135.38 9.776 135.236 9.76C135.108 9.744 134.98 9.736 134.852 9.736C134.196 9.736 133.668 9.856 133.268 10.096C132.868 10.336 132.556 10.624 132.332 10.96C132.108 11.296 131.956 11.64 131.876 11.992C131.796 12.344 131.756 12.624 131.756 12.832V19H128.876V7.48ZM144.466 17.536H144.394C144.106 18.048 143.642 18.472 143.002 18.808C142.362 19.128 141.634 19.288 140.818 19.288C140.354 19.288 139.866 19.224 139.354 19.096C138.858 18.984 138.394 18.792 137.962 18.52C137.546 18.232 137.194 17.864 136.906 17.416C136.634 16.952 136.498 16.384 136.498 15.712C136.498 14.848 136.738 14.16 137.218 13.648C137.714 13.136 138.346 12.744 139.114 12.472C139.882 12.2 140.73 12.024 141.658 11.944C142.602 11.848 143.522 11.8 144.418 11.8V11.512C144.418 10.792 144.154 10.264 143.626 9.928C143.114 9.576 142.498 9.4 141.778 9.4C141.17 9.4 140.586 9.528 140.026 9.784C139.466 10.04 139.002 10.352 138.634 10.72L137.146 8.968C137.802 8.36 138.554 7.904 139.402 7.6C140.266 7.296 141.138 7.144 142.018 7.144C143.042 7.144 143.882 7.288 144.538 7.576C145.21 7.864 145.738 8.24 146.122 8.704C146.506 9.168 146.77 9.688 146.914 10.264C147.074 10.84 147.154 11.416 147.154 11.992V19H144.466V17.536ZM144.418 13.744H143.77C143.306 13.744 142.818 13.768 142.306 13.816C141.794 13.848 141.322 13.936 140.89 14.08C140.458 14.208 140.098 14.4 139.81 14.656C139.522 14.896 139.378 15.232 139.378 15.664C139.378 15.936 139.434 16.168 139.546 16.36C139.674 16.536 139.834 16.68 140.026 16.792C140.218 16.904 140.434 16.984 140.674 17.032C140.914 17.08 141.154 17.104 141.394 17.104C142.386 17.104 143.138 16.84 143.65 16.312C144.162 15.784 144.418 15.064 144.418 14.152V13.744ZM153.437 0.855999V8.944H153.509C153.653 8.752 153.837 8.552 154.061 8.344C154.285 8.136 154.549 7.944 154.853 7.768C155.173 7.592 155.541 7.448 155.957 7.336C156.373 7.208 156.845 7.144 157.373 7.144C158.189 7.144 158.941 7.304 159.629 7.624C160.317 7.928 160.909 8.352 161.405 8.896C161.901 9.44 162.285 10.08 162.557 10.816C162.829 11.552 162.965 12.344 162.965 13.192C162.965 14.04 162.829 14.84 162.557 15.592C162.301 16.328 161.925 16.976 161.429 17.536C160.949 18.08 160.357 18.52 159.653 18.856C158.965 19.176 158.181 19.336 157.301 19.336C156.485 19.336 155.717 19.16 154.997 18.808C154.293 18.456 153.741 17.944 153.341 17.272H153.293V19H150.557V0.855999H153.437ZM160.037 13.192C160.037 12.744 159.965 12.304 159.821 11.872C159.693 11.424 159.493 11.024 159.221 10.672C158.949 10.32 158.605 10.04 158.189 9.832C157.773 9.608 157.285 9.496 156.725 9.496C156.197 9.496 155.725 9.608 155.309 9.832C154.893 10.056 154.533 10.344 154.229 10.696C153.941 11.048 153.717 11.448 153.557 11.896C153.413 12.344 153.341 12.792 153.341 13.24C153.341 13.688 153.413 14.136 153.557 14.584C153.717 15.016 153.941 15.408 154.229 15.76C154.533 16.112 154.893 16.4 155.309 16.624C155.725 16.832 156.197 16.936 156.725 16.936C157.285 16.936 157.773 16.824 158.189 16.6C158.605 16.376 158.949 16.088 159.221 15.736C159.493 15.384 159.693 14.984 159.821 14.536C159.965 14.088 160.037 13.64 160.037 13.192Z" fill="#181818"/>
</svg>
