<svg width="341" height="153" viewBox="0 0 341 153" fill="none" xmlns="http://www.w3.org/2000/svg">
<path d="M33.12 17.2C32.0533 15.8133 30.5333 14.6667 28.56 13.76C26.64 12.8 24.6933 12.32 22.72 12.32C21.5467 12.32 20.3733 12.48 19.2 12.8C18.0267 13.0667 16.96 13.52 16 14.16C15.04 14.7467 14.24 15.5467 13.6 16.56C13.0133 17.52 12.72 18.6933 12.72 20.08C12.72 21.36 12.9867 22.4533 13.52 23.36C14.0533 24.2667 14.7733 25.04 15.68 25.68C16.64 26.32 17.7867 26.88 19.12 27.36C20.4533 27.84 21.92 28.32 23.52 28.8C25.3333 29.3867 27.2 30.0533 29.12 30.8C31.0933 31.5467 32.88 32.5333 34.48 33.76C36.1333 34.9867 37.4667 36.5333 38.48 38.4C39.5467 40.2667 40.08 42.5867 40.08 45.36C40.08 48.4 39.52 51.0667 38.4 53.36C37.28 55.6 35.7867 57.4667 33.92 58.96C32.0533 60.4533 29.8667 61.5733 27.36 62.32C24.8533 63.0667 22.2133 63.44 19.44 63.44C15.76 63.44 12.16 62.7733 8.64 61.44C5.12 60.0533 2.24 58.0267 2.98023e-08 55.36L7.2 48.64C8.58667 50.56 10.4267 52.08 12.72 53.2C15.0667 54.32 17.36 54.88 19.6 54.88C20.7733 54.88 21.9733 54.7467 23.2 54.48C24.4267 54.16 25.52 53.6533 26.48 52.96C27.4933 52.2667 28.2933 51.4133 28.88 50.4C29.52 49.3333 29.84 48.0267 29.84 46.48C29.84 44.9867 29.4933 43.76 28.8 42.8C28.1067 41.7867 27.1733 40.9333 26 40.24C24.8267 39.4933 23.44 38.8533 21.84 38.32C20.24 37.7867 18.56 37.2267 16.8 36.64C15.0933 36.1067 13.3867 35.4667 11.68 34.72C9.97333 33.9733 8.42667 32.9867 7.04 31.76C5.70667 30.5333 4.61333 29.04 3.76 27.28C2.90667 25.4667 2.48 23.2267 2.48 20.56C2.48 17.68 3.06667 15.2 4.24 13.12C5.46667 11.04 7.04 9.33333 8.96 8C10.9333 6.61333 13.1467 5.6 15.6 4.96C18.1067 4.26666 20.64 3.92 23.2 3.92C26.08 3.92 28.9867 4.42667 31.92 5.44C34.9067 6.45333 37.4933 7.97333 39.68 10L33.12 17.2ZM47.4575 42.64C47.4575 39.6 47.9908 36.8533 49.0575 34.4C50.1775 31.8933 51.6708 29.76 53.5375 28C55.4042 26.24 57.6175 24.88 60.1775 23.92C62.7375 22.96 65.4575 22.48 68.3375 22.48C71.2175 22.48 73.9375 22.96 76.4975 23.92C79.0575 24.88 81.2708 26.24 83.1375 28C85.0042 29.76 86.4708 31.8933 87.5375 34.4C88.6575 36.8533 89.2175 39.6 89.2175 42.64C89.2175 45.68 88.6575 48.4533 87.5375 50.96C86.4708 53.4667 85.0042 55.6267 83.1375 57.44C81.2708 59.2 79.0575 60.5867 76.4975 61.6C73.9375 62.6133 71.2175 63.12 68.3375 63.12C65.4575 63.12 62.7375 62.6133 60.1775 61.6C57.6175 60.5867 55.4042 59.2 53.5375 57.44C51.6708 55.6267 50.1775 53.4667 49.0575 50.96C47.9908 48.4533 47.4575 45.68 47.4575 42.64ZM57.2175 42.64C57.2175 44.1333 57.4308 45.6267 57.8575 47.12C58.3375 48.6133 59.0308 49.9467 59.9375 51.12C60.8442 52.2933 61.9908 53.2533 63.3775 54C64.7642 54.7467 66.4175 55.12 68.3375 55.12C70.2575 55.12 71.9108 54.7467 73.2975 54C74.6842 53.2533 75.8308 52.2933 76.7375 51.12C77.6442 49.9467 78.3108 48.6133 78.7375 47.12C79.2175 45.6267 79.4575 44.1333 79.4575 42.64C79.4575 41.1467 79.2175 39.68 78.7375 38.24C78.3108 36.7467 77.6442 35.4133 76.7375 34.24C75.8308 33.0667 74.6842 32.1333 73.2975 31.44C71.9108 30.6933 70.2575 30.32 68.3375 30.32C66.4175 30.32 64.7642 30.6933 63.3775 31.44C61.9908 32.1333 60.8442 33.0667 59.9375 34.24C59.0308 35.4133 58.3375 36.7467 57.8575 38.24C57.4308 39.68 57.2175 41.1467 57.2175 42.64ZM100.046 31.28H92.7656V23.6H100.046V17.92C100.046 15.6267 100.286 13.44 100.766 11.36C101.299 9.22666 102.152 7.36 103.326 5.76C104.552 4.16 106.152 2.90666 108.126 2C110.099 1.04 112.579 0.559999 115.566 0.559999C116.632 0.559999 117.512 0.613332 118.206 0.719997C118.952 0.77333 119.699 0.906663 120.446 1.12L119.806 9.28C119.272 9.12 118.686 8.98666 118.046 8.88C117.459 8.77333 116.819 8.72 116.126 8.72C114.739 8.72 113.619 8.98667 112.766 9.52C111.912 10.0533 111.246 10.7467 110.766 11.6C110.339 12.4533 110.046 13.3867 109.886 14.4C109.726 15.4133 109.646 16.4 109.646 17.36V23.6H118.526V31.28H109.646V62H100.046V31.28ZM117.771 31.28V23.6H124.491V12.48H133.931V23.6H143.531V31.28H133.931V49.12C133.931 50.8267 134.225 52.24 134.811 53.36C135.451 54.48 136.838 55.04 138.971 55.04C139.611 55.04 140.305 54.9867 141.051 54.88C141.798 54.72 142.465 54.5067 143.051 54.24L143.371 61.76C142.518 62.08 141.505 62.32 140.331 62.48C139.158 62.6933 138.038 62.8 136.971 62.8C134.411 62.8 132.331 62.4533 130.731 61.76C129.131 61.0133 127.851 60.0267 126.891 58.8C125.985 57.52 125.345 56.08 124.971 54.48C124.651 52.8267 124.491 51.0667 124.491 49.2V31.28H117.771ZM199.839 17.2C198.772 15.8133 197.252 14.6667 195.279 13.76C193.359 12.8 191.412 12.32 189.439 12.32C188.265 12.32 187.092 12.48 185.919 12.8C184.745 13.0667 183.679 13.52 182.719 14.16C181.759 14.7467 180.959 15.5467 180.319 16.56C179.732 17.52 179.439 18.6933 179.439 20.08C179.439 21.36 179.705 22.4533 180.239 23.36C180.772 24.2667 181.492 25.04 182.399 25.68C183.359 26.32 184.505 26.88 185.839 27.36C187.172 27.84 188.639 28.32 190.239 28.8C192.052 29.3867 193.919 30.0533 195.839 30.8C197.812 31.5467 199.599 32.5333 201.199 33.76C202.852 34.9867 204.185 36.5333 205.199 38.4C206.265 40.2667 206.799 42.5867 206.799 45.36C206.799 48.4 206.239 51.0667 205.119 53.36C203.999 55.6 202.505 57.4667 200.639 58.96C198.772 60.4533 196.585 61.5733 194.079 62.32C191.572 63.0667 188.932 63.44 186.159 63.44C182.479 63.44 178.879 62.7733 175.359 61.44C171.839 60.0533 168.959 58.0267 166.719 55.36L173.919 48.64C175.305 50.56 177.145 52.08 179.439 53.2C181.785 54.32 184.079 54.88 186.319 54.88C187.492 54.88 188.692 54.7467 189.919 54.48C191.145 54.16 192.239 53.6533 193.199 52.96C194.212 52.2667 195.012 51.4133 195.599 50.4C196.239 49.3333 196.559 48.0267 196.559 46.48C196.559 44.9867 196.212 43.76 195.519 42.8C194.825 41.7867 193.892 40.9333 192.719 40.24C191.545 39.4933 190.159 38.8533 188.559 38.32C186.959 37.7867 185.279 37.2267 183.519 36.64C181.812 36.1067 180.105 35.4667 178.399 34.72C176.692 33.9733 175.145 32.9867 173.759 31.76C172.425 30.5333 171.332 29.04 170.479 27.28C169.625 25.4667 169.199 23.2267 169.199 20.56C169.199 17.68 169.785 15.2 170.959 13.12C172.185 11.04 173.759 9.33333 175.679 8C177.652 6.61333 179.865 5.6 182.319 4.96C184.825 4.26666 187.359 3.92 189.919 3.92C192.799 3.92 195.705 4.42667 198.639 5.44C201.625 6.45333 204.212 7.97333 206.399 10L199.839 17.2ZM237.776 22.48C240.283 22.48 242.416 22.9333 244.176 23.84C245.99 24.6933 247.456 25.84 248.576 27.28C249.75 28.72 250.603 30.3733 251.136 32.24C251.67 34.1067 251.936 36.0267 251.936 38V62H242.336V40.88C242.336 39.76 242.256 38.6133 242.096 37.44C241.936 36.2133 241.59 35.12 241.056 34.16C240.576 33.1467 239.856 32.32 238.896 31.68C237.99 31.04 236.763 30.72 235.216 30.72C233.67 30.72 232.336 31.0133 231.216 31.6C230.096 32.1867 229.163 32.9867 228.416 34C227.67 34.96 227.11 36.0533 226.736 37.28C226.363 38.5067 226.176 39.76 226.176 41.04V62H216.576V1.52H226.176V28.96H226.336C226.71 28.16 227.243 27.3867 227.936 26.64C228.683 25.84 229.536 25.1467 230.496 24.56C231.456 23.92 232.55 23.4133 233.776 23.04C235.003 22.6667 236.336 22.48 237.776 22.48ZM290.175 38.96C290.175 37.7333 289.988 36.56 289.615 35.44C289.295 34.32 288.762 33.3333 288.015 32.48C287.268 31.6267 286.308 30.96 285.135 30.48C284.015 29.9467 282.682 29.68 281.135 29.68C278.255 29.68 275.802 30.56 273.775 32.32C271.802 34.0267 270.708 36.24 270.495 38.96H290.175ZM299.775 43.28C299.775 43.7067 299.775 44.1333 299.775 44.56C299.775 44.9867 299.748 45.4133 299.695 45.84H270.495C270.602 47.2267 270.948 48.5067 271.535 49.68C272.175 50.8 273.002 51.7867 274.015 52.64C275.028 53.44 276.175 54.08 277.455 54.56C278.735 55.04 280.068 55.28 281.455 55.28C283.855 55.28 285.882 54.8533 287.535 54C289.188 53.0933 290.548 51.8667 291.615 50.32L298.015 55.44C294.228 60.56 288.735 63.12 281.535 63.12C278.548 63.12 275.802 62.6667 273.295 61.76C270.788 60.8 268.602 59.4667 266.735 57.76C264.922 56.0533 263.482 53.9733 262.415 51.52C261.402 49.0133 260.895 46.1867 260.895 43.04C260.895 39.9467 261.402 37.1467 262.415 34.64C263.482 32.08 264.922 29.92 266.735 28.16C268.548 26.3467 270.682 24.96 273.135 24C275.642 22.9867 278.335 22.48 281.215 22.48C283.882 22.48 286.335 22.9333 288.575 23.84C290.868 24.6933 292.842 26 294.495 27.76C296.148 29.4667 297.428 31.6267 298.335 34.24C299.295 36.8 299.775 39.8133 299.775 43.28ZM309.233 1.52H318.833V62H309.233V1.52ZM330.639 1.52H340.239V62H330.639V1.52ZM45.12 107.64C43.6267 105.613 41.68 104.147 39.28 103.24C36.88 102.28 34.5333 101.8 32.24 101.8C29.3067 101.8 26.64 102.333 24.24 103.4C21.84 104.467 19.76 105.933 18 107.8C16.2933 109.667 14.96 111.853 14 114.36C13.0933 116.867 12.64 119.587 12.64 122.52C12.64 125.613 13.0933 128.44 14 131C14.9067 133.56 16.1867 135.773 17.84 137.64C19.5467 139.453 21.5733 140.867 23.92 141.88C26.2667 142.893 28.9067 143.4 31.84 143.4C34.88 143.4 37.5733 142.813 39.92 141.64C42.2667 140.413 44.16 138.813 45.6 136.84L53.68 142.52C51.1733 145.667 48.1067 148.12 44.48 149.88C40.8533 151.587 36.6133 152.44 31.76 152.44C27.3333 152.44 23.2533 151.72 19.52 150.28C15.84 148.787 12.6667 146.733 10 144.12C7.33333 141.453 5.25333 138.307 3.76 134.68C2.26667 131 1.52 126.947 1.52 122.52C1.52 117.987 2.29333 113.907 3.84 110.28C5.44 106.6 7.6 103.48 10.32 100.92C13.0933 98.36 16.3467 96.3867 20.08 95C23.8133 93.6133 27.8667 92.92 32.24 92.92C34.0533 92.92 35.9467 93.1067 37.92 93.48C39.8933 93.8 41.7867 94.3333 43.6 95.08C45.4133 95.7733 47.12 96.6533 48.72 97.72C50.32 98.7867 51.68 100.067 52.8 101.56L45.12 107.64ZM59.4631 112.6H68.6631V119H68.8231C69.8898 116.76 71.3831 114.947 73.3031 113.56C75.2231 112.173 77.4631 111.48 80.0231 111.48C80.3965 111.48 80.7965 111.507 81.2231 111.56C81.6498 111.56 82.0231 111.613 82.3431 111.72V120.52C81.7031 120.36 81.1431 120.253 80.6631 120.2C80.2365 120.147 79.8098 120.12 79.3831 120.12C77.1965 120.12 75.4365 120.52 74.1031 121.32C72.7698 122.12 71.7298 123.08 70.9831 124.2C70.2365 125.32 69.7298 126.467 69.4631 127.64C69.1965 128.813 69.0631 129.747 69.0631 130.44V151H59.4631V112.6ZM111.428 146.12H111.188C110.228 147.827 108.681 149.24 106.548 150.36C104.415 151.427 101.988 151.96 99.2681 151.96C97.7215 151.96 96.0948 151.747 94.3881 151.32C92.7348 150.947 91.1881 150.307 89.7481 149.4C88.3615 148.44 87.1881 147.213 86.2281 145.72C85.3215 144.173 84.8681 142.28 84.8681 140.04C84.8681 137.16 85.6681 134.867 87.2681 133.16C88.9215 131.453 91.0281 130.147 93.5881 129.24C96.1481 128.333 98.9748 127.747 102.068 127.48C105.215 127.16 108.281 127 111.268 127V126.04C111.268 123.64 110.388 121.88 108.628 120.76C106.921 119.587 104.868 119 102.468 119C100.441 119 98.4948 119.427 96.6281 120.28C94.7615 121.133 93.2148 122.173 91.9881 123.4L87.0281 117.56C89.2148 115.533 91.7215 114.013 94.5481 113C97.4281 111.987 100.335 111.48 103.268 111.48C106.681 111.48 109.481 111.96 111.668 112.92C113.908 113.88 115.668 115.133 116.948 116.68C118.228 118.227 119.108 119.96 119.588 121.88C120.121 123.8 120.388 125.72 120.388 127.64V151H111.428V146.12ZM111.268 133.48H109.108C107.561 133.48 105.935 133.56 104.228 133.72C102.521 133.827 100.948 134.12 99.5081 134.6C98.0681 135.027 96.8681 135.667 95.9081 136.52C94.9481 137.32 94.4681 138.44 94.4681 139.88C94.4681 140.787 94.6548 141.56 95.0281 142.2C95.4548 142.787 95.9881 143.267 96.6281 143.64C97.2681 144.013 97.9881 144.28 98.7881 144.44C99.5881 144.6 100.388 144.68 101.188 144.68C104.495 144.68 107.001 143.8 108.708 142.04C110.415 140.28 111.268 137.88 111.268 134.84V133.48ZM141.333 90.52V117.48H141.573C142.053 116.84 142.666 116.173 143.413 115.48C144.159 114.787 145.039 114.147 146.053 113.56C147.119 112.973 148.346 112.493 149.733 112.12C151.119 111.693 152.693 111.48 154.453 111.48C157.173 111.48 159.679 112.013 161.973 113.08C164.266 114.093 166.239 115.507 167.893 117.32C169.546 119.133 170.826 121.267 171.733 123.72C172.639 126.173 173.093 128.813 173.093 131.64C173.093 134.467 172.639 137.133 171.733 139.64C170.879 142.093 169.626 144.253 167.973 146.12C166.373 147.933 164.399 149.4 162.053 150.52C159.759 151.587 157.146 152.12 154.213 152.12C151.493 152.12 148.933 151.533 146.533 150.36C144.186 149.187 142.346 147.48 141.013 145.24H140.853V151H131.733V90.52H141.333ZM163.333 131.64C163.333 130.147 163.093 128.68 162.613 127.24C162.186 125.747 161.519 124.413 160.613 123.24C159.706 122.067 158.559 121.133 157.173 120.44C155.786 119.693 154.159 119.32 152.293 119.32C150.533 119.32 148.959 119.693 147.573 120.44C146.186 121.187 144.986 122.147 143.973 123.32C143.013 124.493 142.266 125.827 141.733 127.32C141.253 128.813 141.013 130.307 141.013 131.8C141.013 133.293 141.253 134.787 141.733 136.28C142.266 137.72 143.013 139.027 143.973 140.2C144.986 141.373 146.186 142.333 147.573 143.08C148.959 143.773 150.533 144.12 152.293 144.12C154.159 144.12 155.786 143.747 157.173 143C158.559 142.253 159.706 141.293 160.613 140.12C161.519 138.947 162.186 137.613 162.613 136.12C163.093 134.627 163.333 133.133 163.333 131.64ZM203.394 122.84C202.54 121.72 201.367 120.76 199.874 119.96C198.38 119.107 196.754 118.68 194.994 118.68C193.447 118.68 192.034 119 190.754 119.64C189.474 120.28 188.834 121.347 188.834 122.84C188.834 124.333 189.527 125.4 190.914 126.04C192.354 126.627 194.434 127.24 197.154 127.88C198.594 128.2 200.034 128.627 201.474 129.16C202.967 129.693 204.3 130.413 205.474 131.32C206.7 132.173 207.687 133.267 208.434 134.6C209.18 135.88 209.554 137.453 209.554 139.32C209.554 141.667 209.1 143.667 208.194 145.32C207.34 146.92 206.167 148.227 204.674 149.24C203.234 150.253 201.527 150.973 199.554 151.4C197.634 151.88 195.634 152.12 193.554 152.12C190.567 152.12 187.66 151.587 184.834 150.52C182.007 149.4 179.66 147.827 177.794 145.8L184.114 139.88C185.18 141.267 186.567 142.413 188.274 143.32C189.98 144.227 191.874 144.68 193.954 144.68C194.647 144.68 195.34 144.6 196.034 144.44C196.78 144.28 197.447 144.04 198.034 143.72C198.674 143.347 199.18 142.867 199.554 142.28C199.927 141.693 200.114 140.973 200.114 140.12C200.114 138.52 199.367 137.373 197.874 136.68C196.434 135.987 194.247 135.293 191.314 134.6C189.874 134.28 188.46 133.88 187.074 133.4C185.74 132.867 184.54 132.2 183.474 131.4C182.407 130.547 181.554 129.507 180.914 128.28C180.274 127.053 179.954 125.533 179.954 123.72C179.954 121.587 180.38 119.747 181.234 118.2C182.14 116.653 183.314 115.4 184.754 114.44C186.194 113.427 187.82 112.68 189.634 112.2C191.447 111.72 193.314 111.48 195.234 111.48C198.007 111.48 200.7 111.96 203.314 112.92C205.98 113.88 208.087 115.347 209.634 117.32L203.394 122.84Z" fill="black"/>
</svg>
