<svg width="205" height="25" viewBox="0 0 205 25" fill="none" xmlns="http://www.w3.org/2000/svg">
<path d="M10.536 5.56C10.216 5.144 9.76 4.8 9.168 4.528C8.592 4.24 8.008 4.096 7.416 4.096C7.064 4.096 6.712 4.144 6.36 4.24C6.008 4.32 5.688 4.456 5.4 4.648C5.112 4.824 4.872 5.064 4.68 5.368C4.504 5.656 4.416 6.008 4.416 6.424C4.416 6.808 4.496 7.136 4.656 7.408C4.816 7.68 5.032 7.912 5.304 8.104C5.592 8.296 5.936 8.464 6.336 8.608C6.736 8.752 7.176 8.896 7.656 9.04C8.2 9.216 8.76 9.416 9.336 9.64C9.928 9.864 10.464 10.16 10.944 10.528C11.44 10.896 11.84 11.36 12.144 11.92C12.464 12.48 12.624 13.176 12.624 14.008C12.624 14.92 12.456 15.72 12.12 16.408C11.784 17.08 11.336 17.64 10.776 18.088C10.216 18.536 9.56 18.872 8.808 19.096C8.056 19.32 7.264 19.432 6.432 19.432C5.328 19.432 4.248 19.232 3.192 18.832C2.136 18.416 1.272 17.808 0.6 17.008L2.76 14.992C3.176 15.568 3.728 16.024 4.416 16.36C5.12 16.696 5.808 16.864 6.48 16.864C6.832 16.864 7.192 16.824 7.56 16.744C7.928 16.648 8.256 16.496 8.544 16.288C8.848 16.08 9.088 15.824 9.264 15.52C9.456 15.2 9.552 14.808 9.552 14.344C9.552 13.896 9.448 13.528 9.24 13.24C9.032 12.936 8.752 12.68 8.4 12.472C8.048 12.248 7.632 12.056 7.152 11.896C6.672 11.736 6.168 11.568 5.64 11.392C5.128 11.232 4.616 11.04 4.104 10.816C3.592 10.592 3.128 10.296 2.712 9.928C2.312 9.56 1.984 9.112 1.728 8.584C1.472 8.04 1.344 7.368 1.344 6.568C1.344 5.704 1.52 4.96 1.872 4.336C2.24 3.712 2.712 3.2 3.288 2.8C3.88 2.384 4.544 2.08 5.28 1.888C6.032 1.68 6.792 1.576 7.56 1.576C8.424 1.576 9.296 1.728 10.176 2.032C11.072 2.336 11.848 2.792 12.504 3.4L10.536 5.56ZM14.8373 13.192C14.8373 12.28 14.9973 11.456 15.3173 10.72C15.6533 9.968 16.1013 9.328 16.6613 8.8C17.2213 8.272 17.8853 7.864 18.6533 7.576C19.4213 7.288 20.2373 7.144 21.1013 7.144C21.9653 7.144 22.7813 7.288 23.5493 7.576C24.3173 7.864 24.9813 8.272 25.5413 8.8C26.1013 9.328 26.5413 9.968 26.8613 10.72C27.1973 11.456 27.3653 12.28 27.3653 13.192C27.3653 14.104 27.1973 14.936 26.8613 15.688C26.5413 16.44 26.1013 17.088 25.5413 17.632C24.9813 18.16 24.3173 18.576 23.5493 18.88C22.7813 19.184 21.9653 19.336 21.1013 19.336C20.2373 19.336 19.4213 19.184 18.6533 18.88C17.8853 18.576 17.2213 18.16 16.6613 17.632C16.1013 17.088 15.6533 16.44 15.3173 15.688C14.9973 14.936 14.8373 14.104 14.8373 13.192ZM17.7653 13.192C17.7653 13.64 17.8293 14.088 17.9573 14.536C18.1013 14.984 18.3093 15.384 18.5813 15.736C18.8533 16.088 19.1973 16.376 19.6133 16.6C20.0293 16.824 20.5253 16.936 21.1013 16.936C21.6773 16.936 22.1733 16.824 22.5893 16.6C23.0053 16.376 23.3493 16.088 23.6213 15.736C23.8933 15.384 24.0933 14.984 24.2213 14.536C24.3653 14.088 24.4373 13.64 24.4373 13.192C24.4373 12.744 24.3653 12.304 24.2213 11.872C24.0933 11.424 23.8933 11.024 23.6213 10.672C23.3493 10.32 23.0053 10.04 22.5893 9.832C22.1733 9.608 21.6773 9.496 21.1013 9.496C20.5253 9.496 20.0293 9.608 19.6133 9.832C19.1973 10.04 18.8533 10.32 18.5813 10.672C18.3093 11.024 18.1013 11.424 17.9573 11.872C17.8293 12.304 17.7653 12.744 17.7653 13.192ZM30.6137 9.784H28.4297V7.48H30.6137V5.776C30.6137 5.088 30.6857 4.432 30.8297 3.808C30.9897 3.168 31.2457 2.608 31.5977 2.128C31.9657 1.648 32.4457 1.272 33.0377 0.999999C33.6297 0.711999 34.3737 0.568 35.2697 0.568C35.5897 0.568 35.8537 0.584 36.0617 0.615999C36.2857 0.631999 36.5097 0.671999 36.7337 0.735999L36.5417 3.184C36.3817 3.136 36.2057 3.096 36.0137 3.064C35.8377 3.032 35.6457 3.016 35.4377 3.016C35.0217 3.016 34.6857 3.096 34.4297 3.256C34.1737 3.416 33.9737 3.624 33.8297 3.88C33.7017 4.136 33.6137 4.416 33.5657 4.72C33.5177 5.024 33.4937 5.32 33.4937 5.608V7.48H36.1577V9.784H33.4937V19H30.6137V9.784ZM35.9314 9.784V7.48H37.9474V4.144H40.7794V7.48H43.6594V9.784H40.7794V15.136C40.7794 15.648 40.8674 16.072 41.0434 16.408C41.2354 16.744 41.6514 16.912 42.2914 16.912C42.4834 16.912 42.6914 16.896 42.9154 16.864C43.1394 16.816 43.3394 16.752 43.5154 16.672L43.6114 18.928C43.3554 19.024 43.0514 19.096 42.6994 19.144C42.3474 19.208 42.0114 19.24 41.6914 19.24C40.9234 19.24 40.2994 19.136 39.8194 18.928C39.3394 18.704 38.9554 18.408 38.6674 18.04C38.3954 17.656 38.2034 17.224 38.0914 16.744C37.9954 16.248 37.9474 15.72 37.9474 15.16V9.784H35.9314ZM64.1516 5.992C63.7036 5.384 63.1196 4.944 62.3996 4.672C61.6796 4.384 60.9756 4.24 60.2876 4.24C59.4076 4.24 58.6076 4.4 57.8876 4.72C57.1676 5.04 56.5436 5.48 56.0156 6.04C55.5036 6.6 55.1036 7.256 54.8156 8.008C54.5436 8.76 54.4076 9.576 54.4076 10.456C54.4076 11.384 54.5436 12.232 54.8156 13C55.0876 13.768 55.4716 14.432 55.9676 14.992C56.4796 15.536 57.0876 15.96 57.7916 16.264C58.4956 16.568 59.2876 16.72 60.1676 16.72C61.0796 16.72 61.8876 16.544 62.5916 16.192C63.2956 15.824 63.8636 15.344 64.2956 14.752L66.7196 16.456C65.9676 17.4 65.0476 18.136 63.9596 18.664C62.8716 19.176 61.5996 19.432 60.1436 19.432C58.8156 19.432 57.5916 19.216 56.4716 18.784C55.3676 18.336 54.4156 17.72 53.6156 16.936C52.8156 16.136 52.1916 15.192 51.7436 14.104C51.2956 13 51.0716 11.784 51.0716 10.456C51.0716 9.096 51.3036 7.872 51.7676 6.784C52.2476 5.68 52.8956 4.744 53.7116 3.976C54.5436 3.208 55.5196 2.616 56.6396 2.2C57.7596 1.784 58.9756 1.576 60.2876 1.576C60.8316 1.576 61.3996 1.632 61.9916 1.744C62.5836 1.84 63.1516 2 63.6956 2.224C64.2396 2.432 64.7516 2.696 65.2316 3.016C65.7116 3.336 66.1196 3.72 66.4556 4.168L64.1516 5.992ZM68.4546 7.48H71.2146V9.4H71.2626C71.5826 8.728 72.0306 8.184 72.6066 7.768C73.1826 7.352 73.8546 7.144 74.6226 7.144C74.7346 7.144 74.8546 7.152 74.9826 7.168C75.1106 7.168 75.2226 7.184 75.3186 7.216V9.856C75.1266 9.808 74.9586 9.776 74.8146 9.76C74.6866 9.744 74.5586 9.736 74.4306 9.736C73.7746 9.736 73.2466 9.856 72.8466 10.096C72.4466 10.336 72.1346 10.624 71.9106 10.96C71.6866 11.296 71.5346 11.64 71.4546 11.992C71.3746 12.344 71.3346 12.624 71.3346 12.832V19H68.4546V7.48ZM84.0441 17.536H83.9721C83.6841 18.048 83.2201 18.472 82.5801 18.808C81.9401 19.128 81.2121 19.288 80.3961 19.288C79.9321 19.288 79.4441 19.224 78.9321 19.096C78.4361 18.984 77.9721 18.792 77.5401 18.52C77.1241 18.232 76.7721 17.864 76.4841 17.416C76.2121 16.952 76.0761 16.384 76.0761 15.712C76.0761 14.848 76.3161 14.16 76.7961 13.648C77.2921 13.136 77.9241 12.744 78.6921 12.472C79.4601 12.2 80.3081 12.024 81.2361 11.944C82.1801 11.848 83.1001 11.8 83.9961 11.8V11.512C83.9961 10.792 83.7321 10.264 83.2041 9.928C82.6921 9.576 82.0761 9.4 81.3561 9.4C80.7481 9.4 80.1641 9.528 79.6041 9.784C79.0441 10.04 78.5801 10.352 78.2121 10.72L76.7241 8.968C77.3801 8.36 78.1321 7.904 78.9801 7.6C79.8441 7.296 80.7161 7.144 81.5961 7.144C82.6201 7.144 83.4601 7.288 84.1161 7.576C84.7881 7.864 85.3161 8.24 85.7001 8.704C86.0841 9.168 86.3481 9.688 86.4921 10.264C86.6521 10.84 86.7321 11.416 86.7321 11.992V19H84.0441V17.536ZM83.9961 13.744H83.3481C82.8841 13.744 82.3961 13.768 81.8841 13.816C81.3721 13.848 80.9001 13.936 80.4681 14.08C80.0361 14.208 79.6761 14.4 79.3881 14.656C79.1001 14.896 78.9561 15.232 78.9561 15.664C78.9561 15.936 79.0121 16.168 79.1241 16.36C79.2521 16.536 79.4121 16.68 79.6041 16.792C79.7961 16.904 80.0121 16.984 80.2521 17.032C80.4921 17.08 80.7321 17.104 80.9721 17.104C81.9641 17.104 82.7161 16.84 83.2281 16.312C83.7401 15.784 83.9961 15.064 83.9961 14.152V13.744ZM93.0154 0.855999V8.944H93.0874C93.2314 8.752 93.4154 8.552 93.6394 8.344C93.8634 8.136 94.1274 7.944 94.4314 7.768C94.7514 7.592 95.1194 7.448 95.5354 7.336C95.9514 7.208 96.4234 7.144 96.9514 7.144C97.7674 7.144 98.5194 7.304 99.2074 7.624C99.8954 7.928 100.487 8.352 100.983 8.896C101.479 9.44 101.863 10.08 102.135 10.816C102.407 11.552 102.543 12.344 102.543 13.192C102.543 14.04 102.407 14.84 102.135 15.592C101.879 16.328 101.503 16.976 101.007 17.536C100.527 18.08 99.9354 18.52 99.2314 18.856C98.5434 19.176 97.7594 19.336 96.8794 19.336C96.0634 19.336 95.2954 19.16 94.5754 18.808C93.8714 18.456 93.3194 17.944 92.9194 17.272H92.8714V19H90.1354V0.855999H93.0154ZM99.6154 13.192C99.6154 12.744 99.5434 12.304 99.3994 11.872C99.2714 11.424 99.0714 11.024 98.7994 10.672C98.5274 10.32 98.1834 10.04 97.7674 9.832C97.3514 9.608 96.8634 9.496 96.3034 9.496C95.7754 9.496 95.3034 9.608 94.8874 9.832C94.4714 10.056 94.1114 10.344 93.8074 10.696C93.5194 11.048 93.2954 11.448 93.1354 11.896C92.9914 12.344 92.9194 12.792 92.9194 13.24C92.9194 13.688 92.9914 14.136 93.1354 14.584C93.2954 15.016 93.5194 15.408 93.8074 15.76C94.1114 16.112 94.4714 16.4 94.8874 16.624C95.3034 16.832 95.7754 16.936 96.3034 16.936C96.8634 16.936 97.3514 16.824 97.7674 16.6C98.1834 16.376 98.5274 16.088 98.7994 15.736C99.0714 15.384 99.2714 14.984 99.3994 14.536C99.5434 14.088 99.6154 13.64 99.6154 13.192ZM111.466 2.008H115.474L123.37 14.728H123.418V2.008H126.442V19H122.602L114.538 5.872H114.49V19H111.466V2.008ZM140.56 19H137.824V17.152H137.776C137.52 17.728 137.072 18.24 136.432 18.688C135.808 19.12 135.064 19.336 134.2 19.336C133.448 19.336 132.8 19.208 132.256 18.952C131.728 18.68 131.288 18.328 130.936 17.896C130.6 17.464 130.352 16.968 130.192 16.408C130.032 15.848 129.952 15.272 129.952 14.68V7.48H132.832V13.864C132.832 14.2 132.856 14.552 132.904 14.92C132.952 15.288 133.056 15.624 133.216 15.928C133.376 16.216 133.592 16.456 133.864 16.648C134.152 16.84 134.528 16.936 134.992 16.936C135.44 16.936 135.832 16.848 136.168 16.672C136.52 16.48 136.8 16.24 137.008 15.952C137.232 15.664 137.4 15.336 137.512 14.968C137.624 14.584 137.68 14.2 137.68 13.816V7.48H140.56V19ZM155.729 7.48V17.968C155.729 19.008 155.601 19.944 155.345 20.776C155.089 21.624 154.689 22.336 154.145 22.912C153.617 23.504 152.945 23.96 152.129 24.28C151.313 24.6 150.345 24.76 149.225 24.76C148.761 24.76 148.265 24.72 147.737 24.64C147.225 24.56 146.713 24.44 146.201 24.28C145.705 24.12 145.225 23.92 144.761 23.68C144.297 23.44 143.881 23.168 143.513 22.864L145.169 20.632C145.729 21.16 146.361 21.56 147.065 21.832C147.769 22.12 148.481 22.264 149.201 22.264C149.889 22.264 150.465 22.16 150.929 21.952C151.409 21.76 151.785 21.488 152.057 21.136C152.345 20.784 152.545 20.368 152.657 19.888C152.785 19.408 152.849 18.88 152.849 18.304V17.464H152.801C152.385 18.024 151.849 18.456 151.193 18.76C150.553 19.048 149.833 19.192 149.033 19.192C148.169 19.192 147.385 19.032 146.681 18.712C145.977 18.392 145.377 17.96 144.881 17.416C144.401 16.872 144.025 16.24 143.753 15.52C143.481 14.784 143.345 14.008 143.345 13.192C143.345 12.36 143.473 11.576 143.729 10.84C144.001 10.104 144.377 9.464 144.857 8.92C145.353 8.376 145.945 7.944 146.633 7.624C147.337 7.304 148.121 7.144 148.985 7.144C149.801 7.144 150.561 7.312 151.265 7.648C151.969 7.984 152.529 8.504 152.945 9.208H152.993V7.48H155.729ZM149.585 9.496C149.057 9.496 148.585 9.592 148.169 9.784C147.769 9.976 147.425 10.24 147.137 10.576C146.865 10.896 146.649 11.28 146.489 11.728C146.345 12.176 146.273 12.656 146.273 13.168C146.273 13.632 146.345 14.08 146.489 14.512C146.649 14.944 146.865 15.336 147.137 15.688C147.425 16.024 147.769 16.296 148.169 16.504C148.585 16.712 149.049 16.816 149.561 16.816C150.089 16.816 150.561 16.72 150.977 16.528C151.409 16.32 151.769 16.048 152.057 15.712C152.361 15.376 152.593 14.992 152.753 14.56C152.913 14.112 152.993 13.648 152.993 13.168C152.993 12.672 152.913 12.2 152.753 11.752C152.593 11.304 152.361 10.912 152.057 10.576C151.769 10.24 151.417 9.976 151.001 9.784C150.585 9.592 150.113 9.496 149.585 9.496ZM170.893 7.48V17.968C170.893 19.008 170.765 19.944 170.509 20.776C170.253 21.624 169.853 22.336 169.309 22.912C168.781 23.504 168.109 23.96 167.293 24.28C166.477 24.6 165.509 24.76 164.389 24.76C163.925 24.76 163.429 24.72 162.901 24.64C162.389 24.56 161.877 24.44 161.365 24.28C160.869 24.12 160.389 23.92 159.925 23.68C159.461 23.44 159.045 23.168 158.677 22.864L160.333 20.632C160.893 21.16 161.525 21.56 162.229 21.832C162.933 22.12 163.645 22.264 164.365 22.264C165.053 22.264 165.629 22.16 166.093 21.952C166.573 21.76 166.949 21.488 167.221 21.136C167.509 20.784 167.709 20.368 167.821 19.888C167.949 19.408 168.013 18.88 168.013 18.304V17.464H167.965C167.549 18.024 167.013 18.456 166.357 18.76C165.717 19.048 164.997 19.192 164.197 19.192C163.333 19.192 162.549 19.032 161.845 18.712C161.141 18.392 160.541 17.96 160.045 17.416C159.565 16.872 159.189 16.24 158.917 15.52C158.645 14.784 158.509 14.008 158.509 13.192C158.509 12.36 158.637 11.576 158.893 10.84C159.165 10.104 159.541 9.464 160.021 8.92C160.517 8.376 161.109 7.944 161.797 7.624C162.501 7.304 163.285 7.144 164.149 7.144C164.965 7.144 165.725 7.312 166.429 7.648C167.133 7.984 167.693 8.504 168.109 9.208H168.157V7.48H170.893ZM164.749 9.496C164.221 9.496 163.749 9.592 163.333 9.784C162.933 9.976 162.589 10.24 162.301 10.576C162.029 10.896 161.813 11.28 161.653 11.728C161.509 12.176 161.437 12.656 161.437 13.168C161.437 13.632 161.509 14.08 161.653 14.512C161.813 14.944 162.029 15.336 162.301 15.688C162.589 16.024 162.933 16.296 163.333 16.504C163.749 16.712 164.213 16.816 164.725 16.816C165.253 16.816 165.725 16.72 166.141 16.528C166.573 16.32 166.933 16.048 167.221 15.712C167.525 15.376 167.757 14.992 167.917 14.56C168.077 14.112 168.157 13.648 168.157 13.168C168.157 12.672 168.077 12.2 167.917 11.752C167.757 11.304 167.525 10.912 167.221 10.576C166.933 10.24 166.581 9.976 166.165 9.784C165.749 9.592 165.277 9.496 164.749 9.496ZM182.457 12.088C182.457 11.72 182.401 11.368 182.289 11.032C182.193 10.696 182.033 10.4 181.809 10.144C181.585 9.888 181.297 9.688 180.945 9.544C180.609 9.384 180.209 9.304 179.745 9.304C178.881 9.304 178.145 9.568 177.537 10.096C176.945 10.608 176.617 11.272 176.553 12.088H182.457ZM185.337 13.384C185.337 13.512 185.337 13.64 185.337 13.768C185.337 13.896 185.329 14.024 185.313 14.152H176.553C176.585 14.568 176.689 14.952 176.865 15.304C177.057 15.64 177.305 15.936 177.609 16.192C177.913 16.432 178.257 16.624 178.641 16.768C179.025 16.912 179.425 16.984 179.841 16.984C180.561 16.984 181.169 16.856 181.665 16.6C182.161 16.328 182.569 15.96 182.889 15.496L184.809 17.032C183.673 18.568 182.025 19.336 179.865 19.336C178.969 19.336 178.145 19.2 177.393 18.928C176.641 18.64 175.985 18.24 175.425 17.728C174.881 17.216 174.449 16.592 174.129 15.856C173.825 15.104 173.673 14.256 173.673 13.312C173.673 12.384 173.825 11.544 174.129 10.792C174.449 10.024 174.881 9.376 175.425 8.848C175.969 8.304 176.609 7.888 177.345 7.6C178.097 7.296 178.905 7.144 179.769 7.144C180.569 7.144 181.305 7.28 181.977 7.552C182.665 7.808 183.257 8.2 183.753 8.728C184.249 9.24 184.633 9.888 184.905 10.672C185.193 11.44 185.337 12.344 185.337 13.384ZM186.47 9.784V7.48H188.486V4.144H191.318V7.48H194.198V9.784H191.318V15.136C191.318 15.648 191.406 16.072 191.582 16.408C191.774 16.744 192.19 16.912 192.83 16.912C193.022 16.912 193.23 16.896 193.454 16.864C193.678 16.816 193.878 16.752 194.054 16.672L194.15 18.928C193.894 19.024 193.59 19.096 193.238 19.144C192.886 19.208 192.55 19.24 192.23 19.24C191.462 19.24 190.838 19.136 190.358 18.928C189.878 18.704 189.494 18.408 189.206 18.04C188.934 17.656 188.742 17.224 188.63 16.744C188.534 16.248 188.486 15.72 188.486 15.16V9.784H186.47ZM202.595 10.552C202.339 10.216 201.987 9.928 201.539 9.688C201.091 9.432 200.603 9.304 200.075 9.304C199.611 9.304 199.187 9.4 198.803 9.592C198.419 9.784 198.227 10.104 198.227 10.552C198.227 11 198.435 11.32 198.851 11.512C199.283 11.688 199.907 11.872 200.723 12.064C201.155 12.16 201.587 12.288 202.019 12.448C202.467 12.608 202.867 12.824 203.219 13.096C203.587 13.352 203.883 13.68 204.107 14.08C204.331 14.464 204.443 14.936 204.443 15.496C204.443 16.2 204.307 16.8 204.035 17.296C203.779 17.776 203.427 18.168 202.979 18.472C202.547 18.776 202.035 18.992 201.443 19.12C200.867 19.264 200.267 19.336 199.643 19.336C198.747 19.336 197.875 19.176 197.027 18.856C196.179 18.52 195.475 18.048 194.915 17.44L196.811 15.664C197.131 16.08 197.547 16.424 198.059 16.696C198.571 16.968 199.139 17.104 199.763 17.104C199.971 17.104 200.179 17.08 200.387 17.032C200.611 16.984 200.811 16.912 200.987 16.816C201.179 16.704 201.331 16.56 201.443 16.384C201.555 16.208 201.611 15.992 201.611 15.736C201.611 15.256 201.387 14.912 200.939 14.704C200.507 14.496 199.851 14.288 198.971 14.08C198.539 13.984 198.115 13.864 197.699 13.72C197.299 13.56 196.939 13.36 196.619 13.12C196.299 12.864 196.043 12.552 195.851 12.184C195.659 11.816 195.563 11.36 195.563 10.816C195.563 10.176 195.691 9.624 195.947 9.16C196.219 8.696 196.571 8.32 197.003 8.032C197.435 7.728 197.923 7.504 198.467 7.36C199.011 7.216 199.571 7.144 200.147 7.144C200.979 7.144 201.787 7.288 202.571 7.576C203.371 7.864 204.003 8.304 204.467 8.896L202.595 10.552Z" fill="#181818"/>
</svg>
