<svg width="34" height="29" viewBox="0 0 34 29" fill="none" xmlns="http://www.w3.org/2000/svg">
<path d="M10.9259 28.0542C23.1931 28.0542 29.9046 17.6241 29.9046 8.58189C29.9046 8.28867 29.8983 7.98894 29.8856 7.69572C31.1912 6.72698 32.3179 5.52705 33.2128 4.15233C31.9968 4.70739 30.7058 5.0699 29.3839 5.22747C30.7758 4.37142 31.818 3.02661 32.3173 1.44234C31.0078 2.23856 29.5758 2.80023 28.0826 3.10326C27.0765 2.00642 25.7462 1.28018 24.2975 1.03683C22.8488 0.793477 21.3623 1.04656 20.0678 1.75695C18.7733 2.46734 17.743 3.59548 17.1361 4.96693C16.5292 6.33839 16.3795 7.87678 16.7102 9.34426C14.0587 9.20774 11.4648 8.50105 9.09663 7.26999C6.72843 6.03893 4.63882 4.31099 2.96326 2.19819C2.11165 3.70465 1.85105 5.48729 2.23444 7.1838C2.61782 8.88031 3.61642 10.3634 5.02727 11.3316C3.96809 11.2971 2.93211 11.0045 2.00492 10.478V10.5627C2.00397 12.1437 2.53666 13.6761 3.51243 14.8997C4.4882 16.1232 5.84683 16.9622 7.35738 17.2742C6.37621 17.5496 5.34644 17.5898 4.34773 17.3915C4.77398 18.7511 5.6033 19.9402 6.71996 20.793C7.83661 21.6457 9.18488 22.1195 10.5766 22.1481C8.21387 24.0524 5.29521 25.0852 2.29071 25.0803C1.75788 25.0795 1.22558 25.046 0.696655 24.98C3.74891 26.9891 7.2995 28.0562 10.9259 28.0542Z" fill="black"/>
</svg>
