<svg width="116" height="23" viewBox="0 0 116 23" fill="none" xmlns="http://www.w3.org/2000/svg">
<path d="M0.144 0.0079999H3.456L6.744 12.488H6.792L10.536 0.0079999H13.656L17.328 12.488H17.376L20.736 0.0079999H23.952L18.984 17H16.056L12.072 4.256H12.024L8.04 17H5.112L0.144 0.0079999ZM33.0666 10.088C33.0666 9.72 33.0106 9.368 32.8986 9.032C32.8026 8.696 32.6426 8.4 32.4186 8.144C32.1946 7.888 31.9066 7.688 31.5546 7.544C31.2186 7.384 30.8186 7.304 30.3546 7.304C29.4906 7.304 28.7546 7.568 28.1466 8.096C27.5546 8.608 27.2266 9.272 27.1626 10.088H33.0666ZM35.9466 11.384C35.9466 11.512 35.9466 11.64 35.9466 11.768C35.9466 11.896 35.9386 12.024 35.9226 12.152H27.1626C27.1946 12.568 27.2986 12.952 27.4746 13.304C27.6666 13.64 27.9146 13.936 28.2186 14.192C28.5226 14.432 28.8666 14.624 29.2506 14.768C29.6346 14.912 30.0346 14.984 30.4506 14.984C31.1706 14.984 31.7786 14.856 32.2746 14.6C32.7706 14.328 33.1786 13.96 33.4986 13.496L35.4186 15.032C34.2826 16.568 32.6346 17.336 30.4746 17.336C29.5786 17.336 28.7546 17.2 28.0026 16.928C27.2506 16.64 26.5946 16.24 26.0346 15.728C25.4906 15.216 25.0586 14.592 24.7386 13.856C24.4346 13.104 24.2826 12.256 24.2826 11.312C24.2826 10.384 24.4346 9.544 24.7386 8.792C25.0586 8.024 25.4906 7.376 26.0346 6.848C26.5786 6.304 27.2186 5.888 27.9546 5.6C28.7066 5.296 29.5146 5.144 30.3786 5.144C31.1786 5.144 31.9146 5.28 32.5866 5.552C33.2746 5.808 33.8666 6.2 34.3626 6.728C34.8586 7.24 35.2426 7.888 35.5146 8.672C35.8026 9.44 35.9466 10.344 35.9466 11.384ZM52.8478 10.088C52.8478 9.72 52.7918 9.368 52.6798 9.032C52.5838 8.696 52.4238 8.4 52.1998 8.144C51.9758 7.888 51.6878 7.688 51.3358 7.544C50.9998 7.384 50.5998 7.304 50.1358 7.304C49.2718 7.304 48.5358 7.568 47.9278 8.096C47.3358 8.608 47.0078 9.272 46.9438 10.088H52.8478ZM55.7278 11.384C55.7278 11.512 55.7278 11.64 55.7278 11.768C55.7278 11.896 55.7198 12.024 55.7038 12.152H46.9438C46.9758 12.568 47.0798 12.952 47.2558 13.304C47.4478 13.64 47.6958 13.936 47.9998 14.192C48.3038 14.432 48.6478 14.624 49.0318 14.768C49.4158 14.912 49.8158 14.984 50.2318 14.984C50.9518 14.984 51.5598 14.856 52.0558 14.6C52.5518 14.328 52.9598 13.96 53.2798 13.496L55.1998 15.032C54.0638 16.568 52.4158 17.336 50.2558 17.336C49.3598 17.336 48.5358 17.2 47.7838 16.928C47.0318 16.64 46.3758 16.24 45.8158 15.728C45.2718 15.216 44.8398 14.592 44.5198 13.856C44.2158 13.104 44.0638 12.256 44.0638 11.312C44.0638 10.384 44.2158 9.544 44.5198 8.792C44.8398 8.024 45.2718 7.376 45.8158 6.848C46.3598 6.304 46.9998 5.888 47.7358 5.6C48.4878 5.296 49.2958 5.144 50.1598 5.144C50.9598 5.144 51.6958 5.28 52.3678 5.552C53.0558 5.808 53.6478 6.2 54.1438 6.728C54.6398 7.24 55.0238 7.888 55.2958 8.672C55.5838 9.44 55.7278 10.344 55.7278 11.384ZM61.2107 10.88L57.0587 5.48H60.5147L63.0107 9.056L65.5787 5.48H68.8907L64.7627 10.88L69.4667 17H65.9627L62.9627 12.8L59.9387 17H56.5307L61.2107 10.88ZM73.9333 5.48V7.088H74.0053C74.1493 6.864 74.3333 6.64 74.5573 6.416C74.7973 6.176 75.0853 5.968 75.4213 5.792C75.7573 5.6 76.1333 5.448 76.5493 5.336C76.9813 5.208 77.4613 5.144 77.9893 5.144C78.8053 5.144 79.5573 5.304 80.2453 5.624C80.9333 5.928 81.5253 6.352 82.0213 6.896C82.5173 7.44 82.9013 8.08 83.1733 8.816C83.4453 9.552 83.5813 10.344 83.5813 11.192C83.5813 12.04 83.4453 12.84 83.1733 13.592C82.9173 14.328 82.5413 14.976 82.0453 15.536C81.5653 16.08 80.9733 16.52 80.2693 16.856C79.5813 17.176 78.7973 17.336 77.9173 17.336C77.1013 17.336 76.3493 17.168 75.6613 16.832C74.9893 16.496 74.4693 16.04 74.1013 15.464H74.0533V22.76H71.1733V5.48H73.9333ZM80.6533 11.192C80.6533 10.744 80.5813 10.304 80.4373 9.872C80.3093 9.424 80.1093 9.024 79.8373 8.672C79.5653 8.32 79.2213 8.04 78.8053 7.832C78.3893 7.608 77.9013 7.496 77.3413 7.496C76.8133 7.496 76.3413 7.608 75.9253 7.832C75.5093 8.056 75.1493 8.344 74.8453 8.696C74.5573 9.048 74.3333 9.448 74.1733 9.896C74.0293 10.344 73.9573 10.792 73.9573 11.24C73.9573 11.688 74.0293 12.136 74.1733 12.584C74.3333 13.016 74.5573 13.408 74.8453 13.76C75.1493 14.112 75.5093 14.4 75.9253 14.624C76.3413 14.832 76.8133 14.936 77.3413 14.936C77.9013 14.936 78.3893 14.824 78.8053 14.6C79.2213 14.376 79.5653 14.088 79.8373 13.736C80.1093 13.384 80.3093 12.984 80.4373 12.536C80.5813 12.088 80.6533 11.64 80.6533 11.192ZM85.6888 11.192C85.6888 10.28 85.8488 9.456 86.1688 8.72C86.5048 7.968 86.9528 7.328 87.5128 6.8C88.0728 6.272 88.7368 5.864 89.5048 5.576C90.2728 5.288 91.0888 5.144 91.9528 5.144C92.8168 5.144 93.6328 5.288 94.4008 5.576C95.1688 5.864 95.8328 6.272 96.3928 6.8C96.9528 7.328 97.3928 7.968 97.7128 8.72C98.0488 9.456 98.2168 10.28 98.2168 11.192C98.2168 12.104 98.0488 12.936 97.7128 13.688C97.3928 14.44 96.9528 15.088 96.3928 15.632C95.8328 16.16 95.1688 16.576 94.4008 16.88C93.6328 17.184 92.8168 17.336 91.9528 17.336C91.0888 17.336 90.2728 17.184 89.5048 16.88C88.7368 16.576 88.0728 16.16 87.5128 15.632C86.9528 15.088 86.5048 14.44 86.1688 13.688C85.8488 12.936 85.6888 12.104 85.6888 11.192ZM88.6168 11.192C88.6168 11.64 88.6808 12.088 88.8088 12.536C88.9528 12.984 89.1608 13.384 89.4328 13.736C89.7048 14.088 90.0488 14.376 90.4648 14.6C90.8808 14.824 91.3768 14.936 91.9528 14.936C92.5288 14.936 93.0248 14.824 93.4408 14.6C93.8568 14.376 94.2008 14.088 94.4728 13.736C94.7448 13.384 94.9448 12.984 95.0728 12.536C95.2168 12.088 95.2888 11.64 95.2888 11.192C95.2888 10.744 95.2168 10.304 95.0728 9.872C94.9448 9.424 94.7448 9.024 94.4728 8.672C94.2008 8.32 93.8568 8.04 93.4408 7.832C93.0248 7.608 92.5288 7.496 91.9528 7.496C91.3768 7.496 90.8808 7.608 90.4648 7.832C90.0488 8.04 89.7048 8.32 89.4328 8.672C89.1608 9.024 88.9528 9.424 88.8088 9.872C88.6808 10.304 88.6168 10.744 88.6168 11.192ZM101.009 5.48H103.769V7.4H103.817C104.137 6.728 104.585 6.184 105.161 5.768C105.737 5.352 106.409 5.144 107.177 5.144C107.289 5.144 107.409 5.152 107.537 5.168C107.665 5.168 107.777 5.184 107.873 5.216V7.856C107.681 7.808 107.513 7.776 107.369 7.76C107.241 7.744 107.113 7.736 106.985 7.736C106.329 7.736 105.801 7.856 105.401 8.096C105.001 8.336 104.689 8.624 104.465 8.96C104.241 9.296 104.089 9.64 104.009 9.992C103.929 10.344 103.889 10.624 103.889 10.832V17H101.009V5.48ZM107.814 7.784V5.48H109.83V2.144H112.662V5.48H115.542V7.784H112.662V13.136C112.662 13.648 112.75 14.072 112.926 14.408C113.118 14.744 113.534 14.912 114.174 14.912C114.366 14.912 114.574 14.896 114.798 14.864C115.022 14.816 115.222 14.752 115.398 14.672L115.494 16.928C115.238 17.024 114.934 17.096 114.582 17.144C114.23 17.208 113.894 17.24 113.574 17.24C112.806 17.24 112.182 17.136 111.702 16.928C111.222 16.704 110.838 16.408 110.55 16.04C110.278 15.656 110.086 15.224 109.974 14.744C109.878 14.248 109.83 13.72 109.83 13.16V7.784H107.814Z" fill="black"/>
</svg>
