<svg width="45" height="45" viewBox="0 0 45 45" fill="none" xmlns="http://www.w3.org/2000/svg">
<circle cx="22.5" cy="22.5" r="22.5" fill="#C7C7C7"/>
<path d="M29.1565 12.1884C28.4582 11.954 27.7237 11.8503 26.9881 11.8503C25.3677 11.8386 23.7951 12.3749 22.4999 13.3646C22.395 13.2842 22.2667 13.2131 22.1501 13.1443C22.0336 13.0732 21.8237 12.8995 21.6489 12.8062L21.2059 12.608C20.9727 12.4798 20.7291 12.3865 20.4714 12.3038C20.4481 12.2816 20.4131 12.2571 20.3665 12.235H20.2977C19.6087 12.0007 18.8976 11.8724 18.1632 11.8503H18.0349C17.7085 11.8503 17.3833 11.8724 17.0557 11.9202H16.9158C16.566 11.9657 16.2175 12.0473 15.8794 12.1639C11.5299 13.5873 9.97938 18.3087 11.2967 22.4356C12.0428 24.5445 13.2447 26.4575 14.8069 28.0302C17.079 30.2218 19.5633 32.157 22.2317 33.8125L22.5349 34.0001L22.8263 33.8241C25.4854 32.157 27.9557 30.2218 30.2069 28.0418C31.7795 26.4692 32.9803 24.5445 33.7147 22.4356C35.0099 18.3087 33.4594 13.5873 29.1565 12.1884Z" fill="white"/>
</svg>
