<svg width="42" height="31" viewBox="0 0 42 31" fill="none" xmlns="http://www.w3.org/2000/svg">
<path d="M41.5825 6.9001C41.5825 6.9001 41.1733 3.93545 39.9127 2.63369C38.3165 0.92041 36.532 0.912012 35.7135 0.81123C29.8526 0.374511 21.0532 0.374512 21.0532 0.374512H21.0368C21.0368 0.374512 12.2373 0.374511 6.37647 0.81123C5.55792 0.912012 3.77346 0.92041 2.17728 2.63369C0.916707 3.93545 0.515615 6.9001 0.515615 6.9001C0.515615 6.9001 0.0899658 10.3855 0.0899658 13.8624V17.121C0.0899658 20.5979 0.507429 24.0833 0.507429 24.0833C0.507429 24.0833 0.916707 27.048 2.1691 28.3497C3.76528 30.063 5.86078 30.0042 6.79393 30.189C10.15 30.5165 21.045 30.6173 21.045 30.6173C21.045 30.6173 29.8526 30.6005 35.7135 30.1722C36.532 30.0714 38.3165 30.063 39.9127 28.3497C41.1733 27.048 41.5825 24.0833 41.5825 24.0833C41.5825 24.0833 42 20.6063 42 17.121V13.8624C42 10.3855 41.5825 6.9001 41.5825 6.9001ZM16.7148 21.0767V8.99131L28.0354 15.055L16.7148 21.0767Z" fill="black"/>
</svg>
